<svg width="1013" height="256" viewBox="0 0 1013 256" fill="none" xmlns="http://www.w3.org/2000/svg">
<g filter="url(#filter0_b_3195_4342)">
<path d="M62.976 30.8H46.368L28.896 50.192C25.632 53.936 22.944 57.2 21.504 59.216L21.216 59.12C21.408 56.528 21.6 52.88 21.6 49.04V30.8H8.448V98H21.6V78.608C21.6 74.768 21.408 71.12 21.216 68.624L21.504 68.432C22.848 70.544 25.536 73.616 28.512 76.976L48.192 98H65.856L33.408 63.44L62.976 30.8ZM138.791 98L109.415 30.8H95.1105L65.7345 98H79.8465L85.5105 84.848H118.631L124.295 98H138.791ZM97.7985 54.224C100.007 48.56 101.447 45.008 102.023 43.376H102.311C102.791 44.912 104.039 48.272 106.343 54.032L113.927 73.328H90.2145L97.7985 54.224ZM194.892 98V86.192H165.996C163.116 86.192 161.292 86.192 159.756 86.48L159.66 86.192C160.908 84.752 161.964 83.408 163.692 81.008L194.604 37.616V30.8H144.78V42.416H171.372C173.772 42.416 175.5 42.32 176.844 42.128L176.94 42.416C175.788 43.856 174.732 45.2 173.196 47.408L142.188 90.992V98H194.892ZM272.384 98L243.008 30.8H228.704L199.328 98H213.44L219.104 84.848H252.224L257.888 98H272.384ZM231.392 54.224C233.6 48.56 235.04 45.008 235.616 43.376H235.904C236.384 44.912 237.632 48.272 239.936 54.032L247.52 73.328H223.808L231.392 54.224ZM294.598 98V63.824C294.598 58.544 294.406 54.416 293.926 51.824L294.214 51.632C295.558 53.648 297.19 56.048 300.55 60.752L327.622 98H340.102V30.8H326.95V64.976C326.95 70.256 327.238 74.096 327.718 77.072L327.43 77.168C325.894 74.96 324.262 72.56 320.998 68.048L294.022 30.8H281.542V98H294.598ZM393.395 65.456L369.683 30.8H357.011V98H370.163V62.288C370.163 58.832 369.971 55.184 369.683 52.592L369.971 52.496C371.219 54.608 373.619 58.16 375.923 61.424L391.379 84.08H395.027L410.579 61.424C413.171 57.68 415.283 54.32 416.435 52.208L416.723 52.4C416.531 54.992 416.339 58.544 416.339 62.096V98H429.491V30.8H416.819L393.395 65.456ZM511.634 98L482.258 30.8H467.954L438.578 98H452.69L458.354 84.848H491.474L497.138 98H511.634ZM470.642 54.224C472.85 48.56 474.29 45.008 474.866 43.376H475.154C475.634 44.912 476.882 48.272 479.186 54.032L486.77 73.328H463.058L470.642 54.224ZM575.32 30.8H558.712L541.24 50.192C537.976 53.936 535.288 57.2 533.848 59.216L533.56 59.12C533.752 56.528 533.944 52.88 533.944 49.04V30.8H520.792V98H533.944V78.608C533.944 74.768 533.752 71.12 533.56 68.624L533.848 68.432C535.192 70.544 537.88 73.616 540.856 76.976L560.536 98H578.2L545.752 63.44L575.32 30.8ZM620.196 98V30.8H606.948V98H620.196ZM668.528 99.44C678.992 99.44 687.536 96.08 693.776 90.224L686.48 80.624C680.912 85.424 675.344 87.344 668.72 87.344C655.472 87.344 646.352 77.936 646.352 64.112C646.352 50.672 655.376 41.456 668.432 41.456C674.96 41.456 680.432 43.664 685.904 48.368L693.296 38.768C686.768 32.912 678.32 29.36 668.72 29.36C647.6 29.36 632.816 43.664 632.816 64.688C632.816 85.232 647.12 99.44 668.528 99.44ZM717.884 98V30.8H704.636V98H717.884ZM747.879 98V63.824C747.879 58.544 747.687 54.416 747.207 51.824L747.495 51.632C748.839 53.648 750.471 56.048 753.831 60.752L780.903 98H793.383V30.8H780.231V64.976C780.231 70.256 780.519 74.096 780.999 77.072L780.711 77.168C779.175 74.96 777.543 72.56 774.279 68.048L747.303 30.8H734.823V98H747.879Z" fill="white" fill-opacity="0.08"/>
<path d="M62.976 30.8L64.4582 32.1427L67.4864 28.8H62.976V30.8ZM46.368 30.8V28.8H45.4779L44.8821 29.4613L46.368 30.8ZM28.896 50.192L27.4101 48.8533L27.3992 48.8654L27.3885 48.8777L28.896 50.192ZM21.504 59.216L20.8715 61.1134L22.2729 61.5805L23.1315 60.3785L21.504 59.216ZM21.216 59.12L19.2215 58.9723L19.1064 60.525L20.5835 61.0174L21.216 59.12ZM21.6 30.8H23.6V28.8H21.6V30.8ZM8.448 30.8V28.8H6.448V30.8H8.448ZM8.448 98H6.448V100H8.448V98ZM21.6 98V100H23.6V98H21.6ZM21.216 68.624L20.1066 66.9599L19.1321 67.6096L19.2219 68.7774L21.216 68.624ZM21.504 68.432L23.1913 67.3582L22.0945 65.6346L20.3946 66.7679L21.504 68.432ZM28.512 76.976L27.0148 78.3021L27.0331 78.3227L27.0519 78.3428L28.512 76.976ZM48.192 98L46.7319 99.3668L47.3246 100H48.192V98ZM65.856 98V100H70.4771L67.3141 96.631L65.856 98ZM33.408 63.44L31.9258 62.0973L30.6874 63.4643L31.9499 64.809L33.408 63.44ZM62.976 28.8H46.368V32.8H62.976V28.8ZM44.8821 29.4613L27.4101 48.8533L30.3819 51.5307L47.8539 32.1387L44.8821 29.4613ZM27.3885 48.8777C24.1204 52.6264 21.3771 55.9527 19.8765 58.0535L23.1315 60.3785C24.5109 58.4473 27.1436 55.2456 30.4035 51.5063L27.3885 48.8777ZM22.1365 57.3186L21.8485 57.2226L20.5835 61.0174L20.8715 61.1134L22.1365 57.3186ZM23.2105 59.2677C23.4051 56.6407 23.6 52.9417 23.6 49.04H19.6C19.6 52.8183 19.4109 56.4153 19.2215 58.9723L23.2105 59.2677ZM23.6 49.04V30.8H19.6V49.04H23.6ZM21.6 28.8H8.448V32.8H21.6V28.8ZM6.448 30.8V98H10.448V30.8H6.448ZM8.448 100H21.6V96H8.448V100ZM23.6 98V78.608H19.6V98H23.6ZM23.6 78.608C23.6 74.7071 23.4052 71.0069 23.2101 68.4706L19.2219 68.7774C19.4108 71.2331 19.6 74.8289 19.6 78.608H23.6ZM22.3254 70.2881L22.6134 70.0961L20.3946 66.7679L20.1066 66.9599L22.3254 70.2881ZM19.8167 69.5057C21.2663 71.7837 24.0848 74.994 27.0148 78.3021L30.0092 75.6499C26.9872 72.238 24.4297 69.3043 23.1913 67.3582L19.8167 69.5057ZM27.0519 78.3428L46.7319 99.3668L49.6521 96.6332L29.9721 75.6092L27.0519 78.3428ZM48.192 100H65.856V96H48.192V100ZM67.3141 96.631L34.8661 62.071L31.9499 64.809L64.3979 99.369L67.3141 96.631ZM34.8902 64.7827L64.4582 32.1427L61.4938 29.4573L31.9258 62.0973L34.8902 64.7827ZM138.79 98V100H141.848L140.623 97.1989L138.79 98ZM109.415 30.8L111.247 29.9989L110.723 28.8H109.415V30.8ZM95.1105 30.8V28.8H93.802L93.2779 29.9989L95.1105 30.8ZM65.7345 98L63.9019 97.1989L62.6775 100H65.7345V98ZM79.8465 98V100H81.1628L81.6834 98.7911L79.8465 98ZM85.5105 84.848V82.848H84.1942L83.6736 84.0569L85.5105 84.848ZM118.631 84.848L120.467 84.0569L119.947 82.848H118.631V84.848ZM124.295 98L122.458 98.7911L122.978 100H124.295V98ZM97.7985 54.224L99.6574 54.962L99.6619 54.9504L97.7985 54.224ZM102.022 43.376V41.376H100.607L100.137 42.7104L102.022 43.376ZM102.311 43.376L104.219 42.7794L103.781 41.376H102.311V43.376ZM106.342 54.032L108.204 53.3004L108.199 53.2892L106.342 54.032ZM113.926 73.328V75.328H116.862L115.788 72.5964L113.926 73.328ZM90.2145 73.328L88.3556 72.59L87.2687 75.328H90.2145V73.328ZM140.623 97.1989L111.247 29.9989L107.582 31.6011L136.958 98.8011L140.623 97.1989ZM109.415 28.8H95.1105V32.8H109.415V28.8ZM93.2779 29.9989L63.9019 97.1989L67.5671 98.8011L96.9431 31.6011L93.2779 29.9989ZM65.7345 100H79.8465V96H65.7345V100ZM81.6834 98.7911L87.3474 85.6391L83.6736 84.0569L78.0096 97.2089L81.6834 98.7911ZM85.5105 86.848H118.631V82.848H85.5105V86.848ZM116.794 85.6391L122.458 98.7911L126.131 97.2089L120.467 84.0569L116.794 85.6391ZM124.295 100H138.79V96H124.295V100ZM99.6619 54.9504C101.848 49.3425 103.318 45.7137 103.908 44.0416L100.137 42.7104C99.5747 44.3023 98.1649 47.7775 95.9351 53.4976L99.6619 54.9504ZM102.022 45.376H102.311V41.376H102.022V45.376ZM100.402 43.9725C100.908 45.5939 102.185 49.0238 104.486 54.7748L108.199 53.2892C105.892 47.5202 104.673 44.2301 104.219 42.7794L100.402 43.9725ZM104.481 54.7636L112.065 74.0596L115.788 72.5964L108.204 53.3004L104.481 54.7636ZM113.926 71.328H90.2145V75.328H113.926V71.328ZM92.0734 74.0659L99.6574 54.9619L95.9396 53.486L88.3556 72.59L92.0734 74.0659ZM194.892 98V100H196.892V98H194.892ZM194.892 86.192H196.892V84.192H194.892V86.192ZM159.756 86.48L157.859 87.1125L158.41 88.7672L160.125 88.4457L159.756 86.48ZM159.66 86.192L158.149 84.8821L157.402 85.7433L157.763 86.8245L159.66 86.192ZM163.692 81.008L165.315 82.1766L165.321 82.1684L163.692 81.008ZM194.604 37.616L196.233 38.7764L196.604 38.2555V37.616H194.604ZM194.604 30.8H196.604V28.8H194.604V30.8ZM144.78 30.8V28.8H142.78V30.8H144.78ZM144.78 42.416H142.78V44.416H144.78V42.416ZM176.844 42.128L178.741 41.4955L178.214 39.912L176.561 40.1481L176.844 42.128ZM176.94 42.416L178.502 43.6654L179.181 42.8158L178.837 41.7835L176.94 42.416ZM173.196 47.408L174.826 48.5674L174.832 48.5588L174.838 48.5501L173.196 47.408ZM142.188 90.992L140.558 89.8326L140.188 90.3531V90.992H142.188ZM142.188 98H140.188V100H142.188V98ZM196.892 98V86.192H192.892V98H196.892ZM194.892 84.192H165.996V88.192H194.892V84.192ZM165.996 84.192C163.192 84.192 161.149 84.184 159.387 84.5143L160.125 88.4457C161.435 88.2 163.04 88.192 165.996 88.192V84.192ZM161.653 85.8475L161.557 85.5595L157.763 86.8245L157.859 87.1125L161.653 85.8475ZM161.171 87.5019C162.47 86.0035 163.564 84.609 165.315 82.1766L162.069 79.8394C160.364 82.207 159.346 83.5005 158.149 84.8821L161.171 87.5019ZM165.321 82.1684L196.233 38.7764L192.975 36.4556L162.063 79.8476L165.321 82.1684ZM196.604 37.616V30.8H192.604V37.616H196.604ZM194.604 28.8H144.78V32.8H194.604V28.8ZM142.78 30.8V42.416H146.78V30.8H142.78ZM144.78 44.416H171.372V40.416H144.78V44.416ZM171.372 44.416C173.814 44.416 175.648 44.3191 177.127 44.1079L176.561 40.1481C175.352 40.3209 173.73 40.416 171.372 40.416V44.416ZM174.947 42.7605L175.043 43.0485L178.837 41.7835L178.741 41.4955L174.947 42.7605ZM175.378 41.1666C174.211 42.6252 173.125 44.0074 171.554 46.2659L174.838 48.5501C176.339 46.3926 177.365 45.0868 178.502 43.6654L175.378 41.1666ZM171.566 46.2486L140.558 89.8326L143.818 92.1514L174.826 48.5674L171.566 46.2486ZM140.188 90.992V98H144.188V90.992H140.188ZM142.188 100H194.892V96H142.188V100ZM272.384 98V100H275.441L274.217 97.1989L272.384 98ZM243.008 30.8L244.841 29.9989L244.317 28.8H243.008V30.8ZM228.704 30.8V28.8H227.396L226.872 29.9989L228.704 30.8ZM199.328 98L197.496 97.1989L196.271 100H199.328V98ZM213.44 98V100H214.757L215.277 98.7911L213.44 98ZM219.104 84.848V82.848H217.788L217.267 84.0569L219.104 84.848ZM252.224 84.848L254.061 84.0569L253.541 82.848H252.224V84.848ZM257.888 98L256.051 98.7911L256.572 100H257.888V98ZM231.392 54.224L233.251 54.962L233.256 54.9504L231.392 54.224ZM235.616 43.376V41.376H234.201L233.73 42.7104L235.616 43.376ZM235.904 43.376L237.813 42.7794L237.375 41.376H235.904V43.376ZM239.936 54.032L241.798 53.3004L241.793 53.2892L239.936 54.032ZM247.52 73.328V75.328H250.455L249.382 72.5964L247.52 73.328ZM223.808 73.328L221.949 72.59L220.862 75.328H223.808V73.328ZM274.217 97.1989L244.841 29.9989L241.176 31.6011L270.552 98.8011L274.217 97.1989ZM243.008 28.8H228.704V32.8H243.008V28.8ZM226.872 29.9989L197.496 97.1989L201.161 98.8011L230.537 31.6011L226.872 29.9989ZM199.328 100H213.44V96H199.328V100ZM215.277 98.7911L220.941 85.6391L217.267 84.0569L211.603 97.2089L215.277 98.7911ZM219.104 86.848H252.224V82.848H219.104V86.848ZM250.387 85.6391L256.051 98.7911L259.725 97.2089L254.061 84.0569L250.387 85.6391ZM257.888 100H272.384V96H257.888V100ZM233.256 54.9504C235.442 49.3425 236.912 45.7137 237.502 44.0416L233.73 42.7104C233.168 44.3023 231.759 47.7775 229.529 53.4976L233.256 54.9504ZM235.616 45.376H235.904V41.376H235.616V45.376ZM233.995 43.9725C234.502 45.5939 235.779 49.0238 238.079 54.7748L241.793 53.2892C239.486 47.5202 238.267 44.2301 237.813 42.7794L233.995 43.9725ZM238.075 54.7636L245.659 74.0596L249.382 72.5964L241.798 53.3004L238.075 54.7636ZM247.52 71.328H223.808V75.328H247.52V71.328ZM225.667 74.0659L233.251 54.9619L229.533 53.486L221.949 72.59L225.667 74.0659ZM294.598 98V100H296.598V98H294.598ZM293.926 51.824L292.816 50.1599L291.719 50.8914L291.959 52.1882L293.926 51.824ZM294.214 51.632L295.878 50.5226L294.768 48.8585L293.104 49.9679L294.214 51.632ZM300.55 60.752L298.922 61.9145L298.927 61.9212L298.932 61.9278L300.55 60.752ZM327.622 98L326.004 99.1758L326.603 100H327.622V98ZM340.102 98V100H342.102V98H340.102ZM340.102 30.8H342.102V28.8H340.102V30.8ZM326.95 30.8V28.8H324.95V30.8H326.95ZM327.718 77.072L328.35 78.9694L329.963 78.4318L329.692 76.7535L327.718 77.072ZM327.43 77.168L325.788 78.3101L326.643 79.5386L328.062 79.0654L327.43 77.168ZM320.998 68.048L322.618 66.8758L322.618 66.8749L320.998 68.048ZM294.022 30.8L295.642 29.6269L295.043 28.8H294.022V30.8ZM281.542 30.8V28.8H279.542V30.8H281.542ZM281.542 98H279.542V100H281.542V98ZM296.598 98V63.824H292.598V98H296.598ZM296.598 63.824C296.598 58.5448 296.409 54.2513 295.892 51.4598L291.959 52.1882C292.402 54.5807 292.598 58.5432 292.598 63.824H296.598ZM295.035 53.4881L295.323 53.2961L293.104 49.9679L292.816 50.1599L295.035 53.4881ZM292.55 52.7414C293.907 54.7774 295.551 57.1952 298.922 61.9145L302.177 59.5895C298.828 54.9008 297.209 52.5186 295.878 50.5226L292.55 52.7414ZM298.932 61.9278L326.004 99.1758L329.24 96.8242L302.168 59.5762L298.932 61.9278ZM327.622 100H340.102V96H327.622V100ZM342.102 98V30.8H338.102V98H342.102ZM340.102 28.8H326.95V32.8H340.102V28.8ZM324.95 30.8V64.976H328.95V30.8H324.95ZM324.95 64.976C324.95 70.3226 325.241 74.2759 325.743 77.3905L329.692 76.7535C329.235 73.9161 328.95 70.1894 328.95 64.976H324.95ZM327.085 75.1746L326.797 75.2706L328.062 79.0654L328.35 78.9694L327.085 75.1746ZM329.072 76.0259C327.541 73.8263 325.896 71.4067 322.618 66.8758L319.377 69.2202C322.628 73.7133 324.246 76.0937 325.788 78.3101L329.072 76.0259ZM322.618 66.8749L295.642 29.6269L292.402 31.9731L319.378 69.2211L322.618 66.8749ZM294.022 28.8H281.542V32.8H294.022V28.8ZM279.542 30.8V98H283.542V30.8H279.542ZM281.542 100H294.598V96H281.542V100ZM393.395 65.456L391.744 66.5854L393.405 69.0126L395.052 66.576L393.395 65.456ZM369.682 30.8L371.333 29.6706L370.737 28.8H369.682V30.8ZM357.01 30.8V28.8H355.01V30.8H357.01ZM357.01 98H355.01V100H357.01V98ZM370.163 98V100H372.163V98H370.163ZM369.682 52.592L369.05 50.6946L367.516 51.2059L367.695 52.8129L369.682 52.592ZM369.97 52.496L371.692 51.4785L370.871 50.0878L369.338 50.5986L369.97 52.496ZM375.923 61.424L377.575 60.2969L377.566 60.2837L377.556 60.2706L375.923 61.424ZM391.379 84.08L389.726 85.2071L390.322 86.08H391.379V84.08ZM395.026 84.08V86.08H396.079L396.675 85.2119L395.026 84.08ZM410.578 61.424L408.934 60.2856L408.93 60.2921L410.578 61.424ZM416.435 52.208L417.544 50.5439L415.725 49.3315L414.679 51.2503L416.435 52.208ZM416.723 52.4L418.717 52.5477L418.803 51.3835L417.832 50.7359L416.723 52.4ZM416.339 98H414.339V100H416.339V98ZM429.491 98V100H431.491V98H429.491ZM429.491 30.8H431.491V28.8H429.491V30.8ZM416.819 30.8V28.8H415.756L415.161 29.68L416.819 30.8ZM395.045 64.3266L371.333 29.6706L368.032 31.9294L391.744 66.5854L395.045 64.3266ZM369.682 28.8H357.01V32.8H369.682V28.8ZM355.01 30.8V98H359.01V30.8H355.01ZM357.01 100H370.163V96H357.01V100ZM372.163 98V62.288H368.163V98H372.163ZM372.163 62.288C372.163 58.7722 371.968 55.0492 371.67 52.3711L367.695 52.8129C367.973 55.3188 368.163 58.8918 368.163 62.288H372.163ZM370.315 54.4894L370.603 54.3934L369.338 50.5986L369.05 50.6946L370.315 54.4894ZM368.249 53.5135C369.541 55.7009 371.982 59.3098 374.289 62.5774L377.556 60.2706C375.255 57.0102 372.896 53.5151 371.692 51.4785L368.249 53.5135ZM374.27 62.5511L389.726 85.2071L393.031 82.9529L377.575 60.2969L374.27 62.5511ZM391.379 86.08H395.026V82.08H391.379V86.08ZM396.675 85.2119L412.227 62.5559L408.93 60.2921L393.378 82.9481L396.675 85.2119ZM412.223 62.5624C414.834 58.7903 416.99 55.3654 418.19 53.1657L414.679 51.2503C413.575 53.2746 411.507 56.5697 408.934 60.2856L412.223 62.5624ZM415.325 53.8721L415.613 54.0641L417.832 50.7359L417.544 50.5439L415.325 53.8721ZM414.728 52.2523C414.534 54.8747 414.339 58.4789 414.339 62.096H418.339C418.339 58.6091 418.527 55.1093 418.717 52.5477L414.728 52.2523ZM414.339 62.096V98H418.339V62.096H414.339ZM416.339 100H429.491V96H416.339V100ZM431.491 98V30.8H427.491V98H431.491ZM429.491 28.8H416.819V32.8H429.491V28.8ZM415.161 29.68L391.737 64.336L395.052 66.576L418.475 31.92L415.161 29.68ZM511.634 98V100H514.691L513.467 97.1989L511.634 98ZM482.258 30.8L484.091 29.9989L483.567 28.8H482.258V30.8ZM467.954 30.8V28.8H466.646L466.122 29.9989L467.954 30.8ZM438.578 98L436.746 97.1989L435.521 100H438.578V98ZM452.69 98V100H454.007L454.527 98.7911L452.69 98ZM458.354 84.848V82.848H457.038L456.517 84.0569L458.354 84.848ZM491.474 84.848L493.311 84.0569L492.791 82.848H491.474V84.848ZM497.138 98L495.301 98.7911L495.822 100H497.138V98ZM470.642 54.224L472.501 54.962L472.506 54.9504L470.642 54.224ZM474.866 43.376V41.376H473.451L472.98 42.7104L474.866 43.376ZM475.154 43.376L477.063 42.7794L476.625 41.376H475.154V43.376ZM479.186 54.032L481.048 53.3004L481.043 53.2892L479.186 54.032ZM486.77 73.328V75.328H489.705L488.632 72.5964L486.77 73.328ZM463.058 73.328L461.199 72.59L460.112 75.328H463.058V73.328ZM513.467 97.1989L484.091 29.9989L480.426 31.6011L509.802 98.8011L513.467 97.1989ZM482.258 28.8H467.954V32.8H482.258V28.8ZM466.122 29.9989L436.746 97.1989L440.411 98.8011L469.787 31.6011L466.122 29.9989ZM438.578 100H452.69V96H438.578V100ZM454.527 98.7911L460.191 85.6391L456.517 84.0569L450.853 97.2089L454.527 98.7911ZM458.354 86.848H491.474V82.848H458.354V86.848ZM489.637 85.6391L495.301 98.7911L498.975 97.2089L493.311 84.0569L489.637 85.6391ZM497.138 100H511.634V96H497.138V100ZM472.506 54.9504C474.692 49.3425 476.162 45.7137 476.752 44.0416L472.98 42.7104C472.418 44.3023 471.009 47.7775 468.779 53.4976L472.506 54.9504ZM474.866 45.376H475.154V41.376H474.866V45.376ZM473.245 43.9725C473.752 45.5939 475.029 49.0238 477.329 54.7748L481.043 53.2892C478.736 47.5202 477.517 44.2301 477.063 42.7794L473.245 43.9725ZM477.325 54.7636L484.909 74.0596L488.632 72.5964L481.048 53.3004L477.325 54.7636ZM486.77 71.328H463.058V75.328H486.77V71.328ZM464.917 74.0659L472.501 54.9619L468.783 53.486L461.199 72.59L464.917 74.0659ZM575.32 30.8L576.802 32.1427L579.83 28.8H575.32V30.8ZM558.712 30.8V28.8H557.822L557.226 29.4613L558.712 30.8ZM541.24 50.192L539.754 48.8533L539.743 48.8654L539.732 48.8777L541.24 50.192ZM533.848 59.216L533.215 61.1134L534.617 61.5805L535.475 60.3785L533.848 59.216ZM533.56 59.12L531.565 58.9723L531.45 60.525L532.927 61.0174L533.56 59.12ZM533.944 30.8H535.944V28.8H533.944V30.8ZM520.792 30.8V28.8H518.792V30.8H520.792ZM520.792 98H518.792V100H520.792V98ZM533.944 98V100H535.944V98H533.944ZM533.56 68.624L532.45 66.9599L531.476 67.6096L531.566 68.7774L533.56 68.624ZM533.848 68.432L535.535 67.3582L534.438 65.6346L532.738 66.7679L533.848 68.432ZM540.856 76.976L539.359 78.3021L539.377 78.3227L539.396 78.3428L540.856 76.976ZM560.536 98L559.076 99.3668L559.668 100H560.536V98ZM578.2 98V100H582.821L579.658 96.631L578.2 98ZM545.752 63.44L544.27 62.0973L543.031 63.4643L544.294 64.809L545.752 63.44ZM575.32 28.8H558.712V32.8H575.32V28.8ZM557.226 29.4613L539.754 48.8533L542.726 51.5307L560.198 32.1387L557.226 29.4613ZM539.732 48.8777C536.464 52.6264 533.721 55.9527 532.22 58.0535L535.475 60.3785C536.855 58.4473 539.487 55.2456 542.747 51.5063L539.732 48.8777ZM534.48 57.3186L534.192 57.2226L532.927 61.0174L533.215 61.1134L534.48 57.3186ZM535.554 59.2677C535.749 56.6407 535.944 52.9417 535.944 49.04H531.944C531.944 52.8183 531.755 56.4153 531.565 58.9723L535.554 59.2677ZM535.944 49.04V30.8H531.944V49.04H535.944ZM533.944 28.8H520.792V32.8H533.944V28.8ZM518.792 30.8V98H522.792V30.8H518.792ZM520.792 100H533.944V96H520.792V100ZM535.944 98V78.608H531.944V98H535.944ZM535.944 78.608C535.944 74.7071 535.749 71.0069 535.554 68.4706L531.566 68.7774C531.755 71.2331 531.944 74.8289 531.944 78.608H535.944ZM534.669 70.2881L534.957 70.0961L532.738 66.7679L532.45 66.9599L534.669 70.2881ZM532.16 69.5057C533.61 71.7837 536.429 74.994 539.359 78.3021L542.353 75.6499C539.331 72.238 536.773 69.3043 535.535 67.3582L532.16 69.5057ZM539.396 78.3428L559.076 99.3668L561.996 96.6332L542.316 75.6092L539.396 78.3428ZM560.536 100H578.2V96H560.536V100ZM579.658 96.631L547.21 62.071L544.294 64.809L576.742 99.369L579.658 96.631ZM547.234 64.7827L576.802 32.1427L573.838 29.4573L544.27 62.0973L547.234 64.7827ZM620.196 98V100H622.196V98H620.196ZM620.196 30.8H622.196V28.8H620.196V30.8ZM606.948 30.8V28.8H604.948V30.8H606.948ZM606.948 98H604.948V100H606.948V98ZM622.196 98V30.8H618.196V98H622.196ZM620.196 28.8H606.948V32.8H620.196V28.8ZM604.948 30.8V98H608.948V30.8H604.948ZM606.948 100H620.196V96H606.948V100ZM693.776 90.224L695.144 91.6824L696.458 90.4489L695.368 89.0138L693.776 90.224ZM686.479 80.624L688.072 79.4138L686.785 77.7203L685.174 79.1092L686.479 80.624ZM685.904 48.368L684.6 49.8846L686.2 51.2606L687.488 49.5882L685.904 48.368ZM693.296 38.768L694.88 39.9882L696.012 38.5181L694.631 37.2792L693.296 38.768ZM668.528 101.44C679.44 101.44 688.492 97.9256 695.144 91.6824L692.407 88.7656C686.58 94.2344 678.544 97.44 668.528 97.44V101.44ZM695.368 89.0138L688.072 79.4138L684.887 81.8342L692.183 91.4342L695.368 89.0138ZM685.174 79.1092C679.971 83.5943 674.867 85.344 668.719 85.344V89.344C675.82 89.344 681.852 87.2537 687.785 82.1388L685.174 79.1092ZM668.719 85.344C662.586 85.344 657.531 83.1765 654.007 79.5234C650.477 75.8649 648.352 70.5778 648.352 64.112H644.352C644.352 71.4702 646.786 77.7991 651.128 82.3006C655.476 86.8075 661.605 89.344 668.719 89.344V85.344ZM648.352 64.112C648.352 57.8479 650.447 52.7065 653.927 49.1409C657.403 45.5788 662.389 43.456 668.432 43.456V39.456C661.418 39.456 655.364 41.9412 651.064 46.3471C646.768 50.7495 644.352 56.9361 644.352 64.112H648.352ZM668.432 43.456C674.417 43.456 679.439 45.4479 684.6 49.8846L687.207 46.8514C681.424 41.8801 675.502 39.456 668.432 39.456V43.456ZM687.488 49.5882L694.88 39.9882L691.711 37.5478L684.319 47.1478L687.488 49.5882ZM694.631 37.2792C687.754 31.1102 678.836 27.36 668.719 27.36V31.36C677.803 31.36 685.781 34.7138 691.96 40.2568L694.631 37.2792ZM668.719 27.36C657.7 27.36 648.201 31.0989 641.448 37.711C634.692 44.3269 630.815 53.6916 630.815 64.688H634.815C634.815 54.6604 638.331 46.361 644.247 40.569C650.166 34.7731 658.619 31.36 668.719 31.36V27.36ZM630.815 64.688C630.815 75.4381 634.567 84.6612 641.244 91.1972C647.919 97.7307 657.373 101.44 668.528 101.44V97.44C658.274 97.44 649.872 94.0453 644.043 88.3388C638.216 82.6348 634.815 74.4819 634.815 64.688H630.815ZM717.883 98V100H719.883V98H717.883ZM717.883 30.8H719.883V28.8H717.883V30.8ZM704.635 30.8V28.8H702.635V30.8H704.635ZM704.635 98H702.635V100H704.635V98ZM719.883 98V30.8H715.883V98H719.883ZM717.883 28.8H704.635V32.8H717.883V28.8ZM702.635 30.8V98H706.635V30.8H702.635ZM704.635 100H717.883V96H704.635V100ZM747.879 98V100H749.879V98H747.879ZM747.207 51.824L746.098 50.1599L745 50.8914L745.24 52.1882L747.207 51.824ZM747.495 51.632L749.159 50.5226L748.05 48.8585L746.386 49.9679L747.495 51.632ZM753.831 60.752L752.204 61.9145L752.208 61.9212L752.213 61.9278L753.831 60.752ZM780.903 98L779.285 99.1758L779.884 100H780.903V98ZM793.383 98V100H795.383V98H793.383ZM793.383 30.8H795.383V28.8H793.383V30.8ZM780.231 30.8V28.8H778.231V30.8H780.231ZM780.999 77.072L781.631 78.9694L783.244 78.4318L782.974 76.7535L780.999 77.072ZM780.711 77.168L779.069 78.3101L779.924 79.5386L781.343 79.0654L780.711 77.168ZM774.279 68.048L775.899 66.8758L775.899 66.8749L774.279 68.048ZM747.303 30.8L748.923 29.6269L748.324 28.8H747.303V30.8ZM734.823 30.8V28.8H732.823V30.8H734.823ZM734.823 98H732.823V100H734.823V98ZM749.879 98V63.824H745.879V98H749.879ZM749.879 63.824C749.879 58.5448 749.69 54.2513 749.174 51.4598L745.24 52.1882C745.683 54.5807 745.879 58.5432 745.879 63.824H749.879ZM748.316 53.4881L748.604 53.2961L746.386 49.9679L746.098 50.1599L748.316 53.4881ZM745.831 52.7414C747.188 54.7774 748.833 57.1952 752.204 61.9145L755.458 59.5895C752.109 54.9008 750.49 52.5186 749.159 50.5226L745.831 52.7414ZM752.213 61.9278L779.285 99.1758L782.521 96.8242L755.449 59.5762L752.213 61.9278ZM780.903 100H793.383V96H780.903V100ZM795.383 98V30.8H791.383V98H795.383ZM793.383 28.8H780.231V32.8H793.383V28.8ZM778.231 30.8V64.976H782.231V30.8H778.231ZM778.231 64.976C778.231 70.3226 778.522 74.2759 779.025 77.3905L782.974 76.7535C782.516 73.9161 782.231 70.1894 782.231 64.976H778.231ZM780.367 75.1746L780.079 75.2706L781.343 79.0654L781.631 78.9694L780.367 75.1746ZM782.353 76.0259C780.823 73.8263 779.177 71.4067 775.899 66.8758L772.659 69.2202C775.909 73.7133 777.527 76.0937 779.069 78.3101L782.353 76.0259ZM775.899 66.8749L748.923 29.6269L745.683 31.9731L772.659 69.2211L775.899 66.8749ZM747.303 28.8H734.823V32.8H747.303V28.8ZM732.823 30.8V98H736.823V30.8H732.823ZM734.823 100H747.879V96H734.823V100Z" fill="url(#paint0_linear_3195_4342)" fill-opacity="0.5"/>
<path d="M62.976 30.8L64.4582 32.1427L67.4864 28.8H62.976V30.8ZM46.368 30.8V28.8H45.4779L44.8821 29.4613L46.368 30.8ZM28.896 50.192L27.4101 48.8533L27.3992 48.8654L27.3885 48.8777L28.896 50.192ZM21.504 59.216L20.8715 61.1134L22.2729 61.5805L23.1315 60.3785L21.504 59.216ZM21.216 59.12L19.2215 58.9723L19.1064 60.525L20.5835 61.0174L21.216 59.12ZM21.6 30.8H23.6V28.8H21.6V30.8ZM8.448 30.8V28.8H6.448V30.8H8.448ZM8.448 98H6.448V100H8.448V98ZM21.6 98V100H23.6V98H21.6ZM21.216 68.624L20.1066 66.9599L19.1321 67.6096L19.2219 68.7774L21.216 68.624ZM21.504 68.432L23.1913 67.3582L22.0945 65.6346L20.3946 66.7679L21.504 68.432ZM28.512 76.976L27.0148 78.3021L27.0331 78.3227L27.0519 78.3428L28.512 76.976ZM48.192 98L46.7319 99.3668L47.3246 100H48.192V98ZM65.856 98V100H70.4771L67.3141 96.631L65.856 98ZM33.408 63.44L31.9258 62.0973L30.6874 63.4643L31.9499 64.809L33.408 63.44ZM62.976 28.8H46.368V32.8H62.976V28.8ZM44.8821 29.4613L27.4101 48.8533L30.3819 51.5307L47.8539 32.1387L44.8821 29.4613ZM27.3885 48.8777C24.1204 52.6264 21.3771 55.9527 19.8765 58.0535L23.1315 60.3785C24.5109 58.4473 27.1436 55.2456 30.4035 51.5063L27.3885 48.8777ZM22.1365 57.3186L21.8485 57.2226L20.5835 61.0174L20.8715 61.1134L22.1365 57.3186ZM23.2105 59.2677C23.4051 56.6407 23.6 52.9417 23.6 49.04H19.6C19.6 52.8183 19.4109 56.4153 19.2215 58.9723L23.2105 59.2677ZM23.6 49.04V30.8H19.6V49.04H23.6ZM21.6 28.8H8.448V32.8H21.6V28.8ZM6.448 30.8V98H10.448V30.8H6.448ZM8.448 100H21.6V96H8.448V100ZM23.6 98V78.608H19.6V98H23.6ZM23.6 78.608C23.6 74.7071 23.4052 71.0069 23.2101 68.4706L19.2219 68.7774C19.4108 71.2331 19.6 74.8289 19.6 78.608H23.6ZM22.3254 70.2881L22.6134 70.0961L20.3946 66.7679L20.1066 66.9599L22.3254 70.2881ZM19.8167 69.5057C21.2663 71.7837 24.0848 74.994 27.0148 78.3021L30.0092 75.6499C26.9872 72.238 24.4297 69.3043 23.1913 67.3582L19.8167 69.5057ZM27.0519 78.3428L46.7319 99.3668L49.6521 96.6332L29.9721 75.6092L27.0519 78.3428ZM48.192 100H65.856V96H48.192V100ZM67.3141 96.631L34.8661 62.071L31.9499 64.809L64.3979 99.369L67.3141 96.631ZM34.8902 64.7827L64.4582 32.1427L61.4938 29.4573L31.9258 62.0973L34.8902 64.7827ZM138.79 98V100H141.848L140.623 97.1989L138.79 98ZM109.415 30.8L111.247 29.9989L110.723 28.8H109.415V30.8ZM95.1105 30.8V28.8H93.802L93.2779 29.9989L95.1105 30.8ZM65.7345 98L63.9019 97.1989L62.6775 100H65.7345V98ZM79.8465 98V100H81.1628L81.6834 98.7911L79.8465 98ZM85.5105 84.848V82.848H84.1942L83.6736 84.0569L85.5105 84.848ZM118.631 84.848L120.467 84.0569L119.947 82.848H118.631V84.848ZM124.295 98L122.458 98.7911L122.978 100H124.295V98ZM97.7985 54.224L99.6574 54.962L99.6619 54.9504L97.7985 54.224ZM102.022 43.376V41.376H100.607L100.137 42.7104L102.022 43.376ZM102.311 43.376L104.219 42.7794L103.781 41.376H102.311V43.376ZM106.342 54.032L108.204 53.3004L108.199 53.2892L106.342 54.032ZM113.926 73.328V75.328H116.862L115.788 72.5964L113.926 73.328ZM90.2145 73.328L88.3556 72.59L87.2687 75.328H90.2145V73.328ZM140.623 97.1989L111.247 29.9989L107.582 31.6011L136.958 98.8011L140.623 97.1989ZM109.415 28.8H95.1105V32.8H109.415V28.8ZM93.2779 29.9989L63.9019 97.1989L67.5671 98.8011L96.9431 31.6011L93.2779 29.9989ZM65.7345 100H79.8465V96H65.7345V100ZM81.6834 98.7911L87.3474 85.6391L83.6736 84.0569L78.0096 97.2089L81.6834 98.7911ZM85.5105 86.848H118.631V82.848H85.5105V86.848ZM116.794 85.6391L122.458 98.7911L126.131 97.2089L120.467 84.0569L116.794 85.6391ZM124.295 100H138.79V96H124.295V100ZM99.6619 54.9504C101.848 49.3425 103.318 45.7137 103.908 44.0416L100.137 42.7104C99.5747 44.3023 98.1649 47.7775 95.9351 53.4976L99.6619 54.9504ZM102.022 45.376H102.311V41.376H102.022V45.376ZM100.402 43.9725C100.908 45.5939 102.185 49.0238 104.486 54.7748L108.199 53.2892C105.892 47.5202 104.673 44.2301 104.219 42.7794L100.402 43.9725ZM104.481 54.7636L112.065 74.0596L115.788 72.5964L108.204 53.3004L104.481 54.7636ZM113.926 71.328H90.2145V75.328H113.926V71.328ZM92.0734 74.0659L99.6574 54.9619L95.9396 53.486L88.3556 72.59L92.0734 74.0659ZM194.892 98V100H196.892V98H194.892ZM194.892 86.192H196.892V84.192H194.892V86.192ZM159.756 86.48L157.859 87.1125L158.41 88.7672L160.125 88.4457L159.756 86.48ZM159.66 86.192L158.149 84.8821L157.402 85.7433L157.763 86.8245L159.66 86.192ZM163.692 81.008L165.315 82.1766L165.321 82.1684L163.692 81.008ZM194.604 37.616L196.233 38.7764L196.604 38.2555V37.616H194.604ZM194.604 30.8H196.604V28.8H194.604V30.8ZM144.78 30.8V28.8H142.78V30.8H144.78ZM144.78 42.416H142.78V44.416H144.78V42.416ZM176.844 42.128L178.741 41.4955L178.214 39.912L176.561 40.1481L176.844 42.128ZM176.94 42.416L178.502 43.6654L179.181 42.8158L178.837 41.7835L176.94 42.416ZM173.196 47.408L174.826 48.5674L174.832 48.5588L174.838 48.5501L173.196 47.408ZM142.188 90.992L140.558 89.8326L140.188 90.3531V90.992H142.188ZM142.188 98H140.188V100H142.188V98ZM196.892 98V86.192H192.892V98H196.892ZM194.892 84.192H165.996V88.192H194.892V84.192ZM165.996 84.192C163.192 84.192 161.149 84.184 159.387 84.5143L160.125 88.4457C161.435 88.2 163.04 88.192 165.996 88.192V84.192ZM161.653 85.8475L161.557 85.5595L157.763 86.8245L157.859 87.1125L161.653 85.8475ZM161.171 87.5019C162.47 86.0035 163.564 84.609 165.315 82.1766L162.069 79.8394C160.364 82.207 159.346 83.5005 158.149 84.8821L161.171 87.5019ZM165.321 82.1684L196.233 38.7764L192.975 36.4556L162.063 79.8476L165.321 82.1684ZM196.604 37.616V30.8H192.604V37.616H196.604ZM194.604 28.8H144.78V32.8H194.604V28.8ZM142.78 30.8V42.416H146.78V30.8H142.78ZM144.78 44.416H171.372V40.416H144.78V44.416ZM171.372 44.416C173.814 44.416 175.648 44.3191 177.127 44.1079L176.561 40.1481C175.352 40.3209 173.73 40.416 171.372 40.416V44.416ZM174.947 42.7605L175.043 43.0485L178.837 41.7835L178.741 41.4955L174.947 42.7605ZM175.378 41.1666C174.211 42.6252 173.125 44.0074 171.554 46.2659L174.838 48.5501C176.339 46.3926 177.365 45.0868 178.502 43.6654L175.378 41.1666ZM171.566 46.2486L140.558 89.8326L143.818 92.1514L174.826 48.5674L171.566 46.2486ZM140.188 90.992V98H144.188V90.992H140.188ZM142.188 100H194.892V96H142.188V100ZM272.384 98V100H275.441L274.217 97.1989L272.384 98ZM243.008 30.8L244.841 29.9989L244.317 28.8H243.008V30.8ZM228.704 30.8V28.8H227.396L226.872 29.9989L228.704 30.8ZM199.328 98L197.496 97.1989L196.271 100H199.328V98ZM213.44 98V100H214.757L215.277 98.7911L213.44 98ZM219.104 84.848V82.848H217.788L217.267 84.0569L219.104 84.848ZM252.224 84.848L254.061 84.0569L253.541 82.848H252.224V84.848ZM257.888 98L256.051 98.7911L256.572 100H257.888V98ZM231.392 54.224L233.251 54.962L233.256 54.9504L231.392 54.224ZM235.616 43.376V41.376H234.201L233.73 42.7104L235.616 43.376ZM235.904 43.376L237.813 42.7794L237.375 41.376H235.904V43.376ZM239.936 54.032L241.798 53.3004L241.793 53.2892L239.936 54.032ZM247.52 73.328V75.328H250.455L249.382 72.5964L247.52 73.328ZM223.808 73.328L221.949 72.59L220.862 75.328H223.808V73.328ZM274.217 97.1989L244.841 29.9989L241.176 31.6011L270.552 98.8011L274.217 97.1989ZM243.008 28.8H228.704V32.8H243.008V28.8ZM226.872 29.9989L197.496 97.1989L201.161 98.8011L230.537 31.6011L226.872 29.9989ZM199.328 100H213.44V96H199.328V100ZM215.277 98.7911L220.941 85.6391L217.267 84.0569L211.603 97.2089L215.277 98.7911ZM219.104 86.848H252.224V82.848H219.104V86.848ZM250.387 85.6391L256.051 98.7911L259.725 97.2089L254.061 84.0569L250.387 85.6391ZM257.888 100H272.384V96H257.888V100ZM233.256 54.9504C235.442 49.3425 236.912 45.7137 237.502 44.0416L233.73 42.7104C233.168 44.3023 231.759 47.7775 229.529 53.4976L233.256 54.9504ZM235.616 45.376H235.904V41.376H235.616V45.376ZM233.995 43.9725C234.502 45.5939 235.779 49.0238 238.079 54.7748L241.793 53.2892C239.486 47.5202 238.267 44.2301 237.813 42.7794L233.995 43.9725ZM238.075 54.7636L245.659 74.0596L249.382 72.5964L241.798 53.3004L238.075 54.7636ZM247.52 71.328H223.808V75.328H247.52V71.328ZM225.667 74.0659L233.251 54.9619L229.533 53.486L221.949 72.59L225.667 74.0659ZM294.598 98V100H296.598V98H294.598ZM293.926 51.824L292.816 50.1599L291.719 50.8914L291.959 52.1882L293.926 51.824ZM294.214 51.632L295.878 50.5226L294.768 48.8585L293.104 49.9679L294.214 51.632ZM300.55 60.752L298.922 61.9145L298.927 61.9212L298.932 61.9278L300.55 60.752ZM327.622 98L326.004 99.1758L326.603 100H327.622V98ZM340.102 98V100H342.102V98H340.102ZM340.102 30.8H342.102V28.8H340.102V30.8ZM326.95 30.8V28.8H324.95V30.8H326.95ZM327.718 77.072L328.35 78.9694L329.963 78.4318L329.692 76.7535L327.718 77.072ZM327.43 77.168L325.788 78.3101L326.643 79.5386L328.062 79.0654L327.43 77.168ZM320.998 68.048L322.618 66.8758L322.618 66.8749L320.998 68.048ZM294.022 30.8L295.642 29.6269L295.043 28.8H294.022V30.8ZM281.542 30.8V28.8H279.542V30.8H281.542ZM281.542 98H279.542V100H281.542V98ZM296.598 98V63.824H292.598V98H296.598ZM296.598 63.824C296.598 58.5448 296.409 54.2513 295.892 51.4598L291.959 52.1882C292.402 54.5807 292.598 58.5432 292.598 63.824H296.598ZM295.035 53.4881L295.323 53.2961L293.104 49.9679L292.816 50.1599L295.035 53.4881ZM292.55 52.7414C293.907 54.7774 295.551 57.1952 298.922 61.9145L302.177 59.5895C298.828 54.9008 297.209 52.5186 295.878 50.5226L292.55 52.7414ZM298.932 61.9278L326.004 99.1758L329.24 96.8242L302.168 59.5762L298.932 61.9278ZM327.622 100H340.102V96H327.622V100ZM342.102 98V30.8H338.102V98H342.102ZM340.102 28.8H326.95V32.8H340.102V28.8ZM324.95 30.8V64.976H328.95V30.8H324.95ZM324.95 64.976C324.95 70.3226 325.241 74.2759 325.743 77.3905L329.692 76.7535C329.235 73.9161 328.95 70.1894 328.95 64.976H324.95ZM327.085 75.1746L326.797 75.2706L328.062 79.0654L328.35 78.9694L327.085 75.1746ZM329.072 76.0259C327.541 73.8263 325.896 71.4067 322.618 66.8758L319.377 69.2202C322.628 73.7133 324.246 76.0937 325.788 78.3101L329.072 76.0259ZM322.618 66.8749L295.642 29.6269L292.402 31.9731L319.378 69.2211L322.618 66.8749ZM294.022 28.8H281.542V32.8H294.022V28.8ZM279.542 30.8V98H283.542V30.8H279.542ZM281.542 100H294.598V96H281.542V100ZM393.395 65.456L391.744 66.5854L393.405 69.0126L395.052 66.576L393.395 65.456ZM369.682 30.8L371.333 29.6706L370.737 28.8H369.682V30.8ZM357.01 30.8V28.8H355.01V30.8H357.01ZM357.01 98H355.01V100H357.01V98ZM370.163 98V100H372.163V98H370.163ZM369.682 52.592L369.05 50.6946L367.516 51.2059L367.695 52.8129L369.682 52.592ZM369.97 52.496L371.692 51.4785L370.871 50.0878L369.338 50.5986L369.97 52.496ZM375.923 61.424L377.575 60.2969L377.566 60.2837L377.556 60.2706L375.923 61.424ZM391.379 84.08L389.726 85.2071L390.322 86.08H391.379V84.08ZM395.026 84.08V86.08H396.079L396.675 85.2119L395.026 84.08ZM410.578 61.424L408.934 60.2856L408.93 60.2921L410.578 61.424ZM416.435 52.208L417.544 50.5439L415.725 49.3315L414.679 51.2503L416.435 52.208ZM416.723 52.4L418.717 52.5477L418.803 51.3835L417.832 50.7359L416.723 52.4ZM416.339 98H414.339V100H416.339V98ZM429.491 98V100H431.491V98H429.491ZM429.491 30.8H431.491V28.8H429.491V30.8ZM416.819 30.8V28.8H415.756L415.161 29.68L416.819 30.8ZM395.045 64.3266L371.333 29.6706L368.032 31.9294L391.744 66.5854L395.045 64.3266ZM369.682 28.8H357.01V32.8H369.682V28.8ZM355.01 30.8V98H359.01V30.8H355.01ZM357.01 100H370.163V96H357.01V100ZM372.163 98V62.288H368.163V98H372.163ZM372.163 62.288C372.163 58.7722 371.968 55.0492 371.67 52.3711L367.695 52.8129C367.973 55.3188 368.163 58.8918 368.163 62.288H372.163ZM370.315 54.4894L370.603 54.3934L369.338 50.5986L369.05 50.6946L370.315 54.4894ZM368.249 53.5135C369.541 55.7009 371.982 59.3098 374.289 62.5774L377.556 60.2706C375.255 57.0102 372.896 53.5151 371.692 51.4785L368.249 53.5135ZM374.27 62.5511L389.726 85.2071L393.031 82.9529L377.575 60.2969L374.27 62.5511ZM391.379 86.08H395.026V82.08H391.379V86.08ZM396.675 85.2119L412.227 62.5559L408.93 60.2921L393.378 82.9481L396.675 85.2119ZM412.223 62.5624C414.834 58.7903 416.99 55.3654 418.19 53.1657L414.679 51.2503C413.575 53.2746 411.507 56.5697 408.934 60.2856L412.223 62.5624ZM415.325 53.8721L415.613 54.0641L417.832 50.7359L417.544 50.5439L415.325 53.8721ZM414.728 52.2523C414.534 54.8747 414.339 58.4789 414.339 62.096H418.339C418.339 58.6091 418.527 55.1093 418.717 52.5477L414.728 52.2523ZM414.339 62.096V98H418.339V62.096H414.339ZM416.339 100H429.491V96H416.339V100ZM431.491 98V30.8H427.491V98H431.491ZM429.491 28.8H416.819V32.8H429.491V28.8ZM415.161 29.68L391.737 64.336L395.052 66.576L418.475 31.92L415.161 29.68ZM511.634 98V100H514.691L513.467 97.1989L511.634 98ZM482.258 30.8L484.091 29.9989L483.567 28.8H482.258V30.8ZM467.954 30.8V28.8H466.646L466.122 29.9989L467.954 30.8ZM438.578 98L436.746 97.1989L435.521 100H438.578V98ZM452.69 98V100H454.007L454.527 98.7911L452.69 98ZM458.354 84.848V82.848H457.038L456.517 84.0569L458.354 84.848ZM491.474 84.848L493.311 84.0569L492.791 82.848H491.474V84.848ZM497.138 98L495.301 98.7911L495.822 100H497.138V98ZM470.642 54.224L472.501 54.962L472.506 54.9504L470.642 54.224ZM474.866 43.376V41.376H473.451L472.98 42.7104L474.866 43.376ZM475.154 43.376L477.063 42.7794L476.625 41.376H475.154V43.376ZM479.186 54.032L481.048 53.3004L481.043 53.2892L479.186 54.032ZM486.77 73.328V75.328H489.705L488.632 72.5964L486.77 73.328ZM463.058 73.328L461.199 72.59L460.112 75.328H463.058V73.328ZM513.467 97.1989L484.091 29.9989L480.426 31.6011L509.802 98.8011L513.467 97.1989ZM482.258 28.8H467.954V32.8H482.258V28.8ZM466.122 29.9989L436.746 97.1989L440.411 98.8011L469.787 31.6011L466.122 29.9989ZM438.578 100H452.69V96H438.578V100ZM454.527 98.7911L460.191 85.6391L456.517 84.0569L450.853 97.2089L454.527 98.7911ZM458.354 86.848H491.474V82.848H458.354V86.848ZM489.637 85.6391L495.301 98.7911L498.975 97.2089L493.311 84.0569L489.637 85.6391ZM497.138 100H511.634V96H497.138V100ZM472.506 54.9504C474.692 49.3425 476.162 45.7137 476.752 44.0416L472.98 42.7104C472.418 44.3023 471.009 47.7775 468.779 53.4976L472.506 54.9504ZM474.866 45.376H475.154V41.376H474.866V45.376ZM473.245 43.9725C473.752 45.5939 475.029 49.0238 477.329 54.7748L481.043 53.2892C478.736 47.5202 477.517 44.2301 477.063 42.7794L473.245 43.9725ZM477.325 54.7636L484.909 74.0596L488.632 72.5964L481.048 53.3004L477.325 54.7636ZM486.77 71.328H463.058V75.328H486.77V71.328ZM464.917 74.0659L472.501 54.9619L468.783 53.486L461.199 72.59L464.917 74.0659ZM575.32 30.8L576.802 32.1427L579.83 28.8H575.32V30.8ZM558.712 30.8V28.8H557.822L557.226 29.4613L558.712 30.8ZM541.24 50.192L539.754 48.8533L539.743 48.8654L539.732 48.8777L541.24 50.192ZM533.848 59.216L533.215 61.1134L534.617 61.5805L535.475 60.3785L533.848 59.216ZM533.56 59.12L531.565 58.9723L531.45 60.525L532.927 61.0174L533.56 59.12ZM533.944 30.8H535.944V28.8H533.944V30.8ZM520.792 30.8V28.8H518.792V30.8H520.792ZM520.792 98H518.792V100H520.792V98ZM533.944 98V100H535.944V98H533.944ZM533.56 68.624L532.45 66.9599L531.476 67.6096L531.566 68.7774L533.56 68.624ZM533.848 68.432L535.535 67.3582L534.438 65.6346L532.738 66.7679L533.848 68.432ZM540.856 76.976L539.359 78.3021L539.377 78.3227L539.396 78.3428L540.856 76.976ZM560.536 98L559.076 99.3668L559.668 100H560.536V98ZM578.2 98V100H582.821L579.658 96.631L578.2 98ZM545.752 63.44L544.27 62.0973L543.031 63.4643L544.294 64.809L545.752 63.44ZM575.32 28.8H558.712V32.8H575.32V28.8ZM557.226 29.4613L539.754 48.8533L542.726 51.5307L560.198 32.1387L557.226 29.4613ZM539.732 48.8777C536.464 52.6264 533.721 55.9527 532.22 58.0535L535.475 60.3785C536.855 58.4473 539.487 55.2456 542.747 51.5063L539.732 48.8777ZM534.48 57.3186L534.192 57.2226L532.927 61.0174L533.215 61.1134L534.48 57.3186ZM535.554 59.2677C535.749 56.6407 535.944 52.9417 535.944 49.04H531.944C531.944 52.8183 531.755 56.4153 531.565 58.9723L535.554 59.2677ZM535.944 49.04V30.8H531.944V49.04H535.944ZM533.944 28.8H520.792V32.8H533.944V28.8ZM518.792 30.8V98H522.792V30.8H518.792ZM520.792 100H533.944V96H520.792V100ZM535.944 98V78.608H531.944V98H535.944ZM535.944 78.608C535.944 74.7071 535.749 71.0069 535.554 68.4706L531.566 68.7774C531.755 71.2331 531.944 74.8289 531.944 78.608H535.944ZM534.669 70.2881L534.957 70.0961L532.738 66.7679L532.45 66.9599L534.669 70.2881ZM532.16 69.5057C533.61 71.7837 536.429 74.994 539.359 78.3021L542.353 75.6499C539.331 72.238 536.773 69.3043 535.535 67.3582L532.16 69.5057ZM539.396 78.3428L559.076 99.3668L561.996 96.6332L542.316 75.6092L539.396 78.3428ZM560.536 100H578.2V96H560.536V100ZM579.658 96.631L547.21 62.071L544.294 64.809L576.742 99.369L579.658 96.631ZM547.234 64.7827L576.802 32.1427L573.838 29.4573L544.27 62.0973L547.234 64.7827ZM620.196 98V100H622.196V98H620.196ZM620.196 30.8H622.196V28.8H620.196V30.8ZM606.948 30.8V28.8H604.948V30.8H606.948ZM606.948 98H604.948V100H606.948V98ZM622.196 98V30.8H618.196V98H622.196ZM620.196 28.8H606.948V32.8H620.196V28.8ZM604.948 30.8V98H608.948V30.8H604.948ZM606.948 100H620.196V96H606.948V100ZM693.776 90.224L695.144 91.6824L696.458 90.4489L695.368 89.0138L693.776 90.224ZM686.479 80.624L688.072 79.4138L686.785 77.7203L685.174 79.1092L686.479 80.624ZM685.904 48.368L684.6 49.8846L686.2 51.2606L687.488 49.5882L685.904 48.368ZM693.296 38.768L694.88 39.9882L696.012 38.5181L694.631 37.2792L693.296 38.768ZM668.528 101.44C679.44 101.44 688.492 97.9256 695.144 91.6824L692.407 88.7656C686.58 94.2344 678.544 97.44 668.528 97.44V101.44ZM695.368 89.0138L688.072 79.4138L684.887 81.8342L692.183 91.4342L695.368 89.0138ZM685.174 79.1092C679.971 83.5943 674.867 85.344 668.719 85.344V89.344C675.82 89.344 681.852 87.2537 687.785 82.1388L685.174 79.1092ZM668.719 85.344C662.586 85.344 657.531 83.1765 654.007 79.5234C650.477 75.8649 648.352 70.5778 648.352 64.112H644.352C644.352 71.4702 646.786 77.7991 651.128 82.3006C655.476 86.8075 661.605 89.344 668.719 89.344V85.344ZM648.352 64.112C648.352 57.8479 650.447 52.7065 653.927 49.1409C657.403 45.5788 662.389 43.456 668.432 43.456V39.456C661.418 39.456 655.364 41.9412 651.064 46.3471C646.768 50.7495 644.352 56.9361 644.352 64.112H648.352ZM668.432 43.456C674.417 43.456 679.439 45.4479 684.6 49.8846L687.207 46.8514C681.424 41.8801 675.502 39.456 668.432 39.456V43.456ZM687.488 49.5882L694.88 39.9882L691.711 37.5478L684.319 47.1478L687.488 49.5882ZM694.631 37.2792C687.754 31.1102 678.836 27.36 668.719 27.36V31.36C677.803 31.36 685.781 34.7138 691.96 40.2568L694.631 37.2792ZM668.719 27.36C657.7 27.36 648.201 31.0989 641.448 37.711C634.692 44.3269 630.815 53.6916 630.815 64.688H634.815C634.815 54.6604 638.331 46.361 644.247 40.569C650.166 34.7731 658.619 31.36 668.719 31.36V27.36ZM630.815 64.688C630.815 75.4381 634.567 84.6612 641.244 91.1972C647.919 97.7307 657.373 101.44 668.528 101.44V97.44C658.274 97.44 649.872 94.0453 644.043 88.3388C638.216 82.6348 634.815 74.4819 634.815 64.688H630.815ZM717.883 98V100H719.883V98H717.883ZM717.883 30.8H719.883V28.8H717.883V30.8ZM704.635 30.8V28.8H702.635V30.8H704.635ZM704.635 98H702.635V100H704.635V98ZM719.883 98V30.8H715.883V98H719.883ZM717.883 28.8H704.635V32.8H717.883V28.8ZM702.635 30.8V98H706.635V30.8H702.635ZM704.635 100H717.883V96H704.635V100ZM747.879 98V100H749.879V98H747.879ZM747.207 51.824L746.098 50.1599L745 50.8914L745.24 52.1882L747.207 51.824ZM747.495 51.632L749.159 50.5226L748.05 48.8585L746.386 49.9679L747.495 51.632ZM753.831 60.752L752.204 61.9145L752.208 61.9212L752.213 61.9278L753.831 60.752ZM780.903 98L779.285 99.1758L779.884 100H780.903V98ZM793.383 98V100H795.383V98H793.383ZM793.383 30.8H795.383V28.8H793.383V30.8ZM780.231 30.8V28.8H778.231V30.8H780.231ZM780.999 77.072L781.631 78.9694L783.244 78.4318L782.974 76.7535L780.999 77.072ZM780.711 77.168L779.069 78.3101L779.924 79.5386L781.343 79.0654L780.711 77.168ZM774.279 68.048L775.899 66.8758L775.899 66.8749L774.279 68.048ZM747.303 30.8L748.923 29.6269L748.324 28.8H747.303V30.8ZM734.823 30.8V28.8H732.823V30.8H734.823ZM734.823 98H732.823V100H734.823V98ZM749.879 98V63.824H745.879V98H749.879ZM749.879 63.824C749.879 58.5448 749.69 54.2513 749.174 51.4598L745.24 52.1882C745.683 54.5807 745.879 58.5432 745.879 63.824H749.879ZM748.316 53.4881L748.604 53.2961L746.386 49.9679L746.098 50.1599L748.316 53.4881ZM745.831 52.7414C747.188 54.7774 748.833 57.1952 752.204 61.9145L755.458 59.5895C752.109 54.9008 750.49 52.5186 749.159 50.5226L745.831 52.7414ZM752.213 61.9278L779.285 99.1758L782.521 96.8242L755.449 59.5762L752.213 61.9278ZM780.903 100H793.383V96H780.903V100ZM795.383 98V30.8H791.383V98H795.383ZM793.383 28.8H780.231V32.8H793.383V28.8ZM778.231 30.8V64.976H782.231V30.8H778.231ZM778.231 64.976C778.231 70.3226 778.522 74.2759 779.025 77.3905L782.974 76.7535C782.516 73.9161 782.231 70.1894 782.231 64.976H778.231ZM780.367 75.1746L780.079 75.2706L781.343 79.0654L781.631 78.9694L780.367 75.1746ZM782.353 76.0259C780.823 73.8263 779.177 71.4067 775.899 66.8758L772.659 69.2202C775.909 73.7133 777.527 76.0937 779.069 78.3101L782.353 76.0259ZM775.899 66.8749L748.923 29.6269L745.683 31.9731L772.659 69.2211L775.899 66.8749ZM747.303 28.8H734.823V32.8H747.303V28.8ZM732.823 30.8V98H736.823V30.8H732.823ZM734.823 100H747.879V96H734.823V100Z" fill="url(#paint1_linear_3195_4342)"/>
<path d="M71.68 183.496H28.928V147.4H11.264V237H28.928V199.496H71.68V237H89.344V147.4H71.68V183.496ZM198.929 237L159.761 147.4H140.689L101.521 237H120.337L127.889 219.464H172.049L179.601 237H198.929ZM144.273 178.632C147.217 171.08 149.137 166.344 149.905 164.168H150.289C150.929 166.216 152.593 170.696 155.665 178.376L165.777 204.104H134.161L144.273 178.632ZM285.635 237L259.139 205.512C272.707 201.928 281.027 191.432 281.027 176.968C281.027 159.304 267.971 147.4 249.027 147.4H211.139V237H229.059V206.92H239.555L264.003 237H285.635ZM263.235 177.736C263.235 186.824 257.475 192.2 247.619 192.2H228.931V162.76H247.491C257.475 162.76 263.235 168.264 263.235 177.736ZM317.297 199.112H360.689V184.008H317.297V162.76H362.993V147.4H299.889V237H364.017V221.512H317.297V199.112ZM454.843 147.4H432.699L409.403 173.256C405.051 178.248 401.467 182.6 399.547 185.288L399.163 185.16C399.419 181.704 399.675 176.84 399.675 171.72V147.4H382.139V237H399.675V211.144C399.675 206.024 399.419 201.16 399.163 197.832L399.547 197.576C401.339 200.392 404.923 204.488 408.891 208.968L435.131 237H458.683L415.419 190.92L454.843 147.4ZM485.422 199.112H528.814V184.008H485.422V162.76H531.118V147.4H468.014V237H532.142V221.512H485.422V199.112ZM540.423 147.4V162.76H568.455V237H586.119V162.76H614.279V147.4H540.423ZM645.047 199.112H688.439V184.008H645.047V162.76H690.743V147.4H627.639V237H691.767V221.512H645.047V199.112ZM777.53 199.752H801.978V216.52C796.346 221 789.434 223.304 780.986 223.304C762.938 223.304 751.546 211.016 751.546 191.816C751.546 173.128 763.322 161.096 781.626 161.096C790.842 161.096 798.394 164.168 805.434 169.672L814.778 157.128C806.842 150.344 795.45 145.352 781.626 145.352C753.466 145.352 733.754 164.808 733.754 192.584C733.754 220.616 752.186 238.92 780.346 238.92C795.706 238.92 808.122 233.928 817.594 223.944V185.032H777.53V199.752ZM853.172 199.112H896.564V184.008H853.172V162.76H898.868V147.4H835.764V237H899.892V221.512H853.172V199.112ZM958.995 238.92C972.947 238.92 984.339 234.44 992.659 226.632L982.931 213.832C975.507 220.232 968.083 222.792 959.251 222.792C941.587 222.792 929.427 210.248 929.427 191.816C929.427 173.896 941.459 161.608 958.867 161.608C967.571 161.608 974.867 164.552 982.163 170.824L992.019 158.024C983.315 150.216 972.051 145.48 959.251 145.48C931.091 145.48 911.379 164.552 911.379 192.584C911.379 219.976 930.451 238.92 958.995 238.92Z" fill="white" fill-opacity="0.08"/>
<path d="M71.68 183.496V185.496H73.68V183.496H71.68ZM28.928 183.496H26.928V185.496H28.928V183.496ZM28.928 147.4H30.928V145.4H28.928V147.4ZM11.264 147.4V145.4H9.264V147.4H11.264ZM11.264 237H9.264V239H11.264V237ZM28.928 237V239H30.928V237H28.928ZM28.928 199.496V197.496H26.928V199.496H28.928ZM71.68 199.496H73.68V197.496H71.68V199.496ZM71.68 237H69.68V239H71.68V237ZM89.344 237V239H91.344V237H89.344ZM89.344 147.4H91.344V145.4H89.344V147.4ZM71.68 147.4V145.4H69.68V147.4H71.68ZM71.68 181.496H28.928V185.496H71.68V181.496ZM30.928 183.496V147.4H26.928V183.496H30.928ZM28.928 145.4H11.264V149.4H28.928V145.4ZM9.264 147.4V237H13.264V147.4H9.264ZM11.264 239H28.928V235H11.264V239ZM30.928 237V199.496H26.928V237H30.928ZM28.928 201.496H71.68V197.496H28.928V201.496ZM69.68 199.496V237H73.68V199.496H69.68ZM71.68 239H89.344V235H71.68V239ZM91.344 237V147.4H87.344V237H91.344ZM89.344 145.4H71.68V149.4H89.344V145.4ZM69.68 147.4V183.496H73.68V147.4H69.68ZM198.929 237V239H201.986L200.762 236.199L198.929 237ZM159.761 147.4L161.594 146.599L161.069 145.4H159.761V147.4ZM140.689 147.4V145.4H139.381L138.856 146.599L140.689 147.4ZM101.521 237L99.6884 236.199L98.464 239H101.521V237ZM120.337 237V239H121.653L122.174 237.791L120.337 237ZM127.889 219.464V217.464H126.573L126.052 218.673L127.889 219.464ZM172.049 219.464L173.886 218.673L173.365 217.464H172.049V219.464ZM179.601 237L177.764 237.791L178.285 239H179.601V237ZM144.273 178.632L146.132 179.37L146.136 179.358L144.273 178.632ZM149.905 164.168V162.168H148.49L148.019 163.502L149.905 164.168ZM150.289 164.168L152.198 163.571L151.759 162.168H150.289V164.168ZM155.665 178.376L157.526 177.644L157.522 177.633L155.665 178.376ZM165.777 204.104V206.104H168.712L167.638 203.372L165.777 204.104ZM134.161 204.104L132.302 203.366L131.215 206.104H134.161V204.104ZM200.762 236.199L161.594 146.599L157.928 148.201L197.096 237.801L200.762 236.199ZM159.761 145.4H140.689V149.4H159.761V145.4ZM138.856 146.599L99.6884 236.199L103.354 237.801L142.522 148.201L138.856 146.599ZM101.521 239H120.337V235H101.521V239ZM122.174 237.791L129.726 220.255L126.052 218.673L118.5 236.209L122.174 237.791ZM127.889 221.464H172.049V217.464H127.889V221.464ZM170.212 220.255L177.764 237.791L181.438 236.209L173.886 218.673L170.212 220.255ZM179.601 239H198.929V235H179.601V239ZM146.136 179.358C149.059 171.862 151.009 167.05 151.791 164.834L148.019 163.502C147.265 165.638 145.375 170.298 142.41 177.906L146.136 179.358ZM149.905 166.168H150.289V162.168H149.905V166.168ZM148.38 164.765C149.047 166.898 150.74 171.448 153.808 179.119L157.522 177.633C154.446 169.944 152.811 165.534 152.198 163.571L148.38 164.765ZM153.804 179.108L163.916 204.836L167.638 203.372L157.526 177.644L153.804 179.108ZM165.777 202.104H134.161V206.104H165.777V202.104ZM136.02 204.842L146.132 179.37L142.414 177.894L132.302 203.366L136.02 204.842ZM285.635 237V239H289.932L287.165 235.712L285.635 237ZM259.139 205.512L258.628 203.578L255.576 204.384L257.609 206.8L259.139 205.512ZM211.139 147.4V145.4H209.139V147.4H211.139ZM211.139 237H209.139V239H211.139V237ZM229.059 237V239H231.059V237H229.059ZM229.059 206.92V204.92H227.059V206.92H229.059ZM239.555 206.92L241.107 205.659L240.507 204.92H239.555V206.92ZM264.003 237L262.451 238.261L263.051 239H264.003V237ZM228.931 192.2H226.931V194.2H228.931V192.2ZM228.931 162.76V160.76H226.931V162.76H228.931ZM287.165 235.712L260.669 204.224L257.609 206.8L284.105 238.288L287.165 235.712ZM259.65 207.446C274.088 203.632 283.027 192.347 283.027 176.968H279.027C279.027 190.517 271.326 200.224 258.628 203.578L259.65 207.446ZM283.027 176.968C283.027 167.618 279.558 159.678 273.485 154.088C267.427 148.512 258.917 145.4 249.027 145.4V149.4C258.081 149.4 265.571 152.24 270.777 157.032C275.968 161.81 279.027 168.654 279.027 176.968H283.027ZM249.027 145.4H211.139V149.4H249.027V145.4ZM209.139 147.4V237H213.139V147.4H209.139ZM211.139 239H229.059V235H211.139V239ZM231.059 237V206.92H227.059V237H231.059ZM229.059 208.92H239.555V204.92H229.059V208.92ZM238.003 208.181L262.451 238.261L265.555 235.739L241.107 205.659L238.003 208.181ZM264.003 239H285.635V235H264.003V239ZM261.235 177.736C261.235 181.845 259.945 184.884 257.762 186.91C255.559 188.955 252.196 190.2 247.619 190.2V194.2C252.898 194.2 257.343 192.757 260.484 189.842C263.645 186.908 265.235 182.715 265.235 177.736H261.235ZM247.619 190.2H228.931V194.2H247.619V190.2ZM230.931 192.2V162.76H226.931V192.2H230.931ZM228.931 164.76H247.491V160.76H228.931V164.76ZM247.491 164.76C252.126 164.76 255.512 166.034 257.728 168.144C259.93 170.242 261.235 173.411 261.235 177.736H265.235C265.235 172.589 263.66 168.27 260.486 165.248C257.327 162.238 252.84 160.76 247.491 160.76V164.76ZM317.297 199.112V197.112H315.297V199.112H317.297ZM360.689 199.112V201.112H362.689V199.112H360.689ZM360.689 184.008H362.689V182.008H360.689V184.008ZM317.297 184.008H315.297V186.008H317.297V184.008ZM317.297 162.76V160.76H315.297V162.76H317.297ZM362.993 162.76V164.76H364.993V162.76H362.993ZM362.993 147.4H364.993V145.4H362.993V147.4ZM299.889 147.4V145.4H297.889V147.4H299.889ZM299.889 237H297.889V239H299.889V237ZM364.017 237V239H366.017V237H364.017ZM364.017 221.512H366.017V219.512H364.017V221.512ZM317.297 221.512H315.297V223.512H317.297V221.512ZM317.297 201.112H360.689V197.112H317.297V201.112ZM362.689 199.112V184.008H358.689V199.112H362.689ZM360.689 182.008H317.297V186.008H360.689V182.008ZM319.297 184.008V162.76H315.297V184.008H319.297ZM317.297 164.76H362.993V160.76H317.297V164.76ZM364.993 162.76V147.4H360.993V162.76H364.993ZM362.993 145.4H299.889V149.4H362.993V145.4ZM297.889 147.4V237H301.889V147.4H297.889ZM299.889 239H364.017V235H299.889V239ZM366.017 237V221.512H362.017V237H366.017ZM364.017 219.512H317.297V223.512H364.017V219.512ZM319.297 221.512V199.112H315.297V221.512H319.297ZM454.843 147.4L456.325 148.743L459.353 145.4H454.843V147.4ZM432.699 147.4V145.4H431.809L431.213 146.061L432.699 147.4ZM409.403 173.256L407.917 171.917L407.906 171.929L407.895 171.942L409.403 173.256ZM399.547 185.288L398.915 187.185L400.316 187.652L401.174 186.45L399.547 185.288ZM399.163 185.16L397.168 185.012L397.053 186.565L398.531 187.057L399.163 185.16ZM399.675 147.4H401.675V145.4H399.675V147.4ZM382.139 147.4V145.4H380.139V147.4H382.139ZM382.139 237H380.139V239H382.139V237ZM399.675 237V239H401.675V237H399.675ZM399.163 197.832L398.054 196.168L397.079 196.818L397.169 197.985L399.163 197.832ZM399.547 197.576L401.234 196.502L400.137 194.779L398.438 195.912L399.547 197.576ZM408.891 208.968L407.394 210.294L407.412 210.315L407.431 210.335L408.891 208.968ZM435.131 237L433.671 238.367L434.264 239H435.131V237ZM458.683 237V239H463.304L460.141 235.631L458.683 237ZM415.419 190.92L413.937 189.577L412.698 190.944L413.961 192.289L415.419 190.92ZM454.843 145.4H432.699V149.4H454.843V145.4ZM431.213 146.061L407.917 171.917L410.889 174.595L434.185 148.739L431.213 146.061ZM407.895 171.942C403.539 176.938 399.9 181.353 397.92 184.126L401.174 186.45C403.034 183.847 406.563 179.558 410.911 174.57L407.895 171.942ZM400.179 183.391L399.795 183.263L398.531 187.057L398.915 187.185L400.179 183.391ZM401.158 185.308C401.416 181.817 401.675 176.902 401.675 171.72H397.675C397.675 176.778 397.422 181.591 397.168 185.012L401.158 185.308ZM401.675 171.72V147.4H397.675V171.72H401.675ZM399.675 145.4H382.139V149.4H399.675V145.4ZM380.139 147.4V237H384.139V147.4H380.139ZM382.139 239H399.675V235H382.139V239ZM401.675 237V211.144H397.675V237H401.675ZM401.675 211.144C401.675 205.963 401.416 201.047 401.157 197.679L397.169 197.985C397.422 201.273 397.675 206.085 397.675 211.144H401.675ZM400.272 199.496L400.656 199.24L398.438 195.912L398.054 196.168L400.272 199.496ZM397.86 198.65C399.757 201.632 403.472 205.866 407.394 210.294L410.388 207.642C406.374 203.11 402.921 199.152 401.234 196.502L397.86 198.65ZM407.431 210.335L433.671 238.367L436.591 235.633L410.351 207.601L407.431 210.335ZM435.131 239H458.683V235H435.131V239ZM460.141 235.631L416.877 189.551L413.961 192.289L457.225 238.369L460.141 235.631ZM416.901 192.263L456.325 148.743L453.361 146.057L413.937 189.577L416.901 192.263ZM485.422 199.112V197.112H483.422V199.112H485.422ZM528.814 199.112V201.112H530.814V199.112H528.814ZM528.814 184.008H530.814V182.008H528.814V184.008ZM485.422 184.008H483.422V186.008H485.422V184.008ZM485.422 162.76V160.76H483.422V162.76H485.422ZM531.118 162.76V164.76H533.118V162.76H531.118ZM531.118 147.4H533.118V145.4H531.118V147.4ZM468.014 147.4V145.4H466.014V147.4H468.014ZM468.014 237H466.014V239H468.014V237ZM532.142 237V239H534.142V237H532.142ZM532.142 221.512H534.142V219.512H532.142V221.512ZM485.422 221.512H483.422V223.512H485.422V221.512ZM485.422 201.112H528.814V197.112H485.422V201.112ZM530.814 199.112V184.008H526.814V199.112H530.814ZM528.814 182.008H485.422V186.008H528.814V182.008ZM487.422 184.008V162.76H483.422V184.008H487.422ZM485.422 164.76H531.118V160.76H485.422V164.76ZM533.118 162.76V147.4H529.118V162.76H533.118ZM531.118 145.4H468.014V149.4H531.118V145.4ZM466.014 147.4V237H470.014V147.4H466.014ZM468.014 239H532.142V235H468.014V239ZM534.142 237V221.512H530.142V237H534.142ZM532.142 219.512H485.422V223.512H532.142V219.512ZM487.422 221.512V199.112H483.422V221.512H487.422ZM540.423 147.4V145.4H538.423V147.4H540.423ZM540.423 162.76H538.423V164.76H540.423V162.76ZM568.455 162.76H570.455V160.76H568.455V162.76ZM568.455 237H566.455V239H568.455V237ZM586.119 237V239H588.119V237H586.119ZM586.119 162.76V160.76H584.119V162.76H586.119ZM614.279 162.76V164.76H616.279V162.76H614.279ZM614.279 147.4H616.279V145.4H614.279V147.4ZM538.423 147.4V162.76H542.423V147.4H538.423ZM540.423 164.76H568.455V160.76H540.423V164.76ZM566.455 162.76V237H570.455V162.76H566.455ZM568.455 239H586.119V235H568.455V239ZM588.119 237V162.76H584.119V237H588.119ZM586.119 164.76H614.279V160.76H586.119V164.76ZM616.279 162.76V147.4H612.279V162.76H616.279ZM614.279 145.4H540.423V149.4H614.279V145.4ZM645.047 199.112V197.112H643.047V199.112H645.047ZM688.439 199.112V201.112H690.439V199.112H688.439ZM688.439 184.008H690.439V182.008H688.439V184.008ZM645.047 184.008H643.047V186.008H645.047V184.008ZM645.047 162.76V160.76H643.047V162.76H645.047ZM690.743 162.76V164.76H692.743V162.76H690.743ZM690.743 147.4H692.743V145.4H690.743V147.4ZM627.639 147.4V145.4H625.639V147.4H627.639ZM627.639 237H625.639V239H627.639V237ZM691.767 237V239H693.767V237H691.767ZM691.767 221.512H693.767V219.512H691.767V221.512ZM645.047 221.512H643.047V223.512H645.047V221.512ZM645.047 201.112H688.439V197.112H645.047V201.112ZM690.439 199.112V184.008H686.439V199.112H690.439ZM688.439 182.008H645.047V186.008H688.439V182.008ZM647.047 184.008V162.76H643.047V184.008H647.047ZM645.047 164.76H690.743V160.76H645.047V164.76ZM692.743 162.76V147.4H688.743V162.76H692.743ZM690.743 145.4H627.639V149.4H690.743V145.4ZM625.639 147.4V237H629.639V147.4H625.639ZM627.639 239H691.767V235H627.639V239ZM693.767 237V221.512H689.767V237H693.767ZM691.767 219.512H645.047V223.512H691.767V219.512ZM647.047 221.512V199.112H643.047V221.512H647.047ZM777.53 199.752H775.53V201.752H777.53V199.752ZM801.978 199.752H803.978V197.752H801.978V199.752ZM801.978 216.52L803.223 218.085L803.978 217.485V216.52H801.978ZM805.434 169.672L804.202 171.248L805.815 172.509L807.038 170.867L805.434 169.672ZM814.778 157.128L816.382 158.323L817.499 156.823L816.078 155.608L814.778 157.128ZM817.594 223.944L819.045 225.321L819.594 224.742V223.944H817.594ZM817.594 185.032H819.594V183.032H817.594V185.032ZM777.53 185.032V183.032H775.53V185.032H777.53ZM777.53 201.752H801.978V197.752H777.53V201.752ZM799.978 199.752V216.52H803.978V199.752H799.978ZM800.733 214.955C795.5 219.117 789.043 221.304 780.986 221.304V225.304C789.825 225.304 797.192 222.883 803.223 218.085L800.733 214.955ZM780.986 221.304C772.435 221.304 765.634 218.406 760.961 213.396C756.273 208.37 753.546 201.024 753.546 191.816H749.546C749.546 201.808 752.515 210.206 758.035 216.124C763.57 222.058 771.489 225.304 780.986 225.304V221.304ZM753.546 191.816C753.546 182.896 756.349 175.752 761.151 170.847C765.949 165.946 772.923 163.096 781.626 163.096V159.096C772.025 159.096 763.959 162.262 758.293 168.049C752.631 173.832 749.546 182.048 749.546 191.816H753.546ZM781.626 163.096C790.331 163.096 797.459 165.976 804.202 171.248L806.666 168.096C799.329 162.36 791.353 159.096 781.626 159.096V163.096ZM807.038 170.867L816.382 158.323L813.174 155.933L803.83 168.477L807.038 170.867ZM816.078 155.608C807.793 148.526 795.945 143.352 781.626 143.352V147.352C794.956 147.352 805.891 152.162 813.478 158.648L816.078 155.608ZM781.626 143.352C767.075 143.352 754.585 148.386 745.725 157.128C736.864 165.872 731.754 178.208 731.754 192.584H735.754C735.754 179.184 740.5 167.904 748.535 159.976C756.571 152.046 768.017 147.352 781.626 147.352V143.352ZM731.754 192.584C731.754 207.048 736.518 219.171 745.08 227.682C753.64 236.192 765.825 240.92 780.346 240.92V236.92C766.707 236.92 755.596 232.496 747.9 224.846C740.206 217.197 735.754 206.152 735.754 192.584H731.754ZM780.346 240.92C796.184 240.92 809.149 235.751 819.045 225.321L816.143 222.567C807.094 232.105 795.228 236.92 780.346 236.92V240.92ZM819.594 223.944V185.032H815.594V223.944H819.594ZM817.594 183.032H777.53V187.032H817.594V183.032ZM775.53 185.032V199.752H779.53V185.032H775.53ZM853.172 199.112V197.112H851.172V199.112H853.172ZM896.564 199.112V201.112H898.564V199.112H896.564ZM896.564 184.008H898.564V182.008H896.564V184.008ZM853.172 184.008H851.172V186.008H853.172V184.008ZM853.172 162.76V160.76H851.172V162.76H853.172ZM898.868 162.76V164.76H900.868V162.76H898.868ZM898.868 147.4H900.868V145.4H898.868V147.4ZM835.764 147.4V145.4H833.764V147.4H835.764ZM835.764 237H833.764V239H835.764V237ZM899.892 237V239H901.892V237H899.892ZM899.892 221.512H901.892V219.512H899.892V221.512ZM853.172 221.512H851.172V223.512H853.172V221.512ZM853.172 201.112H896.564V197.112H853.172V201.112ZM898.564 199.112V184.008H894.564V199.112H898.564ZM896.564 182.008H853.172V186.008H896.564V182.008ZM855.172 184.008V162.76H851.172V184.008H855.172ZM853.172 164.76H898.868V160.76H853.172V164.76ZM900.868 162.76V147.4H896.868V162.76H900.868ZM898.868 145.4H835.764V149.4H898.868V145.4ZM833.764 147.4V237H837.764V147.4H833.764ZM835.764 239H899.892V235H835.764V239ZM901.892 237V221.512H897.892V237H901.892ZM899.892 219.512H853.172V223.512H899.892V219.512ZM855.172 221.512V199.112H851.172V221.512H855.172ZM992.659 226.632L994.028 228.09L995.342 226.857L994.251 225.422L992.659 226.632ZM982.931 213.832L984.523 212.622L983.236 210.928L981.625 212.317L982.931 213.832ZM982.163 170.824L980.859 172.341L982.46 173.717L983.748 172.044L982.163 170.824ZM992.019 158.024L993.604 159.244L994.736 157.774L993.354 156.535L992.019 158.024ZM958.995 240.92C973.395 240.92 985.295 236.286 994.028 228.09L991.29 225.174C983.383 232.594 972.499 236.92 958.995 236.92V240.92ZM994.251 225.422L984.523 212.622L981.339 215.042L991.067 227.842L994.251 225.422ZM981.625 212.317C974.566 218.402 967.607 220.792 959.251 220.792V224.792C968.559 224.792 976.448 222.062 984.237 215.347L981.625 212.317ZM959.251 220.792C950.909 220.792 943.99 217.84 939.154 212.827C934.313 207.809 931.427 200.586 931.427 191.816H927.427C927.427 201.478 930.621 209.743 936.276 215.605C941.935 221.472 949.929 224.792 959.251 224.792V220.792ZM931.427 191.816C931.427 183.312 934.275 176.282 939.05 171.389C943.823 166.499 950.649 163.608 958.867 163.608V159.608C949.677 159.608 941.783 162.861 936.188 168.595C930.595 174.325 927.427 182.4 927.427 191.816H931.427ZM958.867 163.608C967.028 163.608 973.874 166.336 980.859 172.341L983.467 169.307C975.86 162.768 968.114 159.608 958.867 159.608V163.608ZM983.748 172.044L993.604 159.244L990.434 156.804L980.578 169.604L983.748 172.044ZM993.354 156.535C984.302 148.414 972.568 143.48 959.251 143.48V147.48C971.534 147.48 982.328 152.018 990.683 159.513L993.354 156.535ZM959.251 143.48C944.711 143.48 932.221 148.411 923.356 157.091C914.487 165.775 909.379 178.084 909.379 192.584H913.379C913.379 179.052 918.127 167.809 926.154 159.949C934.185 152.085 945.631 147.48 959.251 147.48V143.48ZM909.379 192.584C909.379 206.758 914.323 218.877 923.084 227.453C931.842 236.027 944.272 240.92 958.995 240.92V236.92C945.174 236.92 933.796 232.341 925.882 224.595C917.971 216.851 913.379 205.802 913.379 192.584H909.379Z" fill="url(#paint2_linear_3195_4342)" fill-opacity="0.5"/>
<path d="M71.68 183.496V185.496H73.68V183.496H71.68ZM28.928 183.496H26.928V185.496H28.928V183.496ZM28.928 147.4H30.928V145.4H28.928V147.4ZM11.264 147.4V145.4H9.264V147.4H11.264ZM11.264 237H9.264V239H11.264V237ZM28.928 237V239H30.928V237H28.928ZM28.928 199.496V197.496H26.928V199.496H28.928ZM71.68 199.496H73.68V197.496H71.68V199.496ZM71.68 237H69.68V239H71.68V237ZM89.344 237V239H91.344V237H89.344ZM89.344 147.4H91.344V145.4H89.344V147.4ZM71.68 147.4V145.4H69.68V147.4H71.68ZM71.68 181.496H28.928V185.496H71.68V181.496ZM30.928 183.496V147.4H26.928V183.496H30.928ZM28.928 145.4H11.264V149.4H28.928V145.4ZM9.264 147.4V237H13.264V147.4H9.264ZM11.264 239H28.928V235H11.264V239ZM30.928 237V199.496H26.928V237H30.928ZM28.928 201.496H71.68V197.496H28.928V201.496ZM69.68 199.496V237H73.68V199.496H69.68ZM71.68 239H89.344V235H71.68V239ZM91.344 237V147.4H87.344V237H91.344ZM89.344 145.4H71.68V149.4H89.344V145.4ZM69.68 147.4V183.496H73.68V147.4H69.68ZM198.929 237V239H201.986L200.762 236.199L198.929 237ZM159.761 147.4L161.594 146.599L161.069 145.4H159.761V147.4ZM140.689 147.4V145.4H139.381L138.856 146.599L140.689 147.4ZM101.521 237L99.6884 236.199L98.464 239H101.521V237ZM120.337 237V239H121.653L122.174 237.791L120.337 237ZM127.889 219.464V217.464H126.573L126.052 218.673L127.889 219.464ZM172.049 219.464L173.886 218.673L173.365 217.464H172.049V219.464ZM179.601 237L177.764 237.791L178.285 239H179.601V237ZM144.273 178.632L146.132 179.37L146.136 179.358L144.273 178.632ZM149.905 164.168V162.168H148.49L148.019 163.502L149.905 164.168ZM150.289 164.168L152.198 163.571L151.759 162.168H150.289V164.168ZM155.665 178.376L157.526 177.644L157.522 177.633L155.665 178.376ZM165.777 204.104V206.104H168.712L167.638 203.372L165.777 204.104ZM134.161 204.104L132.302 203.366L131.215 206.104H134.161V204.104ZM200.762 236.199L161.594 146.599L157.928 148.201L197.096 237.801L200.762 236.199ZM159.761 145.4H140.689V149.4H159.761V145.4ZM138.856 146.599L99.6884 236.199L103.354 237.801L142.522 148.201L138.856 146.599ZM101.521 239H120.337V235H101.521V239ZM122.174 237.791L129.726 220.255L126.052 218.673L118.5 236.209L122.174 237.791ZM127.889 221.464H172.049V217.464H127.889V221.464ZM170.212 220.255L177.764 237.791L181.438 236.209L173.886 218.673L170.212 220.255ZM179.601 239H198.929V235H179.601V239ZM146.136 179.358C149.059 171.862 151.009 167.05 151.791 164.834L148.019 163.502C147.265 165.638 145.375 170.298 142.41 177.906L146.136 179.358ZM149.905 166.168H150.289V162.168H149.905V166.168ZM148.38 164.765C149.047 166.898 150.74 171.448 153.808 179.119L157.522 177.633C154.446 169.944 152.811 165.534 152.198 163.571L148.38 164.765ZM153.804 179.108L163.916 204.836L167.638 203.372L157.526 177.644L153.804 179.108ZM165.777 202.104H134.161V206.104H165.777V202.104ZM136.02 204.842L146.132 179.37L142.414 177.894L132.302 203.366L136.02 204.842ZM285.635 237V239H289.932L287.165 235.712L285.635 237ZM259.139 205.512L258.628 203.578L255.576 204.384L257.609 206.8L259.139 205.512ZM211.139 147.4V145.4H209.139V147.4H211.139ZM211.139 237H209.139V239H211.139V237ZM229.059 237V239H231.059V237H229.059ZM229.059 206.92V204.92H227.059V206.92H229.059ZM239.555 206.92L241.107 205.659L240.507 204.92H239.555V206.92ZM264.003 237L262.451 238.261L263.051 239H264.003V237ZM228.931 192.2H226.931V194.2H228.931V192.2ZM228.931 162.76V160.76H226.931V162.76H228.931ZM287.165 235.712L260.669 204.224L257.609 206.8L284.105 238.288L287.165 235.712ZM259.65 207.446C274.088 203.632 283.027 192.347 283.027 176.968H279.027C279.027 190.517 271.326 200.224 258.628 203.578L259.65 207.446ZM283.027 176.968C283.027 167.618 279.558 159.678 273.485 154.088C267.427 148.512 258.917 145.4 249.027 145.4V149.4C258.081 149.4 265.571 152.24 270.777 157.032C275.968 161.81 279.027 168.654 279.027 176.968H283.027ZM249.027 145.4H211.139V149.4H249.027V145.4ZM209.139 147.4V237H213.139V147.4H209.139ZM211.139 239H229.059V235H211.139V239ZM231.059 237V206.92H227.059V237H231.059ZM229.059 208.92H239.555V204.92H229.059V208.92ZM238.003 208.181L262.451 238.261L265.555 235.739L241.107 205.659L238.003 208.181ZM264.003 239H285.635V235H264.003V239ZM261.235 177.736C261.235 181.845 259.945 184.884 257.762 186.91C255.559 188.955 252.196 190.2 247.619 190.2V194.2C252.898 194.2 257.343 192.757 260.484 189.842C263.645 186.908 265.235 182.715 265.235 177.736H261.235ZM247.619 190.2H228.931V194.2H247.619V190.2ZM230.931 192.2V162.76H226.931V192.2H230.931ZM228.931 164.76H247.491V160.76H228.931V164.76ZM247.491 164.76C252.126 164.76 255.512 166.034 257.728 168.144C259.93 170.242 261.235 173.411 261.235 177.736H265.235C265.235 172.589 263.66 168.27 260.486 165.248C257.327 162.238 252.84 160.76 247.491 160.76V164.76ZM317.297 199.112V197.112H315.297V199.112H317.297ZM360.689 199.112V201.112H362.689V199.112H360.689ZM360.689 184.008H362.689V182.008H360.689V184.008ZM317.297 184.008H315.297V186.008H317.297V184.008ZM317.297 162.76V160.76H315.297V162.76H317.297ZM362.993 162.76V164.76H364.993V162.76H362.993ZM362.993 147.4H364.993V145.4H362.993V147.4ZM299.889 147.4V145.4H297.889V147.4H299.889ZM299.889 237H297.889V239H299.889V237ZM364.017 237V239H366.017V237H364.017ZM364.017 221.512H366.017V219.512H364.017V221.512ZM317.297 221.512H315.297V223.512H317.297V221.512ZM317.297 201.112H360.689V197.112H317.297V201.112ZM362.689 199.112V184.008H358.689V199.112H362.689ZM360.689 182.008H317.297V186.008H360.689V182.008ZM319.297 184.008V162.76H315.297V184.008H319.297ZM317.297 164.76H362.993V160.76H317.297V164.76ZM364.993 162.76V147.4H360.993V162.76H364.993ZM362.993 145.4H299.889V149.4H362.993V145.4ZM297.889 147.4V237H301.889V147.4H297.889ZM299.889 239H364.017V235H299.889V239ZM366.017 237V221.512H362.017V237H366.017ZM364.017 219.512H317.297V223.512H364.017V219.512ZM319.297 221.512V199.112H315.297V221.512H319.297ZM454.843 147.4L456.325 148.743L459.353 145.4H454.843V147.4ZM432.699 147.4V145.4H431.809L431.213 146.061L432.699 147.4ZM409.403 173.256L407.917 171.917L407.906 171.929L407.895 171.942L409.403 173.256ZM399.547 185.288L398.915 187.185L400.316 187.652L401.174 186.45L399.547 185.288ZM399.163 185.16L397.168 185.012L397.053 186.565L398.531 187.057L399.163 185.16ZM399.675 147.4H401.675V145.4H399.675V147.4ZM382.139 147.4V145.4H380.139V147.4H382.139ZM382.139 237H380.139V239H382.139V237ZM399.675 237V239H401.675V237H399.675ZM399.163 197.832L398.054 196.168L397.079 196.818L397.169 197.985L399.163 197.832ZM399.547 197.576L401.234 196.502L400.137 194.779L398.438 195.912L399.547 197.576ZM408.891 208.968L407.394 210.294L407.412 210.315L407.431 210.335L408.891 208.968ZM435.131 237L433.671 238.367L434.264 239H435.131V237ZM458.683 237V239H463.304L460.141 235.631L458.683 237ZM415.419 190.92L413.937 189.577L412.698 190.944L413.961 192.289L415.419 190.92ZM454.843 145.4H432.699V149.4H454.843V145.4ZM431.213 146.061L407.917 171.917L410.889 174.595L434.185 148.739L431.213 146.061ZM407.895 171.942C403.539 176.938 399.9 181.353 397.92 184.126L401.174 186.45C403.034 183.847 406.563 179.558 410.911 174.57L407.895 171.942ZM400.179 183.391L399.795 183.263L398.531 187.057L398.915 187.185L400.179 183.391ZM401.158 185.308C401.416 181.817 401.675 176.902 401.675 171.72H397.675C397.675 176.778 397.422 181.591 397.168 185.012L401.158 185.308ZM401.675 171.72V147.4H397.675V171.72H401.675ZM399.675 145.4H382.139V149.4H399.675V145.4ZM380.139 147.4V237H384.139V147.4H380.139ZM382.139 239H399.675V235H382.139V239ZM401.675 237V211.144H397.675V237H401.675ZM401.675 211.144C401.675 205.963 401.416 201.047 401.157 197.679L397.169 197.985C397.422 201.273 397.675 206.085 397.675 211.144H401.675ZM400.272 199.496L400.656 199.24L398.438 195.912L398.054 196.168L400.272 199.496ZM397.86 198.65C399.757 201.632 403.472 205.866 407.394 210.294L410.388 207.642C406.374 203.11 402.921 199.152 401.234 196.502L397.86 198.65ZM407.431 210.335L433.671 238.367L436.591 235.633L410.351 207.601L407.431 210.335ZM435.131 239H458.683V235H435.131V239ZM460.141 235.631L416.877 189.551L413.961 192.289L457.225 238.369L460.141 235.631ZM416.901 192.263L456.325 148.743L453.361 146.057L413.937 189.577L416.901 192.263ZM485.422 199.112V197.112H483.422V199.112H485.422ZM528.814 199.112V201.112H530.814V199.112H528.814ZM528.814 184.008H530.814V182.008H528.814V184.008ZM485.422 184.008H483.422V186.008H485.422V184.008ZM485.422 162.76V160.76H483.422V162.76H485.422ZM531.118 162.76V164.76H533.118V162.76H531.118ZM531.118 147.4H533.118V145.4H531.118V147.4ZM468.014 147.4V145.4H466.014V147.4H468.014ZM468.014 237H466.014V239H468.014V237ZM532.142 237V239H534.142V237H532.142ZM532.142 221.512H534.142V219.512H532.142V221.512ZM485.422 221.512H483.422V223.512H485.422V221.512ZM485.422 201.112H528.814V197.112H485.422V201.112ZM530.814 199.112V184.008H526.814V199.112H530.814ZM528.814 182.008H485.422V186.008H528.814V182.008ZM487.422 184.008V162.76H483.422V184.008H487.422ZM485.422 164.76H531.118V160.76H485.422V164.76ZM533.118 162.76V147.4H529.118V162.76H533.118ZM531.118 145.4H468.014V149.4H531.118V145.4ZM466.014 147.4V237H470.014V147.4H466.014ZM468.014 239H532.142V235H468.014V239ZM534.142 237V221.512H530.142V237H534.142ZM532.142 219.512H485.422V223.512H532.142V219.512ZM487.422 221.512V199.112H483.422V221.512H487.422ZM540.423 147.4V145.4H538.423V147.4H540.423ZM540.423 162.76H538.423V164.76H540.423V162.76ZM568.455 162.76H570.455V160.76H568.455V162.76ZM568.455 237H566.455V239H568.455V237ZM586.119 237V239H588.119V237H586.119ZM586.119 162.76V160.76H584.119V162.76H586.119ZM614.279 162.76V164.76H616.279V162.76H614.279ZM614.279 147.4H616.279V145.4H614.279V147.4ZM538.423 147.4V162.76H542.423V147.4H538.423ZM540.423 164.76H568.455V160.76H540.423V164.76ZM566.455 162.76V237H570.455V162.76H566.455ZM568.455 239H586.119V235H568.455V239ZM588.119 237V162.76H584.119V237H588.119ZM586.119 164.76H614.279V160.76H586.119V164.76ZM616.279 162.76V147.4H612.279V162.76H616.279ZM614.279 145.4H540.423V149.4H614.279V145.4ZM645.047 199.112V197.112H643.047V199.112H645.047ZM688.439 199.112V201.112H690.439V199.112H688.439ZM688.439 184.008H690.439V182.008H688.439V184.008ZM645.047 184.008H643.047V186.008H645.047V184.008ZM645.047 162.76V160.76H643.047V162.76H645.047ZM690.743 162.76V164.76H692.743V162.76H690.743ZM690.743 147.4H692.743V145.4H690.743V147.4ZM627.639 147.4V145.4H625.639V147.4H627.639ZM627.639 237H625.639V239H627.639V237ZM691.767 237V239H693.767V237H691.767ZM691.767 221.512H693.767V219.512H691.767V221.512ZM645.047 221.512H643.047V223.512H645.047V221.512ZM645.047 201.112H688.439V197.112H645.047V201.112ZM690.439 199.112V184.008H686.439V199.112H690.439ZM688.439 182.008H645.047V186.008H688.439V182.008ZM647.047 184.008V162.76H643.047V184.008H647.047ZM645.047 164.76H690.743V160.76H645.047V164.76ZM692.743 162.76V147.4H688.743V162.76H692.743ZM690.743 145.4H627.639V149.4H690.743V145.4ZM625.639 147.4V237H629.639V147.4H625.639ZM627.639 239H691.767V235H627.639V239ZM693.767 237V221.512H689.767V237H693.767ZM691.767 219.512H645.047V223.512H691.767V219.512ZM647.047 221.512V199.112H643.047V221.512H647.047ZM777.53 199.752H775.53V201.752H777.53V199.752ZM801.978 199.752H803.978V197.752H801.978V199.752ZM801.978 216.52L803.223 218.085L803.978 217.485V216.52H801.978ZM805.434 169.672L804.202 171.248L805.815 172.509L807.038 170.867L805.434 169.672ZM814.778 157.128L816.382 158.323L817.499 156.823L816.078 155.608L814.778 157.128ZM817.594 223.944L819.045 225.321L819.594 224.742V223.944H817.594ZM817.594 185.032H819.594V183.032H817.594V185.032ZM777.53 185.032V183.032H775.53V185.032H777.53ZM777.53 201.752H801.978V197.752H777.53V201.752ZM799.978 199.752V216.52H803.978V199.752H799.978ZM800.733 214.955C795.5 219.117 789.043 221.304 780.986 221.304V225.304C789.825 225.304 797.192 222.883 803.223 218.085L800.733 214.955ZM780.986 221.304C772.435 221.304 765.634 218.406 760.961 213.396C756.273 208.37 753.546 201.024 753.546 191.816H749.546C749.546 201.808 752.515 210.206 758.035 216.124C763.57 222.058 771.489 225.304 780.986 225.304V221.304ZM753.546 191.816C753.546 182.896 756.349 175.752 761.151 170.847C765.949 165.946 772.923 163.096 781.626 163.096V159.096C772.025 159.096 763.959 162.262 758.293 168.049C752.631 173.832 749.546 182.048 749.546 191.816H753.546ZM781.626 163.096C790.331 163.096 797.459 165.976 804.202 171.248L806.666 168.096C799.329 162.36 791.353 159.096 781.626 159.096V163.096ZM807.038 170.867L816.382 158.323L813.174 155.933L803.83 168.477L807.038 170.867ZM816.078 155.608C807.793 148.526 795.945 143.352 781.626 143.352V147.352C794.956 147.352 805.891 152.162 813.478 158.648L816.078 155.608ZM781.626 143.352C767.075 143.352 754.585 148.386 745.725 157.128C736.864 165.872 731.754 178.208 731.754 192.584H735.754C735.754 179.184 740.5 167.904 748.535 159.976C756.571 152.046 768.017 147.352 781.626 147.352V143.352ZM731.754 192.584C731.754 207.048 736.518 219.171 745.08 227.682C753.64 236.192 765.825 240.92 780.346 240.92V236.92C766.707 236.92 755.596 232.496 747.9 224.846C740.206 217.197 735.754 206.152 735.754 192.584H731.754ZM780.346 240.92C796.184 240.92 809.149 235.751 819.045 225.321L816.143 222.567C807.094 232.105 795.228 236.92 780.346 236.92V240.92ZM819.594 223.944V185.032H815.594V223.944H819.594ZM817.594 183.032H777.53V187.032H817.594V183.032ZM775.53 185.032V199.752H779.53V185.032H775.53ZM853.172 199.112V197.112H851.172V199.112H853.172ZM896.564 199.112V201.112H898.564V199.112H896.564ZM896.564 184.008H898.564V182.008H896.564V184.008ZM853.172 184.008H851.172V186.008H853.172V184.008ZM853.172 162.76V160.76H851.172V162.76H853.172ZM898.868 162.76V164.76H900.868V162.76H898.868ZM898.868 147.4H900.868V145.4H898.868V147.4ZM835.764 147.4V145.4H833.764V147.4H835.764ZM835.764 237H833.764V239H835.764V237ZM899.892 237V239H901.892V237H899.892ZM899.892 221.512H901.892V219.512H899.892V221.512ZM853.172 221.512H851.172V223.512H853.172V221.512ZM853.172 201.112H896.564V197.112H853.172V201.112ZM898.564 199.112V184.008H894.564V199.112H898.564ZM896.564 182.008H853.172V186.008H896.564V182.008ZM855.172 184.008V162.76H851.172V184.008H855.172ZM853.172 164.76H898.868V160.76H853.172V164.76ZM900.868 162.76V147.4H896.868V162.76H900.868ZM898.868 145.4H835.764V149.4H898.868V145.4ZM833.764 147.4V237H837.764V147.4H833.764ZM835.764 239H899.892V235H835.764V239ZM901.892 237V221.512H897.892V237H901.892ZM899.892 219.512H853.172V223.512H899.892V219.512ZM855.172 221.512V199.112H851.172V221.512H855.172ZM992.659 226.632L994.028 228.09L995.342 226.857L994.251 225.422L992.659 226.632ZM982.931 213.832L984.523 212.622L983.236 210.928L981.625 212.317L982.931 213.832ZM982.163 170.824L980.859 172.341L982.46 173.717L983.748 172.044L982.163 170.824ZM992.019 158.024L993.604 159.244L994.736 157.774L993.354 156.535L992.019 158.024ZM958.995 240.92C973.395 240.92 985.295 236.286 994.028 228.09L991.29 225.174C983.383 232.594 972.499 236.92 958.995 236.92V240.92ZM994.251 225.422L984.523 212.622L981.339 215.042L991.067 227.842L994.251 225.422ZM981.625 212.317C974.566 218.402 967.607 220.792 959.251 220.792V224.792C968.559 224.792 976.448 222.062 984.237 215.347L981.625 212.317ZM959.251 220.792C950.909 220.792 943.99 217.84 939.154 212.827C934.313 207.809 931.427 200.586 931.427 191.816H927.427C927.427 201.478 930.621 209.743 936.276 215.605C941.935 221.472 949.929 224.792 959.251 224.792V220.792ZM931.427 191.816C931.427 183.312 934.275 176.282 939.05 171.389C943.823 166.499 950.649 163.608 958.867 163.608V159.608C949.677 159.608 941.783 162.861 936.188 168.595C930.595 174.325 927.427 182.4 927.427 191.816H931.427ZM958.867 163.608C967.028 163.608 973.874 166.336 980.859 172.341L983.467 169.307C975.86 162.768 968.114 159.608 958.867 159.608V163.608ZM983.748 172.044L993.604 159.244L990.434 156.804L980.578 169.604L983.748 172.044ZM993.354 156.535C984.302 148.414 972.568 143.48 959.251 143.48V147.48C971.534 147.48 982.328 152.018 990.683 159.513L993.354 156.535ZM959.251 143.48C944.711 143.48 932.221 148.411 923.356 157.091C914.487 165.775 909.379 178.084 909.379 192.584H913.379C913.379 179.052 918.127 167.809 926.154 159.949C934.185 152.085 945.631 147.48 959.251 147.48V143.48ZM909.379 192.584C909.379 206.758 914.323 218.877 923.084 227.453C931.842 236.027 944.272 240.92 958.995 240.92V236.92C945.174 236.92 933.796 232.341 925.882 224.595C917.971 216.851 913.379 205.802 913.379 192.584H909.379Z" fill="url(#paint3_linear_3195_4342)"/>
</g>
<defs>
<filter id="filter0_b_3195_4342" x="-10" y="-10" width="1033" height="276" filterUnits="userSpaceOnUse" color-interpolation-filters="sRGB">
<feFlood flood-opacity="0" result="BackgroundImageFix"/>
<feGaussianBlur in="BackgroundImage" stdDeviation="5"/>
<feComposite in2="SourceAlpha" operator="in" result="effect1_backgroundBlur_3195_4342"/>
<feBlend mode="normal" in="SourceGraphic" in2="effect1_backgroundBlur_3195_4342" result="shape"/>
</filter>
<linearGradient id="paint0_linear_3195_4342" x1="506.5" y1="109" x2="506.5" y2="0" gradientUnits="userSpaceOnUse">
<stop stop-color="#8247E5"/>
<stop offset="1" stop-color="#8247E5" stop-opacity="0"/>
</linearGradient>
<linearGradient id="paint1_linear_3195_4342" x1="506.5" y1="0" x2="506.5" y2="128" gradientUnits="userSpaceOnUse">
<stop stop-color="white"/>
<stop offset="1" stop-color="white" stop-opacity="0"/>
</linearGradient>
<linearGradient id="paint2_linear_3195_4342" x1="506.5" y1="237" x2="506.5" y2="128" gradientUnits="userSpaceOnUse">
<stop stop-color="#8247E5"/>
<stop offset="1" stop-color="#8247E5" stop-opacity="0"/>
</linearGradient>
<linearGradient id="paint3_linear_3195_4342" x1="506.5" y1="128" x2="506.5" y2="256" gradientUnits="userSpaceOnUse">
<stop stop-color="white"/>
<stop offset="1" stop-color="white" stop-opacity="0"/>
</linearGradient>
</defs>
</svg>
