<svg width="227" height="60" viewBox="0 0 227 60" fill="none" xmlns="http://www.w3.org/2000/svg">
<g filter="url(#filter0_b_3227_4427)">
<g clip-path="url(#clip0_3227_4427)">
<path d="M0 6C0 2.68629 2.68629 0 6 0H221C224.314 0 227 2.68629 227 6V54C227 57.3137 224.314 60 221 60H6C2.6863 60 0 57.3137 0 54V6Z" fill="url(#paint0_linear_3227_4427)"/>
<path d="M37.1639 30.451C37.1801 29.199 37.5127 27.9714 38.1309 26.8825C38.7491 25.7936 39.6328 24.8787 40.6998 24.2229C40.022 23.2552 39.1278 22.4587 38.0883 21.8969C37.0487 21.3351 35.8925 21.0233 34.7113 20.9864C32.1917 20.722 29.7491 22.4936 28.4652 22.4936C27.1564 22.4936 25.1796 21.0126 23.0509 21.0564C21.674 21.1009 20.3321 21.5012 19.1559 22.2182C17.9798 22.9353 17.0095 23.9448 16.3396 25.1482C13.4378 30.1708 15.6023 37.5524 18.382 41.6123C19.7727 43.6004 21.3981 45.821 23.5249 45.7423C25.6061 45.656 26.3834 44.4156 28.8955 44.4156C31.3844 44.4156 32.1136 45.7423 34.2836 45.6922C36.5168 45.656 37.9238 43.6954 39.2658 41.6885C40.265 40.272 41.0339 38.7064 41.544 37.0497C40.2466 36.5011 39.1394 35.5829 38.3605 34.4094C37.5816 33.236 37.1654 31.8593 37.1639 30.451Z" fill="white"/>
<path d="M33.0653 18.3163C34.283 16.855 34.8828 14.9767 34.7376 13.0804C32.8773 13.2757 31.1589 14.1646 29.9248 15.5698C29.3214 16.2563 28.8593 17.055 28.5649 17.9201C28.2704 18.7853 28.1494 19.6999 28.2088 20.6119C29.1393 20.6215 30.0598 20.4198 30.901 20.0222C31.7422 19.6246 32.4823 19.0413 33.0653 18.3163Z" fill="white"/>
<path d="M53.3854 36.7244C53.3888 36.5607 53.4405 36.4017 53.5339 36.2673C53.6273 36.1329 53.7583 36.029 53.9106 35.9687C54.0628 35.9084 54.2294 35.8944 54.3896 35.9284C54.5497 35.9624 54.6963 36.0428 54.8109 36.1597C54.9255 36.2766 55.0031 36.4247 55.0338 36.5855C55.0646 36.7463 55.0472 36.9125 54.9839 37.0635C54.9205 37.2144 54.814 37.3433 54.6777 37.434C54.5414 37.5246 54.3814 37.5731 54.2177 37.5732C54.1068 37.5738 53.9969 37.552 53.8946 37.5094C53.7923 37.4667 53.6996 37.4039 53.622 37.3247C53.5444 37.2456 53.4834 37.1516 53.4428 37.0485C53.4022 36.9454 53.3826 36.8352 53.3854 36.7244ZM53.5217 47.3555V38.4053H54.9122V47.3555H53.5217Z" fill="white"/>
<path d="M57.1863 40.6011H58.4698V41.6733H58.5695C58.7387 41.2881 59.0238 40.9653 59.3852 40.7497C59.7466 40.5342 60.1662 40.4366 60.5857 40.4707C60.9144 40.446 61.2445 40.4955 61.5515 40.6157C61.8585 40.7358 62.1345 40.9235 62.3591 41.1648C62.5837 41.406 62.7511 41.6947 62.8489 42.0094C62.9467 42.3242 62.9725 42.6569 62.9242 42.9829V47.3554H61.5908V43.3169C61.5908 42.2315 61.119 41.6924 60.1329 41.6924C59.9098 41.682 59.687 41.7199 59.4799 41.8036C59.2728 41.8873 59.0862 42.0148 58.933 42.1773C58.7798 42.3398 58.6635 42.5335 58.5922 42.7451C58.5208 42.9567 58.4961 43.1813 58.5196 43.4033V47.3555H57.1863V40.6011Z" fill="white"/>
<path d="M64.6518 43.9746C64.6518 41.8403 65.7493 40.4883 67.4563 40.4883C67.8785 40.469 68.2975 40.5702 68.6644 40.78C69.0312 40.9898 69.3308 41.2996 69.5282 41.6733H69.6278V37.9644H70.9613V47.3555H69.6835V46.2876H69.578C69.3656 46.6589 69.0556 46.9651 68.6816 47.1729C68.3076 47.3808 67.8839 47.4824 67.4563 47.4668C65.7376 47.4668 64.6518 46.1147 64.6518 43.9746ZM66.0292 43.9746C66.0292 45.4072 66.7047 46.27 67.8344 46.27C68.9582 46.27 69.6528 45.3955 69.6528 43.9805C69.6528 42.5727 68.9509 41.6865 67.8344 41.6865C66.7119 41.6865 66.0291 42.5537 66.0291 43.9746H66.0292Z" fill="white"/>
<path d="M72.9744 38.603C72.9643 38.4304 73.0063 38.2587 73.0949 38.1102C73.1834 37.9617 73.3146 37.8432 73.4713 37.7701C73.628 37.6969 73.8031 37.6725 73.9739 37.6999C74.1446 37.7274 74.3032 37.8054 74.4291 37.924C74.555 38.0426 74.6424 38.1962 74.6799 38.365C74.7175 38.5338 74.7035 38.71 74.6397 38.8707C74.576 39.0315 74.4654 39.1694 74.3224 39.2666C74.1794 39.3638 74.0104 39.4159 73.8375 39.416C73.7268 39.4217 73.6162 39.4049 73.5122 39.3667C73.4083 39.3284 73.3131 39.2696 73.2325 39.1936C73.1518 39.1177 73.0874 39.0262 73.0431 38.9247C72.9987 38.8232 72.9754 38.7138 72.9744 38.603ZM73.1723 40.601H74.5012V47.3554H73.1723V40.601Z" fill="white"/>
<path d="M76.6523 40.6011H77.9358V41.6367H78.0355C78.1791 41.2771 78.433 40.9723 78.7608 40.7659C79.0885 40.5596 79.4733 40.4624 79.8597 40.4883C80.0594 40.486 80.2588 40.5046 80.4546 40.544V41.8595C80.2098 41.8075 79.9605 41.7806 79.7103 41.7789C79.4903 41.7591 79.2687 41.7856 79.0596 41.8566C78.8506 41.9276 78.6586 42.0415 78.4962 42.191C78.3338 42.3406 78.2045 42.5224 78.1165 42.7249C78.0286 42.9274 77.984 43.146 77.9857 43.3668V47.3555H76.6523L76.6523 40.6011Z" fill="white"/>
<path d="M81.854 38.603C81.8438 38.4304 81.8858 38.2587 81.9744 38.1102C82.063 37.9617 82.1941 37.8432 82.3508 37.7701C82.5075 37.6969 82.6826 37.6725 82.8534 37.6999C83.0242 37.7274 83.1827 37.8054 83.3086 37.924C83.4345 38.0426 83.5219 38.1962 83.5594 38.365C83.597 38.5338 83.583 38.71 83.5193 38.8707C83.4555 39.0315 83.345 39.1694 83.2019 39.2666C83.0589 39.3638 82.89 39.4159 82.717 39.416C82.6064 39.4217 82.4957 39.4049 82.3917 39.3667C82.2878 39.3284 82.1926 39.2696 82.112 39.1936C82.0313 39.1177 81.9669 39.0262 81.9226 38.9247C81.8782 38.8232 81.8549 38.7138 81.854 38.603ZM82.0518 40.601H83.3808V47.3554H82.0518V40.601Z" fill="white"/>
<path d="M85.5317 40.6011H86.8153V41.6733H86.915C87.0842 41.2881 87.3693 40.9653 87.7307 40.7497C88.0921 40.5342 88.5117 40.4366 88.9311 40.4707C89.2599 40.446 89.59 40.4955 89.897 40.6157C90.204 40.7358 90.48 40.9235 90.7046 41.1648C90.9291 41.406 91.0965 41.6947 91.1944 42.0094C91.2922 42.3242 91.318 42.6569 91.2697 42.9829V47.3554H89.9363V43.3169C89.9363 42.2315 89.4645 41.6924 88.4784 41.6924C88.2552 41.682 88.0325 41.7199 87.8254 41.8036C87.6183 41.8873 87.4317 42.0148 87.2785 42.1773C87.1253 42.3398 87.009 42.5335 86.9376 42.7451C86.8663 42.9567 86.8415 43.1813 86.8651 43.4033V47.3555H85.5317V40.6011Z" fill="white"/>
<path d="M63.4752 26.2156H56.373L54.6675 31.2502H51.6593L58.3863 12.6232H61.5117L68.2387 31.2502H65.1793L63.4752 26.2156ZM57.1086 23.8923H62.7382L59.9629 15.7215H59.8853L57.1086 23.8923Z" fill="white"/>
<path d="M82.7668 24.4607C82.7668 28.6809 80.5074 31.3923 77.0977 31.3923C76.234 31.4375 75.375 31.2386 74.6191 30.8184C73.8632 30.3982 73.2409 29.7737 72.8236 29.0163H72.759V35.7429H69.9706V17.6697H72.6697V19.9285H72.7209C73.1575 19.1748 73.7903 18.5535 74.5519 18.1307C75.3136 17.708 76.1757 17.4995 77.0464 17.5276C80.4942 17.5276 82.7668 20.2522 82.7668 24.4607ZM79.9008 24.4607C79.9008 21.7112 78.4794 19.9036 76.3109 19.9036C74.1804 19.9036 72.7473 21.7493 72.7473 24.4607C72.7473 27.197 74.1804 29.0295 76.3109 29.0295C78.4795 29.0295 79.9008 27.2351 79.9008 24.4607H79.9008Z" fill="white"/>
<path d="M97.7176 24.4607C97.7176 28.6809 95.4589 31.3923 92.0492 31.3923C91.1855 31.4375 90.3265 31.2386 89.5706 30.8184C88.8147 30.3982 88.1924 29.7737 87.775 29.0164H87.7105V35.7429H84.9221V17.6697H87.6211V19.9285H87.6724C88.109 19.1748 88.7418 18.5535 89.5034 18.1307C90.2651 17.708 91.1271 17.4995 91.9979 17.5276C95.4457 17.5276 97.7176 20.2522 97.7176 24.4607ZM94.8523 24.4607C94.8523 21.7112 93.431 19.9036 91.2624 19.9036C89.1319 19.9036 87.6989 21.7493 87.6989 24.4607C87.6989 27.197 89.1319 29.0295 91.2624 29.0295C93.431 29.0295 94.8523 27.2351 94.8523 24.4607H94.8523Z" fill="white"/>
<path d="M107.599 26.0603C107.806 27.9075 109.601 29.1203 112.054 29.1203C114.404 29.1203 116.095 27.9074 116.095 26.2419C116.095 24.7961 115.075 23.9304 112.66 23.3371L110.246 22.7556C106.824 21.9294 105.236 20.3298 105.236 17.7341C105.236 14.5202 108.037 12.3127 112.016 12.3127C115.953 12.3127 118.652 14.5202 118.743 17.7341H115.928C115.759 15.8752 114.222 14.7531 111.976 14.7531C109.73 14.7531 108.193 15.8884 108.193 17.5407C108.193 18.8576 109.174 19.6325 111.576 20.2257L113.629 20.7296C117.452 21.6334 119.04 23.1686 119.04 25.8932C119.04 29.3781 116.263 31.5607 111.847 31.5607C107.715 31.5607 104.925 29.4293 104.745 26.0602L107.599 26.0603Z" fill="white"/>
<path d="M125.058 14.4558V17.6697H127.641V19.8772H125.058V27.364C125.058 28.5271 125.575 29.0691 126.711 29.0691C127.017 29.0638 127.324 29.0422 127.628 29.0046V31.1989C127.117 31.2943 126.598 31.3375 126.079 31.3278C123.329 31.3278 122.256 30.2951 122.256 27.6613V19.8772H120.281V17.6697H122.256V14.4558H125.058Z" fill="white"/>
<path d="M129.137 24.4607C129.137 20.1877 131.655 17.5027 135.58 17.5027C139.519 17.5027 142.024 20.1877 142.024 24.4607C142.024 28.7454 139.532 31.4187 135.58 31.4187C131.63 31.4187 129.137 28.7454 129.137 24.4607ZM139.183 24.4607C139.183 21.5295 137.839 19.7996 135.58 19.7996C133.321 19.7996 131.978 21.5427 131.978 24.4607C131.978 27.4036 133.321 29.1204 135.58 29.1204C137.839 29.1204 139.183 27.4035 139.183 24.4607H139.183Z" fill="white"/>
<path d="M144.323 17.6697H146.983V19.9812H147.047C147.227 19.2592 147.65 18.6213 148.245 18.1744C148.84 17.7276 149.571 17.4992 150.315 17.5276C150.636 17.5264 150.956 17.5613 151.27 17.6316V20.239C150.864 20.1151 150.441 20.0582 150.017 20.0705C149.612 20.0541 149.208 20.1255 148.833 20.2798C148.458 20.4342 148.121 20.6678 147.845 20.9646C147.569 21.2615 147.361 21.6145 147.234 21.9995C147.108 22.3845 147.066 22.7924 147.112 23.195V31.2502H144.323V17.6697Z" fill="white"/>
<path d="M164.126 27.2615C163.751 29.7268 161.349 31.4187 158.277 31.4187C154.325 31.4187 151.872 28.7717 151.872 24.5251C151.872 20.2654 154.338 17.5027 158.16 17.5027C161.918 17.5027 164.281 20.0837 164.281 24.2014V25.1565H154.687V25.3249C154.643 25.8247 154.705 26.3282 154.871 26.802C155.036 27.2758 155.3 27.7089 155.646 28.0728C155.991 28.4366 156.411 28.7227 156.875 28.9122C157.34 29.1016 157.84 29.1901 158.341 29.1716C159 29.2333 159.662 29.0808 160.227 28.7366C160.792 28.3925 161.231 27.8751 161.478 27.2615L164.126 27.2615ZM154.7 23.2083H161.492C161.517 22.7589 161.448 22.3091 161.291 21.8873C161.134 21.4655 160.892 21.0807 160.579 20.7571C160.266 20.4334 159.89 20.1779 159.473 20.0066C159.057 19.8353 158.61 19.7518 158.16 19.7615C157.706 19.7588 157.255 19.846 156.835 20.0181C156.415 20.1902 156.033 20.4438 155.711 20.7643C155.39 21.0847 155.135 21.4657 154.961 21.8851C154.788 22.3046 154.699 22.7543 154.7 23.2083Z" fill="white"/>
<path d="M166.154 19.4392L167.678 12.6233H170.389L168.543 19.4392H166.154Z" fill="white"/>
<path d="M170.267 24.4607C170.267 20.2654 172.578 17.5276 175.948 17.5276C176.812 17.4846 177.671 17.6873 178.426 18.1122C179.18 18.5371 179.798 19.1668 180.209 19.9285H180.262V12.6233H183.063V31.2503H180.351V28.9403H180.3C179.886 29.7177 179.26 30.3613 178.494 30.7956C177.728 31.2299 176.854 31.437 175.974 31.3924C172.578 31.3923 170.267 28.656 170.267 24.4607ZM173.12 24.4607C173.12 27.2483 174.541 29.0295 176.71 29.0295C178.853 29.0295 180.286 27.2219 180.286 24.4607C180.286 21.7229 178.853 19.9036 176.71 19.9036C174.541 19.9035 173.12 21.698 173.12 24.4607H173.12Z" fill="white"/>
<path d="M185.52 27.3904C185.52 25.0159 187.34 23.5818 190.568 23.3884L194.287 23.1818V22.1491C194.287 20.6389 193.294 19.7863 191.603 19.7863C190.976 19.7027 190.34 19.8509 189.814 20.2028C189.289 20.5548 188.91 21.0864 188.748 21.6979H186.14C186.218 19.2443 188.502 17.5026 191.679 17.5026C194.92 17.5026 197.064 19.2707 197.064 21.9426V31.2503H194.391V29.0164H194.327C193.899 29.7738 193.275 30.4024 192.521 30.8364C191.766 31.2703 190.909 31.4937 190.039 31.4832C189.468 31.5391 188.891 31.4749 188.346 31.2947C187.801 31.1145 187.299 30.8223 186.873 30.4369C186.448 30.0515 186.108 29.5813 185.875 29.0567C185.642 28.532 185.521 27.9644 185.52 27.3904ZM194.287 26.1643V25.1184L190.943 25.325C189.277 25.429 188.335 26.1511 188.335 27.3128C188.335 28.5008 189.317 29.2756 190.814 29.2756C191.248 29.305 191.683 29.2473 192.094 29.1059C192.505 28.9645 192.884 28.7423 193.207 28.4523C193.531 28.1623 193.793 27.8105 193.979 27.4175C194.164 27.0245 194.269 26.5984 194.287 26.1643H194.287Z" fill="white"/>
<path d="M199.905 17.6697H202.564V19.9812H202.629C203.007 19.1851 203.618 18.5228 204.382 18.0824C205.145 17.642 206.025 17.4444 206.903 17.5159C209.9 17.5159 211.617 19.4392 211.617 22.5491V31.2503H208.815V23.091C208.815 21.052 207.872 19.9167 205.91 19.9167C205.458 19.9053 205.01 19.9908 204.595 20.1674C204.179 20.3439 203.807 20.6075 203.502 20.9403C203.197 21.273 202.967 21.6673 202.828 22.0964C202.688 22.5256 202.642 22.9796 202.693 23.4279V31.2503H199.905V17.6697Z" fill="white"/>
</g>
<path d="M6 0.5H221V-0.5H6V0.5ZM226.5 6V54H227.5V6H226.5ZM221 59.5H6V60.5H221V59.5ZM0.5 54V6H-0.5V54H0.5ZM6 59.5C2.96244 59.5 0.5 57.0376 0.5 54H-0.5C-0.5 57.5899 2.41015 60.5 6 60.5V59.5ZM226.5 54C226.5 57.0376 224.038 59.5 221 59.5V60.5C224.59 60.5 227.5 57.5898 227.5 54H226.5ZM221 0.5C224.038 0.5 226.5 2.96243 226.5 6H227.5C227.5 2.41015 224.59 -0.5 221 -0.5V0.5ZM6 -0.5C2.41015 -0.5 -0.5 2.41015 -0.5 6H0.5C0.5 2.96244 2.96243 0.5 6 0.5V-0.5Z" fill="url(#paint1_linear_3227_4427)"/>
</g>
<defs>
<filter id="filter0_b_3227_4427" x="-10" y="-10" width="247" height="80" filterUnits="userSpaceOnUse" color-interpolation-filters="sRGB">
<feFlood flood-opacity="0" result="BackgroundImageFix"/>
<feGaussianBlur in="BackgroundImage" stdDeviation="5"/>
<feComposite in2="SourceAlpha" operator="in" result="effect1_backgroundBlur_3227_4427"/>
<feBlend mode="normal" in="SourceGraphic" in2="effect1_backgroundBlur_3227_4427" result="shape"/>
</filter>
<linearGradient id="paint0_linear_3227_4427" x1="0" y1="0" x2="226.556" y2="60.032" gradientUnits="userSpaceOnUse">
<stop stop-color="white" stop-opacity="0.4"/>
<stop offset="1" stop-color="white" stop-opacity="0.1"/>
</linearGradient>
<linearGradient id="paint1_linear_3227_4427" x1="0" y1="0" x2="226.556" y2="60.032" gradientUnits="userSpaceOnUse">
<stop stop-color="white" stop-opacity="0.4"/>
<stop offset="1" stop-color="white" stop-opacity="0.1"/>
</linearGradient>
<clipPath id="clip0_3227_4427">
<path d="M0 6C0 2.68629 2.68629 0 6 0H221C224.314 0 227 2.68629 227 6V54C227 57.3137 224.314 60 221 60H6C2.6863 60 0 57.3137 0 54V6Z" fill="white"/>
</clipPath>
</defs>
</svg>
