<svg width="202" height="60" viewBox="0 0 202 60" fill="none" xmlns="http://www.w3.org/2000/svg">
<g filter="url(#filter0_b_3227_4428)">
<path d="M0 6C0 2.68629 2.68629 0 6 0H196C199.314 0 202 2.68629 202 6V54C202 57.3137 199.314 60 196 60H6C2.68629 60 0 57.3137 0 54V6Z" fill="url(#paint0_linear_3227_4428)"/>
<path d="M96.8104 19.2C93.6682 19.2 91.2741 21.6 91.2741 24.75C91.2741 27.9 93.8178 30.3 96.8104 30.3C99.9526 30.3 102.347 27.9 102.347 24.75C102.496 21.6 99.9526 19.2 96.8104 19.2ZM96.8104 28.2C95.1645 28.2 93.6682 26.85 93.6682 24.75C93.6682 22.8 95.1645 21.3 96.8104 21.3C98.4563 21.3 99.9526 22.65 99.9526 24.75C99.9526 26.7 98.6059 28.2 96.8104 28.2ZM84.6904 19.2C81.5482 19.2 79.1541 21.6 79.1541 24.75C79.1541 27.9 81.6978 30.3 84.6904 30.3C87.683 30.3 90.2267 27.9 90.2267 24.75C90.2267 21.6 87.683 19.2 84.6904 19.2ZM84.6904 28.2C83.0445 28.2 81.5482 26.85 81.5482 24.75C81.5482 22.8 83.0445 21.3 84.6904 21.3C86.3363 21.3 87.8326 22.65 87.8326 24.75C87.8326 26.7 86.3363 28.2 84.6904 28.2ZM70.1763 20.85V23.25H75.8622C75.7126 24.6 75.2637 25.5 74.5156 26.25C73.7674 27 72.4208 28.05 70.1763 28.05C66.7348 28.05 64.0415 25.2 64.0415 21.75C64.0415 18.3 66.7348 15.45 70.1763 15.45C72.1215 15.45 73.4682 16.2 74.366 17.1L76.0119 15.45C74.6652 14.1 72.72 13.05 70.0267 13.05C65.2385 13.05 61.1985 16.95 61.1985 21.75C61.1985 26.55 65.2385 30.45 70.0267 30.45C72.5704 30.45 74.5156 29.55 76.0119 28.05C77.5082 26.55 78.1067 24.3 78.1067 22.5C78.1067 21.9 78.1067 21.45 77.9571 21H70.1763V20.85ZM129.43 22.8C128.981 21.6 127.484 19.2 124.642 19.2C121.799 19.2 119.404 21.45 119.404 24.75C119.404 27.9 121.799 30.3 124.941 30.3C127.484 30.3 128.981 28.8 129.579 27.9L127.634 26.7C127.036 27.6 126.138 28.2 124.941 28.2C123.744 28.2 122.846 27.6 122.247 26.55L129.729 23.4L129.43 22.8ZM121.799 24.6C121.799 22.5 123.444 21.3 124.642 21.3C125.539 21.3 126.437 21.75 126.736 22.5L121.799 24.6ZM115.813 30H118.207V13.65H115.813V30ZM111.773 20.4C111.175 19.8 110.127 19.2 108.781 19.2C105.938 19.2 103.394 21.6 103.394 24.75C103.394 27.9 105.938 30.3 108.781 30.3C110.127 30.3 111.175 29.7 111.773 29.1H111.923V29.85C111.923 31.95 110.726 33.15 108.93 33.15C107.434 33.15 106.536 32.1 106.087 31.2L103.993 32.1C104.591 33.6 106.237 35.4 108.93 35.4C111.773 35.4 114.167 33.75 114.167 29.55V19.5H111.923V20.4H111.773ZM108.93 28.2C107.284 28.2 105.788 26.85 105.788 24.9C105.788 22.95 107.135 21.45 108.93 21.45C110.576 21.45 111.923 22.95 111.923 24.9C111.923 26.7 110.726 28.2 108.93 28.2ZM140.951 13.65H135.116V30H137.51V23.85H140.951C143.644 23.85 146.338 21.9 146.338 18.75C146.338 15.6 143.644 13.65 140.951 13.65ZM140.951 21.45H137.51V15.9H140.951C142.747 15.9 143.794 17.4 143.794 18.75C143.794 19.95 142.747 21.45 140.951 21.45ZM156.064 19.2C154.268 19.2 152.473 19.95 151.724 21.75L153.819 22.65C154.268 21.75 155.166 21.45 156.064 21.45C157.261 21.45 158.607 22.2 158.607 23.55V23.7C158.159 23.4 157.261 23.1 156.064 23.1C153.67 23.1 151.425 24.45 151.425 26.85C151.425 29.1 153.37 30.45 155.465 30.45C157.111 30.45 158.009 29.7 158.607 28.8H158.757V30H161.151V23.7C161.002 20.85 158.757 19.2 156.064 19.2ZM155.764 28.2C155.016 28.2 153.819 27.75 153.819 26.85C153.819 25.65 155.166 25.05 156.363 25.05C157.41 25.05 158.009 25.35 158.607 25.65C158.458 27 157.111 28.2 155.764 28.2ZM169.53 19.5L166.687 26.55H166.538L163.695 19.5H161.002L165.341 29.4L162.797 34.95H165.341L172.074 19.5H169.53ZM147.535 30H149.929V13.65H147.535V30Z" fill="white"/>
<path d="M15.5615 11.25C15.1126 11.7 14.963 12.45 14.963 13.35V46.5C14.963 47.4 15.2622 48.15 15.7111 48.6L15.8607 48.75L34.4148 30.15V30V29.85L15.5615 11.25Z" fill="url(#paint1_linear_3227_4428)"/>
<path d="M40.4 36.4499L34.2652 30.3V30V29.85L40.4 23.7L40.5496 23.85L47.8815 28.05C49.9763 29.25 49.9763 31.2 47.8815 32.4L40.4 36.4499Z" fill="url(#paint2_linear_3227_4428)"/>
<path d="M40.5496 36.3L34.2652 30L15.5615 48.75C16.3096 49.5 17.357 49.5 18.7037 48.9L40.5496 36.3Z" fill="url(#paint3_linear_3227_4428)"/>
<path d="M40.5496 23.7L18.7037 11.25C17.357 10.5 16.3096 10.65 15.5615 11.4L34.2652 30L40.5496 23.7Z" fill="url(#paint4_linear_3227_4428)"/>
<path opacity="0.25" d="M18.7037 11.4L47.8815 28.05C48.7792 28.65 49.3778 29.25 49.3778 30C49.3778 29.25 48.9289 28.5 47.8815 27.9L18.7037 11.25C16.6089 10.05 14.963 10.95 14.963 13.35V13.5C14.963 11.25 16.6089 10.2 18.7037 11.4Z" fill="white"/>
<path d="M62.5452 43.35H61.4978V40.5H62.5452V43.35Z" fill="white" stroke="white" stroke-width="0.2" stroke-miterlimit="10"/>
<path d="M64.4904 49.5V40.35H67.3334C68.6801 40.35 69.8771 40.8 70.6252 41.55C71.523 42.45 71.8223 43.5 71.8223 44.85C71.8223 46.2 71.3734 47.25 70.6252 48.15C69.7275 49.05 68.6801 49.35 67.3334 49.35H64.4904V49.5ZM65.6875 48.45H67.3334C68.3808 48.45 69.2786 48.15 69.8771 47.55C70.4756 46.95 70.7749 46.05 70.7749 45C70.7749 43.95 70.4756 43.05 69.8771 42.45C69.2786 41.85 68.3808 41.55 67.3334 41.55H65.6875V48.45Z" fill="white" stroke="white" stroke-width="0.2" stroke-miterlimit="10"/>
<path d="M78.8549 41.55H74.6652V44.4H78.406V45.45H74.6652V48.3H78.8549V49.5H73.4682V40.35H78.8549V41.55Z" fill="white" stroke="white" stroke-width="0.2" stroke-miterlimit="10"/>
<path d="M80.5008 49.5V40.35H81.9971L86.486 47.4V45.6V40.2H87.683V49.5H86.486L81.8475 42V43.8V49.5H80.5008Z" fill="white" stroke="white" stroke-width="0.2" stroke-miterlimit="10"/>
<path d="M91.4237 49.5L94.8652 40.35H96.2119L99.6533 49.5H98.3067L97.4089 47.1H93.5185L92.6207 49.5H91.4237ZM93.9674 45.9H96.96L95.4637 41.85L93.9674 45.9Z" fill="white" stroke="white" stroke-width="0.2" stroke-miterlimit="10"/>
<path d="M100.701 49.5V40.35H101.898V48.3H105.788V49.5H100.701Z" fill="white" stroke="white" stroke-width="0.2" stroke-miterlimit="10"/>
<path d="M107.135 49.5V40.35H108.332V49.5H107.135Z" fill="white" stroke="white" stroke-width="0.2" stroke-miterlimit="10"/>
<path d="M110.427 49.5V40.35H111.923L116.412 47.4V45.6V40.2H117.609V49.5H116.412L111.773 42V43.8V49.5H110.427Z" fill="white" stroke="white" stroke-width="0.2" stroke-miterlimit="10"/>
<path d="M6 1H196V-1H6V1ZM201 6V54H203V6H201ZM196 59H6V61H196V59ZM1 54V6H-1V54H1ZM6 59C3.23857 59 1 56.7614 1 54H-1C-1 57.866 2.134 61 6 61V59ZM201 54C201 56.7614 198.761 59 196 59V61C199.866 61 203 57.866 203 54H201ZM196 1C198.761 1 201 3.23858 201 6H203C203 2.13401 199.866 -1 196 -1V1ZM6 -1C2.13401 -1 -1 2.13401 -1 6H1C1 3.23858 3.23858 1 6 1V-1Z" fill="url(#paint5_linear_3227_4428)"/>
</g>
<defs>
<filter id="filter0_b_3227_4428" x="-10" y="-10" width="222" height="80" filterUnits="userSpaceOnUse" color-interpolation-filters="sRGB">
<feFlood flood-opacity="0" result="BackgroundImageFix"/>
<feGaussianBlur in="BackgroundImage" stdDeviation="5"/>
<feComposite in2="SourceAlpha" operator="in" result="effect1_backgroundBlur_3227_4428"/>
<feBlend mode="normal" in="SourceGraphic" in2="effect1_backgroundBlur_3227_4428" result="shape"/>
</filter>
<linearGradient id="paint0_linear_3227_4428" x1="0" y1="0" x2="204.396" y2="48.1953" gradientUnits="userSpaceOnUse">
<stop stop-color="white" stop-opacity="0.4"/>
<stop offset="1" stop-color="white" stop-opacity="0.1"/>
</linearGradient>
<linearGradient id="paint1_linear_3227_4428" x1="32.6189" y1="13.0647" x2="7.44543" y2="38.1761" gradientUnits="userSpaceOnUse">
<stop stop-color="#00A0FF"/>
<stop offset="0.00657445" stop-color="#00A1FF"/>
<stop offset="0.2601" stop-color="#00BEFF"/>
<stop offset="0.5122" stop-color="#00D2FF"/>
<stop offset="0.7604" stop-color="#00DFFF"/>
<stop offset="1" stop-color="#00E3FF"/>
</linearGradient>
<linearGradient id="paint2_linear_3227_4428" x1="50.6264" y1="30.0023" x2="14.4207" y2="30.0023" gradientUnits="userSpaceOnUse">
<stop stop-color="#FFE000"/>
<stop offset="0.4087" stop-color="#FFBD00"/>
<stop offset="0.7754" stop-color="#FFA500"/>
<stop offset="1" stop-color="#FF9C00"/>
</linearGradient>
<linearGradient id="paint3_linear_3227_4428" x1="37.1485" y1="33.4443" x2="3.01133" y2="67.4974" gradientUnits="userSpaceOnUse">
<stop stop-color="#FF3A44"/>
<stop offset="1" stop-color="#C31162"/>
</linearGradient>
<linearGradient id="paint4_linear_3227_4428" x1="10.9191" y1="0.264435" x2="26.1628" y2="15.4705" gradientUnits="userSpaceOnUse">
<stop stop-color="#32A071"/>
<stop offset="0.0685" stop-color="#2DA771"/>
<stop offset="0.4762" stop-color="#15CF74"/>
<stop offset="0.8009" stop-color="#06E775"/>
<stop offset="1" stop-color="#00F076"/>
</linearGradient>
<linearGradient id="paint5_linear_3227_4428" x1="0" y1="0" x2="204.396" y2="48.1953" gradientUnits="userSpaceOnUse">
<stop stop-color="white" stop-opacity="0.4"/>
<stop offset="1" stop-color="white" stop-opacity="0.1"/>
</linearGradient>
</defs>
</svg>
