<svg width="389" height="68" viewBox="0 0 389 68" fill="none" xmlns="http://www.w3.org/2000/svg">
<path d="M73.5093 68L44.1333 0.799995H29.8293L0.45325 68H14.5653L20.2293 54.848H53.3493L59.0133 68H73.5093ZM32.5173 24.224C34.7253 18.56 36.1653 15.008 36.7413 13.376H37.0293C37.5093 14.912 38.7573 18.272 41.0613 24.032L48.6453 43.328H24.9333L32.5173 24.224ZM108.564 68L135.732 0.799995H121.524L109.332 32.192C105.108 43.04 103.38 48.896 102.036 53.408H101.844C100.5 48.896 97.7155 40.448 94.5475 32.192L82.2595 0.799995H67.7635L94.9315 68H108.564ZM202.978 68L173.602 0.799995H159.298L129.922 68H144.034L149.698 54.848H182.818L188.482 68H202.978ZM161.986 24.224C164.194 18.56 165.634 15.008 166.21 13.376H166.498C166.978 14.912 168.226 18.272 170.53 24.032L178.114 43.328H154.402L161.986 24.224ZM199.13 0.799995V12.32H220.154V68H233.402V12.32H254.522V0.799995H199.13ZM323.728 68L294.352 0.799995H280.048L250.672 68H264.784L270.448 54.848H303.568L309.232 68H323.728ZM282.736 24.224C284.944 18.56 286.384 15.008 286.96 13.376H287.248C287.728 14.912 288.976 18.272 291.28 24.032L298.864 43.328H275.152L282.736 24.224ZM388.758 68L368.886 44.384C379.062 41.696 385.302 33.824 385.302 22.976C385.302 9.72799 375.51 0.799995 361.302 0.799995H332.886V68H346.326V45.44H354.198L372.534 68H388.758ZM371.958 23.552C371.958 30.368 367.638 34.4 360.246 34.4H346.23V12.32H360.15C367.638 12.32 371.958 16.448 371.958 23.552Z" fill="white" fill-opacity="0.08"/>
<path d="M73.5092 68V69H75.0378L74.4255 67.5995L73.5092 68ZM44.1332 0.799995L45.0495 0.399451L44.7875 -0.200005H44.1332V0.799995ZM29.8293 0.799995V-0.200005H29.175L28.913 0.399451L29.8293 0.799995ZM0.453247 68L-0.463013 67.5995L-1.07526 69H0.453247V68ZM14.5652 68V69H15.2234L15.4837 68.3955L14.5652 68ZM20.2292 54.848V53.848H19.5711L19.3108 54.4525L20.2292 54.848ZM53.3492 54.848L54.2677 54.4525L54.0074 53.848H53.3492V54.848ZM59.0132 68L58.0948 68.3955L58.3551 69H59.0132V68ZM32.5172 24.224L33.4467 24.593L33.449 24.5872L32.5172 24.224ZM36.7412 13.376V12.376H36.0338L35.7982 13.0432L36.7412 13.376ZM37.0292 13.376L37.9837 13.0777L37.7644 12.376H37.0292V13.376ZM41.0612 24.032L41.992 23.6662L41.9897 23.6606L41.0612 24.032ZM48.6453 43.328V44.328H50.1128L49.576 42.9622L48.6453 43.328ZM24.9333 43.328L24.0038 42.959L23.4604 44.328H24.9333V43.328ZM74.4255 67.5995L45.0495 0.399451L43.217 1.20054L72.593 68.4005L74.4255 67.5995ZM44.1332 -0.200005H29.8293V1.8H44.1332V-0.200005ZM28.913 0.399451L-0.463013 67.5995L1.36954 68.4005L30.7455 1.20054L28.913 0.399451ZM0.453247 69H14.5652V67H0.453247V69ZM15.4837 68.3955L21.1477 55.2435L19.3108 54.4525L13.6468 67.6045L15.4837 68.3955ZM20.2292 55.848H53.3492V53.848H20.2292V55.848ZM52.4308 55.2435L58.0948 68.3955L59.9317 67.6045L54.2677 54.4525L52.4308 55.2435ZM59.0132 69H73.5092V67H59.0132V69ZM33.449 24.5872C35.646 18.9512 37.1012 15.3608 37.6842 13.7088L35.7982 13.0432C35.2293 14.6552 33.8045 18.1688 31.5855 23.8608L33.449 24.5872ZM36.7412 14.376H37.0292V12.376H36.7412V14.376ZM36.0748 13.6743C36.5681 15.253 37.8306 18.6479 40.1328 24.4034L41.9897 23.6606C39.6839 17.8961 38.4504 14.571 37.9837 13.0777L36.0748 13.6743ZM40.1306 24.3978L47.7146 43.6938L49.576 42.9622L41.9919 23.6662L40.1306 24.3978ZM48.6453 42.328H24.9333V44.328H48.6453V42.328ZM25.8627 43.697L33.4467 24.593L31.5878 23.855L24.0038 42.959L25.8627 43.697ZM108.564 68V69H109.238L109.491 68.3748L108.564 68ZM135.732 0.799995L136.659 1.17481L137.214 -0.200005H135.732V0.799995ZM121.523 0.799995V-0.200005H120.839L120.591 0.437962L121.523 0.799995ZM109.332 32.192L110.263 32.5548L110.264 32.554L109.332 32.192ZM102.035 53.408V54.408H102.781L102.994 53.6935L102.035 53.408ZM101.844 53.408L100.885 53.6935L101.098 54.408H101.844V53.408ZM94.5475 32.192L95.4811 31.8337L95.4787 31.8275L94.5475 32.192ZM82.2595 0.799995L83.1907 0.435489L82.942 -0.200005H82.2595V0.799995ZM67.7635 0.799995V-0.200005H66.2806L66.8364 1.17481L67.7635 0.799995ZM94.9315 68L94.0044 68.3748L94.2571 69H94.9315V68ZM109.491 68.3748L136.659 1.17481L134.804 0.425182L107.636 67.6252L109.491 68.3748ZM135.732 -0.200005H121.523V1.8H135.732V-0.200005ZM120.591 0.437962L108.399 31.83L110.264 32.554L122.456 1.16203L120.591 0.437962ZM108.4 31.8292C104.162 42.7122 102.425 48.5966 101.077 53.1225L102.994 53.6935C104.334 49.1954 106.053 43.3678 110.263 32.5548L108.4 31.8292ZM102.035 52.408H101.844V54.408H102.035V52.408ZM102.802 53.1225C101.451 48.5864 98.6585 40.1142 95.4811 31.8337L93.6139 32.5502C96.7725 40.7818 99.5483 49.2055 100.885 53.6935L102.802 53.1225ZM95.4787 31.8275L83.1907 0.435489L81.3283 1.1645L93.6163 32.5565L95.4787 31.8275ZM82.2595 -0.200005H67.7635V1.8H82.2595V-0.200005ZM66.8364 1.17481L94.0044 68.3748L95.8586 67.6252L68.6906 0.425182L66.8364 1.17481ZM94.9315 69H108.564V67H94.9315V69ZM202.978 68V69H204.507L203.894 67.5995L202.978 68ZM173.602 0.799995L174.518 0.399451L174.256 -0.200005H173.602V0.799995ZM159.298 0.799995V-0.200005H158.644L158.382 0.399451L159.298 0.799995ZM129.922 68L129.006 67.5995L128.393 69H129.922V68ZM144.034 68V69H144.692L144.952 68.3955L144.034 68ZM149.698 54.848V53.848H149.04L148.78 54.4525L149.698 54.848ZM182.818 54.848L183.736 54.4525L183.476 53.848H182.818V54.848ZM188.482 68L187.564 68.3955L187.824 69H188.482V68ZM161.986 24.224L162.915 24.593L162.918 24.5872L161.986 24.224ZM166.21 13.376V12.376H165.503L165.267 13.0432L166.21 13.376ZM166.498 13.376L167.452 13.0777L167.233 12.376H166.498V13.376ZM170.53 24.032L171.461 23.6662L171.458 23.6606L170.53 24.032ZM178.114 43.328V44.328H179.581L179.045 42.9622L178.114 43.328ZM154.402 43.328L153.473 42.959L152.929 44.328H154.402V43.328ZM203.894 67.5995L174.518 0.399451L172.686 1.20054L202.062 68.4005L203.894 67.5995ZM173.602 -0.200005H159.298V1.8H173.602V-0.200005ZM158.382 0.399451L129.006 67.5995L130.838 68.4005L160.214 1.20054L158.382 0.399451ZM129.922 69H144.034V67H129.922V69ZM144.952 68.3955L150.616 55.2435L148.78 54.4525L143.116 67.6045L144.952 68.3955ZM149.698 55.848H182.818V53.848H149.698V55.848ZM181.9 55.2435L187.564 68.3955L189.4 67.6045L183.736 54.4525L181.9 55.2435ZM188.482 69H202.978V67H188.482V69ZM162.918 24.5872C165.115 18.9512 166.57 15.3608 167.153 13.7088L165.267 13.0432C164.698 14.6552 163.273 18.1688 161.054 23.8608L162.918 24.5872ZM166.21 14.376H166.498V12.376H166.21V14.376ZM165.544 13.6743C166.037 15.253 167.299 18.6479 169.602 24.4034L171.458 23.6606C169.153 17.8961 167.919 14.571 167.452 13.0777L165.544 13.6743ZM169.599 24.3978L177.183 43.6938L179.045 42.9622L171.461 23.6662L169.599 24.3978ZM178.114 42.328H154.402V44.328H178.114V42.328ZM155.331 43.697L162.915 24.593L161.057 23.855L153.473 42.959L155.331 43.697ZM199.13 0.799995V-0.200005H198.13V0.799995H199.13ZM199.13 12.32H198.13V13.32H199.13V12.32ZM220.154 12.32H221.154V11.32H220.154V12.32ZM220.154 68H219.154V69H220.154V68ZM233.402 68V69H234.402V68H233.402ZM233.402 12.32V11.32H232.402V12.32H233.402ZM254.522 12.32V13.32H255.522V12.32H254.522ZM254.522 0.799995H255.522V-0.200005H254.522V0.799995ZM198.13 0.799995V12.32H200.13V0.799995H198.13ZM199.13 13.32H220.154V11.32H199.13V13.32ZM219.154 12.32V68H221.154V12.32H219.154ZM220.154 69H233.402V67H220.154V69ZM234.402 68V12.32H232.402V68H234.402ZM233.402 13.32H254.522V11.32H233.402V13.32ZM255.522 12.32V0.799995H253.522V12.32H255.522ZM254.522 -0.200005H199.13V1.8H254.522V-0.200005ZM323.728 68V69H325.257L324.644 67.5995L323.728 68ZM294.352 0.799995L295.268 0.399451L295.006 -0.200005H294.352V0.799995ZM280.048 0.799995V-0.200005H279.394L279.132 0.399451L280.048 0.799995ZM250.672 68L249.756 67.5995L249.143 69H250.672V68ZM264.784 68V69H265.442L265.702 68.3955L264.784 68ZM270.448 54.848V53.848H269.79L269.53 54.4525L270.448 54.848ZM303.568 54.848L304.486 54.4525L304.226 53.848H303.568V54.848ZM309.232 68L308.314 68.3955L308.574 69H309.232V68ZM282.736 24.224L283.665 24.593L283.668 24.5872L282.736 24.224ZM286.96 13.376V12.376H286.253L286.017 13.0432L286.96 13.376ZM287.248 13.376L288.202 13.0777L287.983 12.376H287.248V13.376ZM291.28 24.032L292.211 23.6662L292.208 23.6606L291.28 24.032ZM298.864 43.328V44.328H300.331L299.795 42.9622L298.864 43.328ZM275.152 43.328L274.223 42.959L273.679 44.328H275.152V43.328ZM324.644 67.5995L295.268 0.399451L293.436 1.20054L322.812 68.4005L324.644 67.5995ZM294.352 -0.200005H280.048V1.8H294.352V-0.200005ZM279.132 0.399451L249.756 67.5995L251.588 68.4005L280.964 1.20054L279.132 0.399451ZM250.672 69H264.784V67H250.672V69ZM265.702 68.3955L271.366 55.2435L269.53 54.4525L263.866 67.6045L265.702 68.3955ZM270.448 55.848H303.568V53.848H270.448V55.848ZM302.65 55.2435L308.314 68.3955L310.15 67.6045L304.486 54.4525L302.65 55.2435ZM309.232 69H323.728V67H309.232V69ZM283.668 24.5872C285.865 18.9512 287.32 15.3608 287.903 13.7088L286.017 13.0432C285.448 14.6552 284.023 18.1688 281.804 23.8608L283.668 24.5872ZM286.96 14.376H287.248V12.376H286.96V14.376ZM286.294 13.6743C286.787 15.253 288.049 18.6479 290.352 24.4034L292.208 23.6606C289.903 17.8961 288.669 14.571 288.202 13.0777L286.294 13.6743ZM290.349 24.3978L297.933 43.6938L299.795 42.9622L292.211 23.6662L290.349 24.3978ZM298.864 42.328H275.152V44.328H298.864V42.328ZM276.081 43.697L283.665 24.593L281.807 23.855L274.223 42.959L276.081 43.697ZM388.758 68V69H390.906L389.523 67.3562L388.758 68ZM368.885 44.384L368.63 43.4172L367.104 43.8202L368.12 45.0278L368.885 44.384ZM332.885 0.799995V-0.200005H331.885V0.799995H332.885ZM332.885 68H331.885V69H332.885V68ZM346.326 68V69H347.326V68H346.326ZM346.326 45.44V44.44H345.326V45.44H346.326ZM354.198 45.44L354.974 44.8093L354.673 44.44H354.198V45.44ZM372.534 68L371.758 68.6307L372.058 69H372.534V68ZM346.229 34.4H345.229V35.4H346.229V34.4ZM346.229 12.32V11.32H345.229V12.32H346.229ZM389.523 67.3562L369.651 43.7402L368.12 45.0278L387.992 68.6438L389.523 67.3562ZM369.141 45.3508C379.752 42.5479 386.302 34.2817 386.302 22.976H384.302C384.302 33.3663 378.371 40.8441 368.63 43.4172L369.141 45.3508ZM386.302 22.976C386.302 16.0929 383.751 10.2751 379.307 6.18423C374.87 2.09997 368.615 -0.200005 361.302 -0.200005V1.8C368.196 1.8 373.941 3.96402 377.952 7.65576C381.956 11.3409 384.302 16.6111 384.302 22.976H386.302ZM361.302 -0.200005H332.885V1.8H361.302V-0.200005ZM331.885 0.799995V68H333.885V0.799995H331.885ZM332.885 69H346.326V67H332.885V69ZM347.326 68V45.44H345.326V68H347.326ZM346.326 46.44H354.198V44.44H346.326V46.44ZM353.422 46.0707L371.758 68.6307L373.31 67.3693L354.974 44.8093L353.422 46.0707ZM372.534 69H388.758V67H372.534V69ZM370.958 23.552C370.958 26.7426 369.953 29.166 368.193 30.799C366.424 32.4414 363.766 33.4 360.245 33.4V35.4C364.117 35.4 367.315 34.3426 369.554 32.2649C371.802 30.178 372.958 27.1774 372.958 23.552H370.958ZM360.245 33.4H346.229V35.4H360.245V33.4ZM347.229 34.4V12.32H345.229V34.4H347.229ZM346.229 13.32H360.149V11.32H346.229V13.32ZM360.149 13.32C363.715 13.32 366.392 14.3008 368.172 15.9961C369.945 17.685 370.958 20.2055 370.958 23.552H372.958C372.958 19.7945 371.81 16.699 369.551 14.5479C367.299 12.4032 364.072 11.32 360.149 11.32V13.32Z" fill="url(#paint0_linear_3282_4947)" fill-opacity="0.5"/>
<path d="M73.5092 68V69H75.0378L74.4255 67.5995L73.5092 68ZM44.1332 0.799995L45.0495 0.399451L44.7875 -0.200005H44.1332V0.799995ZM29.8293 0.799995V-0.200005H29.175L28.913 0.399451L29.8293 0.799995ZM0.453247 68L-0.463013 67.5995L-1.07526 69H0.453247V68ZM14.5652 68V69H15.2234L15.4837 68.3955L14.5652 68ZM20.2292 54.848V53.848H19.5711L19.3108 54.4525L20.2292 54.848ZM53.3492 54.848L54.2677 54.4525L54.0074 53.848H53.3492V54.848ZM59.0132 68L58.0948 68.3955L58.3551 69H59.0132V68ZM32.5172 24.224L33.4467 24.593L33.449 24.5872L32.5172 24.224ZM36.7412 13.376V12.376H36.0338L35.7982 13.0432L36.7412 13.376ZM37.0292 13.376L37.9837 13.0777L37.7644 12.376H37.0292V13.376ZM41.0612 24.032L41.992 23.6662L41.9897 23.6606L41.0612 24.032ZM48.6453 43.328V44.328H50.1128L49.576 42.9622L48.6453 43.328ZM24.9333 43.328L24.0038 42.959L23.4604 44.328H24.9333V43.328ZM74.4255 67.5995L45.0495 0.399451L43.217 1.20054L72.593 68.4005L74.4255 67.5995ZM44.1332 -0.200005H29.8293V1.8H44.1332V-0.200005ZM28.913 0.399451L-0.463013 67.5995L1.36954 68.4005L30.7455 1.20054L28.913 0.399451ZM0.453247 69H14.5652V67H0.453247V69ZM15.4837 68.3955L21.1477 55.2435L19.3108 54.4525L13.6468 67.6045L15.4837 68.3955ZM20.2292 55.848H53.3492V53.848H20.2292V55.848ZM52.4308 55.2435L58.0948 68.3955L59.9317 67.6045L54.2677 54.4525L52.4308 55.2435ZM59.0132 69H73.5092V67H59.0132V69ZM33.449 24.5872C35.646 18.9512 37.1012 15.3608 37.6842 13.7088L35.7982 13.0432C35.2293 14.6552 33.8045 18.1688 31.5855 23.8608L33.449 24.5872ZM36.7412 14.376H37.0292V12.376H36.7412V14.376ZM36.0748 13.6743C36.5681 15.253 37.8306 18.6479 40.1328 24.4034L41.9897 23.6606C39.6839 17.8961 38.4504 14.571 37.9837 13.0777L36.0748 13.6743ZM40.1306 24.3978L47.7146 43.6938L49.576 42.9622L41.9919 23.6662L40.1306 24.3978ZM48.6453 42.328H24.9333V44.328H48.6453V42.328ZM25.8627 43.697L33.4467 24.593L31.5878 23.855L24.0038 42.959L25.8627 43.697ZM108.564 68V69H109.238L109.491 68.3748L108.564 68ZM135.732 0.799995L136.659 1.17481L137.214 -0.200005H135.732V0.799995ZM121.523 0.799995V-0.200005H120.839L120.591 0.437962L121.523 0.799995ZM109.332 32.192L110.263 32.5548L110.264 32.554L109.332 32.192ZM102.035 53.408V54.408H102.781L102.994 53.6935L102.035 53.408ZM101.844 53.408L100.885 53.6935L101.098 54.408H101.844V53.408ZM94.5475 32.192L95.4811 31.8337L95.4787 31.8275L94.5475 32.192ZM82.2595 0.799995L83.1907 0.435489L82.942 -0.200005H82.2595V0.799995ZM67.7635 0.799995V-0.200005H66.2806L66.8364 1.17481L67.7635 0.799995ZM94.9315 68L94.0044 68.3748L94.2571 69H94.9315V68ZM109.491 68.3748L136.659 1.17481L134.804 0.425182L107.636 67.6252L109.491 68.3748ZM135.732 -0.200005H121.523V1.8H135.732V-0.200005ZM120.591 0.437962L108.399 31.83L110.264 32.554L122.456 1.16203L120.591 0.437962ZM108.4 31.8292C104.162 42.7122 102.425 48.5966 101.077 53.1225L102.994 53.6935C104.334 49.1954 106.053 43.3678 110.263 32.5548L108.4 31.8292ZM102.035 52.408H101.844V54.408H102.035V52.408ZM102.802 53.1225C101.451 48.5864 98.6585 40.1142 95.4811 31.8337L93.6139 32.5502C96.7725 40.7818 99.5483 49.2055 100.885 53.6935L102.802 53.1225ZM95.4787 31.8275L83.1907 0.435489L81.3283 1.1645L93.6163 32.5565L95.4787 31.8275ZM82.2595 -0.200005H67.7635V1.8H82.2595V-0.200005ZM66.8364 1.17481L94.0044 68.3748L95.8586 67.6252L68.6906 0.425182L66.8364 1.17481ZM94.9315 69H108.564V67H94.9315V69ZM202.978 68V69H204.507L203.894 67.5995L202.978 68ZM173.602 0.799995L174.518 0.399451L174.256 -0.200005H173.602V0.799995ZM159.298 0.799995V-0.200005H158.644L158.382 0.399451L159.298 0.799995ZM129.922 68L129.006 67.5995L128.393 69H129.922V68ZM144.034 68V69H144.692L144.952 68.3955L144.034 68ZM149.698 54.848V53.848H149.04L148.78 54.4525L149.698 54.848ZM182.818 54.848L183.736 54.4525L183.476 53.848H182.818V54.848ZM188.482 68L187.564 68.3955L187.824 69H188.482V68ZM161.986 24.224L162.915 24.593L162.918 24.5872L161.986 24.224ZM166.21 13.376V12.376H165.503L165.267 13.0432L166.21 13.376ZM166.498 13.376L167.452 13.0777L167.233 12.376H166.498V13.376ZM170.53 24.032L171.461 23.6662L171.458 23.6606L170.53 24.032ZM178.114 43.328V44.328H179.581L179.045 42.9622L178.114 43.328ZM154.402 43.328L153.473 42.959L152.929 44.328H154.402V43.328ZM203.894 67.5995L174.518 0.399451L172.686 1.20054L202.062 68.4005L203.894 67.5995ZM173.602 -0.200005H159.298V1.8H173.602V-0.200005ZM158.382 0.399451L129.006 67.5995L130.838 68.4005L160.214 1.20054L158.382 0.399451ZM129.922 69H144.034V67H129.922V69ZM144.952 68.3955L150.616 55.2435L148.78 54.4525L143.116 67.6045L144.952 68.3955ZM149.698 55.848H182.818V53.848H149.698V55.848ZM181.9 55.2435L187.564 68.3955L189.4 67.6045L183.736 54.4525L181.9 55.2435ZM188.482 69H202.978V67H188.482V69ZM162.918 24.5872C165.115 18.9512 166.57 15.3608 167.153 13.7088L165.267 13.0432C164.698 14.6552 163.273 18.1688 161.054 23.8608L162.918 24.5872ZM166.21 14.376H166.498V12.376H166.21V14.376ZM165.544 13.6743C166.037 15.253 167.299 18.6479 169.602 24.4034L171.458 23.6606C169.153 17.8961 167.919 14.571 167.452 13.0777L165.544 13.6743ZM169.599 24.3978L177.183 43.6938L179.045 42.9622L171.461 23.6662L169.599 24.3978ZM178.114 42.328H154.402V44.328H178.114V42.328ZM155.331 43.697L162.915 24.593L161.057 23.855L153.473 42.959L155.331 43.697ZM199.13 0.799995V-0.200005H198.13V0.799995H199.13ZM199.13 12.32H198.13V13.32H199.13V12.32ZM220.154 12.32H221.154V11.32H220.154V12.32ZM220.154 68H219.154V69H220.154V68ZM233.402 68V69H234.402V68H233.402ZM233.402 12.32V11.32H232.402V12.32H233.402ZM254.522 12.32V13.32H255.522V12.32H254.522ZM254.522 0.799995H255.522V-0.200005H254.522V0.799995ZM198.13 0.799995V12.32H200.13V0.799995H198.13ZM199.13 13.32H220.154V11.32H199.13V13.32ZM219.154 12.32V68H221.154V12.32H219.154ZM220.154 69H233.402V67H220.154V69ZM234.402 68V12.32H232.402V68H234.402ZM233.402 13.32H254.522V11.32H233.402V13.32ZM255.522 12.32V0.799995H253.522V12.32H255.522ZM254.522 -0.200005H199.13V1.8H254.522V-0.200005ZM323.728 68V69H325.257L324.644 67.5995L323.728 68ZM294.352 0.799995L295.268 0.399451L295.006 -0.200005H294.352V0.799995ZM280.048 0.799995V-0.200005H279.394L279.132 0.399451L280.048 0.799995ZM250.672 68L249.756 67.5995L249.143 69H250.672V68ZM264.784 68V69H265.442L265.702 68.3955L264.784 68ZM270.448 54.848V53.848H269.79L269.53 54.4525L270.448 54.848ZM303.568 54.848L304.486 54.4525L304.226 53.848H303.568V54.848ZM309.232 68L308.314 68.3955L308.574 69H309.232V68ZM282.736 24.224L283.665 24.593L283.668 24.5872L282.736 24.224ZM286.96 13.376V12.376H286.253L286.017 13.0432L286.96 13.376ZM287.248 13.376L288.202 13.0777L287.983 12.376H287.248V13.376ZM291.28 24.032L292.211 23.6662L292.208 23.6606L291.28 24.032ZM298.864 43.328V44.328H300.331L299.795 42.9622L298.864 43.328ZM275.152 43.328L274.223 42.959L273.679 44.328H275.152V43.328ZM324.644 67.5995L295.268 0.399451L293.436 1.20054L322.812 68.4005L324.644 67.5995ZM294.352 -0.200005H280.048V1.8H294.352V-0.200005ZM279.132 0.399451L249.756 67.5995L251.588 68.4005L280.964 1.20054L279.132 0.399451ZM250.672 69H264.784V67H250.672V69ZM265.702 68.3955L271.366 55.2435L269.53 54.4525L263.866 67.6045L265.702 68.3955ZM270.448 55.848H303.568V53.848H270.448V55.848ZM302.65 55.2435L308.314 68.3955L310.15 67.6045L304.486 54.4525L302.65 55.2435ZM309.232 69H323.728V67H309.232V69ZM283.668 24.5872C285.865 18.9512 287.32 15.3608 287.903 13.7088L286.017 13.0432C285.448 14.6552 284.023 18.1688 281.804 23.8608L283.668 24.5872ZM286.96 14.376H287.248V12.376H286.96V14.376ZM286.294 13.6743C286.787 15.253 288.049 18.6479 290.352 24.4034L292.208 23.6606C289.903 17.8961 288.669 14.571 288.202 13.0777L286.294 13.6743ZM290.349 24.3978L297.933 43.6938L299.795 42.9622L292.211 23.6662L290.349 24.3978ZM298.864 42.328H275.152V44.328H298.864V42.328ZM276.081 43.697L283.665 24.593L281.807 23.855L274.223 42.959L276.081 43.697ZM388.758 68V69H390.906L389.523 67.3562L388.758 68ZM368.885 44.384L368.63 43.4172L367.104 43.8202L368.12 45.0278L368.885 44.384ZM332.885 0.799995V-0.200005H331.885V0.799995H332.885ZM332.885 68H331.885V69H332.885V68ZM346.326 68V69H347.326V68H346.326ZM346.326 45.44V44.44H345.326V45.44H346.326ZM354.198 45.44L354.974 44.8093L354.673 44.44H354.198V45.44ZM372.534 68L371.758 68.6307L372.058 69H372.534V68ZM346.229 34.4H345.229V35.4H346.229V34.4ZM346.229 12.32V11.32H345.229V12.32H346.229ZM389.523 67.3562L369.651 43.7402L368.12 45.0278L387.992 68.6438L389.523 67.3562ZM369.141 45.3508C379.752 42.5479 386.302 34.2817 386.302 22.976H384.302C384.302 33.3663 378.371 40.8441 368.63 43.4172L369.141 45.3508ZM386.302 22.976C386.302 16.0929 383.751 10.2751 379.307 6.18423C374.87 2.09997 368.615 -0.200005 361.302 -0.200005V1.8C368.196 1.8 373.941 3.96402 377.952 7.65576C381.956 11.3409 384.302 16.6111 384.302 22.976H386.302ZM361.302 -0.200005H332.885V1.8H361.302V-0.200005ZM331.885 0.799995V68H333.885V0.799995H331.885ZM332.885 69H346.326V67H332.885V69ZM347.326 68V45.44H345.326V68H347.326ZM346.326 46.44H354.198V44.44H346.326V46.44ZM353.422 46.0707L371.758 68.6307L373.31 67.3693L354.974 44.8093L353.422 46.0707ZM372.534 69H388.758V67H372.534V69ZM370.958 23.552C370.958 26.7426 369.953 29.166 368.193 30.799C366.424 32.4414 363.766 33.4 360.245 33.4V35.4C364.117 35.4 367.315 34.3426 369.554 32.2649C371.802 30.178 372.958 27.1774 372.958 23.552H370.958ZM360.245 33.4H346.229V35.4H360.245V33.4ZM347.229 34.4V12.32H345.229V34.4H347.229ZM346.229 13.32H360.149V11.32H346.229V13.32ZM360.149 13.32C363.715 13.32 366.392 14.3008 368.172 15.9961C369.945 17.685 370.958 20.2055 370.958 23.552H372.958C372.958 19.7945 371.81 16.699 369.551 14.5479C367.299 12.4032 364.072 11.32 360.149 11.32V13.32Z" fill="url(#paint1_linear_3282_4947)"/>
<defs>
<linearGradient id="paint0_linear_3282_4947" x1="15" y1="67.75" x2="15" y2="-14" gradientUnits="userSpaceOnUse">
<stop stop-color="#8247E5"/>
<stop offset="1" stop-color="#8247E5" stop-opacity="0"/>
</linearGradient>
<linearGradient id="paint1_linear_3282_4947" x1="15" y1="-14" x2="15" y2="82" gradientUnits="userSpaceOnUse">
<stop stop-color="white"/>
<stop offset="1" stop-color="white" stop-opacity="0"/>
</linearGradient>
</defs>
</svg>
