<svg width="48" height="49" viewBox="0 0 48 49" fill="none" xmlns="http://www.w3.org/2000/svg">
<path d="M27.744 33.4853L12.584 41.0653C11.8402 41.4366 10.9985 41.5646 10.178 41.431C9.35744 41.2975 8.5997 40.9093 8.01202 40.3213C7.4236 39.7335 7.03509 38.9754 6.90156 38.1544C6.76802 37.3335 6.89624 36.4913 7.26802 35.7473L14.848 20.5873C14.9897 20.3037 15.1968 20.0578 15.4521 19.8699C15.7075 19.682 16.0039 19.5576 16.3169 19.5068C16.6298 19.456 16.9503 19.4803 17.252 19.5778C17.5537 19.6752 17.8279 19.843 18.052 20.0673L28.264 30.2813C28.4883 30.5054 28.6561 30.7796 28.7535 31.0813C28.851 31.383 28.8753 31.7035 28.8245 32.0165C28.7737 32.3294 28.6493 32.6258 28.4614 32.8812C28.2735 33.1366 28.0277 33.3436 27.744 33.4853Z" stroke="white" stroke-width="3" stroke-linecap="round" stroke-linejoin="round"/>
<path d="M10 6.33325V7.33325" stroke="white" stroke-width="3" stroke-linecap="round" stroke-linejoin="round"/>
<path d="M10 14.3333V13.3333" stroke="white" stroke-width="3" stroke-linecap="round" stroke-linejoin="round"/>
<path d="M14 10.3333H13" stroke="white" stroke-width="3" stroke-linecap="round" stroke-linejoin="round"/>
<path d="M6 10.3333H7" stroke="white" stroke-width="3" stroke-linecap="round" stroke-linejoin="round"/>
<path d="M24 6.33325C24.5006 6.58356 24.9422 6.93744 25.2956 7.37142C25.6491 7.80541 25.9062 8.30957 26.0499 8.85048C26.1936 9.39139 26.2207 9.95668 26.1294 10.5089C26.038 11.061 25.8303 11.5875 25.52 12.0533L24 14.3333" stroke="white" stroke-width="3" stroke-linecap="round" stroke-linejoin="round"/>
<path d="M34 24.3332L36.28 22.8132C36.7458 22.5029 37.2722 22.2952 37.8244 22.2038C38.3766 22.1125 38.9419 22.1396 39.4828 22.2833C40.0237 22.427 40.5278 22.6841 40.9618 23.0376C41.3958 23.391 41.7497 23.8326 42 24.3332" stroke="white" stroke-width="3" stroke-linecap="round" stroke-linejoin="round"/>
<path d="M38 34.3333V35.3333" stroke="white" stroke-width="3" stroke-linecap="round" stroke-linejoin="round"/>
<path d="M38 42.3333V41.3333" stroke="white" stroke-width="3" stroke-linecap="round" stroke-linejoin="round"/>
<path d="M42 38.3333H41" stroke="white" stroke-width="3" stroke-linecap="round" stroke-linejoin="round"/>
<path d="M34 38.3333H35" stroke="white" stroke-width="3" stroke-linecap="round" stroke-linejoin="round"/>
<path d="M38 6.33325V7.33325" stroke="white" stroke-width="3" stroke-linecap="round" stroke-linejoin="round"/>
<path d="M38 14.3333V13.3333" stroke="white" stroke-width="3" stroke-linecap="round" stroke-linejoin="round"/>
<path d="M42 10.3333H41" stroke="white" stroke-width="3" stroke-linecap="round" stroke-linejoin="round"/>
<path d="M34 10.3333H35" stroke="white" stroke-width="3" stroke-linecap="round" stroke-linejoin="round"/>
<path d="M28 20.3333L30 18.3333" stroke="white" stroke-width="3" stroke-linecap="round" stroke-linejoin="round"/>
</svg>
