<svg width="48" height="49" viewBox="0 0 48 49" fill="none" xmlns="http://www.w3.org/2000/svg">
<path d="M23.998 28.7125L27.508 30.5565C27.6619 30.6373 27.8353 30.6734 28.0086 30.6609C28.182 30.6483 28.3484 30.5875 28.489 30.4854C28.6296 30.3832 28.7389 30.2438 28.8044 30.0828C28.87 29.9219 28.8892 29.7458 28.86 29.5745L28.19 25.6665L31.03 22.9005C31.1548 22.7794 31.2431 22.6257 31.285 22.4569C31.3268 22.2882 31.3205 22.1111 31.2668 21.9457C31.213 21.7803 31.114 21.6333 30.981 21.5214C30.8479 21.4095 30.6861 21.3371 30.514 21.3125L26.59 20.7425L24.836 17.1865C24.7589 17.0309 24.6398 16.9 24.4923 16.8085C24.3448 16.717 24.1746 16.6685 24.001 16.6685C23.8274 16.6685 23.6572 16.717 23.5097 16.8085C23.3622 16.9 23.2431 17.0309 23.166 17.1865L21.412 20.7445L17.488 21.3145C17.3159 21.3391 17.1541 21.4115 17.021 21.5234C16.888 21.6353 16.789 21.7823 16.7352 21.9477C16.6815 22.113 16.6752 22.2902 16.717 22.4589C16.7589 22.6277 16.8472 22.7814 16.972 22.9025L19.812 25.6685L19.14 29.5765C19.01 30.3365 19.808 30.9165 20.492 30.5585L24.002 28.7145" stroke="white" stroke-width="2" stroke-linecap="round" stroke-linejoin="round"/>
<path d="M18.096 39.1245C17.938 41.3665 16.398 42.8945 14.154 43.0345C14.312 40.7905 15.852 39.2645 18.096 39.1245ZM18.096 36.1245L17.91 36.1305C14.14 36.3645 11.428 39.0545 11.16 42.8225C11.1321 43.233 11.1887 43.6449 11.3263 44.0326C11.4639 44.4203 11.6796 44.7757 11.9601 45.0768C12.2405 45.3778 12.5797 45.6182 12.9567 45.7829C13.3338 45.9476 13.7406 46.0333 14.152 46.0345L14.338 46.0285C18.108 45.7945 20.82 43.1045 21.088 39.3365C21.1159 38.926 21.0593 38.5142 20.9217 38.1264C20.7841 37.7387 20.5684 37.3833 20.2879 37.0822C20.0075 36.7812 19.6683 36.5408 19.2913 36.3761C18.9142 36.2114 18.5074 36.1258 18.096 36.1245ZM18.096 42.1245H18.106H18.096Z" fill="white"/>
<path d="M7.42397 31.2566C8.38397 31.2566 9.34597 31.6226 10.19 32.3566C9.34197 33.1046 8.37197 33.4786 7.40197 33.4786C6.44197 33.4786 5.47997 33.1126 4.63597 32.3786C5.48397 31.6306 6.45397 31.2566 7.42397 31.2566ZM7.42397 28.2566C5.68997 28.2566 4.03797 28.9046 2.64997 30.1306C2.32903 30.4134 2.07233 30.7616 1.89712 31.1519C1.7219 31.5421 1.63223 31.9654 1.63412 32.3931C1.63602 32.8209 1.72944 33.2433 1.9081 33.632C2.08676 34.0207 2.34654 34.3666 2.66997 34.6466C4.05197 35.8466 5.68797 36.4806 7.40197 36.4806C9.13597 36.4806 10.786 35.8326 12.174 34.6066C12.4949 34.3238 12.7516 33.9755 12.9268 33.5853C13.102 33.195 13.1917 32.7718 13.1898 32.344C13.1879 31.9163 13.0945 31.4939 12.9158 31.1052C12.7372 30.7165 12.4774 30.3706 12.154 30.0906C10.774 28.8906 9.13797 28.2566 7.42397 28.2566Z" fill="white"/>
<path d="M4.01997 17.6407C6.29197 17.8227 7.82597 19.3987 7.94797 21.6747C5.67597 21.4927 4.14197 19.9167 4.01997 17.6407ZM4.01997 14.6407C3.61285 14.6413 3.21009 14.7246 2.83616 14.8855C2.46222 15.0465 2.12491 15.2818 1.84471 15.5772C1.56451 15.8725 1.34727 16.2218 1.20618 16.6037C1.06509 16.9855 1.0031 17.3921 1.02397 17.7987C1.22597 21.6027 3.91197 24.3607 7.70797 24.6647C8.13394 24.6983 8.56217 24.6406 8.96407 24.4954C9.36596 24.3503 9.73228 24.1212 10.0386 23.8232C10.3448 23.5253 10.584 23.1654 10.7402 22.7677C10.8963 22.3699 10.9658 21.9434 10.944 21.5167C10.742 17.7127 8.05597 14.9527 4.25997 14.6507C4.18019 14.6434 4.10009 14.64 4.01997 14.6407Z" fill="white"/>
<path d="M12.61 6.29858C14.144 8.06658 14.134 10.3246 12.586 12.0806C11.052 10.3126 11.06 8.05458 12.61 6.29858ZM12.61 3.29858C11.75 3.29858 10.93 3.66858 10.36 4.31258C7.79995 7.21458 7.78395 11.1266 10.32 14.0466C10.6002 14.3696 10.9464 14.629 11.3351 14.8074C11.7239 14.9857 12.1463 15.0789 12.574 15.0806H12.586C13.446 15.0806 14.266 14.7106 14.836 14.0666C17.396 11.1666 17.412 7.25458 14.876 4.33458C14.5959 4.01115 14.2498 3.75138 13.8611 3.5727C13.4723 3.39401 13.0498 3.30055 12.622 3.29858H12.61Z" fill="white"/>
<path d="M29.9039 39.1245C32.1479 39.2645 33.6879 40.7925 33.8459 43.0345C31.6019 42.8945 30.0619 41.3665 29.9039 39.1245ZM29.9039 36.1245C29.4921 36.1246 29.0848 36.2094 28.7072 36.3738C28.3296 36.5381 27.9899 36.7784 27.7093 37.0797C27.4286 37.381 27.2129 37.7369 27.0758 38.1251C26.9386 38.5134 26.8828 38.9258 26.9119 39.3365C27.1779 43.1045 29.8899 45.7945 33.6619 46.0285L33.8479 46.0345C34.2597 46.0344 34.6671 45.9496 35.0446 45.7853C35.4222 45.6209 35.7619 45.3806 36.0426 45.0793C36.3233 44.778 36.5389 44.4221 36.6761 44.0339C36.8132 43.6456 36.869 43.2333 36.8399 42.8225C36.5739 39.0545 33.8619 36.3645 30.0899 36.1305C30.028 36.1265 29.966 36.1245 29.9039 36.1245Z" fill="white"/>
<path d="M40.576 31.2566C41.546 31.2566 42.516 31.6306 43.364 32.3786C42.52 33.1106 41.558 33.4786 40.598 33.4786C39.628 33.4786 38.658 33.1046 37.81 32.3566C38.654 31.6226 39.616 31.2566 40.576 31.2566ZM40.576 28.2566C38.862 28.2566 37.226 28.8906 35.844 30.0906C35.5206 30.3706 35.2608 30.7165 35.0821 31.1052C34.9034 31.4939 34.81 31.9163 34.8081 32.344C34.8062 32.7718 34.8959 33.195 35.0711 33.5853C35.2463 33.9755 35.503 34.3238 35.824 34.6066C37.212 35.8326 38.862 36.4806 40.596 36.4806C42.31 36.4806 43.946 35.8466 45.328 34.6466C45.6514 34.3666 45.9112 34.0207 46.0899 33.632C46.2685 33.2433 46.3619 32.8209 46.3638 32.3931C46.3657 31.9654 46.2761 31.5421 46.1008 31.1519C45.9256 30.7616 45.6689 30.4134 45.348 30.1306C43.96 28.9046 42.31 28.2566 40.576 28.2566Z" fill="white"/>
<path d="M43.98 17.6406C43.86 19.9166 42.324 21.4926 40.052 21.6746C40.172 19.3986 41.708 17.8226 43.98 17.6406ZM43.98 14.6406C43.9 14.6406 43.82 14.6446 43.74 14.6506C39.944 14.9546 37.258 17.7126 37.056 21.5166C37.0329 21.9437 37.1015 22.3708 37.2571 22.7691C37.4128 23.1675 37.652 23.5279 37.9585 23.8261C38.2651 24.1243 38.632 24.3535 39.0345 24.4981C39.437 24.6427 39.8658 24.6995 40.292 24.6646C44.088 24.3606 46.774 21.6026 46.976 17.7986C46.9981 17.3918 46.9369 16.9847 46.7962 16.6023C46.6555 16.2199 46.4383 15.8702 46.1579 15.5746C45.8775 15.279 45.5397 15.0437 45.1652 14.8831C44.7908 14.7226 44.3875 14.64 43.98 14.6406ZM43.98 20.6406H43.99H43.98Z" fill="white"/>
<path d="M35.39 6.29858C36.938 8.05258 36.948 10.3126 35.414 12.0786C33.866 10.3246 33.856 8.06658 35.39 6.29858ZM35.39 3.29858H35.378C34.514 3.30258 33.692 3.67858 33.124 4.33258C30.588 7.25458 30.604 11.1646 33.164 14.0646C33.734 14.7106 34.552 15.0786 35.414 15.0786H35.426C36.29 15.0746 37.112 14.6986 37.68 14.0446C40.216 11.1226 40.2 7.21258 37.64 4.31258C37.358 3.99397 37.0117 3.73883 36.6238 3.56403C36.236 3.38923 35.8154 3.29876 35.39 3.29858Z" fill="white"/>
</svg>
