<svg width="218" height="32" viewBox="0 0 218 32" fill="none" xmlns="http://www.w3.org/2000/svg">
<path d="M8.64071 31H0.706055L11.0122 0.454545H20.841L31.1471 31H23.2124L16.0384 8.15057H15.7998L8.64071 31ZM7.58177 18.9787H24.167V24.5866H7.58177V18.9787ZM34.4358 31V0.454545H47.173C49.46 0.454545 51.374 0.777698 52.9152 1.424C54.4664 2.07031 55.6297 2.97514 56.4053 4.13849C57.1908 5.30185 57.5835 6.64915 57.5835 8.1804C57.5835 9.34375 57.3399 10.3828 56.8527 11.2976C56.3655 12.2024 55.6943 12.9531 54.8392 13.5497C53.9841 14.1463 52.9948 14.5639 51.8712 14.8026V15.1009C53.1041 15.1605 54.2426 15.4936 55.2867 16.1001C56.3406 16.7067 57.1858 17.5518 57.8222 18.6357C58.4585 19.7095 58.7767 20.9822 58.7767 22.4538C58.7767 24.0945 58.3591 25.5611 57.5239 26.8537C56.6887 28.1364 55.4806 29.1506 53.8996 29.8963C52.3186 30.6321 50.3996 31 48.1425 31H34.4358ZM41.8186 25.049H46.3825C47.9834 25.049 49.1617 24.7457 49.9173 24.1392C50.683 23.5327 51.0658 22.6875 51.0658 21.6037C51.0658 20.8182 50.8818 20.142 50.5139 19.5753C50.146 18.9986 49.624 18.5561 48.9479 18.2479C48.2718 17.9297 47.4614 17.7706 46.5168 17.7706H41.8186V25.049ZM41.8186 13.0128H45.9053C46.7107 13.0128 47.4266 12.8786 48.053 12.6101C48.6794 12.3416 49.1666 11.9538 49.5146 11.4467C49.8726 10.9396 50.0516 10.3281 50.0516 9.61221C50.0516 8.58807 49.6887 7.78267 48.9628 7.19602C48.2369 6.60938 47.2575 6.31605 46.0246 6.31605H41.8186V13.0128ZM91.1567 15.7273C91.1567 19.0881 90.5104 21.9368 89.2178 24.2734C87.9252 26.6101 86.1752 28.3849 83.9678 29.598C81.7703 30.8111 79.3044 31.4176 76.57 31.4176C73.8257 31.4176 71.3548 30.8061 69.1574 29.5831C66.96 28.3601 65.2149 26.5852 63.9223 24.2585C62.6396 21.9219 61.9983 19.0781 61.9983 15.7273C61.9983 12.3665 62.6396 9.51776 63.9223 7.18111C65.2149 4.84446 66.96 3.0696 69.1574 1.85653C71.3548 0.643465 73.8257 0.0369307 76.57 0.0369307C79.3044 0.0369307 81.7703 0.643465 83.9678 1.85653C86.1752 3.0696 87.9252 4.84446 89.2178 7.18111C90.5104 9.51776 91.1567 12.3665 91.1567 15.7273ZM83.6098 15.7273C83.6098 13.7386 83.3264 12.0582 82.7597 10.6861C82.2029 9.31392 81.3975 8.27486 80.3435 7.56889C79.2995 6.86292 78.0416 6.50994 76.57 6.50994C75.1084 6.50994 73.8506 6.86292 72.7966 7.56889C71.7426 8.27486 70.9323 9.31392 70.3655 10.6861C69.8087 12.0582 69.5303 13.7386 69.5303 15.7273C69.5303 17.7159 69.8087 19.3963 70.3655 20.7685C70.9323 22.1406 71.7426 23.1797 72.7966 23.8857C73.8506 24.5916 75.1084 24.9446 76.57 24.9446C78.0416 24.9446 79.2995 24.5916 80.3435 23.8857C81.3975 23.1797 82.2029 22.1406 82.7597 20.7685C83.3264 19.3963 83.6098 17.7159 83.6098 15.7273ZM113.946 0.454545H121.314V20.157C121.314 22.4339 120.772 24.4176 119.689 26.108C118.605 27.7884 117.093 29.0909 115.155 30.0156C113.216 30.9304 110.964 31.3878 108.398 31.3878C105.803 31.3878 103.536 30.9304 101.597 30.0156C99.6581 29.0909 98.1517 27.7884 97.0779 26.108C96.004 24.4176 95.4671 22.4339 95.4671 20.157V0.454545H102.85V19.5156C102.85 20.5696 103.079 21.5092 103.536 22.3345C104.003 23.1598 104.655 23.8061 105.49 24.2734C106.325 24.7408 107.294 24.9744 108.398 24.9744C109.502 24.9744 110.466 24.7408 111.292 24.2734C112.127 23.8061 112.778 23.1598 113.245 22.3345C113.713 21.5092 113.946 20.5696 113.946 19.5156V0.454545ZM124.942 6.45028V0.454545H150.76V6.45028H141.498V31H134.219V6.45028H124.942ZM181.868 0.454545H189.236V20.157C189.236 22.4339 188.694 24.4176 187.611 26.108C186.527 27.7884 185.015 29.0909 183.076 30.0156C181.138 30.9304 178.885 31.3878 176.32 31.3878C173.725 31.3878 171.458 30.9304 169.519 30.0156C167.58 29.0909 166.074 27.7884 165 26.108C163.926 24.4176 163.389 22.4339 163.389 20.157V0.454545H170.772V19.5156C170.772 20.5696 171 21.5092 171.458 22.3345C171.925 23.1598 172.576 23.8061 173.412 24.2734C174.247 24.7408 175.216 24.9744 176.32 24.9744C177.424 24.9744 178.388 24.7408 179.214 24.2734C180.049 23.8061 180.7 23.1598 181.167 22.3345C181.635 21.5092 181.868 20.5696 181.868 19.5156V0.454545ZM210.374 9.61221C210.275 8.51846 209.832 7.66832 209.047 7.06179C208.271 6.44531 207.163 6.13707 205.721 6.13707C204.766 6.13707 203.971 6.26136 203.334 6.50994C202.698 6.75852 202.221 7.10156 201.903 7.53906C201.584 7.96662 201.42 8.45881 201.41 9.01562C201.391 9.47301 201.48 9.87571 201.679 10.2237C201.888 10.5717 202.186 10.88 202.574 11.1484C202.972 11.407 203.449 11.6357 204.006 11.8345C204.562 12.0334 205.189 12.2074 205.885 12.3565L208.51 12.9531C210.021 13.2812 211.354 13.7188 212.507 14.2656C213.67 14.8125 214.645 15.4638 215.43 16.2195C216.226 16.9751 216.827 17.8452 217.235 18.8295C217.643 19.8139 217.851 20.9176 217.861 22.1406C217.851 24.0696 217.364 25.7251 216.4 27.1072C215.435 28.4893 214.048 29.5483 212.239 30.2841C210.439 31.0199 208.266 31.3878 205.721 31.3878C203.165 31.3878 200.938 31.005 199.039 30.2393C197.14 29.4737 195.663 28.3104 194.609 26.7493C193.555 25.1882 193.013 23.2145 192.984 20.8281H200.053C200.113 21.8125 200.376 22.6328 200.844 23.2891C201.311 23.9453 201.952 24.4425 202.768 24.7805C203.593 25.1186 204.547 25.2876 205.631 25.2876C206.626 25.2876 207.471 25.1534 208.167 24.8849C208.873 24.6165 209.415 24.2436 209.793 23.7663C210.17 23.2891 210.364 22.7422 210.374 22.1257C210.364 21.549 210.185 21.0568 209.837 20.6491C209.489 20.2315 208.952 19.8736 208.226 19.5753C207.511 19.267 206.596 18.9837 205.482 18.7251L202.29 17.9794C199.646 17.3729 197.562 16.3935 196.041 15.0412C194.52 13.679 193.764 11.8395 193.774 9.52273C193.764 7.63352 194.271 5.97798 195.295 4.55611C196.32 3.13423 197.736 2.02557 199.546 1.23011C201.356 0.434658 203.419 0.0369307 205.736 0.0369307C208.102 0.0369307 210.155 0.439629 211.896 1.24503C213.646 2.04048 215.003 3.15909 215.967 4.60085C216.932 6.04261 217.424 7.71307 217.444 9.61221H210.374Z" fill="white" fill-opacity="0.08"/>
<path d="M8.64071 31V32H9.37533L9.59497 31.299L8.64071 31ZM0.706055 31L-0.241467 30.6803L-0.686733 32H0.706055V31ZM11.0122 0.454544V-0.545455H10.2942L10.0646 0.134849L11.0122 0.454544ZM20.841 0.454544L21.7885 0.134849L21.559 -0.545455H20.841V0.454544ZM31.1471 31V32H32.5399L32.0946 30.6803L31.1471 31ZM23.2124 31L22.2584 31.2996L22.4783 32H23.2124V31ZM16.0384 8.15057L16.9925 7.85102L16.7726 7.15057H16.0384V8.15057ZM15.7998 8.15057V7.15057H15.0652L14.8455 7.85158L15.7998 8.15057ZM7.58176 18.9787V17.9787H6.58176V18.9787H7.58176ZM24.167 18.9787H25.167V17.9787H24.167V18.9787ZM24.167 24.5866V25.5866H25.167V24.5866H24.167ZM7.58176 24.5866H6.58176V25.5866H7.58176V24.5866ZM8.64071 30H0.706055V32H8.64071V30ZM1.65358 31.3197L11.9597 0.77424L10.0646 0.134849L-0.241467 30.6803L1.65358 31.3197ZM11.0122 1.45454H20.841V-0.545455H11.0122V1.45454ZM19.8935 0.77424L30.1996 31.3197L32.0946 30.6803L21.7885 0.134849L19.8935 0.77424ZM31.1471 30H23.2124V32H31.1471V30ZM24.1665 30.7004L16.9925 7.85102L15.0844 8.45012L22.2584 31.2996L24.1665 30.7004ZM16.0384 7.15057H15.7998V9.15057H16.0384V7.15057ZM14.8455 7.85158L7.68645 30.701L9.59497 31.299L16.7541 8.44955L14.8455 7.85158ZM7.58176 19.9787H24.167V17.9787H7.58176V19.9787ZM23.167 18.9787V24.5866H25.167V18.9787H23.167ZM24.167 23.5866H7.58176V25.5866H24.167V23.5866ZM8.58176 24.5866V18.9787H6.58176V24.5866H8.58176ZM34.4358 31H33.4358V32H34.4358V31ZM34.4358 0.454544V-0.545455H33.4358V0.454544H34.4358ZM52.9152 1.424L52.5285 2.3462L52.5306 2.34708L52.9152 1.424ZM56.4053 4.13849L55.5732 4.6932L55.5765 4.69809L56.4053 4.13849ZM56.8527 11.2976L57.7332 11.7717L57.7353 11.7677L56.8527 11.2976ZM54.8392 13.5497L54.267 12.7296L54.8392 13.5497ZM51.8712 14.8026L51.6634 13.8244L50.8712 13.9926V14.8026H51.8712ZM51.8712 15.1009H50.8712V16.0536L51.8229 16.0997L51.8712 15.1009ZM55.2867 16.1001L54.7843 16.9648L54.7879 16.9669L55.2867 16.1001ZM57.8222 18.6357L56.9598 19.142L56.9619 19.1455L57.8222 18.6357ZM57.5239 26.8537L58.3619 27.3994L58.3638 27.3964L57.5239 26.8537ZM53.8996 29.8963L54.3215 30.8029L54.3262 30.8007L53.8996 29.8963ZM41.8186 25.049H40.8186V26.049H41.8186V25.049ZM49.9174 24.1392L49.2964 23.3553L49.2914 23.3593L49.9174 24.1392ZM50.5139 19.5753L49.6709 20.1131L49.6752 20.1198L50.5139 19.5753ZM48.9479 18.2479L48.5221 19.1528L48.5331 19.1578L48.9479 18.2479ZM41.8186 17.7706V16.7706H40.8186V17.7706H41.8186ZM41.8186 13.0128H40.8186V14.0128H41.8186V13.0128ZM49.5146 11.4467L48.6976 10.87L48.6901 10.8809L49.5146 11.4467ZM48.9628 7.19602L49.5914 6.41828V6.41828L48.9628 7.19602ZM41.8186 6.31605V5.31605H40.8186V6.31605H41.8186ZM35.4358 31V0.454544H33.4358V31H35.4358ZM34.4358 1.45454H47.173V-0.545455H34.4358V1.45454ZM47.173 1.45454C49.373 1.45454 51.1459 1.76642 52.5285 2.3462L53.3019 0.50181C51.6021 -0.211026 49.5469 -0.545455 47.173 -0.545455V1.45454ZM52.5306 2.34708C53.9368 2.933 54.9276 3.7248 55.5732 4.69319L57.2373 3.58379C56.3318 2.22549 54.9959 1.20762 53.2998 0.500927L52.5306 2.34708ZM55.5765 4.69809C56.2403 5.68113 56.5835 6.82964 56.5835 8.1804H58.5835C58.5835 6.46866 58.1413 4.92257 57.234 3.5789L55.5765 4.69809ZM56.5835 8.1804C56.5835 9.20017 56.3712 10.0744 55.9701 10.8275L57.7353 11.7677C58.3087 10.6912 58.5835 9.48733 58.5835 8.1804H56.5835ZM55.9722 10.8235C55.5604 11.5883 54.9957 12.2212 54.267 12.7296L55.4114 14.3698C56.393 13.685 57.1706 12.8165 57.7332 11.7717L55.9722 10.8235ZM54.267 12.7296C53.5323 13.2422 52.6695 13.6107 51.6634 13.8244L52.0789 15.7807C53.32 15.5172 54.4359 15.0504 55.4114 14.3698L54.267 12.7296ZM50.8712 14.8026V15.1009H52.8712V14.8026H50.8712ZM51.8229 16.0997C52.8996 16.1518 53.8819 16.4405 54.7843 16.9648L55.789 15.2355C54.6034 14.5467 53.3087 14.1692 51.9195 14.102L51.8229 16.0997ZM54.7879 16.9669C55.6863 17.4839 56.4083 18.2026 56.9598 19.142L58.6845 18.1293C57.9634 16.9011 56.995 15.9295 55.7854 15.2334L54.7879 16.9669ZM56.9619 19.1455C57.4916 20.0393 57.7767 21.1293 57.7767 22.4538H59.7767C59.7767 20.8352 59.4255 19.3797 58.6825 18.1259L56.9619 19.1455ZM57.7767 22.4538C57.7767 23.9152 57.4077 25.1909 56.684 26.311L58.3638 27.3964C59.3105 25.9312 59.7767 24.2737 59.7767 22.4538H57.7767ZM56.6859 26.308C55.9656 27.4142 54.9106 28.3138 53.473 28.9919L54.3262 30.8007C56.0506 29.9874 57.4117 28.8586 58.3619 27.3994L56.6859 26.308ZM53.4776 28.9897C52.0617 29.6487 50.2951 30 48.1425 30V32C50.5041 32 52.5755 31.6155 54.3215 30.8029L53.4776 28.9897ZM48.1425 30H34.4358V32H48.1425V30ZM41.8186 26.049H46.3825V24.049H41.8186V26.049ZM46.3825 26.049C48.0743 26.049 49.5268 25.7349 50.5433 24.9191L49.2914 23.3593C48.7965 23.7565 47.8925 24.049 46.3825 24.049V26.049ZM50.5383 24.923C51.5718 24.1043 52.0658 22.9548 52.0658 21.6037H50.0658C50.0658 22.4202 49.7942 22.961 49.2964 23.3554L50.5383 24.923ZM52.0658 21.6037C52.0658 20.657 51.842 19.7846 51.3527 19.0308L49.6752 20.1198C49.9216 20.4994 50.0658 20.9793 50.0658 21.6037H52.0658ZM51.357 19.0375C50.8763 18.2839 50.1987 17.7191 49.3627 17.338L48.5331 19.1578C49.0493 19.3931 49.4158 19.7132 49.6709 20.1131L51.357 19.0375ZM49.3737 17.3431C48.534 16.9479 47.5709 16.7706 46.5168 16.7706V18.7706C47.3519 18.7706 48.0095 18.9115 48.5221 19.1527L49.3737 17.3431ZM46.5168 16.7706H41.8186V18.7706H46.5168V16.7706ZM40.8186 17.7706V25.049H42.8186V17.7706H40.8186ZM41.8186 14.0128H45.9053V12.0128H41.8186V14.0128ZM45.9053 14.0128C46.8219 14.0128 47.6755 13.8598 48.4469 13.5292L47.6591 11.6909C47.1776 11.8973 46.5995 12.0128 45.9053 12.0128V14.0128ZM48.4469 13.5292C49.228 13.1945 49.8726 12.6924 50.3392 12.0126L48.6901 10.8809C48.4607 11.2152 48.1309 11.4887 47.6591 11.6909L48.4469 13.5292ZM50.3316 12.0234C50.8262 11.3227 51.0516 10.5019 51.0516 9.61221H49.0516C49.0516 10.1543 48.919 10.5566 48.6977 10.87L50.3316 12.0234ZM51.0516 9.61221C51.0516 8.31954 50.577 7.21489 49.5914 6.41828L48.3342 7.97376C48.8003 8.35045 49.0516 8.85659 49.0516 9.61221H51.0516ZM49.5914 6.41828C48.6376 5.6474 47.4125 5.31605 46.0246 5.31605V7.31605C47.1026 7.31605 47.8363 7.57135 48.3342 7.97376L49.5914 6.41828ZM46.0246 5.31605H41.8186V7.31605H46.0246V5.31605ZM40.8186 6.31605V13.0128H42.8186V6.31605H40.8186ZM89.2178 24.2734L88.3427 23.7894V23.7894L89.2178 24.2734ZM83.9678 29.598L83.4862 28.7216L83.4845 28.7225L83.9678 29.598ZM69.1574 29.5831L69.6437 28.7093L69.1574 29.5831ZM63.9223 24.2585L63.0457 24.7397L63.0482 24.7442L63.9223 24.2585ZM63.9223 7.18111L63.0473 6.69704L63.0457 6.6999L63.9223 7.18111ZM69.1574 1.85653L69.6407 2.732L69.1574 1.85653ZM83.9678 1.85653L83.4845 2.732L83.4862 2.73292L83.9678 1.85653ZM89.2178 7.18111L88.3427 7.66517L89.2178 7.18111ZM82.7597 10.6861L81.8331 11.0621L81.8354 11.0678L82.7597 10.6861ZM80.3435 7.56889L79.7833 8.39729L79.787 8.39973L80.3435 7.56889ZM72.7966 7.56889L73.3531 8.39973L72.7966 7.56889ZM70.3655 10.6861L69.4412 10.3043L69.4389 10.3101L70.3655 10.6861ZM70.3655 20.7685L69.4389 21.1445L69.4412 21.1502L70.3655 20.7685ZM72.7966 23.8857L73.3531 23.0548L72.7966 23.8857ZM80.3435 23.8857L79.787 23.0548L79.7833 23.0573L80.3435 23.8857ZM82.7597 20.7685L81.8354 20.3867L81.8331 20.3924L82.7597 20.7685ZM90.1567 15.7273C90.1567 18.9617 89.5348 21.6345 88.3427 23.7894L90.0928 24.7575C91.4859 22.2391 92.1567 19.2144 92.1567 15.7273H90.1567ZM88.3427 23.7894C87.1358 25.9711 85.5179 27.6051 83.4862 28.7216L84.4494 30.4744C86.8325 29.1648 88.7145 27.249 90.0928 24.7575L88.3427 23.7894ZM83.4845 28.7225C81.448 29.8467 79.1509 30.4176 76.5701 30.4176V32.4176C79.4579 32.4176 82.0926 31.7754 84.4511 30.4735L83.4845 28.7225ZM76.5701 30.4176C73.98 30.4176 71.6791 29.8421 69.6437 28.7093L68.6711 30.4569C71.0306 31.7701 73.6715 32.4176 76.5701 32.4176V30.4176ZM69.6437 28.7093C67.6189 27.5824 66.0041 25.9465 64.7965 23.7729L63.0482 24.7442C64.4258 27.2239 66.301 29.1378 68.6711 30.4569L69.6437 28.7093ZM64.7989 23.7773C63.6154 21.6214 62.9983 18.9524 62.9983 15.7273H60.9983C60.9983 19.2039 61.6638 22.2224 63.0457 24.7397L64.7989 23.7773ZM62.9983 15.7273C62.9983 12.4917 63.6157 9.81787 64.7989 7.66231L63.0457 6.6999C61.6636 9.21764 60.9983 12.2413 60.9983 15.7273H62.9983ZM64.7974 7.66517C66.0049 5.48227 67.6187 3.84819 69.6407 2.732L68.6741 0.981071C66.3012 2.29102 64.4249 4.20665 63.0473 6.69705L64.7974 7.66517ZM69.6407 2.732C71.6766 1.60809 73.9786 1.03693 76.5701 1.03693V-0.963069C73.6729 -0.963069 71.0331 -0.321163 68.6741 0.981071L69.6407 2.732ZM76.5701 1.03693C79.1509 1.03693 81.448 1.6078 83.4845 2.732L84.4511 0.981071C82.0926 -0.320866 79.4579 -0.963069 76.5701 -0.963069V1.03693ZM83.4862 2.73292C85.5179 3.84943 87.1358 5.48342 88.3427 7.66517L90.0928 6.69705C88.7145 4.2055 86.8325 2.28977 84.4494 0.980151L83.4862 2.73292ZM88.3427 7.66517C89.5348 9.82009 90.1567 12.4928 90.1567 15.7273H92.1567C92.1567 12.2402 91.4859 9.21542 90.0928 6.69705L88.3427 7.66517ZM84.6098 15.7273C84.6098 13.6496 84.3146 11.8311 83.6839 10.3043L81.8354 11.0678C82.3383 12.2854 82.6098 13.8277 82.6098 15.7273H84.6098ZM83.6863 10.3101C83.0672 8.78448 82.1464 7.5729 80.9 6.73805L79.787 8.39973C80.6485 8.97682 81.3385 9.84335 81.8331 11.0621L83.6863 10.3101ZM80.9036 6.7405C79.6679 5.90491 78.207 5.50994 76.5701 5.50994V7.50994C77.8763 7.50994 78.931 7.82094 79.7833 8.39728L80.9036 6.7405ZM76.5701 5.50994C74.9412 5.50994 73.4827 5.90572 72.2401 6.73805L73.3531 8.39973C74.2184 7.82013 75.2756 7.50994 76.5701 7.50994V5.50994ZM72.2401 6.73805C70.9954 7.57178 70.0703 8.78124 69.4412 10.3043L71.2898 11.0678C71.7942 9.8466 72.4899 8.97793 73.3531 8.39973L72.2401 6.73805ZM69.4389 10.3101C68.8201 11.835 68.5303 13.6514 68.5303 15.7273H70.5303C70.5303 13.8259 70.7973 12.2815 71.2921 11.0621L69.4389 10.3101ZM68.5303 15.7273C68.5303 17.8032 68.8201 19.6196 69.4389 21.1445L71.2921 20.3924C70.7973 19.173 70.5303 17.6286 70.5303 15.7273H68.5303ZM69.4412 21.1502C70.0703 22.6733 70.9954 23.8828 72.2401 24.7165L73.3531 23.0548C72.4899 22.4766 71.7942 21.6079 71.2898 20.3867L69.4412 21.1502ZM72.2401 24.7165C73.4827 25.5488 74.9412 25.9446 76.5701 25.9446V23.9446C75.2756 23.9446 74.2184 23.6344 73.3531 23.0548L72.2401 24.7165ZM76.5701 25.9446C78.207 25.9446 79.6679 25.5496 80.9036 24.714L79.7833 23.0573C78.931 23.6336 77.8763 23.9446 76.5701 23.9446V25.9446ZM80.9 24.7165C82.1464 23.8816 83.0672 22.6701 83.6863 21.1445L81.8331 20.3924C81.3385 21.6112 80.6485 22.4777 79.787 23.0548L80.9 24.7165ZM83.6839 21.1502C84.3146 19.6235 84.6098 17.8049 84.6098 15.7273H82.6098C82.6098 17.6269 82.3383 19.1691 81.8354 20.3867L83.6839 21.1502ZM113.946 0.454544V-0.545455H112.946V0.454544H113.946ZM121.314 0.454544H122.314V-0.545455H121.314V0.454544ZM119.689 26.108L120.529 26.65L120.53 26.6477L119.689 26.108ZM115.155 30.0156L115.581 30.92L115.585 30.9182L115.155 30.0156ZM101.597 30.0156L101.167 30.9182L101.17 30.92L101.597 30.0156ZM97.0779 26.108L96.2338 26.6442L96.2352 26.6464L97.0779 26.108ZM95.4671 0.454544V-0.545455H94.4671V0.454544H95.4671ZM102.85 0.454544H103.85V-0.545455H102.85V0.454544ZM103.536 22.3345L102.661 22.8193L102.666 22.8273L103.536 22.3345ZM105.49 24.2734L105.978 23.4008L105.49 24.2734ZM111.292 24.2734L110.803 23.4007L110.799 23.4033L111.292 24.2734ZM113.946 1.45454H121.314V-0.545455H113.946V1.45454ZM120.314 0.454544V20.157H122.314V0.454544H120.314ZM120.314 20.157C120.314 22.269 119.814 24.0598 118.847 25.5682L120.53 26.6477C121.731 24.7754 122.314 22.5989 122.314 20.157H120.314ZM118.848 25.5659C117.873 27.0788 116.509 28.262 114.724 29.113L115.585 30.9182C117.678 29.9198 119.337 28.4979 120.529 26.65L118.848 25.5659ZM114.728 29.1112C112.946 29.9519 110.845 30.3878 108.398 30.3878V32.3878C111.082 32.3878 113.485 31.9089 115.581 30.92L114.728 29.1112ZM108.398 30.3878C105.92 30.3878 103.804 29.9512 102.024 29.1112L101.17 30.92C103.268 31.9096 105.686 32.3878 108.398 32.3878V30.3878ZM102.028 29.113C100.244 28.2623 98.8859 27.0802 97.9205 25.5695L96.2352 26.6464C97.4175 28.4965 99.0725 29.9195 101.167 30.9182L102.028 29.113ZM97.9219 25.5717C96.9633 24.0628 96.4671 22.2707 96.4671 20.157H94.4671C94.4671 22.5972 95.0446 24.7724 96.2338 26.6442L97.9219 25.5717ZM96.4671 20.157V0.454544H94.4671V20.157H96.4671ZM95.4671 1.45454H102.85V-0.545455H95.4671V1.45454ZM101.85 0.454544V19.5156H103.85V0.454544H101.85ZM101.85 19.5156C101.85 20.719 102.112 21.8289 102.661 22.8193L104.411 21.8498C104.045 21.1896 103.85 20.4202 103.85 19.5156H101.85ZM102.666 22.8273C103.224 23.8133 104.008 24.5903 105.002 25.1461L105.978 23.4008C105.301 23.0219 104.782 22.5063 104.406 21.8418L102.666 22.8273ZM105.002 25.1461C106.007 25.709 107.15 25.9744 108.398 25.9744V23.9744C107.439 23.9744 106.643 23.7726 105.978 23.4008L105.002 25.1461ZM108.398 25.9744C109.646 25.9744 110.786 25.7091 111.784 25.1436L110.799 23.4033C110.147 23.7725 109.358 23.9744 108.398 23.9744V25.9744ZM111.78 25.1461C112.773 24.5903 113.557 23.8133 114.116 22.8273L112.375 21.8418C111.999 22.5063 111.48 23.0219 110.803 23.4008L111.78 25.1461ZM114.116 22.8273C114.677 21.8355 114.946 20.7227 114.946 19.5156H112.946C112.946 20.4166 112.748 21.183 112.375 21.8418L114.116 22.8273ZM114.946 19.5156V0.454544H112.946V19.5156H114.946ZM124.942 6.45028H123.942V7.45028H124.942V6.45028ZM124.942 0.454544V-0.545455H123.942V0.454544H124.942ZM150.76 0.454544H151.76V-0.545455H150.76V0.454544ZM150.76 6.45028V7.45028H151.76V6.45028H150.76ZM141.498 6.45028V5.45028H140.498V6.45028H141.498ZM141.498 31V32H142.498V31H141.498ZM134.219 31H133.219V32H134.219V31ZM134.219 6.45028H135.219V5.45028H134.219V6.45028ZM125.942 6.45028V0.454544H123.942V6.45028H125.942ZM124.942 1.45454H150.76V-0.545455H124.942V1.45454ZM149.76 0.454544V6.45028H151.76V0.454544H149.76ZM150.76 5.45028H141.498V7.45028H150.76V5.45028ZM140.498 6.45028V31H142.498V6.45028H140.498ZM141.498 30H134.219V32H141.498V30ZM135.219 31V6.45028H133.219V31H135.219ZM134.219 5.45028H124.942V7.45028H134.219V5.45028ZM181.868 0.454544V-0.545455H180.868V0.454544H181.868ZM189.236 0.454544H190.236V-0.545455H189.236V0.454544ZM187.611 26.108L188.451 26.65L188.452 26.6477L187.611 26.108ZM183.076 30.0156L183.503 30.92L183.507 30.9182L183.076 30.0156ZM169.519 30.0156L169.088 30.9182L169.092 30.92L169.519 30.0156ZM165 26.108L164.156 26.6442L164.157 26.6464L165 26.108ZM163.389 0.454544V-0.545455H162.389V0.454544H163.389ZM170.772 0.454544H171.772V-0.545455H170.772V0.454544ZM171.458 22.3345L170.583 22.8193L170.588 22.8273L171.458 22.3345ZM173.412 24.2734L173.9 23.4008L173.412 24.2734ZM179.214 24.2734L178.725 23.4007L178.721 23.4033L179.214 24.2734ZM181.868 1.45454H189.236V-0.545455H181.868V1.45454ZM188.236 0.454544V20.157H190.236V0.454544H188.236ZM188.236 20.157C188.236 22.269 187.736 24.0598 186.769 25.5682L188.452 26.6477C189.653 24.7754 190.236 22.5989 190.236 20.157H188.236ZM186.77 25.5659C185.794 27.0788 184.43 28.262 182.646 29.113L183.507 30.9182C185.6 29.9198 187.259 28.4979 188.451 26.65L186.77 25.5659ZM182.65 29.1112C180.868 29.9519 178.766 30.3878 176.32 30.3878V32.3878C179.004 32.3878 181.407 31.9089 183.503 30.92L182.65 29.1112ZM176.32 30.3878C173.842 30.3878 171.726 29.9512 169.946 29.1112L169.092 30.92C171.19 31.9096 173.608 32.3878 176.32 32.3878V30.3878ZM169.949 29.113C168.166 28.2623 166.808 27.0802 165.842 25.5695L164.157 26.6464C165.339 28.4965 166.994 29.9195 169.088 30.9182L169.949 29.113ZM165.844 25.5717C164.885 24.0628 164.389 22.2707 164.389 20.157H162.389C162.389 22.5972 162.967 24.7724 164.156 26.6442L165.844 25.5717ZM164.389 20.157V0.454544H162.389V20.157H164.389ZM163.389 1.45454H170.772V-0.545455H163.389V1.45454ZM169.772 0.454544V19.5156H171.772V0.454544H169.772ZM169.772 19.5156C169.772 20.719 170.034 21.8289 170.583 22.8193L172.332 21.8498C171.967 21.1896 171.772 20.4202 171.772 19.5156H169.772ZM170.588 22.8273C171.146 23.8133 171.93 24.5903 172.923 25.1461L173.9 23.4008C173.223 23.0219 172.704 22.5063 172.328 21.8418L170.588 22.8273ZM172.923 25.1461C173.929 25.709 175.072 25.9744 176.32 25.9744V23.9744C175.361 23.9744 174.564 23.7726 173.9 23.4008L172.923 25.1461ZM176.32 25.9744C177.568 25.9744 178.708 25.7091 179.706 25.1436L178.721 23.4033C178.069 23.7725 177.28 23.9744 176.32 23.9744V25.9744ZM179.702 25.1461C180.695 24.5903 181.479 23.8133 182.038 22.8273L180.297 21.8418C179.921 22.5063 179.402 23.0219 178.725 23.4008L179.702 25.1461ZM182.038 22.8273C182.599 21.8355 182.868 20.7227 182.868 19.5156H180.868C180.868 20.4166 180.67 21.183 180.297 21.8418L182.038 22.8273ZM182.868 19.5156V0.454544H180.868V19.5156H182.868ZM210.374 9.61221L209.378 9.70275L209.461 10.6122H210.374V9.61221ZM209.047 7.06179L208.424 7.84469L208.436 7.8533L209.047 7.06179ZM203.334 6.50994L202.971 5.57848V5.57848L203.334 6.50994ZM201.903 7.53906L202.705 8.13611L202.711 8.12723L201.903 7.53906ZM201.41 9.01562L202.409 9.05906L202.41 9.04628L202.41 9.03348L201.41 9.01562ZM201.679 10.2237L200.811 10.7199L200.816 10.7291L200.821 10.7382L201.679 10.2237ZM202.574 11.1484L202.005 11.9706L202.017 11.9789L202.029 11.9869L202.574 11.1484ZM204.006 11.8345L204.342 10.8928L204.006 11.8345ZM205.885 12.3565L206.107 11.3813L206.094 11.3787L205.885 12.3565ZM208.51 12.9531L208.288 13.9283L208.298 13.9304L208.51 12.9531ZM212.507 14.2656L212.079 15.1692L212.082 15.1706L212.507 14.2656ZM215.43 16.2195L214.737 16.9401L214.742 16.9445L215.43 16.2195ZM217.235 18.8295L216.311 19.2122V19.2122L217.235 18.8295ZM217.861 22.1406L218.861 22.1458L218.861 22.1325L217.861 22.1406ZM216.4 27.1072L215.58 26.535L216.4 27.1072ZM212.239 30.2841L211.862 29.3577L211.86 29.3585L212.239 30.2841ZM199.039 30.2393L199.413 29.3119L199.039 30.2393ZM192.984 20.8281V19.8281H191.971L191.984 20.8406L192.984 20.8281ZM200.053 20.8281L201.051 20.7676L200.994 19.8281H200.053V20.8281ZM200.844 23.2891L200.029 23.8691L200.844 23.2891ZM202.768 24.7805L202.385 25.7043L202.389 25.7059L202.768 24.7805ZM208.167 24.8849L207.811 23.9502L207.807 23.9519L208.167 24.8849ZM209.793 23.7663L209.008 23.1456L209.793 23.7663ZM210.374 22.1257L211.374 22.1418L211.374 22.1252L211.374 22.1085L210.374 22.1257ZM209.837 20.6491L209.069 21.2894L209.077 21.2984L209.837 20.6491ZM208.226 19.5753L207.831 20.4938L207.839 20.4971L207.846 20.5002L208.226 19.5753ZM205.482 18.7251L205.255 19.6989L205.256 19.6992L205.482 18.7251ZM202.29 17.9794L202.518 17.0056L202.514 17.0047L202.29 17.9794ZM196.041 15.0412L195.374 15.7862L195.377 15.7886L196.041 15.0412ZM193.774 9.52273L194.774 9.52702L194.774 9.51747L193.774 9.52273ZM195.295 4.55611L194.484 3.97165L195.295 4.55611ZM199.546 1.23011L199.948 2.14558L199.546 1.23011ZM211.896 1.24503L211.475 2.15255L211.482 2.15539L211.896 1.24503ZM215.967 4.60085L216.798 4.04483L215.967 4.60085ZM217.444 9.61221V10.6122H218.454L218.444 9.60174L217.444 9.61221ZM211.37 9.52168C211.248 8.18372 210.688 7.06593 209.658 6.27028L208.436 7.8533C208.976 8.27071 209.301 8.8532 209.378 9.70275L211.37 9.52168ZM209.669 6.27897C208.652 5.47037 207.289 5.13707 205.721 5.13707V7.13707C207.036 7.13707 207.891 7.42025 208.425 7.84461L209.669 6.27897ZM205.721 5.13707C204.688 5.13707 203.759 5.27048 202.971 5.57848L203.698 7.4414C204.183 7.25224 204.845 7.13707 205.721 7.13707V5.13707ZM202.971 5.57848C202.203 5.87844 201.551 6.32282 201.094 6.95089L202.711 8.12723C202.891 7.88031 203.193 7.63861 203.698 7.4414L202.971 5.57848ZM201.1 6.94205C200.652 7.54512 200.424 8.24199 200.411 8.99777L202.41 9.03348C202.417 8.67562 202.517 8.38812 202.705 8.13607L201.1 6.94205ZM200.411 8.97219C200.384 9.5907 200.505 10.1856 200.811 10.7199L202.547 9.72758C202.455 9.56582 202.397 9.35532 202.409 9.05906L200.411 8.97219ZM200.821 10.7382C201.114 11.2263 201.519 11.6343 202.005 11.9706L203.143 10.3262C202.853 10.1257 202.661 9.91714 202.536 9.70922L200.821 10.7382ZM202.029 11.9869C202.505 12.2967 203.056 12.5573 203.669 12.7763L204.342 10.8928C203.841 10.714 203.438 10.5172 203.119 10.31L202.029 11.9869ZM203.669 12.7763C204.275 12.9925 204.945 13.1778 205.675 13.3343L206.094 11.3787C205.433 11.237 204.85 11.0742 204.342 10.8928L203.669 12.7763ZM205.663 13.3317L208.288 13.9283L208.731 11.978L206.106 11.3814L205.663 13.3317ZM208.298 13.9304C209.75 14.2456 211.007 14.6611 212.079 15.1692L212.935 13.362C211.7 12.7764 210.293 12.3169 208.722 11.9759L208.298 13.9304ZM212.082 15.1706C213.163 15.6792 214.043 16.2723 214.737 16.9401L216.124 15.4988C215.247 14.6553 214.177 13.9458 212.932 13.3606L212.082 15.1706ZM214.742 16.9445C215.439 17.6067 215.959 18.361 216.311 19.2122L218.159 18.4469C217.696 17.3293 217.013 16.3436 216.119 15.4945L214.742 16.9445ZM216.311 19.2122C216.663 20.0615 216.852 21.0355 216.861 22.1488L218.861 22.1325C218.851 20.7998 218.622 19.5663 218.159 18.4469L216.311 19.2122ZM216.861 22.1355C216.852 23.8918 216.412 25.3425 215.58 26.535L217.22 27.6795C218.317 26.1078 218.851 24.2474 218.861 22.1458L216.861 22.1355ZM215.58 26.535C214.742 27.7348 213.522 28.6828 211.862 29.3577L212.615 31.2104C214.575 30.4138 216.128 29.2439 217.22 27.6795L215.58 26.535ZM211.86 29.3585C210.211 30.0325 208.175 30.3878 205.721 30.3878V32.3878C208.358 32.3878 210.666 32.0072 212.617 31.2097L211.86 29.3585ZM205.721 30.3878C203.263 30.3878 201.168 30.0193 199.413 29.3119L198.665 31.1668C200.709 31.9906 203.068 32.3878 205.721 32.3878V30.3878ZM199.413 29.3119C197.682 28.614 196.371 27.5711 195.438 26.1897L193.781 27.3089C194.956 29.0496 196.598 30.3334 198.665 31.1668L199.413 29.3119ZM195.438 26.1897C194.519 24.8286 194.012 23.0587 193.984 20.8156L191.984 20.8406C192.015 23.3702 192.592 25.5478 193.781 27.3089L195.438 26.1897ZM192.984 21.8281H200.053V19.8281H192.984V21.8281ZM199.055 20.8886C199.123 22.018 199.431 23.0293 200.029 23.8691L201.658 22.709C201.322 22.2363 201.102 21.607 201.051 20.7676L199.055 20.8886ZM200.029 23.8691C200.615 24.6926 201.413 25.3015 202.385 25.7043L203.151 23.8568C202.491 23.5834 202.007 23.198 201.658 22.709L200.029 23.8691ZM202.389 25.7059C203.357 26.1026 204.445 26.2876 205.631 26.2876V24.2876C204.65 24.2876 203.829 24.1346 203.147 23.8552L202.389 25.7059ZM205.631 26.2876C206.71 26.2876 207.685 26.1427 208.527 25.8179L207.807 23.9519C207.257 24.1641 206.541 24.2876 205.631 24.2876V26.2876ZM208.522 25.8196C209.356 25.5024 210.063 25.0361 210.577 24.387L209.008 23.1456C208.767 23.4511 208.389 23.7306 207.811 23.9502L208.522 25.8196ZM210.577 24.387C211.093 23.7351 211.361 22.975 211.374 22.1418L209.374 22.1096C209.368 22.5093 209.248 22.8431 209.008 23.1456L210.577 24.387ZM211.374 22.1085C211.36 21.3187 211.108 20.598 210.598 19.9999L209.077 21.2984C209.262 21.5156 209.368 21.7793 209.374 22.143L211.374 22.1085ZM210.605 20.009C210.117 19.4231 209.421 18.9849 208.607 18.6503L207.846 20.5002C208.484 20.7622 208.861 21.04 209.069 21.2893L210.605 20.009ZM208.622 18.6568C207.833 18.3169 206.856 18.0174 205.708 17.751L205.256 19.6992C206.336 19.9499 207.189 20.2172 207.831 20.4938L208.622 18.6568ZM205.71 17.7514L202.518 17.0056L202.063 18.9532L205.255 19.6989L205.71 17.7514ZM202.514 17.0047C199.98 16.4237 198.066 15.5035 196.705 14.2938L195.377 15.7886C197.058 17.2835 199.311 18.3221 202.067 18.9541L202.514 17.0047ZM196.708 14.2962C195.43 13.1514 194.765 11.6006 194.774 9.52702L192.774 9.51844C192.763 12.0784 193.61 14.2065 195.374 15.7862L196.708 14.2962ZM194.774 9.51747C194.765 7.82234 195.216 6.3771 196.107 5.14056L194.484 3.97165C193.326 5.57887 192.763 7.4447 192.774 9.52799L194.774 9.51747ZM196.107 5.14056C197.014 3.88141 198.281 2.87859 199.948 2.14558L199.144 0.314651C197.192 1.17255 195.625 2.38706 194.484 3.97165L196.107 5.14056ZM199.948 2.14558C201.611 1.41463 203.534 1.03693 205.736 1.03693V-0.963069C203.304 -0.963069 201.1 -0.545312 199.144 0.314651L199.948 2.14558ZM205.736 1.03693C207.99 1.03693 209.894 1.42061 211.475 2.15253L212.316 0.337523C210.417 -0.541349 208.214 -0.963069 205.736 -0.963069V1.03693ZM211.482 2.15539C213.081 2.88245 214.286 3.88615 215.136 5.15688L216.798 4.04483C215.72 2.43203 214.21 1.19851 212.309 0.334661L211.482 2.15539ZM215.136 5.15687C215.982 6.4218 216.426 7.89873 216.444 9.62268L218.444 9.60174C218.422 7.52741 217.881 5.66342 216.798 4.04483L215.136 5.15687ZM217.444 8.61221H210.374V10.6122H217.444V8.61221Z" fill="url(#paint0_linear_3725_5293)" fill-opacity="0.5"/>
<path d="M8.64071 31V32H9.37533L9.59497 31.299L8.64071 31ZM0.706055 31L-0.241467 30.6803L-0.686733 32H0.706055V31ZM11.0122 0.454544V-0.545455H10.2942L10.0646 0.134849L11.0122 0.454544ZM20.841 0.454544L21.7885 0.134849L21.559 -0.545455H20.841V0.454544ZM31.1471 31V32H32.5399L32.0946 30.6803L31.1471 31ZM23.2124 31L22.2584 31.2996L22.4783 32H23.2124V31ZM16.0384 8.15057L16.9925 7.85102L16.7726 7.15057H16.0384V8.15057ZM15.7998 8.15057V7.15057H15.0652L14.8455 7.85158L15.7998 8.15057ZM7.58176 18.9787V17.9787H6.58176V18.9787H7.58176ZM24.167 18.9787H25.167V17.9787H24.167V18.9787ZM24.167 24.5866V25.5866H25.167V24.5866H24.167ZM7.58176 24.5866H6.58176V25.5866H7.58176V24.5866ZM8.64071 30H0.706055V32H8.64071V30ZM1.65358 31.3197L11.9597 0.77424L10.0646 0.134849L-0.241467 30.6803L1.65358 31.3197ZM11.0122 1.45454H20.841V-0.545455H11.0122V1.45454ZM19.8935 0.77424L30.1996 31.3197L32.0946 30.6803L21.7885 0.134849L19.8935 0.77424ZM31.1471 30H23.2124V32H31.1471V30ZM24.1665 30.7004L16.9925 7.85102L15.0844 8.45012L22.2584 31.2996L24.1665 30.7004ZM16.0384 7.15057H15.7998V9.15057H16.0384V7.15057ZM14.8455 7.85158L7.68645 30.701L9.59497 31.299L16.7541 8.44955L14.8455 7.85158ZM7.58176 19.9787H24.167V17.9787H7.58176V19.9787ZM23.167 18.9787V24.5866H25.167V18.9787H23.167ZM24.167 23.5866H7.58176V25.5866H24.167V23.5866ZM8.58176 24.5866V18.9787H6.58176V24.5866H8.58176ZM34.4358 31H33.4358V32H34.4358V31ZM34.4358 0.454544V-0.545455H33.4358V0.454544H34.4358ZM52.9152 1.424L52.5285 2.3462L52.5306 2.34708L52.9152 1.424ZM56.4053 4.13849L55.5732 4.6932L55.5765 4.69809L56.4053 4.13849ZM56.8527 11.2976L57.7332 11.7717L57.7353 11.7677L56.8527 11.2976ZM54.8392 13.5497L54.267 12.7296L54.8392 13.5497ZM51.8712 14.8026L51.6634 13.8244L50.8712 13.9926V14.8026H51.8712ZM51.8712 15.1009H50.8712V16.0536L51.8229 16.0997L51.8712 15.1009ZM55.2867 16.1001L54.7843 16.9648L54.7879 16.9669L55.2867 16.1001ZM57.8222 18.6357L56.9598 19.142L56.9619 19.1455L57.8222 18.6357ZM57.5239 26.8537L58.3619 27.3994L58.3638 27.3964L57.5239 26.8537ZM53.8996 29.8963L54.3215 30.8029L54.3262 30.8007L53.8996 29.8963ZM41.8186 25.049H40.8186V26.049H41.8186V25.049ZM49.9174 24.1392L49.2964 23.3553L49.2914 23.3593L49.9174 24.1392ZM50.5139 19.5753L49.6709 20.1131L49.6752 20.1198L50.5139 19.5753ZM48.9479 18.2479L48.5221 19.1528L48.5331 19.1578L48.9479 18.2479ZM41.8186 17.7706V16.7706H40.8186V17.7706H41.8186ZM41.8186 13.0128H40.8186V14.0128H41.8186V13.0128ZM49.5146 11.4467L48.6976 10.87L48.6901 10.8809L49.5146 11.4467ZM48.9628 7.19602L49.5914 6.41828V6.41828L48.9628 7.19602ZM41.8186 6.31605V5.31605H40.8186V6.31605H41.8186ZM35.4358 31V0.454544H33.4358V31H35.4358ZM34.4358 1.45454H47.173V-0.545455H34.4358V1.45454ZM47.173 1.45454C49.373 1.45454 51.1459 1.76642 52.5285 2.3462L53.3019 0.50181C51.6021 -0.211026 49.5469 -0.545455 47.173 -0.545455V1.45454ZM52.5306 2.34708C53.9368 2.933 54.9276 3.7248 55.5732 4.69319L57.2373 3.58379C56.3318 2.22549 54.9959 1.20762 53.2998 0.500927L52.5306 2.34708ZM55.5765 4.69809C56.2403 5.68113 56.5835 6.82964 56.5835 8.1804H58.5835C58.5835 6.46866 58.1413 4.92257 57.234 3.5789L55.5765 4.69809ZM56.5835 8.1804C56.5835 9.20017 56.3712 10.0744 55.9701 10.8275L57.7353 11.7677C58.3087 10.6912 58.5835 9.48733 58.5835 8.1804H56.5835ZM55.9722 10.8235C55.5604 11.5883 54.9957 12.2212 54.267 12.7296L55.4114 14.3698C56.393 13.685 57.1706 12.8165 57.7332 11.7717L55.9722 10.8235ZM54.267 12.7296C53.5323 13.2422 52.6695 13.6107 51.6634 13.8244L52.0789 15.7807C53.32 15.5172 54.4359 15.0504 55.4114 14.3698L54.267 12.7296ZM50.8712 14.8026V15.1009H52.8712V14.8026H50.8712ZM51.8229 16.0997C52.8996 16.1518 53.8819 16.4405 54.7843 16.9648L55.789 15.2355C54.6034 14.5467 53.3087 14.1692 51.9195 14.102L51.8229 16.0997ZM54.7879 16.9669C55.6863 17.4839 56.4083 18.2026 56.9598 19.142L58.6845 18.1293C57.9634 16.9011 56.995 15.9295 55.7854 15.2334L54.7879 16.9669ZM56.9619 19.1455C57.4916 20.0393 57.7767 21.1293 57.7767 22.4538H59.7767C59.7767 20.8352 59.4255 19.3797 58.6825 18.1259L56.9619 19.1455ZM57.7767 22.4538C57.7767 23.9152 57.4077 25.1909 56.684 26.311L58.3638 27.3964C59.3105 25.9312 59.7767 24.2737 59.7767 22.4538H57.7767ZM56.6859 26.308C55.9656 27.4142 54.9106 28.3138 53.473 28.9919L54.3262 30.8007C56.0506 29.9874 57.4117 28.8586 58.3619 27.3994L56.6859 26.308ZM53.4776 28.9897C52.0617 29.6487 50.2951 30 48.1425 30V32C50.5041 32 52.5755 31.6155 54.3215 30.8029L53.4776 28.9897ZM48.1425 30H34.4358V32H48.1425V30ZM41.8186 26.049H46.3825V24.049H41.8186V26.049ZM46.3825 26.049C48.0743 26.049 49.5268 25.7349 50.5433 24.9191L49.2914 23.3593C48.7965 23.7565 47.8925 24.049 46.3825 24.049V26.049ZM50.5383 24.923C51.5718 24.1043 52.0658 22.9548 52.0658 21.6037H50.0658C50.0658 22.4202 49.7942 22.961 49.2964 23.3554L50.5383 24.923ZM52.0658 21.6037C52.0658 20.657 51.842 19.7846 51.3527 19.0308L49.6752 20.1198C49.9216 20.4994 50.0658 20.9793 50.0658 21.6037H52.0658ZM51.357 19.0375C50.8763 18.2839 50.1987 17.7191 49.3627 17.338L48.5331 19.1578C49.0493 19.3931 49.4158 19.7132 49.6709 20.1131L51.357 19.0375ZM49.3737 17.3431C48.534 16.9479 47.5709 16.7706 46.5168 16.7706V18.7706C47.3519 18.7706 48.0095 18.9115 48.5221 19.1527L49.3737 17.3431ZM46.5168 16.7706H41.8186V18.7706H46.5168V16.7706ZM40.8186 17.7706V25.049H42.8186V17.7706H40.8186ZM41.8186 14.0128H45.9053V12.0128H41.8186V14.0128ZM45.9053 14.0128C46.8219 14.0128 47.6755 13.8598 48.4469 13.5292L47.6591 11.6909C47.1776 11.8973 46.5995 12.0128 45.9053 12.0128V14.0128ZM48.4469 13.5292C49.228 13.1945 49.8726 12.6924 50.3392 12.0126L48.6901 10.8809C48.4607 11.2152 48.1309 11.4887 47.6591 11.6909L48.4469 13.5292ZM50.3316 12.0234C50.8262 11.3227 51.0516 10.5019 51.0516 9.61221H49.0516C49.0516 10.1543 48.919 10.5566 48.6977 10.87L50.3316 12.0234ZM51.0516 9.61221C51.0516 8.31954 50.577 7.21489 49.5914 6.41828L48.3342 7.97376C48.8003 8.35045 49.0516 8.85659 49.0516 9.61221H51.0516ZM49.5914 6.41828C48.6376 5.6474 47.4125 5.31605 46.0246 5.31605V7.31605C47.1026 7.31605 47.8363 7.57135 48.3342 7.97376L49.5914 6.41828ZM46.0246 5.31605H41.8186V7.31605H46.0246V5.31605ZM40.8186 6.31605V13.0128H42.8186V6.31605H40.8186ZM89.2178 24.2734L88.3427 23.7894V23.7894L89.2178 24.2734ZM83.9678 29.598L83.4862 28.7216L83.4845 28.7225L83.9678 29.598ZM69.1574 29.5831L69.6437 28.7093L69.1574 29.5831ZM63.9223 24.2585L63.0457 24.7397L63.0482 24.7442L63.9223 24.2585ZM63.9223 7.18111L63.0473 6.69704L63.0457 6.6999L63.9223 7.18111ZM69.1574 1.85653L69.6407 2.732L69.1574 1.85653ZM83.9678 1.85653L83.4845 2.732L83.4862 2.73292L83.9678 1.85653ZM89.2178 7.18111L88.3427 7.66517L89.2178 7.18111ZM82.7597 10.6861L81.8331 11.0621L81.8354 11.0678L82.7597 10.6861ZM80.3435 7.56889L79.7833 8.39729L79.787 8.39973L80.3435 7.56889ZM72.7966 7.56889L73.3531 8.39973L72.7966 7.56889ZM70.3655 10.6861L69.4412 10.3043L69.4389 10.3101L70.3655 10.6861ZM70.3655 20.7685L69.4389 21.1445L69.4412 21.1502L70.3655 20.7685ZM72.7966 23.8857L73.3531 23.0548L72.7966 23.8857ZM80.3435 23.8857L79.787 23.0548L79.7833 23.0573L80.3435 23.8857ZM82.7597 20.7685L81.8354 20.3867L81.8331 20.3924L82.7597 20.7685ZM90.1567 15.7273C90.1567 18.9617 89.5348 21.6345 88.3427 23.7894L90.0928 24.7575C91.4859 22.2391 92.1567 19.2144 92.1567 15.7273H90.1567ZM88.3427 23.7894C87.1358 25.9711 85.5179 27.6051 83.4862 28.7216L84.4494 30.4744C86.8325 29.1648 88.7145 27.249 90.0928 24.7575L88.3427 23.7894ZM83.4845 28.7225C81.448 29.8467 79.1509 30.4176 76.5701 30.4176V32.4176C79.4579 32.4176 82.0926 31.7754 84.4511 30.4735L83.4845 28.7225ZM76.5701 30.4176C73.98 30.4176 71.6791 29.8421 69.6437 28.7093L68.6711 30.4569C71.0306 31.7701 73.6715 32.4176 76.5701 32.4176V30.4176ZM69.6437 28.7093C67.6189 27.5824 66.0041 25.9465 64.7965 23.7729L63.0482 24.7442C64.4258 27.2239 66.301 29.1378 68.6711 30.4569L69.6437 28.7093ZM64.7989 23.7773C63.6154 21.6214 62.9983 18.9524 62.9983 15.7273H60.9983C60.9983 19.2039 61.6638 22.2224 63.0457 24.7397L64.7989 23.7773ZM62.9983 15.7273C62.9983 12.4917 63.6157 9.81787 64.7989 7.66231L63.0457 6.6999C61.6636 9.21764 60.9983 12.2413 60.9983 15.7273H62.9983ZM64.7974 7.66517C66.0049 5.48227 67.6187 3.84819 69.6407 2.732L68.6741 0.981071C66.3012 2.29102 64.4249 4.20665 63.0473 6.69705L64.7974 7.66517ZM69.6407 2.732C71.6766 1.60809 73.9786 1.03693 76.5701 1.03693V-0.963069C73.6729 -0.963069 71.0331 -0.321163 68.6741 0.981071L69.6407 2.732ZM76.5701 1.03693C79.1509 1.03693 81.448 1.6078 83.4845 2.732L84.4511 0.981071C82.0926 -0.320866 79.4579 -0.963069 76.5701 -0.963069V1.03693ZM83.4862 2.73292C85.5179 3.84943 87.1358 5.48342 88.3427 7.66517L90.0928 6.69705C88.7145 4.2055 86.8325 2.28977 84.4494 0.980151L83.4862 2.73292ZM88.3427 7.66517C89.5348 9.82009 90.1567 12.4928 90.1567 15.7273H92.1567C92.1567 12.2402 91.4859 9.21542 90.0928 6.69705L88.3427 7.66517ZM84.6098 15.7273C84.6098 13.6496 84.3146 11.8311 83.6839 10.3043L81.8354 11.0678C82.3383 12.2854 82.6098 13.8277 82.6098 15.7273H84.6098ZM83.6863 10.3101C83.0672 8.78448 82.1464 7.5729 80.9 6.73805L79.787 8.39973C80.6485 8.97682 81.3385 9.84335 81.8331 11.0621L83.6863 10.3101ZM80.9036 6.7405C79.6679 5.90491 78.207 5.50994 76.5701 5.50994V7.50994C77.8763 7.50994 78.931 7.82094 79.7833 8.39728L80.9036 6.7405ZM76.5701 5.50994C74.9412 5.50994 73.4827 5.90572 72.2401 6.73805L73.3531 8.39973C74.2184 7.82013 75.2756 7.50994 76.5701 7.50994V5.50994ZM72.2401 6.73805C70.9954 7.57178 70.0703 8.78124 69.4412 10.3043L71.2898 11.0678C71.7942 9.8466 72.4899 8.97793 73.3531 8.39973L72.2401 6.73805ZM69.4389 10.3101C68.8201 11.835 68.5303 13.6514 68.5303 15.7273H70.5303C70.5303 13.8259 70.7973 12.2815 71.2921 11.0621L69.4389 10.3101ZM68.5303 15.7273C68.5303 17.8032 68.8201 19.6196 69.4389 21.1445L71.2921 20.3924C70.7973 19.173 70.5303 17.6286 70.5303 15.7273H68.5303ZM69.4412 21.1502C70.0703 22.6733 70.9954 23.8828 72.2401 24.7165L73.3531 23.0548C72.4899 22.4766 71.7942 21.6079 71.2898 20.3867L69.4412 21.1502ZM72.2401 24.7165C73.4827 25.5488 74.9412 25.9446 76.5701 25.9446V23.9446C75.2756 23.9446 74.2184 23.6344 73.3531 23.0548L72.2401 24.7165ZM76.5701 25.9446C78.207 25.9446 79.6679 25.5496 80.9036 24.714L79.7833 23.0573C78.931 23.6336 77.8763 23.9446 76.5701 23.9446V25.9446ZM80.9 24.7165C82.1464 23.8816 83.0672 22.6701 83.6863 21.1445L81.8331 20.3924C81.3385 21.6112 80.6485 22.4777 79.787 23.0548L80.9 24.7165ZM83.6839 21.1502C84.3146 19.6235 84.6098 17.8049 84.6098 15.7273H82.6098C82.6098 17.6269 82.3383 19.1691 81.8354 20.3867L83.6839 21.1502ZM113.946 0.454544V-0.545455H112.946V0.454544H113.946ZM121.314 0.454544H122.314V-0.545455H121.314V0.454544ZM119.689 26.108L120.529 26.65L120.53 26.6477L119.689 26.108ZM115.155 30.0156L115.581 30.92L115.585 30.9182L115.155 30.0156ZM101.597 30.0156L101.167 30.9182L101.17 30.92L101.597 30.0156ZM97.0779 26.108L96.2338 26.6442L96.2352 26.6464L97.0779 26.108ZM95.4671 0.454544V-0.545455H94.4671V0.454544H95.4671ZM102.85 0.454544H103.85V-0.545455H102.85V0.454544ZM103.536 22.3345L102.661 22.8193L102.666 22.8273L103.536 22.3345ZM105.49 24.2734L105.978 23.4008L105.49 24.2734ZM111.292 24.2734L110.803 23.4007L110.799 23.4033L111.292 24.2734ZM113.946 1.45454H121.314V-0.545455H113.946V1.45454ZM120.314 0.454544V20.157H122.314V0.454544H120.314ZM120.314 20.157C120.314 22.269 119.814 24.0598 118.847 25.5682L120.53 26.6477C121.731 24.7754 122.314 22.5989 122.314 20.157H120.314ZM118.848 25.5659C117.873 27.0788 116.509 28.262 114.724 29.113L115.585 30.9182C117.678 29.9198 119.337 28.4979 120.529 26.65L118.848 25.5659ZM114.728 29.1112C112.946 29.9519 110.845 30.3878 108.398 30.3878V32.3878C111.082 32.3878 113.485 31.9089 115.581 30.92L114.728 29.1112ZM108.398 30.3878C105.92 30.3878 103.804 29.9512 102.024 29.1112L101.17 30.92C103.268 31.9096 105.686 32.3878 108.398 32.3878V30.3878ZM102.028 29.113C100.244 28.2623 98.8859 27.0802 97.9205 25.5695L96.2352 26.6464C97.4175 28.4965 99.0725 29.9195 101.167 30.9182L102.028 29.113ZM97.9219 25.5717C96.9633 24.0628 96.4671 22.2707 96.4671 20.157H94.4671C94.4671 22.5972 95.0446 24.7724 96.2338 26.6442L97.9219 25.5717ZM96.4671 20.157V0.454544H94.4671V20.157H96.4671ZM95.4671 1.45454H102.85V-0.545455H95.4671V1.45454ZM101.85 0.454544V19.5156H103.85V0.454544H101.85ZM101.85 19.5156C101.85 20.719 102.112 21.8289 102.661 22.8193L104.411 21.8498C104.045 21.1896 103.85 20.4202 103.85 19.5156H101.85ZM102.666 22.8273C103.224 23.8133 104.008 24.5903 105.002 25.1461L105.978 23.4008C105.301 23.0219 104.782 22.5063 104.406 21.8418L102.666 22.8273ZM105.002 25.1461C106.007 25.709 107.15 25.9744 108.398 25.9744V23.9744C107.439 23.9744 106.643 23.7726 105.978 23.4008L105.002 25.1461ZM108.398 25.9744C109.646 25.9744 110.786 25.7091 111.784 25.1436L110.799 23.4033C110.147 23.7725 109.358 23.9744 108.398 23.9744V25.9744ZM111.78 25.1461C112.773 24.5903 113.557 23.8133 114.116 22.8273L112.375 21.8418C111.999 22.5063 111.48 23.0219 110.803 23.4008L111.78 25.1461ZM114.116 22.8273C114.677 21.8355 114.946 20.7227 114.946 19.5156H112.946C112.946 20.4166 112.748 21.183 112.375 21.8418L114.116 22.8273ZM114.946 19.5156V0.454544H112.946V19.5156H114.946ZM124.942 6.45028H123.942V7.45028H124.942V6.45028ZM124.942 0.454544V-0.545455H123.942V0.454544H124.942ZM150.76 0.454544H151.76V-0.545455H150.76V0.454544ZM150.76 6.45028V7.45028H151.76V6.45028H150.76ZM141.498 6.45028V5.45028H140.498V6.45028H141.498ZM141.498 31V32H142.498V31H141.498ZM134.219 31H133.219V32H134.219V31ZM134.219 6.45028H135.219V5.45028H134.219V6.45028ZM125.942 6.45028V0.454544H123.942V6.45028H125.942ZM124.942 1.45454H150.76V-0.545455H124.942V1.45454ZM149.76 0.454544V6.45028H151.76V0.454544H149.76ZM150.76 5.45028H141.498V7.45028H150.76V5.45028ZM140.498 6.45028V31H142.498V6.45028H140.498ZM141.498 30H134.219V32H141.498V30ZM135.219 31V6.45028H133.219V31H135.219ZM134.219 5.45028H124.942V7.45028H134.219V5.45028ZM181.868 0.454544V-0.545455H180.868V0.454544H181.868ZM189.236 0.454544H190.236V-0.545455H189.236V0.454544ZM187.611 26.108L188.451 26.65L188.452 26.6477L187.611 26.108ZM183.076 30.0156L183.503 30.92L183.507 30.9182L183.076 30.0156ZM169.519 30.0156L169.088 30.9182L169.092 30.92L169.519 30.0156ZM165 26.108L164.156 26.6442L164.157 26.6464L165 26.108ZM163.389 0.454544V-0.545455H162.389V0.454544H163.389ZM170.772 0.454544H171.772V-0.545455H170.772V0.454544ZM171.458 22.3345L170.583 22.8193L170.588 22.8273L171.458 22.3345ZM173.412 24.2734L173.9 23.4008L173.412 24.2734ZM179.214 24.2734L178.725 23.4007L178.721 23.4033L179.214 24.2734ZM181.868 1.45454H189.236V-0.545455H181.868V1.45454ZM188.236 0.454544V20.157H190.236V0.454544H188.236ZM188.236 20.157C188.236 22.269 187.736 24.0598 186.769 25.5682L188.452 26.6477C189.653 24.7754 190.236 22.5989 190.236 20.157H188.236ZM186.77 25.5659C185.794 27.0788 184.43 28.262 182.646 29.113L183.507 30.9182C185.6 29.9198 187.259 28.4979 188.451 26.65L186.77 25.5659ZM182.65 29.1112C180.868 29.9519 178.766 30.3878 176.32 30.3878V32.3878C179.004 32.3878 181.407 31.9089 183.503 30.92L182.65 29.1112ZM176.32 30.3878C173.842 30.3878 171.726 29.9512 169.946 29.1112L169.092 30.92C171.19 31.9096 173.608 32.3878 176.32 32.3878V30.3878ZM169.949 29.113C168.166 28.2623 166.808 27.0802 165.842 25.5695L164.157 26.6464C165.339 28.4965 166.994 29.9195 169.088 30.9182L169.949 29.113ZM165.844 25.5717C164.885 24.0628 164.389 22.2707 164.389 20.157H162.389C162.389 22.5972 162.967 24.7724 164.156 26.6442L165.844 25.5717ZM164.389 20.157V0.454544H162.389V20.157H164.389ZM163.389 1.45454H170.772V-0.545455H163.389V1.45454ZM169.772 0.454544V19.5156H171.772V0.454544H169.772ZM169.772 19.5156C169.772 20.719 170.034 21.8289 170.583 22.8193L172.332 21.8498C171.967 21.1896 171.772 20.4202 171.772 19.5156H169.772ZM170.588 22.8273C171.146 23.8133 171.93 24.5903 172.923 25.1461L173.9 23.4008C173.223 23.0219 172.704 22.5063 172.328 21.8418L170.588 22.8273ZM172.923 25.1461C173.929 25.709 175.072 25.9744 176.32 25.9744V23.9744C175.361 23.9744 174.564 23.7726 173.9 23.4008L172.923 25.1461ZM176.32 25.9744C177.568 25.9744 178.708 25.7091 179.706 25.1436L178.721 23.4033C178.069 23.7725 177.28 23.9744 176.32 23.9744V25.9744ZM179.702 25.1461C180.695 24.5903 181.479 23.8133 182.038 22.8273L180.297 21.8418C179.921 22.5063 179.402 23.0219 178.725 23.4008L179.702 25.1461ZM182.038 22.8273C182.599 21.8355 182.868 20.7227 182.868 19.5156H180.868C180.868 20.4166 180.67 21.183 180.297 21.8418L182.038 22.8273ZM182.868 19.5156V0.454544H180.868V19.5156H182.868ZM210.374 9.61221L209.378 9.70275L209.461 10.6122H210.374V9.61221ZM209.047 7.06179L208.424 7.84469L208.436 7.8533L209.047 7.06179ZM203.334 6.50994L202.971 5.57848V5.57848L203.334 6.50994ZM201.903 7.53906L202.705 8.13611L202.711 8.12723L201.903 7.53906ZM201.41 9.01562L202.409 9.05906L202.41 9.04628L202.41 9.03348L201.41 9.01562ZM201.679 10.2237L200.811 10.7199L200.816 10.7291L200.821 10.7382L201.679 10.2237ZM202.574 11.1484L202.005 11.9706L202.017 11.9789L202.029 11.9869L202.574 11.1484ZM204.006 11.8345L204.342 10.8928L204.006 11.8345ZM205.885 12.3565L206.107 11.3813L206.094 11.3787L205.885 12.3565ZM208.51 12.9531L208.288 13.9283L208.298 13.9304L208.51 12.9531ZM212.507 14.2656L212.079 15.1692L212.082 15.1706L212.507 14.2656ZM215.43 16.2195L214.737 16.9401L214.742 16.9445L215.43 16.2195ZM217.235 18.8295L216.311 19.2122V19.2122L217.235 18.8295ZM217.861 22.1406L218.861 22.1458L218.861 22.1325L217.861 22.1406ZM216.4 27.1072L215.58 26.535L216.4 27.1072ZM212.239 30.2841L211.862 29.3577L211.86 29.3585L212.239 30.2841ZM199.039 30.2393L199.413 29.3119L199.039 30.2393ZM192.984 20.8281V19.8281H191.971L191.984 20.8406L192.984 20.8281ZM200.053 20.8281L201.051 20.7676L200.994 19.8281H200.053V20.8281ZM200.844 23.2891L200.029 23.8691L200.844 23.2891ZM202.768 24.7805L202.385 25.7043L202.389 25.7059L202.768 24.7805ZM208.167 24.8849L207.811 23.9502L207.807 23.9519L208.167 24.8849ZM209.793 23.7663L209.008 23.1456L209.793 23.7663ZM210.374 22.1257L211.374 22.1418L211.374 22.1252L211.374 22.1085L210.374 22.1257ZM209.837 20.6491L209.069 21.2894L209.077 21.2984L209.837 20.6491ZM208.226 19.5753L207.831 20.4938L207.839 20.4971L207.846 20.5002L208.226 19.5753ZM205.482 18.7251L205.255 19.6989L205.256 19.6992L205.482 18.7251ZM202.29 17.9794L202.518 17.0056L202.514 17.0047L202.29 17.9794ZM196.041 15.0412L195.374 15.7862L195.377 15.7886L196.041 15.0412ZM193.774 9.52273L194.774 9.52702L194.774 9.51747L193.774 9.52273ZM195.295 4.55611L194.484 3.97165L195.295 4.55611ZM199.546 1.23011L199.948 2.14558L199.546 1.23011ZM211.896 1.24503L211.475 2.15255L211.482 2.15539L211.896 1.24503ZM215.967 4.60085L216.798 4.04483L215.967 4.60085ZM217.444 9.61221V10.6122H218.454L218.444 9.60174L217.444 9.61221ZM211.37 9.52168C211.248 8.18372 210.688 7.06593 209.658 6.27028L208.436 7.8533C208.976 8.27071 209.301 8.8532 209.378 9.70275L211.37 9.52168ZM209.669 6.27897C208.652 5.47037 207.289 5.13707 205.721 5.13707V7.13707C207.036 7.13707 207.891 7.42025 208.425 7.84461L209.669 6.27897ZM205.721 5.13707C204.688 5.13707 203.759 5.27048 202.971 5.57848L203.698 7.4414C204.183 7.25224 204.845 7.13707 205.721 7.13707V5.13707ZM202.971 5.57848C202.203 5.87844 201.551 6.32282 201.094 6.95089L202.711 8.12723C202.891 7.88031 203.193 7.63861 203.698 7.4414L202.971 5.57848ZM201.1 6.94205C200.652 7.54512 200.424 8.24199 200.411 8.99777L202.41 9.03348C202.417 8.67562 202.517 8.38812 202.705 8.13607L201.1 6.94205ZM200.411 8.97219C200.384 9.5907 200.505 10.1856 200.811 10.7199L202.547 9.72758C202.455 9.56582 202.397 9.35532 202.409 9.05906L200.411 8.97219ZM200.821 10.7382C201.114 11.2263 201.519 11.6343 202.005 11.9706L203.143 10.3262C202.853 10.1257 202.661 9.91714 202.536 9.70922L200.821 10.7382ZM202.029 11.9869C202.505 12.2967 203.056 12.5573 203.669 12.7763L204.342 10.8928C203.841 10.714 203.438 10.5172 203.119 10.31L202.029 11.9869ZM203.669 12.7763C204.275 12.9925 204.945 13.1778 205.675 13.3343L206.094 11.3787C205.433 11.237 204.85 11.0742 204.342 10.8928L203.669 12.7763ZM205.663 13.3317L208.288 13.9283L208.731 11.978L206.106 11.3814L205.663 13.3317ZM208.298 13.9304C209.75 14.2456 211.007 14.6611 212.079 15.1692L212.935 13.362C211.7 12.7764 210.293 12.3169 208.722 11.9759L208.298 13.9304ZM212.082 15.1706C213.163 15.6792 214.043 16.2723 214.737 16.9401L216.124 15.4988C215.247 14.6553 214.177 13.9458 212.932 13.3606L212.082 15.1706ZM214.742 16.9445C215.439 17.6067 215.959 18.361 216.311 19.2122L218.159 18.4469C217.696 17.3293 217.013 16.3436 216.119 15.4945L214.742 16.9445ZM216.311 19.2122C216.663 20.0615 216.852 21.0355 216.861 22.1488L218.861 22.1325C218.851 20.7998 218.622 19.5663 218.159 18.4469L216.311 19.2122ZM216.861 22.1355C216.852 23.8918 216.412 25.3425 215.58 26.535L217.22 27.6795C218.317 26.1078 218.851 24.2474 218.861 22.1458L216.861 22.1355ZM215.58 26.535C214.742 27.7348 213.522 28.6828 211.862 29.3577L212.615 31.2104C214.575 30.4138 216.128 29.2439 217.22 27.6795L215.58 26.535ZM211.86 29.3585C210.211 30.0325 208.175 30.3878 205.721 30.3878V32.3878C208.358 32.3878 210.666 32.0072 212.617 31.2097L211.86 29.3585ZM205.721 30.3878C203.263 30.3878 201.168 30.0193 199.413 29.3119L198.665 31.1668C200.709 31.9906 203.068 32.3878 205.721 32.3878V30.3878ZM199.413 29.3119C197.682 28.614 196.371 27.5711 195.438 26.1897L193.781 27.3089C194.956 29.0496 196.598 30.3334 198.665 31.1668L199.413 29.3119ZM195.438 26.1897C194.519 24.8286 194.012 23.0587 193.984 20.8156L191.984 20.8406C192.015 23.3702 192.592 25.5478 193.781 27.3089L195.438 26.1897ZM192.984 21.8281H200.053V19.8281H192.984V21.8281ZM199.055 20.8886C199.123 22.018 199.431 23.0293 200.029 23.8691L201.658 22.709C201.322 22.2363 201.102 21.607 201.051 20.7676L199.055 20.8886ZM200.029 23.8691C200.615 24.6926 201.413 25.3015 202.385 25.7043L203.151 23.8568C202.491 23.5834 202.007 23.198 201.658 22.709L200.029 23.8691ZM202.389 25.7059C203.357 26.1026 204.445 26.2876 205.631 26.2876V24.2876C204.65 24.2876 203.829 24.1346 203.147 23.8552L202.389 25.7059ZM205.631 26.2876C206.71 26.2876 207.685 26.1427 208.527 25.8179L207.807 23.9519C207.257 24.1641 206.541 24.2876 205.631 24.2876V26.2876ZM208.522 25.8196C209.356 25.5024 210.063 25.0361 210.577 24.387L209.008 23.1456C208.767 23.4511 208.389 23.7306 207.811 23.9502L208.522 25.8196ZM210.577 24.387C211.093 23.7351 211.361 22.975 211.374 22.1418L209.374 22.1096C209.368 22.5093 209.248 22.8431 209.008 23.1456L210.577 24.387ZM211.374 22.1085C211.36 21.3187 211.108 20.598 210.598 19.9999L209.077 21.2984C209.262 21.5156 209.368 21.7793 209.374 22.143L211.374 22.1085ZM210.605 20.009C210.117 19.4231 209.421 18.9849 208.607 18.6503L207.846 20.5002C208.484 20.7622 208.861 21.04 209.069 21.2893L210.605 20.009ZM208.622 18.6568C207.833 18.3169 206.856 18.0174 205.708 17.751L205.256 19.6992C206.336 19.9499 207.189 20.2172 207.831 20.4938L208.622 18.6568ZM205.71 17.7514L202.518 17.0056L202.063 18.9532L205.255 19.6989L205.71 17.7514ZM202.514 17.0047C199.98 16.4237 198.066 15.5035 196.705 14.2938L195.377 15.7886C197.058 17.2835 199.311 18.3221 202.067 18.9541L202.514 17.0047ZM196.708 14.2962C195.43 13.1514 194.765 11.6006 194.774 9.52702L192.774 9.51844C192.763 12.0784 193.61 14.2065 195.374 15.7862L196.708 14.2962ZM194.774 9.51747C194.765 7.82234 195.216 6.3771 196.107 5.14056L194.484 3.97165C193.326 5.57887 192.763 7.4447 192.774 9.52799L194.774 9.51747ZM196.107 5.14056C197.014 3.88141 198.281 2.87859 199.948 2.14558L199.144 0.314651C197.192 1.17255 195.625 2.38706 194.484 3.97165L196.107 5.14056ZM199.948 2.14558C201.611 1.41463 203.534 1.03693 205.736 1.03693V-0.963069C203.304 -0.963069 201.1 -0.545312 199.144 0.314651L199.948 2.14558ZM205.736 1.03693C207.99 1.03693 209.894 1.42061 211.475 2.15253L212.316 0.337523C210.417 -0.541349 208.214 -0.963069 205.736 -0.963069V1.03693ZM211.482 2.15539C213.081 2.88245 214.286 3.88615 215.136 5.15688L216.798 4.04483C215.72 2.43203 214.21 1.19851 212.309 0.334661L211.482 2.15539ZM215.136 5.15687C215.982 6.4218 216.426 7.89873 216.444 9.62268L218.444 9.60174C218.422 7.52741 217.881 5.66342 216.798 4.04483L215.136 5.15687ZM217.444 8.61221H210.374V10.6122H217.444V8.61221Z" fill="url(#paint1_linear_3725_5293)"/>
<defs>
<linearGradient id="paint0_linear_3725_5293" x1="109.5" y1="32.875" x2="109.5" y2="-8" gradientUnits="userSpaceOnUse">
<stop stop-color="#8247E5"/>
<stop offset="1" stop-color="#8247E5" stop-opacity="0"/>
</linearGradient>
<linearGradient id="paint1_linear_3725_5293" x1="109.5" y1="-8" x2="109.5" y2="40" gradientUnits="userSpaceOnUse">
<stop stop-color="white"/>
<stop offset="1" stop-color="white" stop-opacity="0"/>
</linearGradient>
</defs>
</svg>
