<svg width="36" height="36" viewBox="0 0 36 36" fill="none" xmlns="http://www.w3.org/2000/svg">
<g filter="url(#filter0_b_3312_5053)">
<path d="M0 6C0 2.68629 2.68629 0 6 0H30C33.3137 0 36 2.68629 36 6V30C36 33.3137 33.3137 36 30 36H6C2.68629 36 0 33.3137 0 30V6Z" fill="url(#paint0_linear_3312_5053)"/>
<path d="M19 22H18V18H17M18 14H18.01M27 18C27 22.9706 22.9706 27 18 27C13.0294 27 9 22.9706 9 18C9 13.0294 13.0294 9 18 9C22.9706 9 27 13.0294 27 18Z" stroke="white" stroke-width="2" stroke-linecap="round" stroke-linejoin="round"/>
<path d="M6 1H30V-1H6V1ZM35 6V30H37V6H35ZM30 35H6V37H30V35ZM1 30V6H-1V30H1ZM6 35C3.23858 35 1 32.7614 1 30H-1C-1 33.866 2.13401 37 6 37V35ZM35 30C35 32.7614 32.7614 35 30 35V37C33.866 37 37 33.866 37 30H35ZM30 1C32.7614 1 35 3.23858 35 6H37C37 2.13401 33.866 -1 30 -1V1ZM6 -1C2.13401 -1 -1 2.13401 -1 6H1C1 3.23858 3.23858 1 6 1V-1Z" fill="url(#paint1_linear_3312_5053)"/>
</g>
<defs>
<filter id="filter0_b_3312_5053" x="-10" y="-10" width="56" height="56" filterUnits="userSpaceOnUse" color-interpolation-filters="sRGB">
<feFlood flood-opacity="0" result="BackgroundImageFix"/>
<feGaussianBlur in="BackgroundImage" stdDeviation="5"/>
<feComposite in2="SourceAlpha" operator="in" result="effect1_backgroundBlur_3312_5053"/>
<feBlend mode="normal" in="SourceGraphic" in2="effect1_backgroundBlur_3312_5053" result="shape"/>
</filter>
<linearGradient id="paint0_linear_3312_5053" x1="0" y1="0" x2="36" y2="36" gradientUnits="userSpaceOnUse">
<stop stop-color="white" stop-opacity="0.3"/>
<stop offset="1" stop-color="white" stop-opacity="0.1"/>
</linearGradient>
<linearGradient id="paint1_linear_3312_5053" x1="0" y1="0" x2="36" y2="36" gradientUnits="userSpaceOnUse">
<stop stop-color="white" stop-opacity="0.4"/>
<stop offset="1" stop-color="white" stop-opacity="0.1"/>
</linearGradient>
</defs>
</svg>
