<svg width="36" height="36" viewBox="0 0 36 36" fill="none" xmlns="http://www.w3.org/2000/svg">
<g filter="url(#filter0_b_3303_6061)">
<path d="M0 6C0 2.68629 2.68629 0 6 0H30C33.3137 0 36 2.68629 36 6V30C36 33.3137 33.3137 36 30 36H6C2.68629 36 0 33.3137 0 30V6Z" fill="url(#paint0_linear_3303_6061)"/>
<path fill-rule="evenodd" clip-rule="evenodd" d="M18 30C24.6274 30 30 24.6274 30 18C30 11.3726 24.6274 6 18 6C11.3726 6 6 11.3726 6 18C6 24.6274 11.3726 30 18 30ZM17.1692 25.5224L17.9254 26L18.7214 25.5224V12.1493L24.8507 15.6915V13.9801L17.9254 10L11 13.9801V15.6915L17.1692 12.1493V25.5224ZM12.3532 22.9353L11 22.2985V16.5274L16.4527 13.6004V25.1244L15.0597 24.408V15.7711L14.4229 16.1294V24.0896L13.0299 23.3731V16.806L12.3532 17.1244V22.9353ZM19.4378 13.4229L24.8507 16.5274L23.3781 17.4428L20.9104 16.01V18.5671H24.8507V20.0697H20.9104V22.5373L23.3781 21.1045L24.8507 21.9801L19.4378 25.1244V13.4229Z" fill="white"/>
<path d="M6 1H30V-1H6V1ZM35 6V30H37V6H35ZM30 35H6V37H30V35ZM1 30V6H-1V30H1ZM6 35C3.23858 35 1 32.7614 1 30H-1C-1 33.866 2.13401 37 6 37V35ZM35 30C35 32.7614 32.7614 35 30 35V37C33.866 37 37 33.866 37 30H35ZM30 1C32.7614 1 35 3.23858 35 6H37C37 2.13401 33.866 -1 30 -1V1ZM6 -1C2.13401 -1 -1 2.13401 -1 6H1C1 3.23858 3.23858 1 6 1V-1Z" fill="url(#paint1_linear_3303_6061)"/>
</g>
<defs>
<filter id="filter0_b_3303_6061" x="-10" y="-10" width="56" height="56" filterUnits="userSpaceOnUse" color-interpolation-filters="sRGB">
<feFlood flood-opacity="0" result="BackgroundImageFix"/>
<feGaussianBlur in="BackgroundImage" stdDeviation="5"/>
<feComposite in2="SourceAlpha" operator="in" result="effect1_backgroundBlur_3303_6061"/>
<feBlend mode="normal" in="SourceGraphic" in2="effect1_backgroundBlur_3303_6061" result="shape"/>
</filter>
<linearGradient id="paint0_linear_3303_6061" x1="0" y1="0" x2="36" y2="36" gradientUnits="userSpaceOnUse">
<stop stop-color="white" stop-opacity="0.3"/>
<stop offset="1" stop-color="white" stop-opacity="0.1"/>
</linearGradient>
<linearGradient id="paint1_linear_3303_6061" x1="0" y1="0" x2="36" y2="36" gradientUnits="userSpaceOnUse">
<stop stop-color="white" stop-opacity="0.4"/>
<stop offset="1" stop-color="white" stop-opacity="0.1"/>
</linearGradient>
</defs>
</svg>
