<svg width="509" height="71" viewBox="0 0 509 71" fill="none" xmlns="http://www.w3.org/2000/svg">
<path d="M56.32 69L36.448 45.384C46.624 42.696 52.864 34.824 52.864 23.976C52.864 10.728 43.072 1.8 28.864 1.8H0.448001V69H13.888V46.44H21.76L40.096 69H56.32ZM39.52 24.552C39.52 31.368 35.2 35.4 27.808 35.4H13.792V13.32H27.712C35.2 13.32 39.52 17.448 39.52 24.552ZM97.447 70.536C119.047 70.536 133.255 56.424 133.255 35.112C133.255 14.28 119.143 0.263998 98.311 0.263998C76.711 0.263998 62.503 14.376 62.503 35.688C62.503 56.52 76.615 70.536 97.447 70.536ZM97.735 58.632C84.775 58.632 76.039 49.224 76.039 35.112C76.039 21.576 84.871 12.168 98.023 12.168C110.983 12.168 119.719 21.576 119.719 35.688C119.719 49.32 110.791 58.632 97.735 58.632ZM208.603 69L179.227 1.8H164.923L135.547 69H149.659L155.323 55.848H188.443L194.107 69H208.603ZM167.611 25.224C169.819 19.56 171.259 16.008 171.835 14.376H172.123C172.603 15.912 173.851 19.272 176.155 25.032L183.739 44.328H160.027L167.611 25.224ZM217.761 1.8V69H244.065C264.705 69 278.241 55.464 278.241 35.112C278.241 15.048 264.705 1.8 244.257 1.8H217.761ZM231.009 57.096V13.704H244.065C256.737 13.704 264.801 22.344 264.801 35.688C264.801 48.648 256.737 57.096 244.353 57.096H231.009ZM327.176 36.456L303.464 1.8H290.792V69H303.944V33.288C303.944 29.832 303.752 26.184 303.464 23.592L303.752 23.496C305 25.608 307.4 29.16 309.704 32.424L325.16 55.08H328.808L344.36 32.424C346.952 28.68 349.064 25.32 350.216 23.208L350.504 23.4C350.312 25.992 350.12 29.544 350.12 33.096V69H363.272V1.8H350.6L327.176 36.456ZM445.416 69L416.04 1.8H401.736L372.36 69H386.472L392.136 55.848H425.256L430.92 69H445.416ZM404.424 25.224C406.632 19.56 408.072 16.008 408.648 14.376H408.936C409.416 15.912 410.664 19.272 412.968 25.032L420.552 44.328H396.84L404.424 25.224ZM454.573 1.8V69H467.821V49.32H483.565C500.077 49.32 508.333 38.472 508.333 25.32C508.333 12.456 500.077 1.8 483.565 1.8H454.573ZM467.821 37.512V13.608H482.797C491.245 13.608 494.893 19.272 494.893 25.704C494.893 32.04 491.245 37.512 482.797 37.512H467.821Z" fill="white" fill-opacity="0.08"/>
<path d="M56.32 69V70H58.4684L57.0852 68.3562L56.32 69ZM36.448 45.384L36.1926 44.4172L34.6667 44.8202L35.6828 46.0278L36.448 45.384ZM0.448001 1.8V0.799995H-0.551999V1.8H0.448001ZM0.448001 69H-0.551999V70H0.448001V69ZM13.888 69V70H14.888V69H13.888ZM13.888 46.44V45.44H12.888V46.44H13.888ZM21.76 46.44L22.536 45.8093L22.2359 45.44H21.76V46.44ZM40.096 69L39.32 69.6307L39.6201 70H40.096V69ZM13.792 35.4H12.792V36.4H13.792V35.4ZM13.792 13.32V12.32H12.792V13.32H13.792ZM57.0852 68.3562L37.2132 44.7402L35.6828 46.0278L55.5548 69.6438L57.0852 68.3562ZM36.7034 46.3508C47.3146 43.5479 53.864 35.2817 53.864 23.976H51.864C51.864 34.3663 45.9334 41.8441 36.1926 44.4172L36.7034 46.3508ZM53.864 23.976C53.864 17.0929 51.3136 11.2751 46.8692 7.18423C42.432 3.09997 36.1771 0.799995 28.864 0.799995V2.8C35.7589 2.8 41.504 4.96402 45.5148 8.65576C49.5184 12.3409 51.864 17.6111 51.864 23.976H53.864ZM28.864 0.799995H0.448001V2.8H28.864V0.799995ZM-0.551999 1.8V69H1.448V1.8H-0.551999ZM0.448001 70H13.888V68H0.448001V70ZM14.888 69V46.44H12.888V69H14.888ZM13.888 47.44H21.76V45.44H13.888V47.44ZM20.984 47.0707L39.32 69.6307L40.872 68.3693L22.536 45.8093L20.984 47.0707ZM40.096 70H56.32V68H40.096V70ZM38.52 24.552C38.52 27.7426 37.5152 30.166 35.7557 31.799C33.9862 33.4414 31.3286 34.4 27.808 34.4V36.4C31.6795 36.4 34.8778 35.3426 37.1163 33.2649C39.3648 31.178 40.52 28.1774 40.52 24.552H38.52ZM27.808 34.4H13.792V36.4H27.808V34.4ZM14.792 35.4V13.32H12.792V35.4H14.792ZM13.792 14.32H27.712V12.32H13.792V14.32ZM27.712 14.32C31.2777 14.32 33.9543 15.3008 35.7343 16.9961C37.5077 18.685 38.52 21.2055 38.52 24.552H40.52C40.52 20.7945 39.3723 17.699 37.1137 15.5479C34.8618 13.4032 31.6343 12.32 27.712 12.32V14.32ZM97.447 71.536C108.469 71.536 117.688 67.9314 124.155 61.5265C130.622 55.1208 134.255 45.9957 134.255 35.112H132.255C132.255 45.5403 128.784 54.1272 122.747 60.1055C116.71 66.0846 108.025 69.536 97.447 69.536V71.536ZM134.255 35.112C134.255 24.4644 130.644 15.4861 124.301 9.16751C117.958 2.84934 108.956 -0.736002 98.311 -0.736002V1.264C108.498 1.264 116.968 4.68665 122.889 10.5845C128.81 16.4819 132.255 24.9275 132.255 35.112H134.255ZM98.311 -0.736002C87.2892 -0.736002 78.0703 2.86858 71.6033 9.27349C65.1355 15.6792 61.503 24.8043 61.503 35.688H63.503C63.503 25.2597 66.9745 16.6728 73.0107 10.6945C79.0477 4.71542 87.7328 1.264 98.311 1.264V-0.736002ZM61.503 35.688C61.503 46.3355 65.1139 55.3139 71.4573 61.6325C77.8003 67.9507 86.8017 71.536 97.447 71.536V69.536C87.2603 69.536 78.7897 66.1133 72.8687 60.2155C66.9481 54.3181 63.503 45.8724 63.503 35.688H61.503ZM97.735 57.632C91.5087 57.632 86.3596 55.3787 82.7614 51.4853C79.1568 47.585 77.039 41.962 77.039 35.112H75.039C75.039 42.3739 77.2892 48.511 81.2926 52.8427C85.3024 57.1813 91.0013 59.632 97.735 59.632V57.632ZM77.039 35.112C77.039 28.5634 79.1724 23.0863 82.8231 19.2537C86.4696 15.4255 91.6953 13.168 98.023 13.168V11.168C91.1987 11.168 85.4324 13.6145 81.3749 17.8743C77.3216 22.1297 75.039 28.1246 75.039 35.112H77.039ZM98.023 13.168C104.249 13.168 109.398 15.4213 112.997 19.3147C116.601 23.215 118.719 28.8379 118.719 35.688H120.719C120.719 28.426 118.469 22.289 114.465 17.9573C110.456 13.6187 104.757 11.168 98.023 11.168V13.168ZM118.719 35.688C118.719 42.2831 116.563 47.7593 112.901 51.5801C109.243 55.3974 104.016 57.632 97.735 57.632V59.632C104.51 59.632 110.275 57.2106 114.345 52.9639C118.411 48.7207 120.719 42.7249 120.719 35.688H118.719ZM208.603 69V70H210.132L209.519 68.5995L208.603 69ZM179.227 1.8L180.143 1.39945L179.881 0.799995H179.227V1.8ZM164.923 1.8V0.799995H164.269L164.007 1.39945L164.923 1.8ZM135.547 69L134.631 68.5995L134.018 70H135.547V69ZM149.659 69V70H150.317L150.577 69.3955L149.659 69ZM155.323 55.848V54.848H154.665L154.405 55.4525L155.323 55.848ZM188.443 55.848L189.361 55.4525L189.101 54.848H188.443V55.848ZM194.107 69L193.189 69.3955L193.449 70H194.107V69ZM167.611 25.224L168.54 25.593L168.543 25.5872L167.611 25.224ZM171.835 14.376V13.376H171.127L170.892 14.0432L171.835 14.376ZM172.123 14.376L173.077 14.0777L172.858 13.376H172.123V14.376ZM176.155 25.032L177.086 24.6662L177.083 24.6606L176.155 25.032ZM183.739 44.328V45.328H185.206L184.67 43.9622L183.739 44.328ZM160.027 44.328L159.098 43.959L158.554 45.328H160.027V44.328ZM209.519 68.5995L180.143 1.39945L178.311 2.20054L207.687 69.4005L209.519 68.5995ZM179.227 0.799995H164.923V2.8H179.227V0.799995ZM164.007 1.39945L134.631 68.5995L136.463 69.4005L165.839 2.20054L164.007 1.39945ZM135.547 70H149.659V68H135.547V70ZM150.577 69.3955L156.241 56.2435L154.405 55.4525L148.741 68.6045L150.577 69.3955ZM155.323 56.848H188.443V54.848H155.323V56.848ZM187.525 56.2435L193.189 69.3955L195.025 68.6045L189.361 55.4525L187.525 56.2435ZM194.107 70H208.603V68H194.107V70ZM168.543 25.5872C170.74 19.9512 172.195 16.3608 172.778 14.7088L170.892 14.0432C170.323 15.6552 168.898 19.1688 166.679 24.8608L168.543 25.5872ZM171.835 15.376H172.123V13.376H171.835V15.376ZM171.169 14.6743C171.662 16.253 172.924 19.6479 175.227 25.4034L177.083 24.6606C174.778 18.8961 173.544 15.571 173.077 14.0777L171.169 14.6743ZM175.224 25.3978L182.808 44.6938L184.67 43.9622L177.086 24.6662L175.224 25.3978ZM183.739 43.328H160.027V45.328H183.739V43.328ZM160.956 44.697L168.54 25.593L166.682 24.855L159.098 43.959L160.956 44.697ZM217.76 1.8V0.799995H216.76V1.8H217.76ZM217.76 69H216.76V70H217.76V69ZM231.008 57.096H230.008V58.096H231.008V57.096ZM231.008 13.704V12.704H230.008V13.704H231.008ZM216.76 1.8V69H218.76V1.8H216.76ZM217.76 70H244.064V68H217.76V70ZM244.064 70C254.607 70 263.419 66.5386 269.597 60.3972C275.777 54.2554 279.241 45.5148 279.241 35.112H277.241C277.241 45.0612 273.936 53.2646 268.188 58.9788C262.438 64.6934 254.162 68 244.064 68V70ZM279.241 35.112C279.241 24.8487 275.774 16.2505 269.616 10.2177C263.461 4.18681 254.7 0.799995 244.257 0.799995V2.8C254.261 2.8 262.492 6.03719 268.217 11.6463C273.939 17.2535 277.241 25.3113 277.241 35.112H279.241ZM244.257 0.799995H217.76V2.8H244.257V0.799995ZM232.008 57.096V13.704H230.008V57.096H232.008ZM231.008 14.704H244.064V12.704H231.008V14.704ZM244.064 14.704C250.164 14.704 255.07 16.7771 258.456 20.3771C261.848 23.9836 263.801 29.2164 263.801 35.688H265.801C265.801 28.8156 263.721 23.0564 259.913 19.0069C256.099 14.9509 250.637 12.704 244.064 12.704V14.704ZM263.801 35.688C263.801 41.9598 261.852 47.0481 258.497 50.5614C255.147 54.0701 250.309 56.096 244.353 56.096V58.096C250.78 58.096 256.166 55.8979 259.944 51.9426C263.717 47.9919 265.801 42.3762 265.801 35.688H263.801ZM244.353 56.096H231.008V58.096H244.353V56.096ZM327.176 36.456L326.35 37.0207L327.181 38.2343L328.004 37.016L327.176 36.456ZM303.464 1.8L304.289 1.23531L303.991 0.799995H303.464V1.8ZM290.792 1.8V0.799995H289.792V1.8H290.792ZM290.792 69H289.792V70H290.792V69ZM303.944 69V70H304.944V69H303.944ZM303.464 23.592L303.148 22.6433L302.381 22.899L302.47 23.7024L303.464 23.592ZM303.752 23.496L304.613 22.9873L304.202 22.2919L303.436 22.5473L303.752 23.496ZM309.704 32.424L310.53 31.8604L310.525 31.8538L310.521 31.8473L309.704 32.424ZM325.16 55.08L324.334 55.6436L324.631 56.08H325.16V55.08ZM328.808 55.08V56.08H329.334L329.632 55.6459L328.808 55.08ZM344.36 32.424L343.538 31.8548L343.535 31.8581L344.36 32.424ZM350.216 23.208L350.77 22.3759L349.861 21.7698L349.338 22.7291L350.216 23.208ZM350.504 23.4L351.501 23.4739L351.544 22.8917L351.058 22.5679L350.504 23.4ZM350.12 69H349.12V70H350.12V69ZM363.272 69V70H364.272V69H363.272ZM363.272 1.8H364.272V0.799995H363.272V1.8ZM350.6 1.8V0.799995H350.069L349.771 1.24001L350.6 1.8ZM328.001 35.8913L304.289 1.23531L302.638 2.36468L326.35 37.0207L328.001 35.8913ZM303.464 0.799995H290.792V2.8H303.464V0.799995ZM289.792 1.8V69H291.792V1.8H289.792ZM290.792 70H303.944V68H290.792V70ZM304.944 69V33.288H302.944V69H304.944ZM304.944 33.288C304.944 29.8021 304.75 26.1166 304.458 23.4816L302.47 23.7024C302.753 26.2514 302.944 29.8619 302.944 33.288H304.944ZM303.78 24.5407L304.068 24.4447L303.436 22.5473L303.148 22.6433L303.78 24.5407ZM302.891 24.0047C304.161 26.1544 306.582 29.7349 308.887 33.0007L310.521 31.8473C308.218 28.5851 305.838 25.0616 304.613 22.9873L302.891 24.0047ZM308.878 32.9876L324.334 55.6436L325.986 54.5164L310.53 31.8604L308.878 32.9876ZM325.16 56.08H328.808V54.08H325.16V56.08ZM329.632 55.6459L345.184 32.9899L343.535 31.8581L327.983 54.5141L329.632 55.6459ZM345.182 32.9932C347.784 29.2352 349.918 25.8427 351.094 23.6868L349.338 22.7291C348.21 24.7973 346.12 28.1248 343.538 31.8548L345.182 32.9932ZM349.661 24.0401L349.949 24.232L351.058 22.5679L350.77 22.3759L349.661 24.0401ZM349.507 23.3261C349.313 25.9333 349.12 29.5115 349.12 33.096H351.12C351.12 29.5765 351.31 26.0507 351.501 23.4739L349.507 23.3261ZM349.12 33.096V69H351.12V33.096H349.12ZM350.12 70H363.272V68H350.12V70ZM364.272 69V1.8H362.272V69H364.272ZM363.272 0.799995H350.6V2.8H363.272V0.799995ZM349.771 1.24001L326.347 35.896L328.004 37.016L351.428 2.35998L349.771 1.24001ZM445.415 69V70H446.944L446.332 68.5995L445.415 69ZM416.039 1.8L416.956 1.39945L416.694 0.799995H416.039V1.8ZM401.736 1.8V0.799995H401.081L400.819 1.39945L401.736 1.8ZM372.359 69L371.443 68.5995L370.831 70H372.359V69ZM386.471 69V70H387.13L387.39 69.3955L386.471 69ZM392.135 55.848V54.848H391.477L391.217 55.4525L392.135 55.848ZM425.255 55.848L426.174 55.4525L425.914 54.848H425.255V55.848ZM430.919 69L430.001 69.3955L430.261 70H430.919V69ZM404.423 25.224L405.353 25.593L405.355 25.5872L404.423 25.224ZM408.647 14.376V13.376H407.94L407.704 14.0432L408.647 14.376ZM408.935 14.376L409.89 14.0777L409.671 13.376H408.935V14.376ZM412.967 25.032L413.898 24.6662L413.896 24.6606L412.967 25.032ZM420.552 44.328V45.328H422.019L421.482 43.9622L420.552 44.328ZM396.84 44.328L395.91 43.959L395.367 45.328H396.84V44.328ZM446.332 68.5995L416.956 1.39945L415.123 2.20054L444.499 69.4005L446.332 68.5995ZM416.039 0.799995H401.736V2.8H416.039V0.799995ZM400.819 1.39945L371.443 68.5995L373.276 69.4005L402.652 2.20054L400.819 1.39945ZM372.359 70H386.471V68H372.359V70ZM387.39 69.3955L393.054 56.2435L391.217 55.4525L385.553 68.6045L387.39 69.3955ZM392.135 56.848H425.255V54.848H392.135V56.848ZM424.337 56.2435L430.001 69.3955L431.838 68.6045L426.174 55.4525L424.337 56.2435ZM430.919 70H445.415V68H430.919V70ZM405.355 25.5872C407.552 19.9512 409.007 16.3608 409.59 14.7088L407.704 14.0432C407.136 15.6552 405.711 19.1688 403.492 24.8608L405.355 25.5872ZM408.647 15.376H408.935V13.376H408.647V15.376ZM407.981 14.6743C408.474 16.253 409.737 19.6479 412.039 25.4034L413.896 24.6606C411.59 18.8961 410.357 15.571 409.89 14.0777L407.981 14.6743ZM412.037 25.3978L419.621 44.6938L421.482 43.9622L413.898 24.6662L412.037 25.3978ZM420.552 43.328H396.84V45.328H420.552V43.328ZM397.769 44.697L405.353 25.593L403.494 24.855L395.91 43.959L397.769 44.697ZM454.573 1.8V0.799995H453.573V1.8H454.573ZM454.573 69H453.573V70H454.573V69ZM467.821 69V70H468.821V69H467.821ZM467.821 49.32V48.32H466.821V49.32H467.821ZM467.821 37.512H466.821V38.512H467.821V37.512ZM467.821 13.608V12.608H466.821V13.608H467.821ZM453.573 1.8V69H455.573V1.8H453.573ZM454.573 70H467.821V68H454.573V70ZM468.821 69V49.32H466.821V69H468.821ZM467.821 50.32H483.565V48.32H467.821V50.32ZM483.565 50.32C492.05 50.32 498.521 47.5257 502.867 42.9399C507.203 38.3645 509.333 32.1015 509.333 25.32H507.333C507.333 31.6905 505.335 37.4275 501.415 41.5641C497.505 45.6903 491.592 48.32 483.565 48.32V50.32ZM509.333 25.32C509.333 18.6764 507.199 12.5313 502.86 8.04111C498.513 3.54253 492.045 0.799995 483.565 0.799995V2.8C491.597 2.8 497.513 5.38546 501.422 9.43088C505.339 13.4847 507.333 19.0996 507.333 25.32H509.333ZM483.565 0.799995H454.573V2.8H483.565V0.799995ZM468.821 37.512V13.608H466.821V37.512H468.821ZM467.821 14.608H482.797V12.608H467.821V14.608ZM482.797 14.608C486.782 14.608 489.516 15.9345 491.265 17.9074C493.032 19.9005 493.893 22.6665 493.893 25.704H495.893C495.893 22.3095 494.93 19.0275 492.761 16.5806C490.574 14.1135 487.26 12.608 482.797 12.608V14.608ZM493.893 25.704C493.893 28.6891 493.034 31.3784 491.274 33.3105C489.529 35.2259 486.793 36.512 482.797 36.512V38.512C487.249 38.512 490.561 37.0621 492.752 34.6575C494.928 32.2696 495.893 29.0549 495.893 25.704H493.893ZM482.797 36.512H467.821V38.512H482.797V36.512Z" fill="url(#paint0_linear_3273_4880)" fill-opacity="0.5"/>
<path d="M56.32 69V70H58.4684L57.0852 68.3562L56.32 69ZM36.448 45.384L36.1926 44.4172L34.6667 44.8202L35.6828 46.0278L36.448 45.384ZM0.448001 1.8V0.799995H-0.551999V1.8H0.448001ZM0.448001 69H-0.551999V70H0.448001V69ZM13.888 69V70H14.888V69H13.888ZM13.888 46.44V45.44H12.888V46.44H13.888ZM21.76 46.44L22.536 45.8093L22.2359 45.44H21.76V46.44ZM40.096 69L39.32 69.6307L39.6201 70H40.096V69ZM13.792 35.4H12.792V36.4H13.792V35.4ZM13.792 13.32V12.32H12.792V13.32H13.792ZM57.0852 68.3562L37.2132 44.7402L35.6828 46.0278L55.5548 69.6438L57.0852 68.3562ZM36.7034 46.3508C47.3146 43.5479 53.864 35.2817 53.864 23.976H51.864C51.864 34.3663 45.9334 41.8441 36.1926 44.4172L36.7034 46.3508ZM53.864 23.976C53.864 17.0929 51.3136 11.2751 46.8692 7.18423C42.432 3.09997 36.1771 0.799995 28.864 0.799995V2.8C35.7589 2.8 41.504 4.96402 45.5148 8.65576C49.5184 12.3409 51.864 17.6111 51.864 23.976H53.864ZM28.864 0.799995H0.448001V2.8H28.864V0.799995ZM-0.551999 1.8V69H1.448V1.8H-0.551999ZM0.448001 70H13.888V68H0.448001V70ZM14.888 69V46.44H12.888V69H14.888ZM13.888 47.44H21.76V45.44H13.888V47.44ZM20.984 47.0707L39.32 69.6307L40.872 68.3693L22.536 45.8093L20.984 47.0707ZM40.096 70H56.32V68H40.096V70ZM38.52 24.552C38.52 27.7426 37.5152 30.166 35.7557 31.799C33.9862 33.4414 31.3286 34.4 27.808 34.4V36.4C31.6795 36.4 34.8778 35.3426 37.1163 33.2649C39.3648 31.178 40.52 28.1774 40.52 24.552H38.52ZM27.808 34.4H13.792V36.4H27.808V34.4ZM14.792 35.4V13.32H12.792V35.4H14.792ZM13.792 14.32H27.712V12.32H13.792V14.32ZM27.712 14.32C31.2777 14.32 33.9543 15.3008 35.7343 16.9961C37.5077 18.685 38.52 21.2055 38.52 24.552H40.52C40.52 20.7945 39.3723 17.699 37.1137 15.5479C34.8618 13.4032 31.6343 12.32 27.712 12.32V14.32ZM97.447 71.536C108.469 71.536 117.688 67.9314 124.155 61.5265C130.622 55.1208 134.255 45.9957 134.255 35.112H132.255C132.255 45.5403 128.784 54.1272 122.747 60.1055C116.71 66.0846 108.025 69.536 97.447 69.536V71.536ZM134.255 35.112C134.255 24.4644 130.644 15.4861 124.301 9.16751C117.958 2.84934 108.956 -0.736002 98.311 -0.736002V1.264C108.498 1.264 116.968 4.68665 122.889 10.5845C128.81 16.4819 132.255 24.9275 132.255 35.112H134.255ZM98.311 -0.736002C87.2892 -0.736002 78.0703 2.86858 71.6033 9.27349C65.1355 15.6792 61.503 24.8043 61.503 35.688H63.503C63.503 25.2597 66.9745 16.6728 73.0107 10.6945C79.0477 4.71542 87.7328 1.264 98.311 1.264V-0.736002ZM61.503 35.688C61.503 46.3355 65.1139 55.3139 71.4573 61.6325C77.8003 67.9507 86.8017 71.536 97.447 71.536V69.536C87.2603 69.536 78.7897 66.1133 72.8687 60.2155C66.9481 54.3181 63.503 45.8724 63.503 35.688H61.503ZM97.735 57.632C91.5087 57.632 86.3596 55.3787 82.7614 51.4853C79.1568 47.585 77.039 41.962 77.039 35.112H75.039C75.039 42.3739 77.2892 48.511 81.2926 52.8427C85.3024 57.1813 91.0013 59.632 97.735 59.632V57.632ZM77.039 35.112C77.039 28.5634 79.1724 23.0863 82.8231 19.2537C86.4696 15.4255 91.6953 13.168 98.023 13.168V11.168C91.1987 11.168 85.4324 13.6145 81.3749 17.8743C77.3216 22.1297 75.039 28.1246 75.039 35.112H77.039ZM98.023 13.168C104.249 13.168 109.398 15.4213 112.997 19.3147C116.601 23.215 118.719 28.8379 118.719 35.688H120.719C120.719 28.426 118.469 22.289 114.465 17.9573C110.456 13.6187 104.757 11.168 98.023 11.168V13.168ZM118.719 35.688C118.719 42.2831 116.563 47.7593 112.901 51.5801C109.243 55.3974 104.016 57.632 97.735 57.632V59.632C104.51 59.632 110.275 57.2106 114.345 52.9639C118.411 48.7207 120.719 42.7249 120.719 35.688H118.719ZM208.603 69V70H210.132L209.519 68.5995L208.603 69ZM179.227 1.8L180.143 1.39945L179.881 0.799995H179.227V1.8ZM164.923 1.8V0.799995H164.269L164.007 1.39945L164.923 1.8ZM135.547 69L134.631 68.5995L134.018 70H135.547V69ZM149.659 69V70H150.317L150.577 69.3955L149.659 69ZM155.323 55.848V54.848H154.665L154.405 55.4525L155.323 55.848ZM188.443 55.848L189.361 55.4525L189.101 54.848H188.443V55.848ZM194.107 69L193.189 69.3955L193.449 70H194.107V69ZM167.611 25.224L168.54 25.593L168.543 25.5872L167.611 25.224ZM171.835 14.376V13.376H171.127L170.892 14.0432L171.835 14.376ZM172.123 14.376L173.077 14.0777L172.858 13.376H172.123V14.376ZM176.155 25.032L177.086 24.6662L177.083 24.6606L176.155 25.032ZM183.739 44.328V45.328H185.206L184.67 43.9622L183.739 44.328ZM160.027 44.328L159.098 43.959L158.554 45.328H160.027V44.328ZM209.519 68.5995L180.143 1.39945L178.311 2.20054L207.687 69.4005L209.519 68.5995ZM179.227 0.799995H164.923V2.8H179.227V0.799995ZM164.007 1.39945L134.631 68.5995L136.463 69.4005L165.839 2.20054L164.007 1.39945ZM135.547 70H149.659V68H135.547V70ZM150.577 69.3955L156.241 56.2435L154.405 55.4525L148.741 68.6045L150.577 69.3955ZM155.323 56.848H188.443V54.848H155.323V56.848ZM187.525 56.2435L193.189 69.3955L195.025 68.6045L189.361 55.4525L187.525 56.2435ZM194.107 70H208.603V68H194.107V70ZM168.543 25.5872C170.74 19.9512 172.195 16.3608 172.778 14.7088L170.892 14.0432C170.323 15.6552 168.898 19.1688 166.679 24.8608L168.543 25.5872ZM171.835 15.376H172.123V13.376H171.835V15.376ZM171.169 14.6743C171.662 16.253 172.924 19.6479 175.227 25.4034L177.083 24.6606C174.778 18.8961 173.544 15.571 173.077 14.0777L171.169 14.6743ZM175.224 25.3978L182.808 44.6938L184.67 43.9622L177.086 24.6662L175.224 25.3978ZM183.739 43.328H160.027V45.328H183.739V43.328ZM160.956 44.697L168.54 25.593L166.682 24.855L159.098 43.959L160.956 44.697ZM217.76 1.8V0.799995H216.76V1.8H217.76ZM217.76 69H216.76V70H217.76V69ZM231.008 57.096H230.008V58.096H231.008V57.096ZM231.008 13.704V12.704H230.008V13.704H231.008ZM216.76 1.8V69H218.76V1.8H216.76ZM217.76 70H244.064V68H217.76V70ZM244.064 70C254.607 70 263.419 66.5386 269.597 60.3972C275.777 54.2554 279.241 45.5148 279.241 35.112H277.241C277.241 45.0612 273.936 53.2646 268.188 58.9788C262.438 64.6934 254.162 68 244.064 68V70ZM279.241 35.112C279.241 24.8487 275.774 16.2505 269.616 10.2177C263.461 4.18681 254.7 0.799995 244.257 0.799995V2.8C254.261 2.8 262.492 6.03719 268.217 11.6463C273.939 17.2535 277.241 25.3113 277.241 35.112H279.241ZM244.257 0.799995H217.76V2.8H244.257V0.799995ZM232.008 57.096V13.704H230.008V57.096H232.008ZM231.008 14.704H244.064V12.704H231.008V14.704ZM244.064 14.704C250.164 14.704 255.07 16.7771 258.456 20.3771C261.848 23.9836 263.801 29.2164 263.801 35.688H265.801C265.801 28.8156 263.721 23.0564 259.913 19.0069C256.099 14.9509 250.637 12.704 244.064 12.704V14.704ZM263.801 35.688C263.801 41.9598 261.852 47.0481 258.497 50.5614C255.147 54.0701 250.309 56.096 244.353 56.096V58.096C250.78 58.096 256.166 55.8979 259.944 51.9426C263.717 47.9919 265.801 42.3762 265.801 35.688H263.801ZM244.353 56.096H231.008V58.096H244.353V56.096ZM327.176 36.456L326.35 37.0207L327.181 38.2343L328.004 37.016L327.176 36.456ZM303.464 1.8L304.289 1.23531L303.991 0.799995H303.464V1.8ZM290.792 1.8V0.799995H289.792V1.8H290.792ZM290.792 69H289.792V70H290.792V69ZM303.944 69V70H304.944V69H303.944ZM303.464 23.592L303.148 22.6433L302.381 22.899L302.47 23.7024L303.464 23.592ZM303.752 23.496L304.613 22.9873L304.202 22.2919L303.436 22.5473L303.752 23.496ZM309.704 32.424L310.53 31.8604L310.525 31.8538L310.521 31.8473L309.704 32.424ZM325.16 55.08L324.334 55.6436L324.631 56.08H325.16V55.08ZM328.808 55.08V56.08H329.334L329.632 55.6459L328.808 55.08ZM344.36 32.424L343.538 31.8548L343.535 31.8581L344.36 32.424ZM350.216 23.208L350.77 22.3759L349.861 21.7698L349.338 22.7291L350.216 23.208ZM350.504 23.4L351.501 23.4739L351.544 22.8917L351.058 22.5679L350.504 23.4ZM350.12 69H349.12V70H350.12V69ZM363.272 69V70H364.272V69H363.272ZM363.272 1.8H364.272V0.799995H363.272V1.8ZM350.6 1.8V0.799995H350.069L349.771 1.24001L350.6 1.8ZM328.001 35.8913L304.289 1.23531L302.638 2.36468L326.35 37.0207L328.001 35.8913ZM303.464 0.799995H290.792V2.8H303.464V0.799995ZM289.792 1.8V69H291.792V1.8H289.792ZM290.792 70H303.944V68H290.792V70ZM304.944 69V33.288H302.944V69H304.944ZM304.944 33.288C304.944 29.8021 304.75 26.1166 304.458 23.4816L302.47 23.7024C302.753 26.2514 302.944 29.8619 302.944 33.288H304.944ZM303.78 24.5407L304.068 24.4447L303.436 22.5473L303.148 22.6433L303.78 24.5407ZM302.891 24.0047C304.161 26.1544 306.582 29.7349 308.887 33.0007L310.521 31.8473C308.218 28.5851 305.838 25.0616 304.613 22.9873L302.891 24.0047ZM308.878 32.9876L324.334 55.6436L325.986 54.5164L310.53 31.8604L308.878 32.9876ZM325.16 56.08H328.808V54.08H325.16V56.08ZM329.632 55.6459L345.184 32.9899L343.535 31.8581L327.983 54.5141L329.632 55.6459ZM345.182 32.9932C347.784 29.2352 349.918 25.8427 351.094 23.6868L349.338 22.7291C348.21 24.7973 346.12 28.1248 343.538 31.8548L345.182 32.9932ZM349.661 24.0401L349.949 24.232L351.058 22.5679L350.77 22.3759L349.661 24.0401ZM349.507 23.3261C349.313 25.9333 349.12 29.5115 349.12 33.096H351.12C351.12 29.5765 351.31 26.0507 351.501 23.4739L349.507 23.3261ZM349.12 33.096V69H351.12V33.096H349.12ZM350.12 70H363.272V68H350.12V70ZM364.272 69V1.8H362.272V69H364.272ZM363.272 0.799995H350.6V2.8H363.272V0.799995ZM349.771 1.24001L326.347 35.896L328.004 37.016L351.428 2.35998L349.771 1.24001ZM445.415 69V70H446.944L446.332 68.5995L445.415 69ZM416.039 1.8L416.956 1.39945L416.694 0.799995H416.039V1.8ZM401.736 1.8V0.799995H401.081L400.819 1.39945L401.736 1.8ZM372.359 69L371.443 68.5995L370.831 70H372.359V69ZM386.471 69V70H387.13L387.39 69.3955L386.471 69ZM392.135 55.848V54.848H391.477L391.217 55.4525L392.135 55.848ZM425.255 55.848L426.174 55.4525L425.914 54.848H425.255V55.848ZM430.919 69L430.001 69.3955L430.261 70H430.919V69ZM404.423 25.224L405.353 25.593L405.355 25.5872L404.423 25.224ZM408.647 14.376V13.376H407.94L407.704 14.0432L408.647 14.376ZM408.935 14.376L409.89 14.0777L409.671 13.376H408.935V14.376ZM412.967 25.032L413.898 24.6662L413.896 24.6606L412.967 25.032ZM420.552 44.328V45.328H422.019L421.482 43.9622L420.552 44.328ZM396.84 44.328L395.91 43.959L395.367 45.328H396.84V44.328ZM446.332 68.5995L416.956 1.39945L415.123 2.20054L444.499 69.4005L446.332 68.5995ZM416.039 0.799995H401.736V2.8H416.039V0.799995ZM400.819 1.39945L371.443 68.5995L373.276 69.4005L402.652 2.20054L400.819 1.39945ZM372.359 70H386.471V68H372.359V70ZM387.39 69.3955L393.054 56.2435L391.217 55.4525L385.553 68.6045L387.39 69.3955ZM392.135 56.848H425.255V54.848H392.135V56.848ZM424.337 56.2435L430.001 69.3955L431.838 68.6045L426.174 55.4525L424.337 56.2435ZM430.919 70H445.415V68H430.919V70ZM405.355 25.5872C407.552 19.9512 409.007 16.3608 409.59 14.7088L407.704 14.0432C407.136 15.6552 405.711 19.1688 403.492 24.8608L405.355 25.5872ZM408.647 15.376H408.935V13.376H408.647V15.376ZM407.981 14.6743C408.474 16.253 409.737 19.6479 412.039 25.4034L413.896 24.6606C411.59 18.8961 410.357 15.571 409.89 14.0777L407.981 14.6743ZM412.037 25.3978L419.621 44.6938L421.482 43.9622L413.898 24.6662L412.037 25.3978ZM420.552 43.328H396.84V45.328H420.552V43.328ZM397.769 44.697L405.353 25.593L403.494 24.855L395.91 43.959L397.769 44.697ZM454.573 1.8V0.799995H453.573V1.8H454.573ZM454.573 69H453.573V70H454.573V69ZM467.821 69V70H468.821V69H467.821ZM467.821 49.32V48.32H466.821V49.32H467.821ZM467.821 37.512H466.821V38.512H467.821V37.512ZM467.821 13.608V12.608H466.821V13.608H467.821ZM453.573 1.8V69H455.573V1.8H453.573ZM454.573 70H467.821V68H454.573V70ZM468.821 69V49.32H466.821V69H468.821ZM467.821 50.32H483.565V48.32H467.821V50.32ZM483.565 50.32C492.05 50.32 498.521 47.5257 502.867 42.9399C507.203 38.3645 509.333 32.1015 509.333 25.32H507.333C507.333 31.6905 505.335 37.4275 501.415 41.5641C497.505 45.6903 491.592 48.32 483.565 48.32V50.32ZM509.333 25.32C509.333 18.6764 507.199 12.5313 502.86 8.04111C498.513 3.54253 492.045 0.799995 483.565 0.799995V2.8C491.597 2.8 497.513 5.38546 501.422 9.43088C505.339 13.4847 507.333 19.0996 507.333 25.32H509.333ZM483.565 0.799995H454.573V2.8H483.565V0.799995ZM468.821 37.512V13.608H466.821V37.512H468.821ZM467.821 14.608H482.797V12.608H467.821V14.608ZM482.797 14.608C486.782 14.608 489.516 15.9345 491.265 17.9074C493.032 19.9005 493.893 22.6665 493.893 25.704H495.893C495.893 22.3095 494.93 19.0275 492.761 16.5806C490.574 14.1135 487.26 12.608 482.797 12.608V14.608ZM493.893 25.704C493.893 28.6891 493.034 31.3784 491.274 33.3105C489.529 35.2259 486.793 36.512 482.797 36.512V38.512C487.249 38.512 490.561 37.0621 492.752 34.6575C494.928 32.2696 495.893 29.0549 495.893 25.704H493.893ZM482.797 36.512H467.821V38.512H482.797V36.512Z" fill="url(#paint1_linear_3273_4880)"/>
<defs>
<linearGradient id="paint0_linear_3273_4880" x1="302.5" y1="68.75" x2="302.5" y2="-13" gradientUnits="userSpaceOnUse">
<stop stop-color="#8247E5"/>
<stop offset="1" stop-color="#8247E5" stop-opacity="0"/>
</linearGradient>
<linearGradient id="paint1_linear_3273_4880" x1="302.5" y1="-13" x2="302.5" y2="83" gradientUnits="userSpaceOnUse">
<stop stop-color="white"/>
<stop offset="1" stop-color="white" stop-opacity="0"/>
</linearGradient>
</defs>
</svg>
