<svg width="21" height="16" viewBox="0 0 21 16" fill="none" xmlns="http://www.w3.org/2000/svg">
<path d="M17.6808 1.64704C16.4061 1.06214 15.0392 0.631208 13.6099 0.384397C13.5839 0.379634 13.5579 0.391538 13.5445 0.415346C13.3687 0.728025 13.1739 1.13594 13.0376 1.45656C11.5003 1.22642 9.97099 1.22642 8.46527 1.45656C8.32887 1.12881 8.12707 0.728025 7.95048 0.415346C7.93707 0.392332 7.91107 0.380428 7.88504 0.384397C6.45659 0.63042 5.08963 1.06135 3.81411 1.64704C3.80307 1.6518 3.79361 1.65974 3.78732 1.67005C1.19449 5.54369 0.484208 9.32211 0.83265 13.0537C0.834227 13.0719 0.844475 13.0894 0.858665 13.1005C2.56934 14.3568 4.22642 15.1195 5.85273 15.625C5.87876 15.6329 5.90634 15.6234 5.9229 15.602C6.30761 15.0766 6.65054 14.5227 6.94456 13.9401C6.96192 13.906 6.94535 13.8656 6.90989 13.8521C6.36594 13.6457 5.848 13.3941 5.34977 13.1085C5.31037 13.0854 5.30721 13.0291 5.34347 13.0021C5.44831 12.9235 5.55318 12.8418 5.6533 12.7592C5.67141 12.7442 5.69665 12.741 5.71794 12.7505C8.99107 14.2449 12.5346 14.2449 15.7691 12.7505C15.7904 12.7402 15.8157 12.7434 15.8346 12.7585C15.9347 12.841 16.0395 12.9235 16.1452 13.0021C16.1814 13.0291 16.1791 13.0854 16.1397 13.1085C15.6414 13.3997 15.1235 13.6457 14.5788 13.8513C14.5433 13.8648 14.5275 13.906 14.5449 13.9401C14.8452 14.5219 15.1881 15.0758 15.5657 15.6012C15.5815 15.6234 15.6099 15.6329 15.6359 15.625C17.2701 15.1195 18.9272 14.3568 20.6379 13.1005C20.6528 13.0894 20.6623 13.0727 20.6639 13.0545C21.0809 8.74037 19.9654 4.99293 17.7068 1.67084C17.7013 1.65974 17.6919 1.6518 17.6808 1.64704ZM7.43335 10.7815C6.44792 10.7815 5.63594 9.87684 5.63594 8.76577C5.63594 7.6547 6.43217 6.75 7.43335 6.75C8.44239 6.75 9.24651 7.66265 9.23073 8.76577C9.23073 9.87684 8.43451 10.7815 7.43335 10.7815ZM14.079 10.7815C13.0935 10.7815 12.2816 9.87684 12.2816 8.76577C12.2816 7.6547 13.0778 6.75 14.079 6.75C15.088 6.75 15.8921 7.66265 15.8764 8.76577C15.8764 9.87684 15.088 10.7815 14.079 10.7815Z" fill="white"/>
</svg>
