<svg width="230" height="60" viewBox="0 0 230 60" fill="none" xmlns="http://www.w3.org/2000/svg">
<g filter="url(#filter0_b_3227_4427)">
<path d="M0 6C0 2.68629 2.68629 0 6 0H223.5C226.814 0 229.5 2.68629 229.5 6V54C229.5 57.3137 226.814 60 223.5 60H6C2.68629 60 0 57.3137 0 54V6Z" fill="url(#paint0_linear_3227_4427)"/>
<g clip-path="url(#clip0_3227_4427)">
<path d="M43.6808 23.647C42.4061 23.0621 41.0392 22.6312 39.6099 22.3844C39.5839 22.3796 39.5579 22.3915 39.5445 22.4153C39.3687 22.728 39.1739 23.1359 39.0376 23.4566C37.5003 23.2264 35.971 23.2264 34.4653 23.4566C34.3289 23.1288 34.1271 22.728 33.9505 22.4153C33.9371 22.3923 33.9111 22.3804 33.885 22.3844C32.4566 22.6304 31.0896 23.0613 29.8141 23.647C29.8031 23.6518 29.7936 23.6597 29.7873 23.6701C27.1945 27.5437 26.4842 31.3221 26.8327 35.0537C26.8342 35.0719 26.8445 35.0894 26.8587 35.1005C28.5693 36.3568 30.2264 37.1195 31.8527 37.625C31.8788 37.6329 31.9063 37.6234 31.9229 37.602C32.3076 37.0766 32.6505 36.5227 32.9446 35.9401C32.9619 35.906 32.9454 35.8656 32.9099 35.8521C32.3659 35.6457 31.848 35.3941 31.3498 35.1085C31.3104 35.0854 31.3072 35.0291 31.3435 35.0021C31.4483 34.9235 31.5532 34.8418 31.6533 34.7592C31.6714 34.7442 31.6966 34.741 31.7179 34.7505C34.9911 36.2449 38.5346 36.2449 41.7691 34.7505C41.7904 34.7402 41.8157 34.7434 41.8346 34.7585C41.9347 34.841 42.0395 34.9235 42.1452 35.0021C42.1814 35.0291 42.1791 35.0854 42.1397 35.1085C41.6414 35.3997 41.1235 35.6457 40.5788 35.8513C40.5433 35.8648 40.5275 35.906 40.5449 35.9401C40.8452 36.5219 41.1881 37.0758 41.5657 37.6012C41.5815 37.6234 41.6099 37.6329 41.6359 37.625C43.2701 37.1195 44.9272 36.3568 46.6379 35.1005C46.6528 35.0894 46.6623 35.0727 46.6639 35.0545C47.0809 30.7404 45.9654 26.9929 43.7068 23.6708C43.7013 23.6597 43.6919 23.6518 43.6808 23.647ZM33.4334 32.7815C32.4479 32.7815 31.6359 31.8768 31.6359 30.7658C31.6359 29.6547 32.4322 28.75 33.4334 28.75C34.4424 28.75 35.2465 29.6626 35.2307 30.7658C35.2307 31.8768 34.4345 32.7815 33.4334 32.7815ZM40.079 32.7815C39.0935 32.7815 38.2816 31.8768 38.2816 30.7658C38.2816 29.6547 39.0778 28.75 40.079 28.75C41.088 28.75 41.8921 29.6626 41.8764 30.7658C41.8764 31.8768 41.088 32.7815 40.079 32.7815Z" fill="white"/>
</g>
<path d="M66.0795 22.4545H67.8409V32.8523C67.8409 33.7803 67.6705 34.5687 67.3295 35.2173C66.9886 35.866 66.508 36.3584 65.8878 36.6946C65.2675 37.0308 64.536 37.1989 63.6932 37.1989C62.8977 37.1989 62.1899 37.0545 61.5696 36.7656C60.9493 36.4721 60.4616 36.0554 60.1065 35.5156C59.7514 34.9759 59.5739 34.3343 59.5739 33.5909H61.3068C61.3068 34.0028 61.4086 34.3627 61.6122 34.6705C61.8205 34.9735 62.1046 35.2102 62.4645 35.3807C62.8243 35.5511 63.2339 35.6364 63.6932 35.6364C64.1998 35.6364 64.6307 35.5298 64.9858 35.3168C65.3409 35.1037 65.6108 34.7912 65.7955 34.3793C65.9848 33.9626 66.0795 33.4536 66.0795 32.8523V22.4545ZM83.6435 29.7273C83.6435 31.2614 83.3665 32.5871 82.8125 33.7045C82.2585 34.822 81.4986 35.6837 80.5327 36.2898C79.5668 36.8958 78.4635 37.1989 77.223 37.1989C75.9825 37.1989 74.8793 36.8958 73.9134 36.2898C72.9474 35.6837 72.1875 34.822 71.6335 33.7045C71.0795 32.5871 70.8026 31.2614 70.8026 29.7273C70.8026 28.1932 71.0795 26.8674 71.6335 25.75C72.1875 24.6326 72.9474 23.7708 73.9134 23.1648C74.8793 22.5587 75.9825 22.2557 77.223 22.2557C78.4635 22.2557 79.5668 22.5587 80.5327 23.1648C81.4986 23.7708 82.2585 24.6326 82.8125 25.75C83.3665 26.8674 83.6435 28.1932 83.6435 29.7273ZM81.9389 29.7273C81.9389 28.4678 81.7282 27.4048 81.3068 26.5384C80.8902 25.6719 80.3243 25.0161 79.6094 24.571C78.8991 24.1259 78.1037 23.9034 77.223 23.9034C76.3423 23.9034 75.5445 24.1259 74.8295 24.571C74.1193 25.0161 73.5535 25.6719 73.1321 26.5384C72.7154 27.4048 72.5071 28.4678 72.5071 29.7273C72.5071 30.9867 72.7154 32.0497 73.1321 32.9162C73.5535 33.7827 74.1193 34.4384 74.8295 34.8835C75.5445 35.3286 76.3423 35.5511 77.223 35.5511C78.1037 35.5511 78.8991 35.3286 79.6094 34.8835C80.3243 34.4384 80.8902 33.7827 81.3068 32.9162C81.7282 32.0497 81.9389 30.9867 81.9389 29.7273ZM88.3665 22.4545V37H86.6051V22.4545H88.3665ZM103.432 22.4545V37H101.728L93.8015 25.5795H93.6594V37H91.8981V22.4545H93.6026L101.557 33.9034H101.699V22.4545H103.432ZM117.07 37H112.582V22.4545H117.269C118.68 22.4545 119.888 22.7457 120.891 23.3281C121.895 23.9058 122.665 24.7367 123.2 25.821C123.735 26.9006 124.002 28.1932 124.002 29.6989C124.002 31.214 123.732 32.5185 123.192 33.6122C122.653 34.7012 121.867 35.5393 120.835 36.1264C119.802 36.7088 118.548 37 117.07 37ZM114.343 35.4375H116.957C118.159 35.4375 119.156 35.2055 119.947 34.7415C120.737 34.2775 121.327 33.617 121.715 32.7599C122.103 31.9029 122.298 30.8826 122.298 29.6989C122.298 28.5246 122.106 27.5137 121.722 26.6662C121.339 25.8139 120.766 25.1605 120.004 24.706C119.241 24.2467 118.292 24.017 117.156 24.017H114.343V35.4375ZM128.718 22.4545V37H126.957V22.4545H128.718ZM140.204 26.0909C140.119 25.3712 139.773 24.8125 139.167 24.4148C138.561 24.017 137.818 23.8182 136.937 23.8182C136.293 23.8182 135.73 23.9223 135.247 24.1307C134.769 24.339 134.395 24.6255 134.125 24.9901C133.859 25.3546 133.727 25.7689 133.727 26.233C133.727 26.6212 133.819 26.955 134.004 27.2344C134.193 27.509 134.435 27.7386 134.728 27.9233C135.022 28.1032 135.33 28.2524 135.652 28.3707C135.974 28.4844 136.27 28.5767 136.539 28.6477L138.017 29.0455C138.395 29.1449 138.817 29.2822 139.281 29.4574C139.75 29.6326 140.197 29.8717 140.623 30.1747C141.054 30.473 141.409 30.8565 141.689 31.3253C141.968 31.794 142.108 32.3693 142.108 33.0511C142.108 33.8371 141.902 34.5473 141.49 35.1818C141.083 35.8163 140.486 36.3205 139.7 36.6946C138.919 37.0687 137.969 37.2557 136.852 37.2557C135.81 37.2557 134.908 37.0876 134.146 36.7514C133.388 36.4152 132.792 35.9465 132.356 35.3452C131.925 34.7438 131.681 34.0455 131.625 33.25H133.443C133.49 33.7992 133.675 34.2538 133.997 34.6136C134.324 34.9687 134.735 35.2339 135.233 35.4091C135.734 35.5795 136.274 35.6648 136.852 35.6648C137.524 35.6648 138.128 35.5559 138.663 35.3381C139.198 35.1155 139.622 34.8078 139.934 34.4148C140.247 34.017 140.403 33.553 140.403 33.0227C140.403 32.5398 140.268 32.1468 139.998 31.8438C139.728 31.5407 139.373 31.2945 138.933 31.1051C138.493 30.9157 138.017 30.75 137.505 30.608L135.716 30.0966C134.579 29.7699 133.68 29.3035 133.017 28.6974C132.354 28.0914 132.022 27.2983 132.022 26.3182C132.022 25.5038 132.243 24.7936 132.683 24.1875C133.128 23.5767 133.725 23.1032 134.473 22.767C135.225 22.4261 136.066 22.2557 136.994 22.2557C137.931 22.2557 138.765 22.4238 139.494 22.7599C140.223 23.0914 140.801 23.5459 141.227 24.1236C141.658 24.7012 141.885 25.357 141.909 26.0909H140.204ZM156.708 27H154.947C154.843 26.4934 154.66 26.0483 154.4 25.6648C154.144 25.2812 153.832 24.9593 153.462 24.6989C153.098 24.4337 152.693 24.2348 152.248 24.1023C151.803 23.9697 151.339 23.9034 150.856 23.9034C149.975 23.9034 149.177 24.1259 148.462 24.571C147.752 25.0161 147.186 25.6719 146.765 26.5384C146.348 27.4048 146.14 28.4678 146.14 29.7273C146.14 30.9867 146.348 32.0497 146.765 32.9162C147.186 33.7827 147.752 34.4384 148.462 34.8835C149.177 35.3286 149.975 35.5511 150.856 35.5511C151.339 35.5511 151.803 35.4848 152.248 35.3523C152.693 35.2197 153.098 35.0232 153.462 34.7628C153.832 34.4976 154.144 34.1733 154.4 33.7898C154.66 33.4015 154.843 32.9564 154.947 32.4545H156.708C156.576 33.1979 156.334 33.8632 155.984 34.4503C155.633 35.0374 155.198 35.5369 154.677 35.9489C154.156 36.3561 153.571 36.6662 152.923 36.8793C152.279 37.0923 151.59 37.1989 150.856 37.1989C149.615 37.1989 148.512 36.8958 147.546 36.2898C146.58 35.6837 145.82 34.822 145.266 33.7045C144.712 32.5871 144.435 31.2614 144.435 29.7273C144.435 28.1932 144.712 26.8674 145.266 25.75C145.82 24.6326 146.58 23.7708 147.546 23.1648C148.512 22.5587 149.615 22.2557 150.856 22.2557C151.59 22.2557 152.279 22.3622 152.923 22.5753C153.571 22.7884 154.156 23.1009 154.677 23.5128C155.198 23.92 155.633 24.4171 155.984 25.0043C156.334 25.5866 156.576 26.2519 156.708 27ZM171.827 29.7273C171.827 31.2614 171.55 32.5871 170.996 33.7045C170.442 34.822 169.682 35.6837 168.716 36.2898C167.75 36.8958 166.647 37.1989 165.407 37.1989C164.166 37.1989 163.063 36.8958 162.097 36.2898C161.131 35.6837 160.371 34.822 159.817 33.7045C159.263 32.5871 158.986 31.2614 158.986 29.7273C158.986 28.1932 159.263 26.8674 159.817 25.75C160.371 24.6326 161.131 23.7708 162.097 23.1648C163.063 22.5587 164.166 22.2557 165.407 22.2557C166.647 22.2557 167.75 22.5587 168.716 23.1648C169.682 23.7708 170.442 24.6326 170.996 25.75C171.55 26.8674 171.827 28.1932 171.827 29.7273ZM170.123 29.7273C170.123 28.4678 169.912 27.4048 169.49 26.5384C169.074 25.6719 168.508 25.0161 167.793 24.571C167.083 24.1259 166.287 23.9034 165.407 23.9034C164.526 23.9034 163.728 24.1259 163.013 24.571C162.303 25.0161 161.737 25.6719 161.316 26.5384C160.899 27.4048 160.691 28.4678 160.691 29.7273C160.691 30.9867 160.899 32.0497 161.316 32.9162C161.737 33.7827 162.303 34.4384 163.013 34.8835C163.728 35.3286 164.526 35.5511 165.407 35.5511C166.287 35.5511 167.083 35.3286 167.793 34.8835C168.508 34.4384 169.074 33.7827 169.49 32.9162C169.912 32.0497 170.123 30.9867 170.123 29.7273ZM174.789 37V22.4545H179.703C180.84 22.4545 181.773 22.6487 182.502 23.0369C183.231 23.4205 183.771 23.9484 184.121 24.6207C184.471 25.2931 184.647 26.0578 184.647 26.9148C184.647 27.7718 184.471 28.5317 184.121 29.1946C183.771 29.8575 183.233 30.3783 182.509 30.7571C181.784 31.1312 180.859 31.3182 179.732 31.3182H175.755V29.7273H179.675C180.452 29.7273 181.077 29.6136 181.55 29.3864C182.028 29.1591 182.374 28.8371 182.587 28.4205C182.805 27.9991 182.914 27.4972 182.914 26.9148C182.914 26.3324 182.805 25.8234 182.587 25.3878C182.369 24.9522 182.021 24.616 181.543 24.3793C181.065 24.1378 180.433 24.017 179.647 24.017H176.55V37H174.789ZM181.635 30.4659L185.215 37H183.169L179.647 30.4659H181.635ZM192.07 37H187.582V22.4545H192.269C193.68 22.4545 194.888 22.7457 195.891 23.3281C196.895 23.9058 197.665 24.7367 198.2 25.821C198.735 26.9006 199.002 28.1932 199.002 29.6989C199.002 31.214 198.732 32.5185 198.192 33.6122C197.653 34.7012 196.867 35.5393 195.835 36.1264C194.802 36.7088 193.548 37 192.07 37ZM189.343 35.4375H191.957C193.159 35.4375 194.156 35.2055 194.947 34.7415C195.737 34.2775 196.327 33.617 196.715 32.7599C197.103 31.9029 197.298 30.8826 197.298 29.6989C197.298 28.5246 197.106 27.5137 196.722 26.6662C196.339 25.8139 195.766 25.1605 195.004 24.706C194.241 24.2467 193.292 24.017 192.156 24.017H189.343V35.4375Z" fill="white"/>
<path d="M6 0.5H223.5V-0.5H6V0.5ZM229 6V54H230V6H229ZM223.5 59.5H6V60.5H223.5V59.5ZM0.5 54V6H-0.5V54H0.5ZM6 59.5C2.96243 59.5 0.5 57.0376 0.5 54H-0.5C-0.5 57.5899 2.41015 60.5 6 60.5V59.5ZM229 54C229 57.0376 226.538 59.5 223.5 59.5V60.5C227.09 60.5 230 57.5898 230 54H229ZM223.5 0.5C226.538 0.5 229 2.96243 229 6H230C230 2.41015 227.09 -0.5 223.5 -0.5V0.5ZM6 -0.5C2.41015 -0.5 -0.5 2.41015 -0.5 6H0.5C0.5 2.96244 2.96243 0.5 6 0.5V-0.5Z" fill="url(#paint1_linear_3227_4427)"/>
<path d="M6 0.5H223.5V-0.5H6V0.5ZM229 6V54H230V6H229ZM223.5 59.5H6V60.5H223.5V59.5ZM0.5 54V6H-0.5V54H0.5ZM6 59.5C2.96243 59.5 0.5 57.0376 0.5 54H-0.5C-0.5 57.5899 2.41015 60.5 6 60.5V59.5ZM229 54C229 57.0376 226.538 59.5 223.5 59.5V60.5C227.09 60.5 230 57.5898 230 54H229ZM223.5 0.5C226.538 0.5 229 2.96243 229 6H230C230 2.41015 227.09 -0.5 223.5 -0.5V0.5ZM6 -0.5C2.41015 -0.5 -0.5 2.41015 -0.5 6H0.5C0.5 2.96244 2.96243 0.5 6 0.5V-0.5Z" fill="url(#paint2_linear_3227_4427)"/>
</g>
<defs>
<filter id="filter0_b_3227_4427" x="-10" y="-10" width="249.5" height="80" filterUnits="userSpaceOnUse" color-interpolation-filters="sRGB">
<feFlood flood-opacity="0" result="BackgroundImageFix"/>
<feGaussianBlur in="BackgroundImage" stdDeviation="5"/>
<feComposite in2="SourceAlpha" operator="in" result="effect1_backgroundBlur_3227_4427"/>
<feBlend mode="normal" in="SourceGraphic" in2="effect1_backgroundBlur_3227_4427" result="shape"/>
</filter>
<linearGradient id="paint0_linear_3227_4427" x1="0" y1="0" x2="228.719" y2="61.2725" gradientUnits="userSpaceOnUse">
<stop stop-color="white" stop-opacity="0.4"/>
<stop offset="1" stop-color="white" stop-opacity="0.1"/>
</linearGradient>
<linearGradient id="paint1_linear_3227_4427" x1="0" y1="0" x2="228.719" y2="61.2725" gradientUnits="userSpaceOnUse">
<stop stop-color="white" stop-opacity="0.4"/>
<stop offset="1" stop-color="white" stop-opacity="0.1"/>
</linearGradient>
<linearGradient id="paint2_linear_3227_4427" x1="0" y1="0" x2="228.719" y2="61.2725" gradientUnits="userSpaceOnUse">
<stop stop-color="white" stop-opacity="0.4"/>
<stop offset="1" stop-color="white" stop-opacity="0.1"/>
</linearGradient>
<clipPath id="clip0_3227_4427">
<rect width="20" height="20" fill="white" transform="translate(26.75 20)"/>
</clipPath>
</defs>
</svg>
