<svg width="230" height="60" viewBox="0 0 230 60" fill="none" xmlns="http://www.w3.org/2000/svg">
<g filter="url(#filter0_b_3689_5151)">
<path d="M0.5 6C0.5 2.68629 3.18629 0 6.5 0H224C227.314 0 230 2.68629 230 6V54C230 57.3137 227.314 60 224 60H6.5C3.18629 60 0.5 57.3137 0.5 54V6Z" fill="url(#paint0_linear_3689_5151)"/>
<g clip-path="url(#clip0_3689_5151)">
<path fill-rule="evenodd" clip-rule="evenodd" d="M38.25 30C38.25 35.5228 33.7728 40 28.25 40C22.7271 40 18.25 35.5228 18.25 30C18.25 24.4771 22.7271 20 28.25 20C33.7728 20 38.25 24.4771 38.25 30ZM22.6 30.053L25.0405 30.8482L26.3825 34.2198C26.3845 34.2253 26.3866 34.2306 26.3888 34.2357C26.4433 34.3594 26.5963 34.408 27.0106 33.9937C27.5329 33.4712 28.0394 33.0331 28.2933 32.8197C29.1322 33.3989 30.0354 34.0399 30.425 34.375C30.4902 34.4383 30.5676 34.4879 30.6524 34.5208C30.7373 34.5535 30.8278 34.5689 30.9187 34.566C31.2887 34.5521 31.3919 34.1457 31.3919 34.1457C31.3919 34.1457 33.1176 27.2017 33.1752 26.2713C33.1775 26.2361 33.18 26.2058 33.1822 26.1783C33.1858 26.1347 33.1888 26.0979 33.1893 26.0595C33.1923 25.9871 33.1852 25.9145 33.1682 25.8441C33.1595 25.8042 33.1403 25.7673 33.1128 25.7372C33.0852 25.7071 33.0501 25.6849 33.0111 25.6728C32.8534 25.6129 32.5861 25.703 32.5861 25.703C32.5861 25.703 23.118 29.1061 22.5772 29.483C22.4606 29.5639 22.4216 29.611 22.4022 29.6663C22.3083 29.9347 22.6 30.053 22.6 30.053ZM25.5616 30.5896L26.4414 33.1758L26.5922 31.5732L26.5968 31.5759C26.6073 31.5512 26.6249 31.5311 26.6249 31.5311C26.6249 31.5311 30.9937 27.6477 31.11 27.2401C31.119 27.2085 31.085 27.1929 31.0393 27.2067C30.7852 27.3002 26.8982 29.7465 25.5616 30.5896Z" fill="white"/>
</g>
<path d="M57.5795 22.4545H59.3409V32.8523C59.3409 33.7803 59.1705 34.5687 58.8295 35.2173C58.4886 35.866 58.008 36.3584 57.3878 36.6946C56.7675 37.0308 56.036 37.1989 55.1932 37.1989C54.3977 37.1989 53.6899 37.0545 53.0696 36.7656C52.4493 36.4721 51.9616 36.0554 51.6065 35.5156C51.2514 34.9759 51.0739 34.3343 51.0739 33.5909H52.8068C52.8068 34.0028 52.9086 34.3627 53.1122 34.6705C53.3205 34.9735 53.6046 35.2102 53.9645 35.3807C54.3243 35.5511 54.7339 35.6364 55.1932 35.6364C55.6998 35.6364 56.1307 35.5298 56.4858 35.3168C56.8409 35.1037 57.1108 34.7912 57.2955 34.3793C57.4848 33.9626 57.5795 33.4536 57.5795 32.8523V22.4545ZM75.1435 29.7273C75.1435 31.2614 74.8665 32.5871 74.3125 33.7045C73.7585 34.822 72.9986 35.6837 72.0327 36.2898C71.0668 36.8958 69.9635 37.1989 68.723 37.1989C67.4825 37.1989 66.3793 36.8958 65.4134 36.2898C64.4474 35.6837 63.6875 34.822 63.1335 33.7045C62.5795 32.5871 62.3026 31.2614 62.3026 29.7273C62.3026 28.1932 62.5795 26.8674 63.1335 25.75C63.6875 24.6326 64.4474 23.7708 65.4134 23.1648C66.3793 22.5587 67.4825 22.2557 68.723 22.2557C69.9635 22.2557 71.0668 22.5587 72.0327 23.1648C72.9986 23.7708 73.7585 24.6326 74.3125 25.75C74.8665 26.8674 75.1435 28.1932 75.1435 29.7273ZM73.4389 29.7273C73.4389 28.4678 73.2282 27.4048 72.8068 26.5384C72.3902 25.6719 71.8243 25.0161 71.1094 24.571C70.3991 24.1259 69.6037 23.9034 68.723 23.9034C67.8423 23.9034 67.0445 24.1259 66.3295 24.571C65.6193 25.0161 65.0535 25.6719 64.6321 26.5384C64.2154 27.4048 64.0071 28.4678 64.0071 29.7273C64.0071 30.9867 64.2154 32.0497 64.6321 32.9162C65.0535 33.7827 65.6193 34.4384 66.3295 34.8835C67.0445 35.3286 67.8423 35.5511 68.723 35.5511C69.6037 35.5511 70.3991 35.3286 71.1094 34.8835C71.8243 34.4384 72.3902 33.7827 72.8068 32.9162C73.2282 32.0497 73.4389 30.9867 73.4389 29.7273ZM79.8665 22.4545V37H78.1051V22.4545H79.8665ZM94.9322 22.4545V37H93.2276L85.3015 25.5795H85.1594V37H83.3981V22.4545H85.1026L93.0572 33.9034H93.1992V22.4545H94.9322ZM103.286 24.017V22.4545H114.195V24.017H109.621V37H107.86V24.017H103.286ZM116.914 37V22.4545H125.692V24.017H118.675V28.9318H125.238V30.4943H118.675V35.4375H125.806V37H116.914ZM128.867 37V22.4545H130.628V35.4375H137.39V37H128.867ZM140.117 37V22.4545H148.895V24.017H141.878V28.9318H148.441V30.4943H141.878V35.4375H149.009V37H140.117ZM162.013 27C161.857 26.5218 161.651 26.0933 161.395 25.7145C161.144 25.331 160.844 25.0043 160.493 24.7344C160.148 24.4645 159.755 24.2585 159.314 24.1165C158.874 23.9744 158.391 23.9034 157.865 23.9034C157.004 23.9034 156.22 24.1259 155.515 24.571C154.809 25.0161 154.248 25.6719 153.831 26.5384C153.415 27.4048 153.206 28.4678 153.206 29.7273C153.206 30.9867 153.417 32.0497 153.838 32.9162C154.26 33.7827 154.83 34.4384 155.55 34.8835C156.27 35.3286 157.079 35.5511 157.979 35.5511C158.812 35.5511 159.546 35.3736 160.181 35.0185C160.82 34.6586 161.317 34.152 161.672 33.4986C162.032 32.8404 162.212 32.0663 162.212 31.1761L162.752 31.2898H158.377V29.7273H163.917V31.2898C163.917 32.4877 163.661 33.5294 163.15 34.4148C162.643 35.3002 161.942 35.9867 161.047 36.4744C160.157 36.9574 159.134 37.1989 157.979 37.1989C156.691 37.1989 155.56 36.8958 154.584 36.2898C153.614 35.6837 152.856 34.822 152.311 33.7045C151.772 32.5871 151.502 31.2614 151.502 29.7273C151.502 28.5767 151.656 27.5421 151.963 26.6236C152.276 25.7003 152.716 24.9143 153.284 24.2656C153.853 23.617 154.525 23.1198 155.301 22.7741C156.078 22.4285 156.933 22.2557 157.865 22.2557C158.632 22.2557 159.347 22.3717 160.01 22.6037C160.678 22.831 161.272 23.1553 161.793 23.5767C162.319 23.9934 162.757 24.4929 163.107 25.0753C163.457 25.6529 163.699 26.2945 163.831 27H162.013ZM166.933 37V22.4545H171.848C172.984 22.4545 173.917 22.6487 174.646 23.0369C175.375 23.4205 175.915 23.9484 176.266 24.6207C176.616 25.2931 176.791 26.0578 176.791 26.9148C176.791 27.7718 176.616 28.5317 176.266 29.1946C175.915 29.8575 175.378 30.3783 174.653 30.7571C173.929 31.1312 173.003 31.3182 171.876 31.3182H167.899V29.7273H171.82C172.596 29.7273 173.221 29.6136 173.695 29.3864C174.173 29.1591 174.518 28.8371 174.732 28.4205C174.949 27.9991 175.058 27.4972 175.058 26.9148C175.058 26.3324 174.949 25.8234 174.732 25.3878C174.514 24.9522 174.166 24.616 173.688 24.3793C173.209 24.1378 172.577 24.017 171.791 24.017H168.695V37H166.933ZM173.78 30.4659L177.359 37H175.314L171.791 30.4659H173.78ZM180.323 37H178.476L183.817 22.4545H185.635L190.976 37H189.13L184.783 24.7557H184.669L180.323 37ZM181.005 31.3182H188.448V32.8807H181.005V31.3182ZM193.242 22.4545H195.344L200.287 34.5284H200.458L205.401 22.4545H207.503V37H205.855V25.9489H205.713L201.168 37H199.577L195.032 25.9489H194.89V37H193.242V22.4545Z" fill="white"/>
<path d="M6.5 0.5H224V-0.5H6.5V0.5ZM229.5 6V54H230.5V6H229.5ZM224 59.5H6.5V60.5H224V59.5ZM1 54V6H0V54H1ZM6.5 59.5C3.46243 59.5 1 57.0376 1 54H0C0 57.5899 2.91015 60.5 6.5 60.5V59.5ZM229.5 54C229.5 57.0376 227.038 59.5 224 59.5V60.5C227.59 60.5 230.5 57.5898 230.5 54H229.5ZM224 0.5C227.038 0.5 229.5 2.96243 229.5 6H230.5C230.5 2.41015 227.59 -0.5 224 -0.5V0.5ZM6.5 -0.5C2.91015 -0.5 0 2.41015 0 6H1C1 2.96244 3.46243 0.5 6.5 0.5V-0.5Z" fill="url(#paint1_linear_3689_5151)"/>
<path d="M6.5 0.5H224V-0.5H6.5V0.5ZM229.5 6V54H230.5V6H229.5ZM224 59.5H6.5V60.5H224V59.5ZM1 54V6H0V54H1ZM6.5 59.5C3.46243 59.5 1 57.0376 1 54H0C0 57.5899 2.91015 60.5 6.5 60.5V59.5ZM229.5 54C229.5 57.0376 227.038 59.5 224 59.5V60.5C227.59 60.5 230.5 57.5898 230.5 54H229.5ZM224 0.5C227.038 0.5 229.5 2.96243 229.5 6H230.5C230.5 2.41015 227.59 -0.5 224 -0.5V0.5ZM6.5 -0.5C2.91015 -0.5 0 2.41015 0 6H1C1 2.96244 3.46243 0.5 6.5 0.5V-0.5Z" fill="url(#paint2_linear_3689_5151)"/>
</g>
<defs>
<filter id="filter0_b_3689_5151" x="-9.5" y="-10" width="249.5" height="80" filterUnits="userSpaceOnUse" color-interpolation-filters="sRGB">
<feFlood flood-opacity="0" result="BackgroundImageFix"/>
<feGaussianBlur in="BackgroundImage" stdDeviation="5"/>
<feComposite in2="SourceAlpha" operator="in" result="effect1_backgroundBlur_3689_5151"/>
<feBlend mode="normal" in="SourceGraphic" in2="effect1_backgroundBlur_3689_5151" result="shape"/>
</filter>
<linearGradient id="paint0_linear_3689_5151" x1="0.5" y1="0" x2="229.219" y2="61.2725" gradientUnits="userSpaceOnUse">
<stop stop-color="white" stop-opacity="0.4"/>
<stop offset="1" stop-color="white" stop-opacity="0.1"/>
</linearGradient>
<linearGradient id="paint1_linear_3689_5151" x1="0.5" y1="0" x2="229.219" y2="61.2725" gradientUnits="userSpaceOnUse">
<stop stop-color="white" stop-opacity="0.4"/>
<stop offset="1" stop-color="white" stop-opacity="0.1"/>
</linearGradient>
<linearGradient id="paint2_linear_3689_5151" x1="0.5" y1="0" x2="229.219" y2="61.2725" gradientUnits="userSpaceOnUse">
<stop stop-color="white" stop-opacity="0.4"/>
<stop offset="1" stop-color="white" stop-opacity="0.1"/>
</linearGradient>
<clipPath id="clip0_3689_5151">
<rect width="20" height="20" fill="white" transform="translate(18.25 20)"/>
</clipPath>
</defs>
</svg>
