<svg width="327" height="90" viewBox="0 0 327 90" fill="none" xmlns="http://www.w3.org/2000/svg">
<path d="M2.27557 4.81818H9.10227L16.3125 22.4091H16.6193L23.8295 4.81818H30.6562V31H25.2869V13.9588H25.0696L18.294 30.8722H14.6378L7.86222 13.8949H7.64489V31H2.27557V4.81818ZM59.2766 17.9091C59.2766 20.7642 58.7354 23.1932 57.6531 25.196C56.5792 27.1989 55.1133 28.7287 53.2553 29.7855C51.4059 30.8338 49.3264 31.358 47.0167 31.358C44.69 31.358 42.6019 30.8295 40.7525 29.7727C38.9031 28.7159 37.4414 27.1861 36.3675 25.1832C35.2937 23.1804 34.7567 20.7557 34.7567 17.9091C34.7567 15.054 35.2937 12.625 36.3675 10.6222C37.4414 8.61932 38.9031 7.09375 40.7525 6.04545C42.6019 4.98864 44.69 4.46023 47.0167 4.46023C49.3264 4.46023 51.4059 4.98864 53.2553 6.04545C55.1133 7.09375 56.5792 8.61932 57.6531 10.6222C58.7354 12.625 59.2766 15.054 59.2766 17.9091ZM53.6644 17.9091C53.6644 16.0597 53.3874 14.5 52.8335 13.2301C52.288 11.9602 51.5167 10.9972 50.5195 10.3409C49.5224 9.68466 48.3548 9.35653 47.0167 9.35653C45.6786 9.35653 44.511 9.68466 43.5139 10.3409C42.5167 10.9972 41.7411 11.9602 41.1871 13.2301C40.6417 14.5 40.369 16.0597 40.369 17.9091C40.369 19.7585 40.6417 21.3182 41.1871 22.5881C41.7411 23.858 42.5167 24.821 43.5139 25.4773C44.511 26.1335 45.6786 26.4616 47.0167 26.4616C48.3548 26.4616 49.5224 26.1335 50.5195 25.4773C51.5167 24.821 52.288 23.858 52.8335 22.5881C53.3874 21.3182 53.6644 19.7585 53.6644 17.9091ZM66.6307 4.81818L72.9588 24.7102H73.2017L79.5426 4.81818H85.679L76.6534 31H69.5199L60.4815 4.81818H66.6307ZM88.8303 31V4.81818H106.472V9.3821H94.3658V15.6207H105.565V20.1847H94.3658V26.4361H106.523V31H88.8303ZM118.208 9.3821V4.81818H139.711V9.3821H131.695V31H126.224V9.3821H118.208ZM166.116 17.9091C166.116 20.7642 165.575 23.1932 164.493 25.196C163.419 27.1989 161.953 28.7287 160.095 29.7855C158.246 30.8338 156.166 31.358 153.857 31.358C151.53 31.358 149.442 30.8295 147.592 29.7727C145.743 28.7159 144.281 27.1861 143.207 25.1832C142.134 23.1804 141.597 20.7557 141.597 17.9091C141.597 15.054 142.134 12.625 143.207 10.6222C144.281 8.61932 145.743 7.09375 147.592 6.04545C149.442 4.98864 151.53 4.46023 153.857 4.46023C156.166 4.46023 158.246 4.98864 160.095 6.04545C161.953 7.09375 163.419 8.61932 164.493 10.6222C165.575 12.625 166.116 15.054 166.116 17.9091ZM160.504 17.9091C160.504 16.0597 160.227 14.5 159.673 13.2301C159.128 11.9602 158.357 10.9972 157.359 10.3409C156.362 9.68466 155.195 9.35653 153.857 9.35653C152.518 9.35653 151.351 9.68466 150.354 10.3409C149.357 10.9972 148.581 11.9602 148.027 13.2301C147.482 14.5 147.209 16.0597 147.209 17.9091C147.209 19.7585 147.482 21.3182 148.027 22.5881C148.581 23.858 149.357 24.821 150.354 25.4773C151.351 26.1335 152.518 26.4616 153.857 26.4616C155.195 26.4616 156.362 26.1335 157.359 25.4773C158.357 24.821 159.128 23.858 159.673 22.5881C160.227 21.3182 160.504 19.7585 160.504 17.9091Z" fill="white" fill-opacity="0.08"/>
<path d="M2.27557 4.81818V4.31818H1.77557V4.81818H2.27557ZM9.10227 4.81818L9.56492 4.62855L9.4377 4.31818H9.10227V4.81818ZM16.3125 22.4091L15.8499 22.5987L15.9771 22.9091H16.3125V22.4091ZM16.6193 22.4091V22.9091H16.9547L17.082 22.5987L16.6193 22.4091ZM23.8295 4.81818V4.31818H23.4941L23.3669 4.62855L23.8295 4.81818ZM30.6562 4.81818H31.1562V4.31818H30.6562V4.81818ZM30.6562 31V31.5H31.1562V31H30.6562ZM25.2869 31H24.7869V31.5H25.2869V31ZM25.2869 13.9588H25.7869V13.4588H25.2869V13.9588ZM25.0696 13.9588V13.4588H24.7313L24.6055 13.7729L25.0696 13.9588ZM18.294 30.8722V31.3722H18.6324L18.7582 31.0581L18.294 30.8722ZM14.6378 30.8722L14.1734 31.0575L14.299 31.3722H14.6378V30.8722ZM7.86222 13.8949L8.3266 13.7096L8.20102 13.3949H7.86222V13.8949ZM7.64489 13.8949V13.3949H7.14489V13.8949H7.64489ZM7.64489 31V31.5H8.14489V31H7.64489ZM2.27557 31H1.77557V31.5H2.27557V31ZM2.27557 5.31818H9.10227V4.31818H2.27557V5.31818ZM8.63963 5.00781L15.8499 22.5987L16.7751 22.2195L9.56492 4.62855L8.63963 5.00781ZM16.3125 22.9091H16.6193V21.9091H16.3125V22.9091ZM17.082 22.5987L24.2922 5.00781L23.3669 4.62855L16.1567 22.2195L17.082 22.5987ZM23.8295 5.31818H30.6562V4.31818H23.8295V5.31818ZM30.1562 4.81818V31H31.1562V4.81818H30.1562ZM30.6562 30.5H25.2869V31.5H30.6562V30.5ZM25.7869 31V13.9588H24.7869V31H25.7869ZM25.2869 13.4588H25.0696V14.4588H25.2869V13.4588ZM24.6055 13.7729L17.8299 30.6862L18.7582 31.0581L25.5337 14.1447L24.6055 13.7729ZM18.294 30.3722H14.6378V31.3722H18.294V30.3722ZM15.1022 30.6868L8.3266 13.7096L7.39783 14.0802L14.1734 31.0575L15.1022 30.6868ZM7.86222 13.3949H7.64489V14.3949H7.86222V13.3949ZM7.14489 13.8949V31H8.14489V13.8949H7.14489ZM7.64489 30.5H2.27557V31.5H7.64489V30.5ZM2.77557 31V4.81818H1.77557V31H2.77557ZM57.6531 25.196L57.2132 24.9583L57.2124 24.9598L57.6531 25.196ZM53.2553 29.7855L53.5019 30.2205L53.5025 30.2201L53.2553 29.7855ZM40.7525 29.7727L41.0006 29.3386L40.7525 29.7727ZM36.3675 25.1832L35.9269 25.4195L36.3675 25.1832ZM36.3675 10.6222L36.8082 10.8584L36.3675 10.6222ZM40.7525 6.04545L40.999 6.48044L41.0006 6.47958L40.7525 6.04545ZM53.2553 6.04545L53.0073 6.47958L53.0096 6.48092L53.2553 6.04545ZM57.6531 10.6222L57.2124 10.8584L57.2132 10.8599L57.6531 10.6222ZM52.8335 13.2301L52.374 13.4274L52.3752 13.43L52.8335 13.2301ZM50.5195 10.3409L50.2447 10.7586L50.5195 10.3409ZM43.5139 10.3409L43.7887 10.7586L43.5139 10.3409ZM41.1871 13.2301L40.7288 13.0302L40.7277 13.0328L41.1871 13.2301ZM41.1871 22.5881L40.7277 22.7854L40.7289 22.788L41.1871 22.5881ZM43.5139 25.4773L43.7887 25.0596L43.5139 25.4773ZM50.5195 25.4773L50.2447 25.0596L50.5195 25.4773ZM52.8335 22.5881L52.3752 22.3881L52.374 22.3907L52.8335 22.5881ZM58.7766 17.9091C58.7766 20.7019 58.2473 23.0448 57.2132 24.9583L58.0929 25.4337C59.2236 23.3416 59.7766 20.8265 59.7766 17.9091H58.7766ZM57.2124 24.9598C56.1801 26.8851 54.7789 28.3436 53.0081 29.3509L53.5025 30.2201C55.4476 29.1137 56.9783 27.5127 58.0937 25.4323L57.2124 24.9598ZM53.0088 29.3505C51.2409 30.3526 49.2476 30.858 47.0167 30.858V31.858C49.4051 31.858 51.5709 31.315 53.5019 30.2205L53.0088 29.3505ZM47.0167 30.858C44.7687 30.858 42.7676 30.3483 41.0006 29.3386L40.5044 30.2068C42.4363 31.3108 44.6112 31.858 47.0167 31.858V30.858ZM41.0006 29.3386C39.2381 28.3315 37.8408 26.8729 36.8082 24.947L35.9269 25.4195C37.042 27.4993 38.568 29.1003 40.5044 30.2068L41.0006 29.3386ZM36.8082 24.947C35.7819 23.0329 35.2567 20.6937 35.2567 17.9091H34.2567C34.2567 20.8177 34.8054 23.3279 35.9269 25.4195L36.8082 24.947ZM35.2567 17.9091C35.2567 15.1157 35.782 12.7723 36.8082 10.8584L35.9269 10.3859C34.8053 12.4777 34.2567 14.9923 34.2567 17.9091H35.2567ZM36.8082 10.8584C37.8406 8.93283 39.2375 7.47891 40.999 6.48044L40.5059 5.61047C38.5686 6.70859 37.0422 8.30581 35.9269 10.3859L36.8082 10.8584ZM41.0006 6.47958C42.7676 5.46985 44.7687 4.96023 47.0167 4.96023V3.96023C44.6112 3.96023 42.4363 4.50742 40.5044 5.61133L41.0006 6.47958ZM47.0167 4.96023C49.2469 4.96023 51.2397 5.46953 53.0073 6.47958L53.5034 5.61133C51.5721 4.50774 49.4058 3.96023 47.0167 3.96023V4.96023ZM53.0096 6.48092C54.7796 7.47956 56.1803 8.93342 57.2124 10.8584L58.0937 10.3859C56.9781 8.30521 55.447 6.70794 53.501 5.60999L53.0096 6.48092ZM57.2132 10.8599C58.2473 12.7734 58.7766 15.1163 58.7766 17.9091H59.7766C59.7766 14.9917 59.2236 12.4766 58.0929 10.3844L57.2132 10.8599ZM54.1644 17.9091C54.1644 16.0127 53.8808 14.3805 53.2917 13.0302L52.3752 13.43C52.8941 14.6195 53.1644 16.1066 53.1644 17.9091H54.1644ZM53.2929 13.0328C52.715 11.6875 51.8856 10.6414 50.7944 9.92324L50.2447 10.7586C51.1478 11.3529 51.861 12.2329 52.374 13.4274L53.2929 13.0328ZM50.7944 9.92324C49.706 9.20694 48.4402 8.85653 47.0167 8.85653V9.85653C48.2693 9.85653 49.3388 10.1624 50.2447 10.7586L50.7944 9.92324ZM47.0167 8.85653C45.5931 8.85653 44.3274 9.20694 43.239 9.92324L43.7887 10.7586C44.6946 10.1624 45.7641 9.85653 47.0167 9.85653V8.85653ZM43.239 9.92324C42.1485 10.6409 41.3152 11.6861 40.7289 13.0302L41.6454 13.43C42.167 12.2344 42.8849 11.3534 43.7887 10.7586L43.239 9.92324ZM40.7277 13.0328C40.1481 14.3823 39.869 16.0135 39.869 17.9091H40.869C40.869 16.1058 41.1353 14.6177 41.6466 13.4274L40.7277 13.0328ZM39.869 17.9091C39.869 19.8047 40.1481 21.4359 40.7277 22.7854L41.6466 22.3907C41.1353 21.2004 40.869 19.7124 40.869 17.9091H39.869ZM40.7289 22.788C41.3152 24.1321 42.1485 25.1773 43.239 25.8949L43.7887 25.0596C42.8849 24.4648 42.167 23.5838 41.6454 22.3881L40.7289 22.788ZM43.239 25.8949C44.3274 26.6112 45.5931 26.9616 47.0167 26.9616V25.9616C45.7641 25.9616 44.6946 25.6558 43.7887 25.0596L43.239 25.8949ZM47.0167 26.9616C48.4402 26.9616 49.706 26.6112 50.7944 25.8949L50.2447 25.0596C49.3388 25.6558 48.2693 25.9616 47.0167 25.9616V26.9616ZM50.7944 25.8949C51.8856 25.1768 52.715 24.1307 53.2929 22.7854L52.374 22.3907C51.861 23.5852 51.1478 24.4652 50.2447 25.0596L50.7944 25.8949ZM53.2917 22.788C53.8808 21.4377 54.1644 19.8055 54.1644 17.9091H53.1644C53.1644 19.7115 52.8941 21.1986 52.3752 22.3881L53.2917 22.788ZM66.6307 4.81818L67.1072 4.6666L66.9963 4.31818H66.6307V4.81818ZM72.9588 24.7102L72.4823 24.8618L72.5932 25.2102H72.9588V24.7102ZM73.2017 24.7102V25.2102H73.5671L73.6781 24.8621L73.2017 24.7102ZM79.5426 4.81818V4.31818H79.1772L79.0662 4.66633L79.5426 4.81818ZM85.679 4.81818L86.1517 4.98113L86.3802 4.31818H85.679V4.81818ZM76.6534 31V31.5H77.0099L77.1261 31.163L76.6534 31ZM69.5199 31L69.0473 31.1632L69.1635 31.5H69.5199V31ZM60.4815 4.81818V4.31818H59.78L60.0089 4.98134L60.4815 4.81818ZM66.1542 4.96976L72.4823 24.8618L73.4353 24.5587L67.1072 4.6666L66.1542 4.96976ZM72.9588 25.2102H73.2017V24.2102H72.9588V25.2102ZM73.6781 24.8621L80.019 4.97004L79.0662 4.66633L72.7253 24.5584L73.6781 24.8621ZM79.5426 5.31818H85.679V4.31818H79.5426V5.31818ZM85.2063 4.65523L76.1807 30.837L77.1261 31.163L86.1517 4.98113L85.2063 4.65523ZM76.6534 30.5H69.5199V31.5H76.6534V30.5ZM69.9925 30.8368L60.9542 4.65502L60.0089 4.98134L69.0473 31.1632L69.9925 30.8368ZM60.4815 5.31818H66.6307V4.31818H60.4815V5.31818ZM88.8303 31H88.3303V31.5H88.8303V31ZM88.8303 4.81818V4.31818H88.3303V4.81818H88.8303ZM106.472 4.81818H106.972V4.31818H106.472V4.81818ZM106.472 9.3821V9.8821H106.972V9.3821H106.472ZM94.3658 9.3821V8.8821H93.8658V9.3821H94.3658ZM94.3658 15.6207H93.8658V16.1207H94.3658V15.6207ZM105.565 15.6207H106.065V15.1207H105.565V15.6207ZM105.565 20.1847V20.6847H106.065V20.1847H105.565ZM94.3658 20.1847V19.6847H93.8658V20.1847H94.3658ZM94.3658 26.4361H93.8658V26.9361H94.3658V26.4361ZM106.523 26.4361H107.023V25.9361H106.523V26.4361ZM106.523 31V31.5H107.023V31H106.523ZM89.3303 31V4.81818H88.3303V31H89.3303ZM88.8303 5.31818H106.472V4.31818H88.8303V5.31818ZM105.972 4.81818V9.3821H106.972V4.81818H105.972ZM106.472 8.8821H94.3658V9.8821H106.472V8.8821ZM93.8658 9.3821V15.6207H94.8658V9.3821H93.8658ZM94.3658 16.1207H105.565V15.1207H94.3658V16.1207ZM105.065 15.6207V20.1847H106.065V15.6207H105.065ZM105.565 19.6847H94.3658V20.6847H105.565V19.6847ZM93.8658 20.1847V26.4361H94.8658V20.1847H93.8658ZM94.3658 26.9361H106.523V25.9361H94.3658V26.9361ZM106.023 26.4361V31H107.023V26.4361H106.023ZM106.523 30.5H88.8303V31.5H106.523V30.5ZM118.208 9.3821H117.708V9.8821H118.208V9.3821ZM118.208 4.81818V4.31818H117.708V4.81818H118.208ZM139.711 4.81818H140.211V4.31818H139.711V4.81818ZM139.711 9.3821V9.8821H140.211V9.3821H139.711ZM131.695 9.3821V8.8821H131.195V9.3821H131.695ZM131.695 31V31.5H132.195V31H131.695ZM126.224 31H125.724V31.5H126.224V31ZM126.224 9.3821H126.724V8.8821H126.224V9.3821ZM118.708 9.3821V4.81818H117.708V9.3821H118.708ZM118.208 5.31818H139.711V4.31818H118.208V5.31818ZM139.211 4.81818V9.3821H140.211V4.81818H139.211ZM139.711 8.8821H131.695V9.8821H139.711V8.8821ZM131.195 9.3821V31H132.195V9.3821H131.195ZM131.695 30.5H126.224V31.5H131.695V30.5ZM126.724 31V9.3821H125.724V31H126.724ZM126.224 8.8821H118.208V9.8821H126.224V8.8821ZM164.493 25.196L164.053 24.9583L164.052 24.9598L164.493 25.196ZM160.095 29.7855L160.342 30.2205L160.342 30.2201L160.095 29.7855ZM147.592 29.7727L147.84 29.3386L147.592 29.7727ZM143.207 25.1832L142.767 25.4195L143.207 25.1832ZM143.207 10.6222L143.648 10.8584L143.207 10.6222ZM147.592 6.04545L147.839 6.48044L147.84 6.47958L147.592 6.04545ZM160.095 6.04545L159.847 6.47958L159.849 6.48092L160.095 6.04545ZM164.493 10.6222L164.052 10.8584L164.053 10.8599L164.493 10.6222ZM159.673 13.2301L159.214 13.4274L159.215 13.43L159.673 13.2301ZM157.359 10.3409L157.085 10.7586L157.359 10.3409ZM150.354 10.3409L150.629 10.7586L150.354 10.3409ZM148.027 13.2301L147.569 13.0302L147.568 13.0328L148.027 13.2301ZM148.027 22.5881L147.568 22.7854L147.569 22.788L148.027 22.5881ZM150.354 25.4773L150.629 25.0596L150.354 25.4773ZM157.359 25.4773L157.085 25.0596L157.359 25.4773ZM159.673 22.5881L159.215 22.3881L159.214 22.3907L159.673 22.5881ZM165.616 17.9091C165.616 20.7019 165.087 23.0448 164.053 24.9583L164.933 25.4337C166.063 23.3416 166.616 20.8265 166.616 17.9091H165.616ZM164.052 24.9598C163.02 26.8851 161.619 28.3436 159.848 29.3509L160.342 30.2201C162.287 29.1137 163.818 27.5127 164.934 25.4323L164.052 24.9598ZM159.849 29.3505C158.081 30.3526 156.087 30.858 153.857 30.858V31.858C156.245 31.858 158.411 31.315 160.342 30.2205L159.849 29.3505ZM153.857 30.858C151.609 30.858 149.607 30.3483 147.84 29.3386L147.344 30.2068C149.276 31.3108 151.451 31.858 153.857 31.858V30.858ZM147.84 29.3386C146.078 28.3315 144.681 26.8729 143.648 24.947L142.767 25.4195C143.882 27.4993 145.408 29.1003 147.344 30.2068L147.84 29.3386ZM143.648 24.947C142.622 23.0329 142.097 20.6937 142.097 17.9091H141.097C141.097 20.8177 141.645 23.3279 142.767 25.4195L143.648 24.947ZM142.097 17.9091C142.097 15.1157 142.622 12.7723 143.648 10.8584L142.767 10.3859C141.645 12.4777 141.097 14.9923 141.097 17.9091H142.097ZM143.648 10.8584C144.68 8.93283 146.077 7.47891 147.839 6.48044L147.346 5.61047C145.408 6.70859 143.882 8.30581 142.767 10.3859L143.648 10.8584ZM147.84 6.47958C149.607 5.46985 151.609 4.96023 153.857 4.96023V3.96023C151.451 3.96023 149.276 4.50742 147.344 5.61133L147.84 6.47958ZM153.857 4.96023C156.087 4.96023 158.08 5.46953 159.847 6.47958L160.343 5.61133C158.412 4.50774 156.246 3.96023 153.857 3.96023V4.96023ZM159.849 6.48092C161.619 7.47956 163.02 8.93342 164.052 10.8584L164.934 10.3859C163.818 8.30521 162.287 6.70794 160.341 5.60999L159.849 6.48092ZM164.053 10.8599C165.087 12.7734 165.616 15.1163 165.616 17.9091H166.616C166.616 14.9917 166.063 12.4766 164.933 10.3844L164.053 10.8599ZM161.004 17.9091C161.004 16.0127 160.721 14.3805 160.132 13.0302L159.215 13.43C159.734 14.6195 160.004 16.1066 160.004 17.9091H161.004ZM160.133 13.0328C159.555 11.6875 158.725 10.6414 157.634 9.92324L157.085 10.7586C157.988 11.3529 158.701 12.2329 159.214 13.4274L160.133 13.0328ZM157.634 9.92324C156.546 9.20694 155.28 8.85653 153.857 8.85653V9.85653C155.109 9.85653 156.179 10.1624 157.085 10.7586L157.634 9.92324ZM153.857 8.85653C152.433 8.85653 151.167 9.20694 150.079 9.92324L150.629 10.7586C151.534 10.1624 152.604 9.85653 153.857 9.85653V8.85653ZM150.079 9.92324C148.988 10.6409 148.155 11.6861 147.569 13.0302L148.485 13.43C149.007 12.2344 149.725 11.3534 150.629 10.7586L150.079 9.92324ZM147.568 13.0328C146.988 14.3823 146.709 16.0135 146.709 17.9091H147.709C147.709 16.1058 147.975 14.6177 148.486 13.4274L147.568 13.0328ZM146.709 17.9091C146.709 19.8047 146.988 21.4359 147.568 22.7854L148.486 22.3907C147.975 21.2004 147.709 19.7124 147.709 17.9091H146.709ZM147.569 22.788C148.155 24.1321 148.988 25.1773 150.079 25.8949L150.629 25.0596C149.725 24.4648 149.007 23.5838 148.485 22.3881L147.569 22.788ZM150.079 25.8949C151.167 26.6112 152.433 26.9616 153.857 26.9616V25.9616C152.604 25.9616 151.534 25.6558 150.629 25.0596L150.079 25.8949ZM153.857 26.9616C155.28 26.9616 156.546 26.6112 157.634 25.8949L157.085 25.0596C156.179 25.6558 155.109 25.9616 153.857 25.9616V26.9616ZM157.634 25.8949C158.725 25.1768 159.555 24.1307 160.133 22.7854L159.214 22.3907C158.701 23.5852 157.988 24.4652 157.085 25.0596L157.634 25.8949ZM160.132 22.788C160.721 21.4377 161.004 19.8055 161.004 17.9091H160.004C160.004 19.7115 159.734 21.1986 159.215 22.3881L160.132 22.788Z" fill="url(#paint0_linear_3303_5903)" fill-opacity="0.5"/>
<path d="M2.27557 4.81818V4.31818H1.77557V4.81818H2.27557ZM9.10227 4.81818L9.56492 4.62855L9.4377 4.31818H9.10227V4.81818ZM16.3125 22.4091L15.8499 22.5987L15.9771 22.9091H16.3125V22.4091ZM16.6193 22.4091V22.9091H16.9547L17.082 22.5987L16.6193 22.4091ZM23.8295 4.81818V4.31818H23.4941L23.3669 4.62855L23.8295 4.81818ZM30.6562 4.81818H31.1562V4.31818H30.6562V4.81818ZM30.6562 31V31.5H31.1562V31H30.6562ZM25.2869 31H24.7869V31.5H25.2869V31ZM25.2869 13.9588H25.7869V13.4588H25.2869V13.9588ZM25.0696 13.9588V13.4588H24.7313L24.6055 13.7729L25.0696 13.9588ZM18.294 30.8722V31.3722H18.6324L18.7582 31.0581L18.294 30.8722ZM14.6378 30.8722L14.1734 31.0575L14.299 31.3722H14.6378V30.8722ZM7.86222 13.8949L8.3266 13.7096L8.20102 13.3949H7.86222V13.8949ZM7.64489 13.8949V13.3949H7.14489V13.8949H7.64489ZM7.64489 31V31.5H8.14489V31H7.64489ZM2.27557 31H1.77557V31.5H2.27557V31ZM2.27557 5.31818H9.10227V4.31818H2.27557V5.31818ZM8.63963 5.00781L15.8499 22.5987L16.7751 22.2195L9.56492 4.62855L8.63963 5.00781ZM16.3125 22.9091H16.6193V21.9091H16.3125V22.9091ZM17.082 22.5987L24.2922 5.00781L23.3669 4.62855L16.1567 22.2195L17.082 22.5987ZM23.8295 5.31818H30.6562V4.31818H23.8295V5.31818ZM30.1562 4.81818V31H31.1562V4.81818H30.1562ZM30.6562 30.5H25.2869V31.5H30.6562V30.5ZM25.7869 31V13.9588H24.7869V31H25.7869ZM25.2869 13.4588H25.0696V14.4588H25.2869V13.4588ZM24.6055 13.7729L17.8299 30.6862L18.7582 31.0581L25.5337 14.1447L24.6055 13.7729ZM18.294 30.3722H14.6378V31.3722H18.294V30.3722ZM15.1022 30.6868L8.3266 13.7096L7.39783 14.0802L14.1734 31.0575L15.1022 30.6868ZM7.86222 13.3949H7.64489V14.3949H7.86222V13.3949ZM7.14489 13.8949V31H8.14489V13.8949H7.14489ZM7.64489 30.5H2.27557V31.5H7.64489V30.5ZM2.77557 31V4.81818H1.77557V31H2.77557ZM57.6531 25.196L57.2132 24.9583L57.2124 24.9598L57.6531 25.196ZM53.2553 29.7855L53.5019 30.2205L53.5025 30.2201L53.2553 29.7855ZM40.7525 29.7727L41.0006 29.3386L40.7525 29.7727ZM36.3675 25.1832L35.9269 25.4195L36.3675 25.1832ZM36.3675 10.6222L36.8082 10.8584L36.3675 10.6222ZM40.7525 6.04545L40.999 6.48044L41.0006 6.47958L40.7525 6.04545ZM53.2553 6.04545L53.0073 6.47958L53.0096 6.48092L53.2553 6.04545ZM57.6531 10.6222L57.2124 10.8584L57.2132 10.8599L57.6531 10.6222ZM52.8335 13.2301L52.374 13.4274L52.3752 13.43L52.8335 13.2301ZM50.5195 10.3409L50.2447 10.7586L50.5195 10.3409ZM43.5139 10.3409L43.7887 10.7586L43.5139 10.3409ZM41.1871 13.2301L40.7288 13.0302L40.7277 13.0328L41.1871 13.2301ZM41.1871 22.5881L40.7277 22.7854L40.7289 22.788L41.1871 22.5881ZM43.5139 25.4773L43.7887 25.0596L43.5139 25.4773ZM50.5195 25.4773L50.2447 25.0596L50.5195 25.4773ZM52.8335 22.5881L52.3752 22.3881L52.374 22.3907L52.8335 22.5881ZM58.7766 17.9091C58.7766 20.7019 58.2473 23.0448 57.2132 24.9583L58.0929 25.4337C59.2236 23.3416 59.7766 20.8265 59.7766 17.9091H58.7766ZM57.2124 24.9598C56.1801 26.8851 54.7789 28.3436 53.0081 29.3509L53.5025 30.2201C55.4476 29.1137 56.9783 27.5127 58.0937 25.4323L57.2124 24.9598ZM53.0088 29.3505C51.2409 30.3526 49.2476 30.858 47.0167 30.858V31.858C49.4051 31.858 51.5709 31.315 53.5019 30.2205L53.0088 29.3505ZM47.0167 30.858C44.7687 30.858 42.7676 30.3483 41.0006 29.3386L40.5044 30.2068C42.4363 31.3108 44.6112 31.858 47.0167 31.858V30.858ZM41.0006 29.3386C39.2381 28.3315 37.8408 26.8729 36.8082 24.947L35.9269 25.4195C37.042 27.4993 38.568 29.1003 40.5044 30.2068L41.0006 29.3386ZM36.8082 24.947C35.7819 23.0329 35.2567 20.6937 35.2567 17.9091H34.2567C34.2567 20.8177 34.8054 23.3279 35.9269 25.4195L36.8082 24.947ZM35.2567 17.9091C35.2567 15.1157 35.782 12.7723 36.8082 10.8584L35.9269 10.3859C34.8053 12.4777 34.2567 14.9923 34.2567 17.9091H35.2567ZM36.8082 10.8584C37.8406 8.93283 39.2375 7.47891 40.999 6.48044L40.5059 5.61047C38.5686 6.70859 37.0422 8.30581 35.9269 10.3859L36.8082 10.8584ZM41.0006 6.47958C42.7676 5.46985 44.7687 4.96023 47.0167 4.96023V3.96023C44.6112 3.96023 42.4363 4.50742 40.5044 5.61133L41.0006 6.47958ZM47.0167 4.96023C49.2469 4.96023 51.2397 5.46953 53.0073 6.47958L53.5034 5.61133C51.5721 4.50774 49.4058 3.96023 47.0167 3.96023V4.96023ZM53.0096 6.48092C54.7796 7.47956 56.1803 8.93342 57.2124 10.8584L58.0937 10.3859C56.9781 8.30521 55.447 6.70794 53.501 5.60999L53.0096 6.48092ZM57.2132 10.8599C58.2473 12.7734 58.7766 15.1163 58.7766 17.9091H59.7766C59.7766 14.9917 59.2236 12.4766 58.0929 10.3844L57.2132 10.8599ZM54.1644 17.9091C54.1644 16.0127 53.8808 14.3805 53.2917 13.0302L52.3752 13.43C52.8941 14.6195 53.1644 16.1066 53.1644 17.9091H54.1644ZM53.2929 13.0328C52.715 11.6875 51.8856 10.6414 50.7944 9.92324L50.2447 10.7586C51.1478 11.3529 51.861 12.2329 52.374 13.4274L53.2929 13.0328ZM50.7944 9.92324C49.706 9.20694 48.4402 8.85653 47.0167 8.85653V9.85653C48.2693 9.85653 49.3388 10.1624 50.2447 10.7586L50.7944 9.92324ZM47.0167 8.85653C45.5931 8.85653 44.3274 9.20694 43.239 9.92324L43.7887 10.7586C44.6946 10.1624 45.7641 9.85653 47.0167 9.85653V8.85653ZM43.239 9.92324C42.1485 10.6409 41.3152 11.6861 40.7289 13.0302L41.6454 13.43C42.167 12.2344 42.8849 11.3534 43.7887 10.7586L43.239 9.92324ZM40.7277 13.0328C40.1481 14.3823 39.869 16.0135 39.869 17.9091H40.869C40.869 16.1058 41.1353 14.6177 41.6466 13.4274L40.7277 13.0328ZM39.869 17.9091C39.869 19.8047 40.1481 21.4359 40.7277 22.7854L41.6466 22.3907C41.1353 21.2004 40.869 19.7124 40.869 17.9091H39.869ZM40.7289 22.788C41.3152 24.1321 42.1485 25.1773 43.239 25.8949L43.7887 25.0596C42.8849 24.4648 42.167 23.5838 41.6454 22.3881L40.7289 22.788ZM43.239 25.8949C44.3274 26.6112 45.5931 26.9616 47.0167 26.9616V25.9616C45.7641 25.9616 44.6946 25.6558 43.7887 25.0596L43.239 25.8949ZM47.0167 26.9616C48.4402 26.9616 49.706 26.6112 50.7944 25.8949L50.2447 25.0596C49.3388 25.6558 48.2693 25.9616 47.0167 25.9616V26.9616ZM50.7944 25.8949C51.8856 25.1768 52.715 24.1307 53.2929 22.7854L52.374 22.3907C51.861 23.5852 51.1478 24.4652 50.2447 25.0596L50.7944 25.8949ZM53.2917 22.788C53.8808 21.4377 54.1644 19.8055 54.1644 17.9091H53.1644C53.1644 19.7115 52.8941 21.1986 52.3752 22.3881L53.2917 22.788ZM66.6307 4.81818L67.1072 4.6666L66.9963 4.31818H66.6307V4.81818ZM72.9588 24.7102L72.4823 24.8618L72.5932 25.2102H72.9588V24.7102ZM73.2017 24.7102V25.2102H73.5671L73.6781 24.8621L73.2017 24.7102ZM79.5426 4.81818V4.31818H79.1772L79.0662 4.66633L79.5426 4.81818ZM85.679 4.81818L86.1517 4.98113L86.3802 4.31818H85.679V4.81818ZM76.6534 31V31.5H77.0099L77.1261 31.163L76.6534 31ZM69.5199 31L69.0473 31.1632L69.1635 31.5H69.5199V31ZM60.4815 4.81818V4.31818H59.78L60.0089 4.98134L60.4815 4.81818ZM66.1542 4.96976L72.4823 24.8618L73.4353 24.5587L67.1072 4.6666L66.1542 4.96976ZM72.9588 25.2102H73.2017V24.2102H72.9588V25.2102ZM73.6781 24.8621L80.019 4.97004L79.0662 4.66633L72.7253 24.5584L73.6781 24.8621ZM79.5426 5.31818H85.679V4.31818H79.5426V5.31818ZM85.2063 4.65523L76.1807 30.837L77.1261 31.163L86.1517 4.98113L85.2063 4.65523ZM76.6534 30.5H69.5199V31.5H76.6534V30.5ZM69.9925 30.8368L60.9542 4.65502L60.0089 4.98134L69.0473 31.1632L69.9925 30.8368ZM60.4815 5.31818H66.6307V4.31818H60.4815V5.31818ZM88.8303 31H88.3303V31.5H88.8303V31ZM88.8303 4.81818V4.31818H88.3303V4.81818H88.8303ZM106.472 4.81818H106.972V4.31818H106.472V4.81818ZM106.472 9.3821V9.8821H106.972V9.3821H106.472ZM94.3658 9.3821V8.8821H93.8658V9.3821H94.3658ZM94.3658 15.6207H93.8658V16.1207H94.3658V15.6207ZM105.565 15.6207H106.065V15.1207H105.565V15.6207ZM105.565 20.1847V20.6847H106.065V20.1847H105.565ZM94.3658 20.1847V19.6847H93.8658V20.1847H94.3658ZM94.3658 26.4361H93.8658V26.9361H94.3658V26.4361ZM106.523 26.4361H107.023V25.9361H106.523V26.4361ZM106.523 31V31.5H107.023V31H106.523ZM89.3303 31V4.81818H88.3303V31H89.3303ZM88.8303 5.31818H106.472V4.31818H88.8303V5.31818ZM105.972 4.81818V9.3821H106.972V4.81818H105.972ZM106.472 8.8821H94.3658V9.8821H106.472V8.8821ZM93.8658 9.3821V15.6207H94.8658V9.3821H93.8658ZM94.3658 16.1207H105.565V15.1207H94.3658V16.1207ZM105.065 15.6207V20.1847H106.065V15.6207H105.065ZM105.565 19.6847H94.3658V20.6847H105.565V19.6847ZM93.8658 20.1847V26.4361H94.8658V20.1847H93.8658ZM94.3658 26.9361H106.523V25.9361H94.3658V26.9361ZM106.023 26.4361V31H107.023V26.4361H106.023ZM106.523 30.5H88.8303V31.5H106.523V30.5ZM118.208 9.3821H117.708V9.8821H118.208V9.3821ZM118.208 4.81818V4.31818H117.708V4.81818H118.208ZM139.711 4.81818H140.211V4.31818H139.711V4.81818ZM139.711 9.3821V9.8821H140.211V9.3821H139.711ZM131.695 9.3821V8.8821H131.195V9.3821H131.695ZM131.695 31V31.5H132.195V31H131.695ZM126.224 31H125.724V31.5H126.224V31ZM126.224 9.3821H126.724V8.8821H126.224V9.3821ZM118.708 9.3821V4.81818H117.708V9.3821H118.708ZM118.208 5.31818H139.711V4.31818H118.208V5.31818ZM139.211 4.81818V9.3821H140.211V4.81818H139.211ZM139.711 8.8821H131.695V9.8821H139.711V8.8821ZM131.195 9.3821V31H132.195V9.3821H131.195ZM131.695 30.5H126.224V31.5H131.695V30.5ZM126.724 31V9.3821H125.724V31H126.724ZM126.224 8.8821H118.208V9.8821H126.224V8.8821ZM164.493 25.196L164.053 24.9583L164.052 24.9598L164.493 25.196ZM160.095 29.7855L160.342 30.2205L160.342 30.2201L160.095 29.7855ZM147.592 29.7727L147.84 29.3386L147.592 29.7727ZM143.207 25.1832L142.767 25.4195L143.207 25.1832ZM143.207 10.6222L143.648 10.8584L143.207 10.6222ZM147.592 6.04545L147.839 6.48044L147.84 6.47958L147.592 6.04545ZM160.095 6.04545L159.847 6.47958L159.849 6.48092L160.095 6.04545ZM164.493 10.6222L164.052 10.8584L164.053 10.8599L164.493 10.6222ZM159.673 13.2301L159.214 13.4274L159.215 13.43L159.673 13.2301ZM157.359 10.3409L157.085 10.7586L157.359 10.3409ZM150.354 10.3409L150.629 10.7586L150.354 10.3409ZM148.027 13.2301L147.569 13.0302L147.568 13.0328L148.027 13.2301ZM148.027 22.5881L147.568 22.7854L147.569 22.788L148.027 22.5881ZM150.354 25.4773L150.629 25.0596L150.354 25.4773ZM157.359 25.4773L157.085 25.0596L157.359 25.4773ZM159.673 22.5881L159.215 22.3881L159.214 22.3907L159.673 22.5881ZM165.616 17.9091C165.616 20.7019 165.087 23.0448 164.053 24.9583L164.933 25.4337C166.063 23.3416 166.616 20.8265 166.616 17.9091H165.616ZM164.052 24.9598C163.02 26.8851 161.619 28.3436 159.848 29.3509L160.342 30.2201C162.287 29.1137 163.818 27.5127 164.934 25.4323L164.052 24.9598ZM159.849 29.3505C158.081 30.3526 156.087 30.858 153.857 30.858V31.858C156.245 31.858 158.411 31.315 160.342 30.2205L159.849 29.3505ZM153.857 30.858C151.609 30.858 149.607 30.3483 147.84 29.3386L147.344 30.2068C149.276 31.3108 151.451 31.858 153.857 31.858V30.858ZM147.84 29.3386C146.078 28.3315 144.681 26.8729 143.648 24.947L142.767 25.4195C143.882 27.4993 145.408 29.1003 147.344 30.2068L147.84 29.3386ZM143.648 24.947C142.622 23.0329 142.097 20.6937 142.097 17.9091H141.097C141.097 20.8177 141.645 23.3279 142.767 25.4195L143.648 24.947ZM142.097 17.9091C142.097 15.1157 142.622 12.7723 143.648 10.8584L142.767 10.3859C141.645 12.4777 141.097 14.9923 141.097 17.9091H142.097ZM143.648 10.8584C144.68 8.93283 146.077 7.47891 147.839 6.48044L147.346 5.61047C145.408 6.70859 143.882 8.30581 142.767 10.3859L143.648 10.8584ZM147.84 6.47958C149.607 5.46985 151.609 4.96023 153.857 4.96023V3.96023C151.451 3.96023 149.276 4.50742 147.344 5.61133L147.84 6.47958ZM153.857 4.96023C156.087 4.96023 158.08 5.46953 159.847 6.47958L160.343 5.61133C158.412 4.50774 156.246 3.96023 153.857 3.96023V4.96023ZM159.849 6.48092C161.619 7.47956 163.02 8.93342 164.052 10.8584L164.934 10.3859C163.818 8.30521 162.287 6.70794 160.341 5.60999L159.849 6.48092ZM164.053 10.8599C165.087 12.7734 165.616 15.1163 165.616 17.9091H166.616C166.616 14.9917 166.063 12.4766 164.933 10.3844L164.053 10.8599ZM161.004 17.9091C161.004 16.0127 160.721 14.3805 160.132 13.0302L159.215 13.43C159.734 14.6195 160.004 16.1066 160.004 17.9091H161.004ZM160.133 13.0328C159.555 11.6875 158.725 10.6414 157.634 9.92324L157.085 10.7586C157.988 11.3529 158.701 12.2329 159.214 13.4274L160.133 13.0328ZM157.634 9.92324C156.546 9.20694 155.28 8.85653 153.857 8.85653V9.85653C155.109 9.85653 156.179 10.1624 157.085 10.7586L157.634 9.92324ZM153.857 8.85653C152.433 8.85653 151.167 9.20694 150.079 9.92324L150.629 10.7586C151.534 10.1624 152.604 9.85653 153.857 9.85653V8.85653ZM150.079 9.92324C148.988 10.6409 148.155 11.6861 147.569 13.0302L148.485 13.43C149.007 12.2344 149.725 11.3534 150.629 10.7586L150.079 9.92324ZM147.568 13.0328C146.988 14.3823 146.709 16.0135 146.709 17.9091H147.709C147.709 16.1058 147.975 14.6177 148.486 13.4274L147.568 13.0328ZM146.709 17.9091C146.709 19.8047 146.988 21.4359 147.568 22.7854L148.486 22.3907C147.975 21.2004 147.709 19.7124 147.709 17.9091H146.709ZM147.569 22.788C148.155 24.1321 148.988 25.1773 150.079 25.8949L150.629 25.0596C149.725 24.4648 149.007 23.5838 148.485 22.3881L147.569 22.788ZM150.079 25.8949C151.167 26.6112 152.433 26.9616 153.857 26.9616V25.9616C152.604 25.9616 151.534 25.6558 150.629 25.0596L150.079 25.8949ZM153.857 26.9616C155.28 26.9616 156.546 26.6112 157.634 25.8949L157.085 25.0596C156.179 25.6558 155.109 25.9616 153.857 25.9616V26.9616ZM157.634 25.8949C158.725 25.1768 159.555 24.1307 160.133 22.7854L159.214 22.3907C158.701 23.5852 157.988 24.4652 157.085 25.0596L157.634 25.8949ZM160.132 22.788C160.721 21.4377 161.004 19.8055 161.004 17.9091H160.004C160.004 19.7115 159.734 21.1986 159.215 22.3881L160.132 22.788Z" fill="url(#paint1_linear_3303_5903)"/>
<path d="M2.65483 84V53.4545H23.2372V58.7791H9.11293V66.0575H22.1783V71.3821H9.11293V78.6754H23.2969V84H2.65483ZM33.6365 84H26.7161L37.2608 53.4545H45.5833L56.1131 84H49.1926L41.5414 60.4347H41.3027L33.6365 84ZM33.204 71.9936H49.5506V77.0348H33.204V71.9936ZM59.7896 84V53.4545H71.8407C74.1476 53.4545 76.1163 53.8672 77.747 54.6925C79.3876 55.5078 80.6355 56.6662 81.4906 58.1676C82.3556 59.6591 82.7882 61.4141 82.7882 63.4325C82.7882 65.4609 82.3507 67.206 81.4757 68.6676C80.6007 70.1193 79.3329 71.233 77.6724 72.0085C76.0218 72.7841 74.0233 73.1719 71.6767 73.1719H63.6078V67.9815H70.6326C71.8656 67.9815 72.8897 67.8125 73.7051 67.4744C74.5204 67.1364 75.127 66.6293 75.5247 65.9531C75.9324 65.277 76.1362 64.4368 76.1362 63.4325C76.1362 62.4183 75.9324 61.5632 75.5247 60.8672C75.127 60.1712 74.5154 59.6442 73.6902 59.2862C72.8748 58.9183 71.8457 58.7344 70.6028 58.7344H66.2477V84H59.7896ZM76.2853 70.0994L83.877 84H76.7477L69.3201 70.0994H76.2853ZM112.901 53.4545V84H107.323L94.0339 64.7749H93.8102V84H87.3521V53.4545H93.0197L106.204 72.6648H106.473V53.4545H112.901Z" fill="white" fill-opacity="0.08"/>
<path d="M2.65483 84H2.15483V84.5H2.65483V84ZM2.65483 53.4545V52.9545H2.15483V53.4545H2.65483ZM23.2372 53.4545H23.7372V52.9545H23.2372V53.4545ZM23.2372 58.7791V59.2791H23.7372V58.7791H23.2372ZM9.11293 58.7791V58.2791H8.61293V58.7791H9.11293ZM9.11293 66.0575H8.61293V66.5575H9.11293V66.0575ZM22.1783 66.0575H22.6783V65.5575H22.1783V66.0575ZM22.1783 71.3821V71.8821H22.6783V71.3821H22.1783ZM9.11293 71.3821V70.8821H8.61293V71.3821H9.11293ZM9.11293 78.6754H8.61293V79.1754H9.11293V78.6754ZM23.2969 78.6754H23.7969V78.1754H23.2969V78.6754ZM23.2969 84V84.5H23.7969V84H23.2969ZM3.15483 84V53.4545H2.15483V84H3.15483ZM2.65483 53.9545H23.2372V52.9545H2.65483V53.9545ZM22.7372 53.4545V58.7791H23.7372V53.4545H22.7372ZM23.2372 58.2791H9.11293V59.2791H23.2372V58.2791ZM8.61293 58.7791V66.0575H9.61293V58.7791H8.61293ZM9.11293 66.5575H22.1783V65.5575H9.11293V66.5575ZM21.6783 66.0575V71.3821H22.6783V66.0575H21.6783ZM22.1783 70.8821H9.11293V71.8821H22.1783V70.8821ZM8.61293 71.3821V78.6754H9.61293V71.3821H8.61293ZM9.11293 79.1754H23.2969V78.1754H9.11293V79.1754ZM22.7969 78.6754V84H23.7969V78.6754H22.7969ZM23.2969 83.5H2.65483V84.5H23.2969V83.5ZM33.6365 84V84.5H33.9997L34.112 84.1547L33.6365 84ZM26.7161 84L26.2435 83.8368L26.0145 84.5H26.7161V84ZM37.2608 53.4545V52.9545H36.9045L36.7882 53.2914L37.2608 53.4545ZM45.5833 53.4545L46.056 53.2916L45.9398 52.9545H45.5833V53.4545ZM56.1131 84V84.5H56.8143L56.5858 83.837L56.1131 84ZM49.1926 84L48.7171 84.1544L48.8293 84.5H49.1926V84ZM41.5414 60.4347L42.0169 60.2803L41.9047 59.9347H41.5414V60.4347ZM41.3027 60.4347V59.9347H40.9396L40.8273 60.28L41.3027 60.4347ZM33.204 71.9936V71.4936H32.704V71.9936H33.204ZM49.5506 71.9936H50.0506V71.4936H49.5506V71.9936ZM49.5506 77.0348V77.5348H50.0506V77.0348H49.5506ZM33.204 77.0348H32.704V77.5348H33.204V77.0348ZM33.6365 83.5H26.7161V84.5H33.6365V83.5ZM27.1887 84.1632L37.7335 53.6177L36.7882 53.2914L26.2435 83.8368L27.1887 84.1632ZM37.2608 53.9545H45.5833V52.9545H37.2608V53.9545ZM45.1106 53.6175L55.6404 84.163L56.5858 83.837L46.056 53.2916L45.1106 53.6175ZM56.1131 83.5H49.1926V84.5H56.1131V83.5ZM49.6682 83.8456L42.0169 60.2803L41.0658 60.5891L48.7171 84.1544L49.6682 83.8456ZM41.5414 59.9347H41.3027V60.9347H41.5414V59.9347ZM40.8273 60.28L33.1611 83.8453L34.112 84.1547L41.7782 60.5893L40.8273 60.28ZM33.204 72.4936H49.5506V71.4936H33.204V72.4936ZM49.0506 71.9936V77.0348H50.0506V71.9936H49.0506ZM49.5506 76.5348H33.204V77.5348H49.5506V76.5348ZM33.704 77.0348V71.9936H32.704V77.0348H33.704ZM59.7896 84H59.2896V84.5H59.7896V84ZM59.7896 53.4545V52.9545H59.2896V53.4545H59.7896ZM77.747 54.6925L77.5212 55.1386L77.5245 55.1402L77.747 54.6925ZM81.4906 58.1676L81.0561 58.4151L81.0581 58.4185L81.4906 58.1676ZM81.4757 68.6676L81.9039 68.9257L81.9047 68.9244L81.4757 68.6676ZM77.6724 72.0085L77.4608 71.5555L77.4598 71.556L77.6724 72.0085ZM63.6078 73.1719H63.1078V73.6719H63.6078V73.1719ZM63.6078 67.9815V67.4815H63.1078V67.9815H63.6078ZM73.7051 67.4744L73.8966 67.9363L73.7051 67.4744ZM75.5247 65.9531L75.0965 65.6949L75.0937 65.6996L75.5247 65.9531ZM75.5247 60.8672L75.0905 61.1153L75.0932 61.1199L75.5247 60.8672ZM73.6902 59.2862L73.4845 59.742L73.4912 59.7449L73.6902 59.2862ZM66.2477 58.7344V58.2344H65.7477V58.7344H66.2477ZM66.2477 84V84.5H66.7477V84H66.2477ZM76.2853 70.0994L76.7242 69.8598L76.582 69.5994H76.2853V70.0994ZM83.877 84V84.5H84.7197L84.3158 83.7603L83.877 84ZM76.7477 84L76.3067 84.2356L76.448 84.5H76.7477V84ZM69.3201 70.0994V69.5994H68.4861L68.8791 70.3351L69.3201 70.0994ZM60.2896 84V53.4545H59.2896V84H60.2896ZM59.7896 53.9545H71.8407V52.9545H59.7896V53.9545ZM71.8407 53.9545C74.0892 53.9545 75.9764 54.3568 77.5212 55.1386L77.9728 54.2464C76.2562 53.3776 74.2059 52.9545 71.8407 52.9545V53.9545ZM77.5245 55.1402C79.0817 55.9142 80.2532 57.0053 81.0561 58.4151L81.9251 57.9202C81.0177 56.3271 79.6935 55.1015 77.9695 54.2447L77.5245 55.1402ZM81.0581 58.4185C81.8719 59.8216 82.2882 61.487 82.2882 63.4325H83.2882C83.2882 61.3411 82.8394 59.4966 81.9231 57.9168L81.0581 58.4185ZM82.2882 63.4325C82.2882 65.3878 81.867 67.0404 81.0467 68.4108L81.9047 68.9244C82.8343 67.3715 83.2882 65.534 83.2882 63.4325H82.2882ZM81.0474 68.4095C80.2279 69.7692 79.039 70.8184 77.4608 71.5555L77.884 72.4615C79.6268 71.6475 80.9735 70.4694 81.9039 68.9257L81.0474 68.4095ZM77.4598 71.556C75.8919 72.2927 73.9701 72.6719 71.6767 72.6719V73.6719C74.0765 73.6719 76.1517 73.2755 77.885 72.4611L77.4598 71.556ZM71.6767 72.6719H63.6078V73.6719H71.6767V72.6719ZM64.1078 73.1719V67.9815H63.1078V73.1719H64.1078ZM63.6078 68.4815H70.6326V67.4815H63.6078V68.4815ZM70.6326 68.4815C71.9071 68.4815 73.0016 68.3074 73.8966 67.9363L73.5136 67.0126C72.7779 67.3176 71.8241 67.4815 70.6326 67.4815V68.4815ZM73.8966 67.9363C74.7991 67.5621 75.496 66.988 75.9557 66.2066L75.0937 65.6996C74.7579 66.2705 74.2418 66.7106 73.5136 67.0126L73.8966 67.9363ZM75.9529 66.2113C76.4187 65.4387 76.6362 64.5034 76.6362 63.4325H75.6362C75.6362 64.3702 75.446 65.1153 75.0965 65.695L75.9529 66.2113ZM76.6362 63.4325C76.6362 62.3521 76.4189 61.4045 75.9561 60.6145L75.0932 61.1199C75.4458 61.7219 75.6362 62.4846 75.6362 63.4325H76.6362ZM75.9588 60.6191C75.501 59.818 74.8008 59.2229 73.8891 58.8275L73.4912 59.7449C74.2301 60.0654 74.7529 60.5243 75.0906 61.1153L75.9588 60.6191ZM73.8958 58.8305C72.9958 58.4244 71.8908 58.2344 70.6028 58.2344V59.2344C71.8006 59.2344 72.7538 59.4123 73.4845 59.742L73.8958 58.8305ZM70.6028 58.2344H66.2477V59.2344H70.6028V58.2344ZM65.7477 58.7344V84H66.7477V58.7344H65.7477ZM66.2477 83.5H59.7896V84.5H66.2477V83.5ZM75.8465 70.3391L83.4381 84.2397L84.3158 83.7603L76.7242 69.8598L75.8465 70.3391ZM83.877 83.5H76.7477V84.5H83.877V83.5ZM77.1887 83.7644L69.7611 69.8638L68.8791 70.3351L76.3067 84.2356L77.1887 83.7644ZM69.3201 70.5994H76.2853V69.5994H69.3201V70.5994ZM112.901 53.4545H113.401V52.9545H112.901V53.4545ZM112.901 84V84.5H113.401V84H112.901ZM107.323 84L106.912 84.2843L107.061 84.5H107.323V84ZM94.0339 64.7749L94.4452 64.4906L94.2961 64.2749H94.0339V64.7749ZM93.8102 64.7749V64.2749H93.3102V64.7749H93.8102ZM93.8102 84V84.5H94.3102V84H93.8102ZM87.3521 84H86.8521V84.5H87.3521V84ZM87.3521 53.4545V52.9545H86.8521V53.4545H87.3521ZM93.0197 53.4545L93.432 53.1716L93.283 52.9545H93.0197V53.4545ZM106.204 72.6648L105.792 72.9477L105.941 73.1648H106.204V72.6648ZM106.473 72.6648V73.1648H106.973V72.6648H106.473ZM106.473 53.4545V52.9545H105.973V53.4545H106.473ZM112.401 53.4545V84H113.401V53.4545H112.401ZM112.901 83.5H107.323V84.5H112.901V83.5ZM107.734 83.7157L94.4452 64.4906L93.6226 65.0592L106.912 84.2843L107.734 83.7157ZM94.0339 64.2749H93.8102V65.2749H94.0339V64.2749ZM93.3102 64.7749V84H94.3102V64.7749H93.3102ZM93.8102 83.5H87.3521V84.5H93.8102V83.5ZM87.8521 84V53.4545H86.8521V84H87.8521ZM87.3521 53.9545H93.0197V52.9545H87.3521V53.9545ZM92.6075 53.7375L105.792 72.9477L106.617 72.3818L93.432 53.1716L92.6075 53.7375ZM106.204 73.1648H106.473V72.1648H106.204V73.1648ZM106.973 72.6648V53.4545H105.973V72.6648H106.973ZM106.473 53.9545H112.901V52.9545H106.473V53.9545Z" fill="url(#paint2_linear_3303_5903)" fill-opacity="0.5"/>
<path d="M2.65483 84H2.15483V84.5H2.65483V84ZM2.65483 53.4545V52.9545H2.15483V53.4545H2.65483ZM23.2372 53.4545H23.7372V52.9545H23.2372V53.4545ZM23.2372 58.7791V59.2791H23.7372V58.7791H23.2372ZM9.11293 58.7791V58.2791H8.61293V58.7791H9.11293ZM9.11293 66.0575H8.61293V66.5575H9.11293V66.0575ZM22.1783 66.0575H22.6783V65.5575H22.1783V66.0575ZM22.1783 71.3821V71.8821H22.6783V71.3821H22.1783ZM9.11293 71.3821V70.8821H8.61293V71.3821H9.11293ZM9.11293 78.6754H8.61293V79.1754H9.11293V78.6754ZM23.2969 78.6754H23.7969V78.1754H23.2969V78.6754ZM23.2969 84V84.5H23.7969V84H23.2969ZM3.15483 84V53.4545H2.15483V84H3.15483ZM2.65483 53.9545H23.2372V52.9545H2.65483V53.9545ZM22.7372 53.4545V58.7791H23.7372V53.4545H22.7372ZM23.2372 58.2791H9.11293V59.2791H23.2372V58.2791ZM8.61293 58.7791V66.0575H9.61293V58.7791H8.61293ZM9.11293 66.5575H22.1783V65.5575H9.11293V66.5575ZM21.6783 66.0575V71.3821H22.6783V66.0575H21.6783ZM22.1783 70.8821H9.11293V71.8821H22.1783V70.8821ZM8.61293 71.3821V78.6754H9.61293V71.3821H8.61293ZM9.11293 79.1754H23.2969V78.1754H9.11293V79.1754ZM22.7969 78.6754V84H23.7969V78.6754H22.7969ZM23.2969 83.5H2.65483V84.5H23.2969V83.5ZM33.6365 84V84.5H33.9997L34.112 84.1547L33.6365 84ZM26.7161 84L26.2435 83.8368L26.0145 84.5H26.7161V84ZM37.2608 53.4545V52.9545H36.9045L36.7882 53.2914L37.2608 53.4545ZM45.5833 53.4545L46.056 53.2916L45.9398 52.9545H45.5833V53.4545ZM56.1131 84V84.5H56.8143L56.5858 83.837L56.1131 84ZM49.1926 84L48.7171 84.1544L48.8293 84.5H49.1926V84ZM41.5414 60.4347L42.0169 60.2803L41.9047 59.9347H41.5414V60.4347ZM41.3027 60.4347V59.9347H40.9396L40.8273 60.28L41.3027 60.4347ZM33.204 71.9936V71.4936H32.704V71.9936H33.204ZM49.5506 71.9936H50.0506V71.4936H49.5506V71.9936ZM49.5506 77.0348V77.5348H50.0506V77.0348H49.5506ZM33.204 77.0348H32.704V77.5348H33.204V77.0348ZM33.6365 83.5H26.7161V84.5H33.6365V83.5ZM27.1887 84.1632L37.7335 53.6177L36.7882 53.2914L26.2435 83.8368L27.1887 84.1632ZM37.2608 53.9545H45.5833V52.9545H37.2608V53.9545ZM45.1106 53.6175L55.6404 84.163L56.5858 83.837L46.056 53.2916L45.1106 53.6175ZM56.1131 83.5H49.1926V84.5H56.1131V83.5ZM49.6682 83.8456L42.0169 60.2803L41.0658 60.5891L48.7171 84.1544L49.6682 83.8456ZM41.5414 59.9347H41.3027V60.9347H41.5414V59.9347ZM40.8273 60.28L33.1611 83.8453L34.112 84.1547L41.7782 60.5893L40.8273 60.28ZM33.204 72.4936H49.5506V71.4936H33.204V72.4936ZM49.0506 71.9936V77.0348H50.0506V71.9936H49.0506ZM49.5506 76.5348H33.204V77.5348H49.5506V76.5348ZM33.704 77.0348V71.9936H32.704V77.0348H33.704ZM59.7896 84H59.2896V84.5H59.7896V84ZM59.7896 53.4545V52.9545H59.2896V53.4545H59.7896ZM77.747 54.6925L77.5212 55.1386L77.5245 55.1402L77.747 54.6925ZM81.4906 58.1676L81.0561 58.4151L81.0581 58.4185L81.4906 58.1676ZM81.4757 68.6676L81.9039 68.9257L81.9047 68.9244L81.4757 68.6676ZM77.6724 72.0085L77.4608 71.5555L77.4598 71.556L77.6724 72.0085ZM63.6078 73.1719H63.1078V73.6719H63.6078V73.1719ZM63.6078 67.9815V67.4815H63.1078V67.9815H63.6078ZM73.7051 67.4744L73.8966 67.9363L73.7051 67.4744ZM75.5247 65.9531L75.0965 65.6949L75.0937 65.6996L75.5247 65.9531ZM75.5247 60.8672L75.0905 61.1153L75.0932 61.1199L75.5247 60.8672ZM73.6902 59.2862L73.4845 59.742L73.4912 59.7449L73.6902 59.2862ZM66.2477 58.7344V58.2344H65.7477V58.7344H66.2477ZM66.2477 84V84.5H66.7477V84H66.2477ZM76.2853 70.0994L76.7242 69.8598L76.582 69.5994H76.2853V70.0994ZM83.877 84V84.5H84.7197L84.3158 83.7603L83.877 84ZM76.7477 84L76.3067 84.2356L76.448 84.5H76.7477V84ZM69.3201 70.0994V69.5994H68.4861L68.8791 70.3351L69.3201 70.0994ZM60.2896 84V53.4545H59.2896V84H60.2896ZM59.7896 53.9545H71.8407V52.9545H59.7896V53.9545ZM71.8407 53.9545C74.0892 53.9545 75.9764 54.3568 77.5212 55.1386L77.9728 54.2464C76.2562 53.3776 74.2059 52.9545 71.8407 52.9545V53.9545ZM77.5245 55.1402C79.0817 55.9142 80.2532 57.0053 81.0561 58.4151L81.9251 57.9202C81.0177 56.3271 79.6935 55.1015 77.9695 54.2447L77.5245 55.1402ZM81.0581 58.4185C81.8719 59.8216 82.2882 61.487 82.2882 63.4325H83.2882C83.2882 61.3411 82.8394 59.4966 81.9231 57.9168L81.0581 58.4185ZM82.2882 63.4325C82.2882 65.3878 81.867 67.0404 81.0467 68.4108L81.9047 68.9244C82.8343 67.3715 83.2882 65.534 83.2882 63.4325H82.2882ZM81.0474 68.4095C80.2279 69.7692 79.039 70.8184 77.4608 71.5555L77.884 72.4615C79.6268 71.6475 80.9735 70.4694 81.9039 68.9257L81.0474 68.4095ZM77.4598 71.556C75.8919 72.2927 73.9701 72.6719 71.6767 72.6719V73.6719C74.0765 73.6719 76.1517 73.2755 77.885 72.4611L77.4598 71.556ZM71.6767 72.6719H63.6078V73.6719H71.6767V72.6719ZM64.1078 73.1719V67.9815H63.1078V73.1719H64.1078ZM63.6078 68.4815H70.6326V67.4815H63.6078V68.4815ZM70.6326 68.4815C71.9071 68.4815 73.0016 68.3074 73.8966 67.9363L73.5136 67.0126C72.7779 67.3176 71.8241 67.4815 70.6326 67.4815V68.4815ZM73.8966 67.9363C74.7991 67.5621 75.496 66.988 75.9557 66.2066L75.0937 65.6996C74.7579 66.2705 74.2418 66.7106 73.5136 67.0126L73.8966 67.9363ZM75.9529 66.2113C76.4187 65.4387 76.6362 64.5034 76.6362 63.4325H75.6362C75.6362 64.3702 75.446 65.1153 75.0965 65.695L75.9529 66.2113ZM76.6362 63.4325C76.6362 62.3521 76.4189 61.4045 75.9561 60.6145L75.0932 61.1199C75.4458 61.7219 75.6362 62.4846 75.6362 63.4325H76.6362ZM75.9588 60.6191C75.501 59.818 74.8008 59.2229 73.8891 58.8275L73.4912 59.7449C74.2301 60.0654 74.7529 60.5243 75.0906 61.1153L75.9588 60.6191ZM73.8958 58.8305C72.9958 58.4244 71.8908 58.2344 70.6028 58.2344V59.2344C71.8006 59.2344 72.7538 59.4123 73.4845 59.742L73.8958 58.8305ZM70.6028 58.2344H66.2477V59.2344H70.6028V58.2344ZM65.7477 58.7344V84H66.7477V58.7344H65.7477ZM66.2477 83.5H59.7896V84.5H66.2477V83.5ZM75.8465 70.3391L83.4381 84.2397L84.3158 83.7603L76.7242 69.8598L75.8465 70.3391ZM83.877 83.5H76.7477V84.5H83.877V83.5ZM77.1887 83.7644L69.7611 69.8638L68.8791 70.3351L76.3067 84.2356L77.1887 83.7644ZM69.3201 70.5994H76.2853V69.5994H69.3201V70.5994ZM112.901 53.4545H113.401V52.9545H112.901V53.4545ZM112.901 84V84.5H113.401V84H112.901ZM107.323 84L106.912 84.2843L107.061 84.5H107.323V84ZM94.0339 64.7749L94.4452 64.4906L94.2961 64.2749H94.0339V64.7749ZM93.8102 64.7749V64.2749H93.3102V64.7749H93.8102ZM93.8102 84V84.5H94.3102V84H93.8102ZM87.3521 84H86.8521V84.5H87.3521V84ZM87.3521 53.4545V52.9545H86.8521V53.4545H87.3521ZM93.0197 53.4545L93.432 53.1716L93.283 52.9545H93.0197V53.4545ZM106.204 72.6648L105.792 72.9477L105.941 73.1648H106.204V72.6648ZM106.473 72.6648V73.1648H106.973V72.6648H106.473ZM106.473 53.4545V52.9545H105.973V53.4545H106.473ZM112.401 53.4545V84H113.401V53.4545H112.401ZM112.901 83.5H107.323V84.5H112.901V83.5ZM107.734 83.7157L94.4452 64.4906L93.6226 65.0592L106.912 84.2843L107.734 83.7157ZM94.0339 64.2749H93.8102V65.2749H94.0339V64.2749ZM93.3102 64.7749V84H94.3102V64.7749H93.3102ZM93.8102 83.5H87.3521V84.5H93.8102V83.5ZM87.8521 84V53.4545H86.8521V84H87.8521ZM87.3521 53.9545H93.0197V52.9545H87.3521V53.9545ZM92.6075 53.7375L105.792 72.9477L106.617 72.3818L93.432 53.1716L92.6075 53.7375ZM106.204 73.1648H106.473V72.1648H106.204V73.1648ZM106.973 72.6648V53.4545H105.973V72.6648H106.973ZM106.473 53.9545H112.901V52.9545H106.473V53.9545Z" fill="url(#paint3_linear_3303_5903)"/>
<defs>
<linearGradient id="paint0_linear_3303_5903" x1="163.5" y1="30.6563" x2="163.5" y2="0" gradientUnits="userSpaceOnUse">
<stop stop-color="#8247E5"/>
<stop offset="1" stop-color="#8247E5" stop-opacity="0"/>
</linearGradient>
<linearGradient id="paint1_linear_3303_5903" x1="163.5" y1="0" x2="163.5" y2="36" gradientUnits="userSpaceOnUse">
<stop stop-color="white"/>
<stop offset="1" stop-color="white" stop-opacity="0"/>
</linearGradient>
<linearGradient id="paint2_linear_3303_5903" x1="163.5" y1="83.7656" x2="163.5" y2="48" gradientUnits="userSpaceOnUse">
<stop stop-color="#8247E5"/>
<stop offset="1" stop-color="#8247E5" stop-opacity="0"/>
</linearGradient>
<linearGradient id="paint3_linear_3303_5903" x1="163.5" y1="48" x2="163.5" y2="90" gradientUnits="userSpaceOnUse">
<stop stop-color="white"/>
<stop offset="1" stop-color="white" stop-opacity="0"/>
</linearGradient>
</defs>
</svg>
