<svg width="1013" height="256" viewBox="0 0 1013 256" fill="none" xmlns="http://www.w3.org/2000/svg">
<g filter="url(#filter0_b_3195_4342)">
<path d="M44.832 65.456L21.12 30.8H8.448V98H21.6V62.288C21.6 58.832 21.408 55.184 21.12 52.592L21.408 52.496C22.656 54.608 25.056 58.16 27.36 61.424L42.816 84.08H46.464L62.016 61.424C64.608 57.68 66.72 54.32 67.872 52.208L68.16 52.4C67.968 54.992 67.776 58.544 67.776 62.096V98H80.928V30.8H68.256L44.832 65.456ZM128.416 99.536C150.016 99.536 164.224 85.424 164.224 64.112C164.224 43.28 150.112 29.264 129.28 29.264C107.68 29.264 93.4718 43.376 93.4718 64.688C93.4718 85.52 107.584 99.536 128.416 99.536ZM128.704 87.632C115.744 87.632 107.008 78.224 107.008 64.112C107.008 50.576 115.84 41.168 128.992 41.168C141.952 41.168 150.688 50.576 150.688 64.688C150.688 78.32 141.76 87.632 128.704 87.632ZM208.064 98L235.232 30.8H221.024L208.832 62.192C204.608 73.04 202.88 78.896 201.536 83.408H201.344C200 78.896 197.216 70.448 194.048 62.192L181.76 30.8H167.264L194.432 98H208.064ZM257.285 69.584H289.829V58.256H257.285V42.32H291.557V30.8H244.229V98H292.325V86.384H257.285V69.584ZM319.349 30.8V42.32H340.373V98H353.621V42.32H374.741V30.8H319.349ZM413.978 99.536C435.578 99.536 449.786 85.424 449.786 64.112C449.786 43.28 435.674 29.264 414.842 29.264C393.242 29.264 379.034 43.376 379.034 64.688C379.034 85.52 393.146 99.536 413.978 99.536ZM414.266 87.632C401.306 87.632 392.57 78.224 392.57 64.112C392.57 50.576 401.402 41.168 414.554 41.168C427.514 41.168 436.25 50.576 436.25 64.688C436.25 78.32 427.322 87.632 414.266 87.632Z" fill="white" fill-opacity="0.08"/>
<path d="M44.832 65.456L43.1814 66.5854L44.8421 69.0126L46.489 66.576L44.832 65.456ZM21.12 30.8L22.7706 29.6706L22.1749 28.8H21.12V30.8ZM8.448 30.8V28.8H6.448V30.8H8.448ZM8.448 98H6.448V100H8.448V98ZM21.6 98V100H23.6V98H21.6ZM21.12 52.592L20.4875 50.6946L18.9537 51.2059L19.1322 52.8129L21.12 52.592ZM21.408 52.496L23.1299 51.4785L22.308 50.0878L20.7755 50.5986L21.408 52.496ZM27.36 61.424L29.0122 60.2969L29.0032 60.2837L28.9939 60.2706L27.36 61.424ZM42.816 84.08L41.1638 85.2071L41.7593 86.08H42.816V84.08ZM46.464 84.08V86.08H47.517L48.1129 85.2119L46.464 84.08ZM62.016 61.424L60.3716 60.2856L60.3671 60.2921L62.016 61.424ZM67.872 52.208L68.9814 50.5439L67.1628 49.3315L66.1162 51.2503L67.872 52.208ZM68.16 52.4L70.1545 52.5477L70.2408 51.3835L69.2694 50.7359L68.16 52.4ZM67.776 98H65.776V100H67.776V98ZM80.928 98V100H82.928V98H80.928ZM80.928 30.8H82.928V28.8H80.928V30.8ZM68.256 30.8V28.8H67.1938L66.599 29.68L68.256 30.8ZM46.4826 64.3266L22.7706 29.6706L19.4694 31.9294L43.1814 66.5854L46.4826 64.3266ZM21.12 28.8H8.448V32.8H21.12V28.8ZM6.448 30.8V98H10.448V30.8H6.448ZM8.448 100H21.6V96H8.448V100ZM23.6 98V62.288H19.6V98H23.6ZM23.6 62.288C23.6 58.7722 23.4053 55.0492 23.1078 52.3711L19.1322 52.8129C19.4107 55.3188 19.6 58.8918 19.6 62.288H23.6ZM21.7525 54.4894L22.0405 54.3934L20.7755 50.5986L20.4875 50.6946L21.7525 54.4894ZM19.6861 53.5135C20.9787 55.7009 23.4195 59.3098 25.7261 62.5774L28.9939 60.2706C26.6925 57.0102 24.3333 53.5151 23.1299 51.4785L19.6861 53.5135ZM25.7078 62.5511L41.1638 85.2071L44.4682 82.9529L29.0122 60.2969L25.7078 62.5511ZM42.816 86.08H46.464V82.08H42.816V86.08ZM48.1129 85.2119L63.6649 62.5559L60.3671 60.2921L44.8151 82.9481L48.1129 85.2119ZM63.6604 62.5624C66.2718 58.7903 68.428 55.3654 69.6278 53.1657L66.1162 51.2503C65.012 53.2746 62.9442 56.5697 60.3716 60.2856L63.6604 62.5624ZM66.7626 53.8721L67.0506 54.0641L69.2694 50.7359L68.9814 50.5439L66.7626 53.8721ZM66.1655 52.2523C65.9712 54.8747 65.776 58.4789 65.776 62.096H69.776C69.776 58.6091 69.9648 55.1093 70.1545 52.5477L66.1655 52.2523ZM65.776 62.096V98H69.776V62.096H65.776ZM67.776 100H80.928V96H67.776V100ZM82.928 98V30.8H78.928V98H82.928ZM80.928 28.8H68.256V32.8H80.928V28.8ZM66.599 29.68L43.175 64.336L46.489 66.576L69.913 31.92L66.599 29.68ZM128.416 101.536C139.659 101.536 149.145 97.8548 155.827 91.237C162.511 84.6176 166.224 75.2233 166.224 64.112H162.224C162.224 74.3127 158.833 82.6304 153.012 88.395C147.19 94.1612 138.772 97.536 128.416 97.536V101.536ZM166.224 64.112C166.224 53.2329 162.53 43.9882 155.975 37.459C149.421 30.9307 140.154 27.264 129.28 27.264V31.264C139.237 31.264 147.442 34.6053 153.152 40.293C158.862 45.9798 162.224 54.1591 162.224 64.112H166.224ZM129.28 27.264C118.036 27.264 108.55 30.9452 101.868 37.563C95.1848 44.1824 91.4717 53.5767 91.4717 64.688H95.4717C95.4717 54.4873 98.8627 46.1696 104.683 40.405C110.505 34.6388 118.923 31.264 129.28 31.264V27.264ZM91.4717 64.688C91.4717 75.5671 95.1655 84.8118 101.72 91.341C108.274 97.8693 117.541 101.536 128.416 101.536V97.536C118.458 97.536 110.253 94.1947 104.543 88.507C98.834 82.8202 95.4717 74.6409 95.4717 64.688H91.4717ZM128.704 85.632C122.731 85.632 117.857 83.4773 114.465 79.8065C111.059 76.1221 109.008 70.7561 109.008 64.112H105.008C105.008 71.5799 107.324 77.9739 111.527 82.5214C115.742 87.0827 121.716 89.632 128.704 89.632V85.632ZM109.008 64.112C109.008 57.7828 111.067 52.5647 114.516 48.9434C117.957 45.331 122.912 43.168 128.992 43.168V39.168C121.919 39.168 115.883 41.709 111.62 46.1846C107.365 50.6513 105.008 56.9052 105.008 64.112H109.008ZM128.992 43.168C134.964 43.168 139.838 45.3227 143.231 48.9935C146.636 52.6779 148.688 58.0439 148.688 64.688H152.688C152.688 57.2201 150.371 50.8261 146.169 46.2785C141.953 41.7173 135.979 39.168 128.992 39.168V43.168ZM148.688 64.688C148.688 71.0622 146.607 76.2787 143.148 79.8882C139.695 83.4908 134.738 85.632 128.704 85.632V89.632C135.725 89.632 141.76 87.1172 146.036 82.6558C150.305 78.2013 152.688 71.9458 152.688 64.688H148.688ZM208.064 98V100H209.412L209.918 98.7496L208.064 98ZM235.232 30.8L237.086 31.5496L238.197 28.8H235.232V30.8ZM221.023 30.8V28.8H219.655L219.159 30.0759L221.023 30.8ZM208.831 62.192L210.695 62.9177L210.696 62.9161L208.831 62.192ZM201.536 83.408V85.408H203.027L203.452 83.979L201.536 83.408ZM201.344 83.408L199.427 83.979L199.852 85.408H201.344V83.408ZM194.048 62.192L195.915 61.4755L195.91 61.463L194.048 62.192ZM181.76 30.8L183.622 30.071L183.124 28.8H181.76V30.8ZM167.264 30.8V28.8H164.298L165.409 31.5496L167.264 30.8ZM194.432 98L192.577 98.7496L193.083 100H194.432V98ZM209.918 98.7496L237.086 31.5496L233.377 30.0504L206.209 97.2504L209.918 98.7496ZM235.232 28.8H221.023V32.8H235.232V28.8ZM219.159 30.0759L206.967 61.4679L210.696 62.9161L222.888 31.5241L219.159 30.0759ZM206.968 61.4663C202.717 72.3844 200.971 78.2973 199.619 82.837L203.452 83.979C204.788 79.4947 206.498 73.6956 210.695 62.9177L206.968 61.4663ZM201.536 81.408H201.344V85.408H201.536V81.408ZM203.26 82.837C201.902 78.2769 199.101 69.7803 195.915 61.4755L192.18 62.9085C195.33 71.1157 198.097 79.5151 199.427 83.979L203.26 82.837ZM195.91 61.463L183.622 30.071L179.897 31.529L192.185 62.921L195.91 61.463ZM181.76 28.8H167.264V32.8H181.76V28.8ZM165.409 31.5496L192.577 98.7496L196.286 97.2504L169.118 30.0504L165.409 31.5496ZM194.432 100H208.064V96H194.432V100ZM257.285 69.584V67.584H255.285V69.584H257.285ZM289.829 69.584V71.584H291.829V69.584H289.829ZM289.829 58.256H291.829V56.256H289.829V58.256ZM257.285 58.256H255.285V60.256H257.285V58.256ZM257.285 42.32V40.32H255.285V42.32H257.285ZM291.557 42.32V44.32H293.557V42.32H291.557ZM291.557 30.8H293.557V28.8H291.557V30.8ZM244.229 30.8V28.8H242.229V30.8H244.229ZM244.229 98H242.229V100H244.229V98ZM292.325 98V100H294.325V98H292.325ZM292.325 86.384H294.325V84.384H292.325V86.384ZM257.285 86.384H255.285V88.384H257.285V86.384ZM257.285 71.584H289.829V67.584H257.285V71.584ZM291.829 69.584V58.256H287.829V69.584H291.829ZM289.829 56.256H257.285V60.256H289.829V56.256ZM259.285 58.256V42.32H255.285V58.256H259.285ZM257.285 44.32H291.557V40.32H257.285V44.32ZM293.557 42.32V30.8H289.557V42.32H293.557ZM291.557 28.8H244.229V32.8H291.557V28.8ZM242.229 30.8V98H246.229V30.8H242.229ZM244.229 100H292.325V96H244.229V100ZM294.325 98V86.384H290.325V98H294.325ZM292.325 84.384H257.285V88.384H292.325V84.384ZM259.285 86.384V69.584H255.285V86.384H259.285ZM319.349 30.8V28.8H317.349V30.8H319.349ZM319.349 42.32H317.349V44.32H319.349V42.32ZM340.372 42.32H342.372V40.32H340.372V42.32ZM340.372 98H338.372V100H340.372V98ZM353.621 98V100H355.621V98H353.621ZM353.621 42.32V40.32H351.621V42.32H353.621ZM374.741 42.32V44.32H376.741V42.32H374.741ZM374.741 30.8H376.741V28.8H374.741V30.8ZM317.349 30.8V42.32H321.349V30.8H317.349ZM319.349 44.32H340.372V40.32H319.349V44.32ZM338.372 42.32V98H342.372V42.32H338.372ZM340.372 100H353.621V96H340.372V100ZM355.621 98V42.32H351.621V98H355.621ZM353.621 44.32H374.741V40.32H353.621V44.32ZM376.741 42.32V30.8H372.741V42.32H376.741ZM374.741 28.8H319.349V32.8H374.741V28.8ZM413.978 101.536C425.222 101.536 434.708 97.8548 441.39 91.237C448.073 84.6176 451.786 75.2233 451.786 64.112H447.786C447.786 74.3127 444.395 82.6304 438.575 88.395C432.753 94.1612 424.335 97.536 413.978 97.536V101.536ZM451.786 64.112C451.786 53.2329 448.092 43.9882 441.538 37.459C434.984 30.9307 425.717 27.264 414.842 27.264V31.264C424.8 31.264 433.005 34.6053 438.715 40.293C444.424 45.9798 447.786 54.1591 447.786 64.112H451.786ZM414.842 27.264C403.599 27.264 394.113 30.9452 387.431 37.563C380.747 44.1824 377.034 53.5767 377.034 64.688H381.034C381.034 54.4873 384.425 46.1696 390.246 40.405C396.068 34.6388 404.486 31.264 414.842 31.264V27.264ZM377.034 64.688C377.034 75.5671 380.728 84.8118 387.283 91.341C393.837 97.8693 403.104 101.536 413.978 101.536V97.536C404.021 97.536 395.816 94.1947 390.106 88.507C384.396 82.8202 381.034 74.6409 381.034 64.688H377.034ZM414.266 85.632C408.294 85.632 403.42 83.4773 400.027 79.8065C396.622 76.1221 394.57 70.7561 394.57 64.112H390.57C390.57 71.5799 392.887 77.9739 397.089 82.5214C401.305 87.0827 407.279 89.632 414.266 89.632V85.632ZM394.57 64.112C394.57 57.7828 396.629 52.5647 400.078 48.9434C403.519 45.331 408.475 43.168 414.554 43.168V39.168C407.482 39.168 401.445 41.709 397.182 46.1846C392.927 50.6513 390.57 56.9052 390.57 64.112H394.57ZM414.554 43.168C420.527 43.168 425.401 45.3227 428.793 48.9935C432.199 52.6779 434.25 58.0439 434.25 64.688H438.25C438.25 57.2201 435.934 50.8261 431.731 46.2785C427.516 41.7173 421.542 39.168 414.554 39.168V43.168ZM434.25 64.688C434.25 71.0622 432.169 76.2787 428.71 79.8882C425.258 83.4908 420.301 85.632 414.266 85.632V89.632C421.288 89.632 427.323 87.1172 431.598 82.6558C435.867 78.2013 438.25 71.9458 438.25 64.688H434.25Z" fill="url(#paint0_linear_3195_4342)" fill-opacity="0.5"/>
<path d="M44.832 65.456L43.1814 66.5854L44.8421 69.0126L46.489 66.576L44.832 65.456ZM21.12 30.8L22.7706 29.6706L22.1749 28.8H21.12V30.8ZM8.448 30.8V28.8H6.448V30.8H8.448ZM8.448 98H6.448V100H8.448V98ZM21.6 98V100H23.6V98H21.6ZM21.12 52.592L20.4875 50.6946L18.9537 51.2059L19.1322 52.8129L21.12 52.592ZM21.408 52.496L23.1299 51.4785L22.308 50.0878L20.7755 50.5986L21.408 52.496ZM27.36 61.424L29.0122 60.2969L29.0032 60.2837L28.9939 60.2706L27.36 61.424ZM42.816 84.08L41.1638 85.2071L41.7593 86.08H42.816V84.08ZM46.464 84.08V86.08H47.517L48.1129 85.2119L46.464 84.08ZM62.016 61.424L60.3716 60.2856L60.3671 60.2921L62.016 61.424ZM67.872 52.208L68.9814 50.5439L67.1628 49.3315L66.1162 51.2503L67.872 52.208ZM68.16 52.4L70.1545 52.5477L70.2408 51.3835L69.2694 50.7359L68.16 52.4ZM67.776 98H65.776V100H67.776V98ZM80.928 98V100H82.928V98H80.928ZM80.928 30.8H82.928V28.8H80.928V30.8ZM68.256 30.8V28.8H67.1938L66.599 29.68L68.256 30.8ZM46.4826 64.3266L22.7706 29.6706L19.4694 31.9294L43.1814 66.5854L46.4826 64.3266ZM21.12 28.8H8.448V32.8H21.12V28.8ZM6.448 30.8V98H10.448V30.8H6.448ZM8.448 100H21.6V96H8.448V100ZM23.6 98V62.288H19.6V98H23.6ZM23.6 62.288C23.6 58.7722 23.4053 55.0492 23.1078 52.3711L19.1322 52.8129C19.4107 55.3188 19.6 58.8918 19.6 62.288H23.6ZM21.7525 54.4894L22.0405 54.3934L20.7755 50.5986L20.4875 50.6946L21.7525 54.4894ZM19.6861 53.5135C20.9787 55.7009 23.4195 59.3098 25.7261 62.5774L28.9939 60.2706C26.6925 57.0102 24.3333 53.5151 23.1299 51.4785L19.6861 53.5135ZM25.7078 62.5511L41.1638 85.2071L44.4682 82.9529L29.0122 60.2969L25.7078 62.5511ZM42.816 86.08H46.464V82.08H42.816V86.08ZM48.1129 85.2119L63.6649 62.5559L60.3671 60.2921L44.8151 82.9481L48.1129 85.2119ZM63.6604 62.5624C66.2718 58.7903 68.428 55.3654 69.6278 53.1657L66.1162 51.2503C65.012 53.2746 62.9442 56.5697 60.3716 60.2856L63.6604 62.5624ZM66.7626 53.8721L67.0506 54.0641L69.2694 50.7359L68.9814 50.5439L66.7626 53.8721ZM66.1655 52.2523C65.9712 54.8747 65.776 58.4789 65.776 62.096H69.776C69.776 58.6091 69.9648 55.1093 70.1545 52.5477L66.1655 52.2523ZM65.776 62.096V98H69.776V62.096H65.776ZM67.776 100H80.928V96H67.776V100ZM82.928 98V30.8H78.928V98H82.928ZM80.928 28.8H68.256V32.8H80.928V28.8ZM66.599 29.68L43.175 64.336L46.489 66.576L69.913 31.92L66.599 29.68ZM128.416 101.536C139.659 101.536 149.145 97.8548 155.827 91.237C162.511 84.6176 166.224 75.2233 166.224 64.112H162.224C162.224 74.3127 158.833 82.6304 153.012 88.395C147.19 94.1612 138.772 97.536 128.416 97.536V101.536ZM166.224 64.112C166.224 53.2329 162.53 43.9882 155.975 37.459C149.421 30.9307 140.154 27.264 129.28 27.264V31.264C139.237 31.264 147.442 34.6053 153.152 40.293C158.862 45.9798 162.224 54.1591 162.224 64.112H166.224ZM129.28 27.264C118.036 27.264 108.55 30.9452 101.868 37.563C95.1848 44.1824 91.4717 53.5767 91.4717 64.688H95.4717C95.4717 54.4873 98.8627 46.1696 104.683 40.405C110.505 34.6388 118.923 31.264 129.28 31.264V27.264ZM91.4717 64.688C91.4717 75.5671 95.1655 84.8118 101.72 91.341C108.274 97.8693 117.541 101.536 128.416 101.536V97.536C118.458 97.536 110.253 94.1947 104.543 88.507C98.834 82.8202 95.4717 74.6409 95.4717 64.688H91.4717ZM128.704 85.632C122.731 85.632 117.857 83.4773 114.465 79.8065C111.059 76.1221 109.008 70.7561 109.008 64.112H105.008C105.008 71.5799 107.324 77.9739 111.527 82.5214C115.742 87.0827 121.716 89.632 128.704 89.632V85.632ZM109.008 64.112C109.008 57.7828 111.067 52.5647 114.516 48.9434C117.957 45.331 122.912 43.168 128.992 43.168V39.168C121.919 39.168 115.883 41.709 111.62 46.1846C107.365 50.6513 105.008 56.9052 105.008 64.112H109.008ZM128.992 43.168C134.964 43.168 139.838 45.3227 143.231 48.9935C146.636 52.6779 148.688 58.0439 148.688 64.688H152.688C152.688 57.2201 150.371 50.8261 146.169 46.2785C141.953 41.7173 135.979 39.168 128.992 39.168V43.168ZM148.688 64.688C148.688 71.0622 146.607 76.2787 143.148 79.8882C139.695 83.4908 134.738 85.632 128.704 85.632V89.632C135.725 89.632 141.76 87.1172 146.036 82.6558C150.305 78.2013 152.688 71.9458 152.688 64.688H148.688ZM208.064 98V100H209.412L209.918 98.7496L208.064 98ZM235.232 30.8L237.086 31.5496L238.197 28.8H235.232V30.8ZM221.023 30.8V28.8H219.655L219.159 30.0759L221.023 30.8ZM208.831 62.192L210.695 62.9177L210.696 62.9161L208.831 62.192ZM201.536 83.408V85.408H203.027L203.452 83.979L201.536 83.408ZM201.344 83.408L199.427 83.979L199.852 85.408H201.344V83.408ZM194.048 62.192L195.915 61.4755L195.91 61.463L194.048 62.192ZM181.76 30.8L183.622 30.071L183.124 28.8H181.76V30.8ZM167.264 30.8V28.8H164.298L165.409 31.5496L167.264 30.8ZM194.432 98L192.577 98.7496L193.083 100H194.432V98ZM209.918 98.7496L237.086 31.5496L233.377 30.0504L206.209 97.2504L209.918 98.7496ZM235.232 28.8H221.023V32.8H235.232V28.8ZM219.159 30.0759L206.967 61.4679L210.696 62.9161L222.888 31.5241L219.159 30.0759ZM206.968 61.4663C202.717 72.3844 200.971 78.2973 199.619 82.837L203.452 83.979C204.788 79.4947 206.498 73.6956 210.695 62.9177L206.968 61.4663ZM201.536 81.408H201.344V85.408H201.536V81.408ZM203.26 82.837C201.902 78.2769 199.101 69.7803 195.915 61.4755L192.18 62.9085C195.33 71.1157 198.097 79.5151 199.427 83.979L203.26 82.837ZM195.91 61.463L183.622 30.071L179.897 31.529L192.185 62.921L195.91 61.463ZM181.76 28.8H167.264V32.8H181.76V28.8ZM165.409 31.5496L192.577 98.7496L196.286 97.2504L169.118 30.0504L165.409 31.5496ZM194.432 100H208.064V96H194.432V100ZM257.285 69.584V67.584H255.285V69.584H257.285ZM289.829 69.584V71.584H291.829V69.584H289.829ZM289.829 58.256H291.829V56.256H289.829V58.256ZM257.285 58.256H255.285V60.256H257.285V58.256ZM257.285 42.32V40.32H255.285V42.32H257.285ZM291.557 42.32V44.32H293.557V42.32H291.557ZM291.557 30.8H293.557V28.8H291.557V30.8ZM244.229 30.8V28.8H242.229V30.8H244.229ZM244.229 98H242.229V100H244.229V98ZM292.325 98V100H294.325V98H292.325ZM292.325 86.384H294.325V84.384H292.325V86.384ZM257.285 86.384H255.285V88.384H257.285V86.384ZM257.285 71.584H289.829V67.584H257.285V71.584ZM291.829 69.584V58.256H287.829V69.584H291.829ZM289.829 56.256H257.285V60.256H289.829V56.256ZM259.285 58.256V42.32H255.285V58.256H259.285ZM257.285 44.32H291.557V40.32H257.285V44.32ZM293.557 42.32V30.8H289.557V42.32H293.557ZM291.557 28.8H244.229V32.8H291.557V28.8ZM242.229 30.8V98H246.229V30.8H242.229ZM244.229 100H292.325V96H244.229V100ZM294.325 98V86.384H290.325V98H294.325ZM292.325 84.384H257.285V88.384H292.325V84.384ZM259.285 86.384V69.584H255.285V86.384H259.285ZM319.349 30.8V28.8H317.349V30.8H319.349ZM319.349 42.32H317.349V44.32H319.349V42.32ZM340.372 42.32H342.372V40.32H340.372V42.32ZM340.372 98H338.372V100H340.372V98ZM353.621 98V100H355.621V98H353.621ZM353.621 42.32V40.32H351.621V42.32H353.621ZM374.741 42.32V44.32H376.741V42.32H374.741ZM374.741 30.8H376.741V28.8H374.741V30.8ZM317.349 30.8V42.32H321.349V30.8H317.349ZM319.349 44.32H340.372V40.32H319.349V44.32ZM338.372 42.32V98H342.372V42.32H338.372ZM340.372 100H353.621V96H340.372V100ZM355.621 98V42.32H351.621V98H355.621ZM353.621 44.32H374.741V40.32H353.621V44.32ZM376.741 42.32V30.8H372.741V42.32H376.741ZM374.741 28.8H319.349V32.8H374.741V28.8ZM413.978 101.536C425.222 101.536 434.708 97.8548 441.39 91.237C448.073 84.6176 451.786 75.2233 451.786 64.112H447.786C447.786 74.3127 444.395 82.6304 438.575 88.395C432.753 94.1612 424.335 97.536 413.978 97.536V101.536ZM451.786 64.112C451.786 53.2329 448.092 43.9882 441.538 37.459C434.984 30.9307 425.717 27.264 414.842 27.264V31.264C424.8 31.264 433.005 34.6053 438.715 40.293C444.424 45.9798 447.786 54.1591 447.786 64.112H451.786ZM414.842 27.264C403.599 27.264 394.113 30.9452 387.431 37.563C380.747 44.1824 377.034 53.5767 377.034 64.688H381.034C381.034 54.4873 384.425 46.1696 390.246 40.405C396.068 34.6388 404.486 31.264 414.842 31.264V27.264ZM377.034 64.688C377.034 75.5671 380.728 84.8118 387.283 91.341C393.837 97.8693 403.104 101.536 413.978 101.536V97.536C404.021 97.536 395.816 94.1947 390.106 88.507C384.396 82.8202 381.034 74.6409 381.034 64.688H377.034ZM414.266 85.632C408.294 85.632 403.42 83.4773 400.027 79.8065C396.622 76.1221 394.57 70.7561 394.57 64.112H390.57C390.57 71.5799 392.887 77.9739 397.089 82.5214C401.305 87.0827 407.279 89.632 414.266 89.632V85.632ZM394.57 64.112C394.57 57.7828 396.629 52.5647 400.078 48.9434C403.519 45.331 408.475 43.168 414.554 43.168V39.168C407.482 39.168 401.445 41.709 397.182 46.1846C392.927 50.6513 390.57 56.9052 390.57 64.112H394.57ZM414.554 43.168C420.527 43.168 425.401 45.3227 428.793 48.9935C432.199 52.6779 434.25 58.0439 434.25 64.688H438.25C438.25 57.2201 435.934 50.8261 431.731 46.2785C427.516 41.7173 421.542 39.168 414.554 39.168V43.168ZM434.25 64.688C434.25 71.0622 432.169 76.2787 428.71 79.8882C425.258 83.4908 420.301 85.632 414.266 85.632V89.632C421.288 89.632 427.323 87.1172 431.598 82.6558C435.867 78.2013 438.25 71.9458 438.25 64.688H434.25Z" fill="url(#paint1_linear_3195_4342)"/>
<path d="M28.672 199.112H72.064V184.008H28.672V162.76H74.368V147.4H11.264V237H75.392V221.512H28.672V199.112ZM180.554 237L141.386 147.4H122.314L83.146 237H101.962L109.514 219.464H153.674L161.226 237H180.554ZM125.898 178.632C128.842 171.08 130.762 166.344 131.53 164.168H131.914C132.554 166.216 134.218 170.696 137.29 178.376L147.402 204.104H115.786L125.898 178.632ZM267.26 237L240.764 205.512C254.332 201.928 262.652 191.432 262.652 176.968C262.652 159.304 249.596 147.4 230.652 147.4H192.764V237H210.684V206.92H221.18L245.628 237H267.26ZM244.86 177.736C244.86 186.824 239.1 192.2 229.244 192.2H210.556V162.76H229.116C239.1 162.76 244.86 168.264 244.86 177.736ZM298.922 237V191.432C298.922 184.392 298.666 178.888 298.026 175.432L298.41 175.176C300.202 177.864 302.378 181.064 306.858 187.336L342.954 237H359.594V147.4H342.058V192.968C342.058 200.008 342.442 205.128 343.082 209.096L342.698 209.224C340.65 206.28 338.474 203.08 334.122 197.064L298.154 147.4H281.514V237H298.922Z" fill="white" fill-opacity="0.08"/>
<path d="M28.672 199.112V197.112H26.672V199.112H28.672ZM72.064 199.112V201.112H74.064V199.112H72.064ZM72.064 184.008H74.064V182.008H72.064V184.008ZM28.672 184.008H26.672V186.008H28.672V184.008ZM28.672 162.76V160.76H26.672V162.76H28.672ZM74.368 162.76V164.76H76.368V162.76H74.368ZM74.368 147.4H76.368V145.4H74.368V147.4ZM11.264 147.4V145.4H9.264V147.4H11.264ZM11.264 237H9.264V239H11.264V237ZM75.392 237V239H77.392V237H75.392ZM75.392 221.512H77.392V219.512H75.392V221.512ZM28.672 221.512H26.672V223.512H28.672V221.512ZM28.672 201.112H72.064V197.112H28.672V201.112ZM74.064 199.112V184.008H70.064V199.112H74.064ZM72.064 182.008H28.672V186.008H72.064V182.008ZM30.672 184.008V162.76H26.672V184.008H30.672ZM28.672 164.76H74.368V160.76H28.672V164.76ZM76.368 162.76V147.4H72.368V162.76H76.368ZM74.368 145.4H11.264V149.4H74.368V145.4ZM9.264 147.4V237H13.264V147.4H9.264ZM11.264 239H75.392V235H11.264V239ZM77.392 237V221.512H73.392V237H77.392ZM75.392 219.512H28.672V223.512H75.392V219.512ZM30.672 221.512V199.112H26.672V221.512H30.672ZM180.554 237V239H183.611L182.387 236.199L180.554 237ZM141.386 147.4L143.219 146.599L142.694 145.4H141.386V147.4ZM122.314 147.4V145.4H121.006L120.481 146.599L122.314 147.4ZM83.146 237L81.3134 236.199L80.089 239H83.146V237ZM101.962 237V239H103.278L103.799 237.791L101.962 237ZM109.514 219.464V217.464H108.198L107.677 218.673L109.514 219.464ZM153.674 219.464L155.511 218.673L154.99 217.464H153.674V219.464ZM161.226 237L159.389 237.791L159.91 239H161.226V237ZM125.898 178.632L127.757 179.37L127.761 179.358L125.898 178.632ZM131.53 164.168V162.168H130.115L129.644 163.502L131.53 164.168ZM131.914 164.168L133.823 163.571L133.384 162.168H131.914V164.168ZM137.29 178.376L139.151 177.644L139.147 177.633L137.29 178.376ZM147.402 204.104V206.104H150.337L149.263 203.372L147.402 204.104ZM115.786 204.104L113.927 203.366L112.84 206.104H115.786V204.104ZM182.387 236.199L143.219 146.599L139.553 148.201L178.721 237.801L182.387 236.199ZM141.386 145.4H122.314V149.4H141.386V145.4ZM120.481 146.599L81.3134 236.199L84.9786 237.801L124.147 148.201L120.481 146.599ZM83.146 239H101.962V235H83.146V239ZM103.799 237.791L111.351 220.255L107.677 218.673L100.125 236.209L103.799 237.791ZM109.514 221.464H153.674V217.464H109.514V221.464ZM151.837 220.255L159.389 237.791L163.063 236.209L155.511 218.673L151.837 220.255ZM161.226 239H180.554V235H161.226V239ZM127.761 179.358C130.684 171.862 132.634 167.05 133.416 164.834L129.644 163.502C128.89 165.638 127 170.298 124.035 177.906L127.761 179.358ZM131.53 166.168H131.914V162.168H131.53V166.168ZM130.005 164.765C130.672 166.898 132.365 171.448 135.433 179.119L139.147 177.633C136.071 169.944 134.436 165.534 133.823 163.571L130.005 164.765ZM135.429 179.108L145.541 204.836L149.263 203.372L139.151 177.644L135.429 179.108ZM147.402 202.104H115.786V206.104H147.402V202.104ZM117.645 204.842L127.757 179.37L124.039 177.894L113.927 203.366L117.645 204.842ZM267.26 237V239H271.557L268.79 235.712L267.26 237ZM240.764 205.512L240.253 203.578L237.201 204.384L239.234 206.8L240.764 205.512ZM192.764 147.4V145.4H190.764V147.4H192.764ZM192.764 237H190.764V239H192.764V237ZM210.684 237V239H212.684V237H210.684ZM210.684 206.92V204.92H208.684V206.92H210.684ZM221.18 206.92L222.732 205.659L222.132 204.92H221.18V206.92ZM245.628 237L244.076 238.261L244.676 239H245.628V237ZM210.556 192.2H208.556V194.2H210.556V192.2ZM210.556 162.76V160.76H208.556V162.76H210.556ZM268.79 235.712L242.294 204.224L239.234 206.8L265.73 238.288L268.79 235.712ZM241.275 207.446C255.713 203.632 264.652 192.347 264.652 176.968H260.652C260.652 190.517 252.951 200.224 240.253 203.578L241.275 207.446ZM264.652 176.968C264.652 167.618 261.183 159.678 255.11 154.088C249.052 148.512 240.542 145.4 230.652 145.4V149.4C239.706 149.4 247.196 152.24 252.402 157.032C257.593 161.81 260.652 168.654 260.652 176.968H264.652ZM230.652 145.4H192.764V149.4H230.652V145.4ZM190.764 147.4V237H194.764V147.4H190.764ZM192.764 239H210.684V235H192.764V239ZM212.684 237V206.92H208.684V237H212.684ZM210.684 208.92H221.18V204.92H210.684V208.92ZM219.628 208.181L244.076 238.261L247.18 235.739L222.732 205.659L219.628 208.181ZM245.628 239H267.26V235H245.628V239ZM242.86 177.736C242.86 181.845 241.57 184.884 239.387 186.91C237.184 188.955 233.821 190.2 229.244 190.2V194.2C234.523 194.2 238.968 192.757 242.109 189.842C245.27 186.908 246.86 182.715 246.86 177.736H242.86ZM229.244 190.2H210.556V194.2H229.244V190.2ZM212.556 192.2V162.76H208.556V192.2H212.556ZM210.556 164.76H229.116V160.76H210.556V164.76ZM229.116 164.76C233.751 164.76 237.137 166.034 239.353 168.144C241.555 170.242 242.86 173.411 242.86 177.736H246.86C246.86 172.589 245.285 168.27 242.111 165.248C238.952 162.238 234.465 160.76 229.116 160.76V164.76ZM298.922 237V239H300.922V237H298.922ZM298.026 175.432L296.917 173.768L295.819 174.499L296.059 175.796L298.026 175.432ZM298.41 175.176L300.074 174.067L298.965 172.403L297.301 173.512L298.41 175.176ZM306.858 187.336L305.231 188.498L305.235 188.505L305.24 188.512L306.858 187.336ZM342.954 237L341.336 238.176L341.935 239H342.954V237ZM359.594 237V239H361.594V237H359.594ZM359.594 147.4H361.594V145.4H359.594V147.4ZM342.058 147.4V145.4H340.058V147.4H342.058ZM343.082 209.096L343.714 210.993L345.327 210.456L345.056 208.778L343.082 209.096ZM342.698 209.224L341.056 210.366L341.911 211.595L343.33 211.121L342.698 209.224ZM334.122 197.064L335.742 195.892L335.742 195.891L334.122 197.064ZM298.154 147.4L299.774 146.227L299.175 145.4H298.154V147.4ZM281.514 147.4V145.4H279.514V147.4H281.514ZM281.514 237H279.514V239H281.514V237ZM300.922 237V191.432H296.922V237H300.922ZM300.922 191.432C300.922 184.393 300.67 178.723 299.993 175.068L296.059 175.796C296.663 179.053 296.922 184.391 296.922 191.432H300.922ZM299.135 177.096L299.519 176.84L297.301 173.512L296.917 173.768L299.135 177.096ZM296.746 176.285C298.551 178.993 300.74 182.211 305.231 188.498L308.485 186.174C304.016 179.917 301.853 176.735 300.074 174.067L296.746 176.285ZM305.24 188.512L341.336 238.176L344.572 235.824L308.476 186.16L305.24 188.512ZM342.954 239H359.594V235H342.954V239ZM361.594 237V147.4H357.594V237H361.594ZM359.594 145.4H342.058V149.4H359.594V145.4ZM340.058 147.4V192.968H344.058V147.4H340.058ZM340.058 192.968C340.058 200.075 340.445 205.308 341.108 209.414L345.056 208.778C344.439 204.948 344.058 199.941 344.058 192.968H340.058ZM342.45 207.199L342.066 207.327L343.33 211.121L343.714 210.993L342.45 207.199ZM344.34 208.082C342.298 205.146 340.108 201.927 335.742 195.892L332.502 198.236C336.84 204.233 339.002 207.414 341.056 210.366L344.34 208.082ZM335.742 195.891L299.774 146.227L296.534 148.573L332.502 198.237L335.742 195.891ZM298.154 145.4H281.514V149.4H298.154V145.4ZM279.514 147.4V237H283.514V147.4H279.514ZM281.514 239H298.922V235H281.514V239Z" fill="url(#paint2_linear_3195_4342)" fill-opacity="0.5"/>
<path d="M28.672 199.112V197.112H26.672V199.112H28.672ZM72.064 199.112V201.112H74.064V199.112H72.064ZM72.064 184.008H74.064V182.008H72.064V184.008ZM28.672 184.008H26.672V186.008H28.672V184.008ZM28.672 162.76V160.76H26.672V162.76H28.672ZM74.368 162.76V164.76H76.368V162.76H74.368ZM74.368 147.4H76.368V145.4H74.368V147.4ZM11.264 147.4V145.4H9.264V147.4H11.264ZM11.264 237H9.264V239H11.264V237ZM75.392 237V239H77.392V237H75.392ZM75.392 221.512H77.392V219.512H75.392V221.512ZM28.672 221.512H26.672V223.512H28.672V221.512ZM28.672 201.112H72.064V197.112H28.672V201.112ZM74.064 199.112V184.008H70.064V199.112H74.064ZM72.064 182.008H28.672V186.008H72.064V182.008ZM30.672 184.008V162.76H26.672V184.008H30.672ZM28.672 164.76H74.368V160.76H28.672V164.76ZM76.368 162.76V147.4H72.368V162.76H76.368ZM74.368 145.4H11.264V149.4H74.368V145.4ZM9.264 147.4V237H13.264V147.4H9.264ZM11.264 239H75.392V235H11.264V239ZM77.392 237V221.512H73.392V237H77.392ZM75.392 219.512H28.672V223.512H75.392V219.512ZM30.672 221.512V199.112H26.672V221.512H30.672ZM180.554 237V239H183.611L182.387 236.199L180.554 237ZM141.386 147.4L143.219 146.599L142.694 145.4H141.386V147.4ZM122.314 147.4V145.4H121.006L120.481 146.599L122.314 147.4ZM83.146 237L81.3134 236.199L80.089 239H83.146V237ZM101.962 237V239H103.278L103.799 237.791L101.962 237ZM109.514 219.464V217.464H108.198L107.677 218.673L109.514 219.464ZM153.674 219.464L155.511 218.673L154.99 217.464H153.674V219.464ZM161.226 237L159.389 237.791L159.91 239H161.226V237ZM125.898 178.632L127.757 179.37L127.761 179.358L125.898 178.632ZM131.53 164.168V162.168H130.115L129.644 163.502L131.53 164.168ZM131.914 164.168L133.823 163.571L133.384 162.168H131.914V164.168ZM137.29 178.376L139.151 177.644L139.147 177.633L137.29 178.376ZM147.402 204.104V206.104H150.337L149.263 203.372L147.402 204.104ZM115.786 204.104L113.927 203.366L112.84 206.104H115.786V204.104ZM182.387 236.199L143.219 146.599L139.553 148.201L178.721 237.801L182.387 236.199ZM141.386 145.4H122.314V149.4H141.386V145.4ZM120.481 146.599L81.3134 236.199L84.9786 237.801L124.147 148.201L120.481 146.599ZM83.146 239H101.962V235H83.146V239ZM103.799 237.791L111.351 220.255L107.677 218.673L100.125 236.209L103.799 237.791ZM109.514 221.464H153.674V217.464H109.514V221.464ZM151.837 220.255L159.389 237.791L163.063 236.209L155.511 218.673L151.837 220.255ZM161.226 239H180.554V235H161.226V239ZM127.761 179.358C130.684 171.862 132.634 167.05 133.416 164.834L129.644 163.502C128.89 165.638 127 170.298 124.035 177.906L127.761 179.358ZM131.53 166.168H131.914V162.168H131.53V166.168ZM130.005 164.765C130.672 166.898 132.365 171.448 135.433 179.119L139.147 177.633C136.071 169.944 134.436 165.534 133.823 163.571L130.005 164.765ZM135.429 179.108L145.541 204.836L149.263 203.372L139.151 177.644L135.429 179.108ZM147.402 202.104H115.786V206.104H147.402V202.104ZM117.645 204.842L127.757 179.37L124.039 177.894L113.927 203.366L117.645 204.842ZM267.26 237V239H271.557L268.79 235.712L267.26 237ZM240.764 205.512L240.253 203.578L237.201 204.384L239.234 206.8L240.764 205.512ZM192.764 147.4V145.4H190.764V147.4H192.764ZM192.764 237H190.764V239H192.764V237ZM210.684 237V239H212.684V237H210.684ZM210.684 206.92V204.92H208.684V206.92H210.684ZM221.18 206.92L222.732 205.659L222.132 204.92H221.18V206.92ZM245.628 237L244.076 238.261L244.676 239H245.628V237ZM210.556 192.2H208.556V194.2H210.556V192.2ZM210.556 162.76V160.76H208.556V162.76H210.556ZM268.79 235.712L242.294 204.224L239.234 206.8L265.73 238.288L268.79 235.712ZM241.275 207.446C255.713 203.632 264.652 192.347 264.652 176.968H260.652C260.652 190.517 252.951 200.224 240.253 203.578L241.275 207.446ZM264.652 176.968C264.652 167.618 261.183 159.678 255.11 154.088C249.052 148.512 240.542 145.4 230.652 145.4V149.4C239.706 149.4 247.196 152.24 252.402 157.032C257.593 161.81 260.652 168.654 260.652 176.968H264.652ZM230.652 145.4H192.764V149.4H230.652V145.4ZM190.764 147.4V237H194.764V147.4H190.764ZM192.764 239H210.684V235H192.764V239ZM212.684 237V206.92H208.684V237H212.684ZM210.684 208.92H221.18V204.92H210.684V208.92ZM219.628 208.181L244.076 238.261L247.18 235.739L222.732 205.659L219.628 208.181ZM245.628 239H267.26V235H245.628V239ZM242.86 177.736C242.86 181.845 241.57 184.884 239.387 186.91C237.184 188.955 233.821 190.2 229.244 190.2V194.2C234.523 194.2 238.968 192.757 242.109 189.842C245.27 186.908 246.86 182.715 246.86 177.736H242.86ZM229.244 190.2H210.556V194.2H229.244V190.2ZM212.556 192.2V162.76H208.556V192.2H212.556ZM210.556 164.76H229.116V160.76H210.556V164.76ZM229.116 164.76C233.751 164.76 237.137 166.034 239.353 168.144C241.555 170.242 242.86 173.411 242.86 177.736H246.86C246.86 172.589 245.285 168.27 242.111 165.248C238.952 162.238 234.465 160.76 229.116 160.76V164.76ZM298.922 237V239H300.922V237H298.922ZM298.026 175.432L296.917 173.768L295.819 174.499L296.059 175.796L298.026 175.432ZM298.41 175.176L300.074 174.067L298.965 172.403L297.301 173.512L298.41 175.176ZM306.858 187.336L305.231 188.498L305.235 188.505L305.24 188.512L306.858 187.336ZM342.954 237L341.336 238.176L341.935 239H342.954V237ZM359.594 237V239H361.594V237H359.594ZM359.594 147.4H361.594V145.4H359.594V147.4ZM342.058 147.4V145.4H340.058V147.4H342.058ZM343.082 209.096L343.714 210.993L345.327 210.456L345.056 208.778L343.082 209.096ZM342.698 209.224L341.056 210.366L341.911 211.595L343.33 211.121L342.698 209.224ZM334.122 197.064L335.742 195.892L335.742 195.891L334.122 197.064ZM298.154 147.4L299.774 146.227L299.175 145.4H298.154V147.4ZM281.514 147.4V145.4H279.514V147.4H281.514ZM281.514 237H279.514V239H281.514V237ZM300.922 237V191.432H296.922V237H300.922ZM300.922 191.432C300.922 184.393 300.67 178.723 299.993 175.068L296.059 175.796C296.663 179.053 296.922 184.391 296.922 191.432H300.922ZM299.135 177.096L299.519 176.84L297.301 173.512L296.917 173.768L299.135 177.096ZM296.746 176.285C298.551 178.993 300.74 182.211 305.231 188.498L308.485 186.174C304.016 179.917 301.853 176.735 300.074 174.067L296.746 176.285ZM305.24 188.512L341.336 238.176L344.572 235.824L308.476 186.16L305.24 188.512ZM342.954 239H359.594V235H342.954V239ZM361.594 237V147.4H357.594V237H361.594ZM359.594 145.4H342.058V149.4H359.594V145.4ZM340.058 147.4V192.968H344.058V147.4H340.058ZM340.058 192.968C340.058 200.075 340.445 205.308 341.108 209.414L345.056 208.778C344.439 204.948 344.058 199.941 344.058 192.968H340.058ZM342.45 207.199L342.066 207.327L343.33 211.121L343.714 210.993L342.45 207.199ZM344.34 208.082C342.298 205.146 340.108 201.927 335.742 195.892L332.502 198.236C336.84 204.233 339.002 207.414 341.056 210.366L344.34 208.082ZM335.742 195.891L299.774 146.227L296.534 148.573L332.502 198.237L335.742 195.891ZM298.154 145.4H281.514V149.4H298.154V145.4ZM279.514 147.4V237H283.514V147.4H279.514ZM281.514 239H298.922V235H281.514V239Z" fill="url(#paint3_linear_3195_4342)"/>
</g>
<defs>
<filter id="filter0_b_3195_4342" x="-10" y="-10" width="1033" height="276" filterUnits="userSpaceOnUse" color-interpolation-filters="sRGB">
<feFlood flood-opacity="0" result="BackgroundImageFix"/>
<feGaussianBlur in="BackgroundImage" stdDeviation="5"/>
<feComposite in2="SourceAlpha" operator="in" result="effect1_backgroundBlur_3195_4342"/>
<feBlend mode="normal" in="SourceGraphic" in2="effect1_backgroundBlur_3195_4342" result="shape"/>
</filter>
<linearGradient id="paint0_linear_3195_4342" x1="506.5" y1="109" x2="506.5" y2="0" gradientUnits="userSpaceOnUse">
<stop stop-color="#8247E5"/>
<stop offset="1" stop-color="#8247E5" stop-opacity="0"/>
</linearGradient>
<linearGradient id="paint1_linear_3195_4342" x1="506.5" y1="0" x2="506.5" y2="128" gradientUnits="userSpaceOnUse">
<stop stop-color="white"/>
<stop offset="1" stop-color="white" stop-opacity="0"/>
</linearGradient>
<linearGradient id="paint2_linear_3195_4342" x1="506.5" y1="237" x2="506.5" y2="128" gradientUnits="userSpaceOnUse">
<stop stop-color="#8247E5"/>
<stop offset="1" stop-color="#8247E5" stop-opacity="0"/>
</linearGradient>
<linearGradient id="paint3_linear_3195_4342" x1="506.5" y1="128" x2="506.5" y2="256" gradientUnits="userSpaceOnUse">
<stop stop-color="white"/>
<stop offset="1" stop-color="white" stop-opacity="0"/>
</linearGradient>
</defs>
</svg>
