<svg width="21" height="20" viewBox="0 0 21 20" fill="none" xmlns="http://www.w3.org/2000/svg">
<path fill-rule="evenodd" clip-rule="evenodd" d="M20.75 10C20.75 15.5228 16.2728 20 10.75 20C5.22715 20 0.75 15.5228 0.75 10C0.75 4.47715 5.22715 0 10.75 0C16.2728 0 20.75 4.47715 20.75 10ZM5.09999 10.053L7.54049 10.8482L8.88252 14.2198C8.88447 14.2253 8.88657 14.2306 8.88885 14.2357C8.94327 14.3594 9.09633 14.408 9.51058 13.9937C10.0329 13.4712 10.5394 13.0331 10.7933 12.8197C11.6322 13.3989 12.5354 14.0399 12.925 14.375C12.9902 14.4383 13.0676 14.4879 13.1524 14.5208C13.2373 14.5535 13.3278 14.5689 13.4187 14.566C13.7887 14.5521 13.8919 14.1457 13.8919 14.1457C13.8919 14.1457 15.6176 7.20174 15.6752 6.27132C15.6775 6.2361 15.68 6.20581 15.6822 6.17827C15.6858 6.13467 15.6888 6.09789 15.6893 6.05949C15.6923 5.98705 15.6852 5.91455 15.6682 5.84407C15.6595 5.80417 15.6403 5.7673 15.6128 5.73721C15.5852 5.70712 15.5501 5.6849 15.5111 5.67282C15.3534 5.61291 15.0861 5.70299 15.0861 5.70299C15.0861 5.70299 5.61799 9.10608 5.07724 9.483C4.96057 9.56392 4.92157 9.611 4.90224 9.66633C4.80832 9.93467 5.09999 10.053 5.09999 10.053ZM8.06161 10.5896L8.94139 13.1758L9.09217 11.5732L9.09683 11.5759C9.10725 11.5512 9.12492 11.5311 9.12492 11.5311C9.12492 11.5311 13.4937 7.64774 13.61 7.24008C13.619 7.20849 13.585 7.19291 13.5393 7.20674C13.2852 7.3002 9.39825 9.7465 8.06161 10.5896Z" fill="white"/>
</svg>
